<?xml version="1.0" encoding="UTF-8"?>
<!DOCTYPE svg PUBLIC "-//W3C//DTD SVG 1.1//EN" "http://www.w3.org/Graphics/SVG/1.1/DTD/svg11.dtd">
<svg xmlns="http://www.w3.org/2000/svg" version="1.1" width="512px" height="512px" style="shape-rendering:geometricPrecision; text-rendering:geometricPrecision; image-rendering:optimizeQuality; fill-rule:evenodd; clip-rule:evenodd" xmlns:xlink="http://www.w3.org/1999/xlink">
<g><path style="opacity:0.964" fill="#000000" d="M 176.5,20.5 C 229.917,20.0087 283.251,20.5087 336.5,22C 338.81,23.6374 340.31,25.804 341,28.5C 341.667,51.8333 341.667,75.1667 341,98.5C 339.895,101.937 337.728,104.437 334.5,106C 311.836,106.5 289.169,106.667 266.5,106.5C 266.333,123.837 266.5,141.17 267,158.5C 284.833,176.333 302.667,194.167 320.5,212C 353.5,212.333 386.5,212.667 419.5,213C 421.624,214.122 423.457,215.622 425,217.5C 426.476,237.074 426.976,256.741 426.5,276.5C 438.505,276.333 450.505,276.5 462.5,277C 464.624,278.122 466.457,279.622 468,281.5C 469.637,305.77 469.971,330.104 469,354.5C 467.895,357.937 465.728,360.437 462.5,362C 431.167,362.667 399.833,362.667 368.5,362C 365.272,360.437 363.105,357.937 362,354.5C 361.333,331.167 361.333,307.833 362,284.5C 363.105,281.063 365.272,278.563 368.5,277C 380.495,276.5 392.495,276.333 404.5,276.5C 404.5,262.5 404.5,248.5 404.5,234.5C 376.498,234.333 348.498,234.5 320.5,235C 302.667,252.833 284.833,270.667 267,288.5C 266.5,327.165 266.333,365.832 266.5,404.5C 280.171,404.333 293.837,404.5 307.5,405C 309.624,406.122 311.457,407.622 313,409.5C 314.647,434.079 314.98,458.746 314,483.5C 312.5,486.333 310.333,488.5 307.5,490C 272.833,490.667 238.167,490.667 203.5,490C 200.667,488.5 198.5,486.333 197,483.5C 196.02,458.746 196.353,434.079 198,409.5C 199.543,407.622 201.376,406.122 203.5,405C 217.163,404.5 230.829,404.333 244.5,404.5C 244.667,365.832 244.5,327.165 244,288.5C 226.167,270.667 208.333,252.833 190.5,235C 162.502,234.5 134.502,234.333 106.5,234.5C 106.5,248.5 106.5,262.5 106.5,276.5C 118.505,276.333 130.505,276.5 142.5,277C 144.624,278.122 146.457,279.622 148,281.5C 149.637,305.77 149.971,330.104 149,354.5C 147.895,357.937 145.728,360.437 142.5,362C 111.167,362.667 79.8333,362.667 48.5,362C 45.2716,360.437 43.1049,357.937 42,354.5C 41.3333,331.167 41.3333,307.833 42,284.5C 43.1049,281.063 45.2716,278.563 48.5,277C 60.4954,276.5 72.4954,276.333 84.5,276.5C 84.0245,256.741 84.5245,237.074 86,217.5C 87.5429,215.622 89.3762,214.122 91.5,213C 124.5,212.667 157.5,212.333 190.5,212C 208.333,194.167 226.167,176.333 244,158.5C 244.5,141.17 244.667,123.837 244.5,106.5C 221.831,106.667 199.164,106.5 176.5,106C 173.272,104.437 171.105,101.937 170,98.5C 169.333,75.1667 169.333,51.8333 170,28.5C 171.305,25.0386 173.471,22.372 176.5,20.5 Z M 191.5,42.5 C 234.167,42.5 276.833,42.5 319.5,42.5C 319.5,56.5 319.5,70.5 319.5,84.5C 276.833,84.5 234.167,84.5 191.5,84.5C 191.5,70.5 191.5,56.5 191.5,42.5 Z M 254.5,179.5 C 270.095,193.426 285.095,208.093 299.5,223.5C 285.167,238.5 270.5,253.167 255.5,267.5C 240.5,253.167 225.833,238.5 211.5,223.5C 225.855,208.813 240.188,194.146 254.5,179.5 Z M 63.5,298.5 C 84.8333,298.5 106.167,298.5 127.5,298.5C 127.5,312.5 127.5,326.5 127.5,340.5C 106.167,340.5 84.8333,340.5 63.5,340.5C 63.5,326.5 63.5,312.5 63.5,298.5 Z M 383.5,298.5 C 404.833,298.5 426.167,298.5 447.5,298.5C 447.5,312.5 447.5,326.5 447.5,340.5C 426.167,340.5 404.833,340.5 383.5,340.5C 383.5,326.5 383.5,312.5 383.5,298.5 Z M 218.5,426.5 C 243.167,426.5 267.833,426.5 292.5,426.5C 292.5,440.5 292.5,454.5 292.5,468.5C 267.833,468.5 243.167,468.5 218.5,468.5C 218.5,454.5 218.5,440.5 218.5,426.5 Z"/></g>
</svg>
