<?xml version="1.0" encoding="UTF-8"?>
<!DOCTYPE svg PUBLIC "-//W3C//DTD SVG 1.1//EN" "http://www.w3.org/Graphics/SVG/1.1/DTD/svg11.dtd">
<svg xmlns="http://www.w3.org/2000/svg" version="1.1" width="209px" height="241px" style="shape-rendering:geometricPrecision; text-rendering:geometricPrecision; image-rendering:optimizeQuality; fill-rule:evenodd; clip-rule:evenodd" xmlns:xlink="http://www.w3.org/1999/xlink">
<g><path style="opacity:1" fill="#f4f5f5" d="M -0.5,-0.5 C 69.1667,-0.5 138.833,-0.5 208.5,-0.5C 208.5,79.8333 208.5,160.167 208.5,240.5C 138.833,240.5 69.1667,240.5 -0.5,240.5C -0.5,160.167 -0.5,79.8333 -0.5,-0.5 Z"/></g>
<g><path style="opacity:1" fill="#5c6bbd" d="M 202.5,64.5 C 191.167,71.1667 179.833,77.8333 168.5,84.5C 150.96,56.5659 125.626,44.3992 92.5,48C 59.2189,55.2808 38.3855,75.4475 30,108.5C 27.0938,126.263 29.9271,142.929 38.5,158.5C 26.8843,164.803 15.551,171.47 4.5,178.5C 3.77842,178.082 3.27842,177.416 3,176.5C 2.33333,140.167 2.33333,103.833 3,67.5C 5.22151,63.6119 8.38817,60.7786 12.5,59C 40.7555,43.7341 68.7555,28.0674 96.5,12C 100.711,10.4661 105.044,10.1327 109.5,11C 138.167,27 166.833,43 195.5,59C 198.266,60.371 200.599,62.2043 202.5,64.5 Z"/></g>
<g><path style="opacity:1" fill="#fbfbfc" d="M 168.5,84.5 C 157.833,90.5 147.167,96.5 136.5,102.5C 122.07,84.2454 104.403,80.412 83.5,91C 66.6218,104.11 62.6218,120.277 71.5,139.5C 76.4791,149.518 84.4791,156.018 95.5,159C 110.34,161.609 122.84,157.442 133,146.5C 134.094,144.922 134.928,143.255 135.5,141.5C 145.603,146.386 155.603,151.552 165.5,157C 167.063,157.759 168.063,158.926 168.5,160.5C 148.501,190.987 120.501,202.487 84.5,195C 64.2425,188.896 48.9092,176.729 38.5,158.5C 29.9271,142.929 27.0938,126.263 30,108.5C 38.3855,75.4475 59.2189,55.2808 92.5,48C 125.626,44.3992 150.96,56.5659 168.5,84.5 Z"/></g>
<g><path style="opacity:1" fill="#3747a7" d="M 202.5,64.5 C 203.79,65.0577 204.623,66.0577 205,67.5C 205.831,104.002 205.664,140.336 204.5,176.5C 203.262,177.412 201.928,177.579 200.5,177C 190.252,171.293 180.085,165.46 170,159.5C 169.617,160.056 169.117,160.389 168.5,160.5C 168.063,158.926 167.063,157.759 165.5,157C 155.603,151.552 145.603,146.386 135.5,141.5C 124.663,134.914 113.663,128.581 102.5,122.5C 113.537,115.316 124.87,108.649 136.5,102.5C 147.167,96.5 157.833,90.5 168.5,84.5C 179.833,77.8333 191.167,71.1667 202.5,64.5 Z"/></g>
<g><path style="opacity:1" fill="#5c6abd" d="M 136.5,102.5 C 124.87,108.649 113.537,115.316 102.5,122.5C 92.0334,127.9 81.7001,133.567 71.5,139.5C 62.6218,120.277 66.6218,104.11 83.5,91C 104.403,80.412 122.07,84.2454 136.5,102.5 Z"/></g>
<g><path style="opacity:1" fill="#283593" d="M 102.5,122.5 C 113.663,128.581 124.663,134.914 135.5,141.5C 134.928,143.255 134.094,144.922 133,146.5C 122.84,157.442 110.34,161.609 95.5,159C 84.4791,156.018 76.4791,149.518 71.5,139.5C 81.7001,133.567 92.0334,127.9 102.5,122.5 Z"/></g>
<g><path style="opacity:1" fill="#283492" d="M 38.5,158.5 C 48.9092,176.729 64.2425,188.896 84.5,195C 120.501,202.487 148.501,190.987 168.5,160.5C 169.117,160.389 169.617,160.056 170,159.5C 180.085,165.46 190.252,171.293 200.5,177C 201.928,177.579 203.262,177.412 204.5,176.5C 204.16,178.679 203.16,180.512 201.5,182C 171.672,198.413 142.005,215.08 112.5,232C 106.833,235.333 101.167,235.333 95.5,232C 66.662,215.413 37.662,199.08 8.5,183C 6.36451,182.124 5.03118,180.624 4.5,178.5C 15.551,171.47 26.8843,164.803 38.5,158.5 Z"/></g>
</svg>
