<?xml version="1.0" encoding="UTF-8"?>
<!DOCTYPE svg PUBLIC "-//W3C//DTD SVG 1.1//EN" "http://www.w3.org/Graphics/SVG/1.1/DTD/svg11.dtd">
<svg xmlns="http://www.w3.org/2000/svg" version="1.1" width="1200px" height="1349px" style="shape-rendering:geometricPrecision; text-rendering:geometricPrecision; image-rendering:optimizeQuality; fill-rule:evenodd; clip-rule:evenodd" xmlns:xlink="http://www.w3.org/1999/xlink">
<g><path style="opacity:0.999" fill="#659ad2" d="M 583.5,-0.5 C 594.167,-0.5 604.833,-0.5 615.5,-0.5C 627.966,1.45814 639.966,5.29148 651.5,11C 820.425,108.267 989.092,205.934 1157.5,304C 1163,309.5 1168.5,315 1174,320.5C 1178.02,325.888 1181.52,331.554 1184.5,337.5C 1105,383.419 1025.33,429.086 945.5,474.5C 889.821,381.028 809.487,319.194 704.5,289C 583.492,258.262 471.492,277.929 368.5,348C 266.741,423.308 210.575,524.475 200,651.5C 195.841,731.526 213.674,806.193 253.5,875.5C 173.698,920.902 94.0311,966.569 14.5,1012.5C 7.326,1000.31 2.326,987.308 -0.5,973.5C -0.5,774.167 -0.5,574.833 -0.5,375.5C 5.80506,345.05 21.1384,320.216 45.5,301C 212.833,204.333 380.167,107.667 547.5,11C 559.029,5.2924 571.029,1.45907 583.5,-0.5 Z"/></g>
<g><path style="opacity:1" fill="#fefefe" d="M 945.5,474.5 C 888.332,508.588 830.665,541.921 772.5,574.5C 736.244,515.166 683.244,481.999 613.5,475C 529.88,472.73 466.713,507.23 424,578.5C 395.872,632.058 391.872,687.391 412,744.5C 416.046,754.924 420.879,764.924 426.5,774.5C 458.297,827.426 504.631,859.926 565.5,872C 646.485,882.237 711.985,855.404 762,791.5C 765.725,785.948 769.225,780.282 772.5,774.5C 830.448,807.803 888.115,841.47 945.5,875.5C 884.78,975.655 797.113,1039.15 682.5,1066C 556.741,1090.06 444.074,1062.39 344.5,983C 308.066,952.088 277.733,916.255 253.5,875.5C 213.674,806.193 195.841,731.526 200,651.5C 210.575,524.475 266.741,423.308 368.5,348C 471.492,277.929 583.492,258.262 704.5,289C 809.487,319.194 889.821,381.028 945.5,474.5 Z"/></g>
<g><path style="opacity:1" fill="#00599c" d="M 1184.5,337.5 C 1188.08,342.327 1190.92,347.661 1193,353.5C 1195.5,360.865 1197.67,368.198 1199.5,375.5C 1199.5,574.833 1199.5,774.167 1199.5,973.5C 1196.67,987.308 1191.67,1000.31 1184.5,1012.5C 1105.25,966.044 1025.58,920.378 945.5,875.5C 888.115,841.47 830.448,807.803 772.5,774.5C 714.885,741.53 657.552,708.197 600.5,674.5C 657.869,641.152 715.202,607.818 772.5,574.5C 830.665,541.921 888.332,508.588 945.5,474.5C 1025.33,429.086 1105,383.419 1184.5,337.5 Z"/></g>
<g><path style="opacity:1" fill="#659ad2" d="M 772.5,574.5 C 715.202,607.818 657.869,641.152 600.5,674.5C 542.5,707.833 484.5,741.167 426.5,774.5C 420.879,764.924 416.046,754.924 412,744.5C 391.872,687.391 395.872,632.058 424,578.5C 466.713,507.23 529.88,472.73 613.5,475C 683.244,481.999 736.244,515.166 772.5,574.5 Z"/></g>
<g><path style="opacity:1" fill="#fefefe" d="M 910.5,608.5 C 925.167,608.5 939.833,608.5 954.5,608.5C 954.171,623.343 954.504,638.01 955.5,652.5C 970.167,652.5 984.833,652.5 999.5,652.5C 999.5,667.167 999.5,681.833 999.5,696.5C 984.5,696.5 969.5,696.5 954.5,696.5C 954.5,711.5 954.5,726.5 954.5,741.5C 939.833,741.5 925.167,741.5 910.5,741.5C 910.5,726.5 910.5,711.5 910.5,696.5C 895.833,696.5 881.167,696.5 866.5,696.5C 866.5,681.833 866.5,667.167 866.5,652.5C 881.167,652.5 895.833,652.5 910.5,652.5C 910.5,637.833 910.5,623.167 910.5,608.5 Z"/></g>
<g><path style="opacity:1" fill="#87b0d0" d="M 910.5,608.5 C 925.324,607.504 940.324,607.171 955.5,607.5C 955.5,622.5 955.5,637.5 955.5,652.5C 954.504,638.01 954.171,623.343 954.5,608.5C 939.833,608.5 925.167,608.5 910.5,608.5 Z"/></g>
<g><path style="opacity:1" fill="#fefefe" d="M 1166.5,696.5 C 1151.5,696.5 1136.5,696.5 1121.5,696.5C 1121.5,711.5 1121.5,726.5 1121.5,741.5C 1106.83,741.5 1092.17,741.5 1077.5,741.5C 1077.5,726.5 1077.5,711.5 1077.5,696.5C 1062.5,696.5 1047.5,696.5 1032.5,696.5C 1032.5,681.833 1032.5,667.167 1032.5,652.5C 1047.5,652.5 1062.5,652.5 1077.5,652.5C 1077.5,637.833 1077.5,623.167 1077.5,608.5C 1092.17,608.5 1106.83,608.5 1121.5,608.5C 1121.5,623.167 1121.5,637.833 1121.5,652.5C 1136.5,652.5 1151.5,652.5 1166.5,652.5C 1166.5,667.167 1166.5,681.833 1166.5,696.5 Z"/></g>
<g><path style="opacity:1" fill="#004482" d="M 600.5,674.5 C 657.552,708.197 714.885,741.53 772.5,774.5C 769.225,780.282 765.725,785.948 762,791.5C 711.985,855.404 646.485,882.237 565.5,872C 504.631,859.926 458.297,827.426 426.5,774.5C 484.5,741.167 542.5,707.833 600.5,674.5 Z"/></g>
<g><path style="opacity:1" fill="#82adce" d="M 999.5,696.5 C 985.01,697.496 970.343,697.829 955.5,697.5C 955.829,712.343 955.496,727.01 954.5,741.5C 954.5,726.5 954.5,711.5 954.5,696.5C 969.5,696.5 984.5,696.5 999.5,696.5 Z"/></g>
<g><path style="opacity:1" fill="#4987b7" d="M 1032.5,696.5 C 1047.5,696.5 1062.5,696.5 1077.5,696.5C 1077.5,711.5 1077.5,726.5 1077.5,741.5C 1076.5,727.01 1076.17,712.343 1076.5,697.5C 1061.66,697.829 1046.99,697.496 1032.5,696.5 Z"/></g>
<g><path style="opacity:1" fill="#4987b7" d="M 1166.5,696.5 C 1152.01,697.496 1137.34,697.829 1122.5,697.5C 1122.83,712.343 1122.5,727.01 1121.5,741.5C 1121.5,726.5 1121.5,711.5 1121.5,696.5C 1136.5,696.5 1151.5,696.5 1166.5,696.5 Z"/></g>
<g><path style="opacity:0.998" fill="#004482" d="M 253.5,875.5 C 277.733,916.255 308.066,952.088 344.5,983C 444.074,1062.39 556.741,1090.06 682.5,1066C 797.113,1039.15 884.78,975.655 945.5,875.5C 1025.58,920.378 1105.25,966.044 1184.5,1012.5C 1174.71,1030.79 1160.71,1044.95 1142.5,1055C 980.67,1148.08 819.003,1241.41 657.5,1335C 646.816,1341.39 635.483,1345.89 623.5,1348.5C 607.5,1348.5 591.5,1348.5 575.5,1348.5C 563.517,1345.89 552.184,1341.39 541.5,1335C 375.003,1238.92 208.67,1142.59 42.5,1046C 31.1322,1036.47 21.7989,1025.3 14.5,1012.5C 94.0311,966.569 173.698,920.902 253.5,875.5 Z"/></g>
</svg>
