<?xml version="1.0" encoding="UTF-8"?>
<!DOCTYPE svg PUBLIC "-//W3C//DTD SVG 1.1//EN" "http://www.w3.org/Graphics/SVG/1.1/DTD/svg11.dtd">
<svg xmlns="http://www.w3.org/2000/svg" version="1.1" width="225px" height="225px" style="shape-rendering:geometricPrecision; text-rendering:geometricPrecision; image-rendering:optimizeQuality; fill-rule:evenodd; clip-rule:evenodd" xmlns:xlink="http://www.w3.org/1999/xlink">
<g><path style="opacity:1" fill="#fefdfe" d="M -0.5,-0.5 C 74.5,-0.5 149.5,-0.5 224.5,-0.5C 224.5,74.5 224.5,149.5 224.5,224.5C 149.5,224.5 74.5,224.5 -0.5,224.5C -0.5,149.5 -0.5,74.5 -0.5,-0.5 Z"/></g>
<g><path style="opacity:1" fill="#9b4e96" d="M 206.5,59.5 C 205.883,59.3893 205.383,59.056 205,58.5C 193.522,64.8152 182.355,71.4818 171.5,78.5C 165.369,64.8972 155.369,55.0639 141.5,49C 107.789,35.9108 79.2891,43.0775 56,70.5C 39.7896,95.2429 38.2896,120.91 51.5,147.5C 40.6358,154.098 29.6358,160.431 18.5,166.5C 17.3406,130.905 17.1739,95.238 18,59.5C 18.6667,58.1667 19.3333,56.8333 20,55.5C 49.1667,38.3333 78.3333,21.1667 107.5,4C 113.393,2.93801 118.726,4.27134 123.5,8C 150.667,23.8333 177.833,39.6667 205,55.5C 205.791,56.745 206.291,58.0783 206.5,59.5 Z"/></g>
<g><path style="opacity:1" fill="#fdfcfd" d="M 171.5,78.5 C 164.337,82.2471 157.337,86.2471 150.5,90.5C 146.78,86.2758 142.78,82.1092 138.5,78C 123.562,68.2693 107.896,66.936 91.5,74C 68.6986,89.2257 63.3653,109.059 75.5,133.5C 83.6669,147.634 96.0002,154.634 112.5,154.5C 128.531,153.985 140.864,146.985 149.5,133.5C 157.364,137.259 164.697,141.759 171.5,147C 155.951,172.108 133.285,183.441 103.5,181C 81.0157,177.605 63.6824,166.438 51.5,147.5C 38.2896,120.91 39.7896,95.2429 56,70.5C 79.2891,43.0775 107.789,35.9108 141.5,49C 155.369,55.0639 165.369,64.8972 171.5,78.5 Z"/></g>
<g><path style="opacity:1" fill="#68207a" d="M 206.5,59.5 C 206.667,94.5016 206.5,129.502 206,164.5C 205.333,165.833 204.667,167.167 204,168.5C 174.663,186.498 144.829,203.665 114.5,220C 112.167,220.667 109.833,220.667 107.5,220C 79.33,203.414 50.9967,187.081 22.5,171C 20.9586,169.629 19.6253,168.129 18.5,166.5C 29.6358,160.431 40.6358,154.098 51.5,147.5C 63.6824,166.438 81.0157,177.605 103.5,181C 133.285,183.441 155.951,172.108 171.5,147C 164.697,141.759 157.364,137.259 149.5,133.5C 140.864,146.985 128.531,153.985 112.5,154.5C 96.0002,154.634 83.6669,147.634 75.5,133.5C 100.404,118.885 125.404,104.551 150.5,90.5C 157.337,86.2471 164.337,82.2471 171.5,78.5C 182.355,71.4818 193.522,64.8152 205,58.5C 205.383,59.056 205.883,59.3893 206.5,59.5 Z"/></g>
<g><path style="opacity:1" fill="#9a4e95" d="M 150.5,90.5 C 125.404,104.551 100.404,118.885 75.5,133.5C 63.3653,109.059 68.6986,89.2257 91.5,74C 107.896,66.936 123.562,68.2693 138.5,78C 142.78,82.1092 146.78,86.2758 150.5,90.5 Z"/></g>
<g><path style="opacity:1" fill="#9e7da8" d="M 175.5,89.5 C 178.355,88.1968 181.355,88.1968 184.5,89.5C 184.376,90.1067 184.043,90.44 183.5,90.5C 181.052,89.5269 178.385,89.1936 175.5,89.5 Z"/></g>
<g><path style="opacity:1" fill="#a181ab" d="M 190.5,89.5 C 193.355,88.1968 196.355,88.1968 199.5,89.5C 199.376,90.1067 199.043,90.44 198.5,90.5C 196.052,89.5269 193.385,89.1936 190.5,89.5 Z"/></g>
<g><path style="opacity:1" fill="#f9f6f9" d="M 175.5,89.5 C 178.385,89.1936 181.052,89.5269 183.5,90.5C 182.841,93.4552 182.508,96.4552 182.5,99.5C 184.5,99.5 186.5,99.5 188.5,99.5C 188.788,96.0611 189.454,92.7278 190.5,89.5C 193.385,89.1936 196.052,89.5269 198.5,90.5C 198.037,93.4824 197.704,96.4824 197.5,99.5C 198.833,99.5 200.167,99.5 201.5,99.5C 201.5,102.5 201.5,105.5 201.5,108.5C 197.167,107.685 194.834,109.352 194.5,113.5C 193.596,114.209 193.263,115.209 193.5,116.5C 195.833,116.5 198.167,116.5 200.5,116.5C 200.5,118.833 200.5,121.167 200.5,123.5C 197.615,123.194 194.948,123.527 192.5,124.5C 191.419,127.627 190.753,130.96 190.5,134.5C 187.5,134.5 184.5,134.5 181.5,134.5C 181.901,131.252 182.568,128.085 183.5,125C 181.19,124.503 178.857,124.337 176.5,124.5C 175.949,127.807 175.616,131.14 175.5,134.5C 172.5,134.5 169.5,134.5 166.5,134.5C 167.051,131.193 167.384,127.86 167.5,124.5C 166.5,124.5 165.5,124.5 164.5,124.5C 164.5,121.5 164.5,118.5 164.5,115.5C 166.5,115.5 168.5,115.5 170.5,115.5C 170.244,113.208 170.577,111.041 171.5,109C 169.19,108.503 166.857,108.337 164.5,108.5C 164.5,105.5 164.5,102.5 164.5,99.5C 167.5,99.5 170.5,99.5 173.5,99.5C 173.549,95.9219 174.215,92.5885 175.5,89.5 Z"/></g>
<g><path style="opacity:1" fill="#661d78" d="M 179.5,108.5 C 181.857,108.337 184.19,108.503 186.5,109C 185.577,111.041 185.244,113.208 185.5,115.5C 183.143,115.663 180.81,115.497 178.5,115C 179.423,112.959 179.756,110.792 179.5,108.5 Z"/></g>
<g><path style="opacity:1" fill="#c9b4ce" d="M 194.5,113.5 C 196.279,115.344 198.612,116.01 201.5,115.5C 201.5,118.5 201.5,121.5 201.5,124.5C 198.5,124.5 195.5,124.5 192.5,124.5C 194.948,123.527 197.615,123.194 200.5,123.5C 200.5,121.167 200.5,118.833 200.5,116.5C 198.167,116.5 195.833,116.5 193.5,116.5C 193.263,115.209 193.596,114.209 194.5,113.5 Z"/></g>
</svg>
