<?xml version="1.0" encoding="UTF-8"?>
<!DOCTYPE svg PUBLIC "-//W3C//DTD SVG 1.1//EN" "http://www.w3.org/Graphics/SVG/1.1/DTD/svg11.dtd">
<svg xmlns="http://www.w3.org/2000/svg" version="1.1" width="225px" height="225px" style="shape-rendering:geometricPrecision; text-rendering:geometricPrecision; image-rendering:optimizeQuality; fill-rule:evenodd; clip-rule:evenodd" xmlns:xlink="http://www.w3.org/1999/xlink">
<g><path style="opacity:1" fill="#fefefe" d="M -0.5,-0.5 C 74.5,-0.5 149.5,-0.5 224.5,-0.5C 224.5,74.5 224.5,149.5 224.5,224.5C 149.5,224.5 74.5,224.5 -0.5,224.5C -0.5,149.5 -0.5,74.5 -0.5,-0.5 Z"/></g>
<g><path style="opacity:1" fill="#114c95" d="M 90.5,10.5 C 115.195,8.89076 139.529,11.0574 163.5,17C 174.929,20.2955 185.095,25.7955 194,33.5C 196.062,35.9007 197.729,38.5674 199,41.5C 200.651,87.4411 200.985,133.441 200,179.5C 198.384,184.779 195.551,189.279 191.5,193C 175.613,204.063 157.946,210.396 138.5,212C 108.02,216.437 78.3531,213.437 49.5,203C 39.5576,199.378 31.7243,193.211 26,184.5C 25.5291,182.754 24.8624,181.087 24,179.5C 23.8333,157 23.6667,134.5 23.5,112C 23.3479,88.439 23.8479,64.939 25,41.5C 31.0748,31.1067 39.9082,23.94 51.5,20C 64.3187,15.5399 77.3187,12.3732 90.5,10.5 Z"/></g>
<g><path style="opacity:1" fill="#fdfdfe" d="M 93.5,17.5 C 119.477,15.8118 144.811,18.9785 169.5,27C 199.371,40.0096 200.038,54.0096 171.5,69C 133.715,82.1526 95.715,82.8193 57.5,71C 47.6692,67.813 39.5025,62.313 33,54.5C 30.5869,49.0599 31.2536,44.0599 35,39.5C 42.1266,33.0158 50.2933,28.1825 59.5,25C 70.7861,21.6455 82.1194,19.1455 93.5,17.5 Z"/></g>
<g><path style="opacity:1" fill="#fbfcfd" d="M 31.5,64.5 C 47.0982,76.2847 64.7649,83.118 84.5,85C 110.823,88.1767 136.823,86.51 162.5,80C 173.708,77.314 183.541,72.1474 192,64.5C 196.013,78.4924 191.847,88.9924 179.5,96C 150.472,109.054 120.139,113.387 88.5,109C 69.8114,107.55 52.8114,101.55 37.5,91C 35.0314,88.5589 33.198,85.7256 32,82.5C 31.5005,76.5092 31.3338,70.5092 31.5,64.5 Z"/></g>
<g><path style="opacity:1" fill="#fbfcfd" d="M 31.5,95.5 C 42.0505,104.086 54.0505,109.919 67.5,113C 99.3057,119.47 130.972,118.803 162.5,111C 173.708,108.314 183.541,103.147 192,95.5C 196.248,110.82 191.415,121.986 177.5,129C 135.441,146.169 93.1078,146.836 50.5,131C 42.4446,127.611 36.278,122.111 32,114.5C 31.5005,108.175 31.3338,101.842 31.5,95.5 Z"/></g>
<g><path style="opacity:1" fill="#fbfcfd" d="M 31.5,127.5 C 41.3574,135.095 52.3574,140.595 64.5,144C 101.346,152.561 137.68,150.895 173.5,139C 180.422,136.294 186.589,132.46 192,127.5C 192.667,133.833 192.667,140.167 192,146.5C 189.973,151.864 186.473,156.031 181.5,159C 164.539,167.66 146.539,172.66 127.5,174C 102.499,176.201 78.1659,173.201 54.5,165C 48.8428,162.507 43.5095,159.507 38.5,156C 35.4565,153.407 33.2899,150.24 32,146.5C 31.5005,140.175 31.3338,133.842 31.5,127.5 Z"/></g>
<g><path style="opacity:1" fill="#fbfcfd" d="M 31.5,160.5 C 49.2023,172.569 68.869,179.403 90.5,181C 119.286,183.856 147.286,180.522 174.5,171C 180.837,168.503 186.503,165.003 191.5,160.5C 195.601,173.34 192.268,183.506 181.5,191C 164.563,199.735 146.563,204.735 127.5,206C 97.642,209.302 69.3087,204.302 42.5,191C 38.6667,188.5 35.5,185.333 33,181.5C 31.6156,174.589 31.1156,167.589 31.5,160.5 Z"/></g>
</svg>
