<?xml version="1.0" encoding="UTF-8"?>
<!DOCTYPE svg PUBLIC "-//W3C//DTD SVG 1.1//EN" "http://www.w3.org/Graphics/SVG/1.1/DTD/svg11.dtd">
<svg xmlns="http://www.w3.org/2000/svg" version="1.1" width="239px" height="211px" style="shape-rendering:geometricPrecision; text-rendering:geometricPrecision; image-rendering:optimizeQuality; fill-rule:evenodd; clip-rule:evenodd" xmlns:xlink="http://www.w3.org/1999/xlink">
<g><path style="opacity:1" fill="#fefefe" d="M -0.5,-0.5 C 79.1667,-0.5 158.833,-0.5 238.5,-0.5C 238.5,69.8333 238.5,140.167 238.5,210.5C 158.833,210.5 79.1667,210.5 -0.5,210.5C -0.5,140.167 -0.5,69.8333 -0.5,-0.5 Z"/></g>
<g><path style="opacity:1" fill="#11acd7" d="M 108.5,72.5 C 125.081,70.5563 137.081,76.8896 144.5,91.5C 138.848,93.7056 133.015,95.3723 127,96.5C 116.129,87.7441 106.129,88.7441 97,99.5C 90.8837,110.878 93.3837,119.711 104.5,126C 113.134,127.35 119.8,124.35 124.5,117C 117.919,116.813 111.419,116.313 105,115.5C 106.177,110.641 108.344,106.141 111.5,102C 121.833,101.667 132.167,101.333 142.5,101C 152.812,79.3435 169.812,70.6769 193.5,75C 210.774,81.6264 217.941,94.1264 215,112.5C 207.2,134.946 191.367,145.446 167.5,144C 155.36,141.197 146.86,134.03 142,122.5C 130.533,140.82 114.367,147.32 93.5,142C 77.5581,133.948 71.3915,121.114 75,103.5C 80.9228,87.4075 92.0894,77.0742 108.5,72.5 Z"/></g>
<g><path style="opacity:1" fill="#fdfefe" d="M 177.5,90.5 C 194.345,91.8428 199.845,100.509 194,116.5C 187.081,126.23 178.247,128.73 167.5,124C 158.021,114.111 158.354,104.444 168.5,95C 171.324,92.9212 174.324,91.4212 177.5,90.5 Z"/></g>
<g><path style="opacity:1" fill="#39b1d9" d="M 39.5,90.5 C 50.8529,90.1678 62.1862,90.5012 73.5,91.5C 73.1667,92.1667 72.8333,92.8333 72.5,93.5C 60.5139,94.6659 48.5139,94.8326 36.5,94C 37.7101,92.9609 38.7101,91.7942 39.5,90.5 Z"/></g>
<g><path style="opacity:1" fill="#09a8d5" d="M 68.5,102.5 C 53.324,102.829 38.324,102.496 23.5,101.5C 23.6107,100.883 23.944,100.383 24.5,100C 39.1629,99.5001 53.8295,99.3334 68.5,99.5C 68.5,100.5 68.5,101.5 68.5,102.5 Z"/></g>
<g><path style="opacity:1" fill="#b6e2f0" d="M 23.5,101.5 C 38.324,102.496 53.324,102.829 68.5,102.5C 53.3282,103.826 37.9948,103.826 22.5,102.5C 22.6236,101.893 22.9569,101.56 23.5,101.5 Z"/></g>
<g><path style="opacity:1" fill="#15abd6" d="M 46.5,108.5 C 53.5,108.5 60.5,108.5 67.5,108.5C 67.5,109.5 67.5,110.5 67.5,111.5C 60.1591,111.666 52.8258,111.5 45.5,111C 46.2524,110.329 46.5858,109.496 46.5,108.5 Z"/></g>
</svg>
