<?xml version="1.0" encoding="UTF-8"?>
<!DOCTYPE svg PUBLIC "-//W3C//DTD SVG 1.1//EN" "http://www.w3.org/Graphics/SVG/1.1/DTD/svg11.dtd">
<svg xmlns="http://www.w3.org/2000/svg" version="1.1" width="800px" height="800px" style="shape-rendering:geometricPrecision; text-rendering:geometricPrecision; image-rendering:optimizeQuality; fill-rule:evenodd; clip-rule:evenodd" xmlns:xlink="http://www.w3.org/1999/xlink">
<g><path style="opacity:0.977" fill="#000000" d="M 168.5,-0.5 C 180.833,-0.5 193.167,-0.5 205.5,-0.5C 205.5,11.1667 205.5,22.8333 205.5,34.5C 216.167,34.5 226.833,34.5 237.5,34.5C 237.5,22.8333 237.5,11.1667 237.5,-0.5C 249.833,-0.5 262.167,-0.5 274.5,-0.5C 274.5,35.5 274.5,71.5 274.5,107.5C 262.167,107.5 249.833,107.5 237.5,107.5C 237.5,95.5 237.5,83.5 237.5,71.5C 226.833,71.5 216.167,71.5 205.5,71.5C 205.5,83.5 205.5,95.5 205.5,107.5C 193.167,107.5 180.833,107.5 168.5,107.5C 168.5,71.5 168.5,35.5 168.5,-0.5 Z"/></g>
<g><path style="opacity:0.983" fill="#000000" d="M 289.5,-0.5 C 322.833,-0.5 356.167,-0.5 389.5,-0.5C 389.5,11.5 389.5,23.5 389.5,35.5C 378.833,35.5 368.167,35.5 357.5,35.5C 357.5,59.5 357.5,83.5 357.5,107.5C 345.167,107.5 332.833,107.5 320.5,107.5C 320.5,83.5 320.5,59.5 320.5,35.5C 310.167,35.5 299.833,35.5 289.5,35.5C 289.5,23.5 289.5,11.5 289.5,-0.5 Z"/></g>
<g><path style="opacity:0.972" fill="#000000" d="M 404.5,-0.5 C 417.5,-0.5 430.5,-0.5 443.5,-0.5C 450.739,11.6401 458.239,23.6401 466,35.5C 473.441,23.6101 480.608,11.6101 487.5,-0.5C 500.833,-0.5 514.167,-0.5 527.5,-0.5C 527.5,35.5 527.5,71.5 527.5,107.5C 515.167,107.5 502.833,107.5 490.5,107.5C 490.667,90.1635 490.5,72.8301 490,55.5C 482.164,68.5091 473.83,81.1758 465,93.5C 457.249,80.9963 449.249,68.6629 441,56.5C 440.5,73.4967 440.333,90.4967 440.5,107.5C 428.5,107.5 416.5,107.5 404.5,107.5C 404.5,71.5 404.5,35.5 404.5,-0.5 Z"/></g>
<g><path style="opacity:0.975" fill="#000000" d="M 543.5,-0.5 C 555.833,-0.5 568.167,-0.5 580.5,-0.5C 580.5,23.5 580.5,47.5 580.5,71.5C 597.5,71.5 614.5,71.5 631.5,71.5C 631.5,83.5 631.5,95.5 631.5,107.5C 602.167,107.5 572.833,107.5 543.5,107.5C 543.5,71.5 543.5,35.5 543.5,-0.5 Z"/></g>
<g><path style="opacity:0.996" fill="#e44d26" d="M 402.5,799.5 C 400.167,799.5 397.833,799.5 395.5,799.5C 322.032,778.739 248.366,758.239 174.5,738C 171.607,737.499 169.107,736.333 167,734.5C 149.863,541.822 132.696,349.156 115.5,156.5C 304.833,156.5 494.167,156.5 683.5,156.5C 666.304,349.156 649.137,541.822 632,734.5C 627.111,736.909 621.944,738.742 616.5,740C 544.961,759.548 473.627,779.382 402.5,799.5 Z"/></g>
<g><path style="opacity:1" fill="#f16529" d="M 398.5,676.5 C 398.833,676.5 399.167,676.5 399.5,676.5C 447.758,663.018 496.091,649.685 544.5,636.5C 550.833,563.833 557.167,491.166 563.5,418.5C 508.833,418.5 454.167,418.5 399.5,418.5C 399.5,394.5 399.5,370.5 399.5,346.5C 366.167,346.5 332.833,346.5 299.5,346.5C 332.662,345.502 365.996,345.168 399.5,345.5C 456.5,345.5 513.5,345.5 570.5,345.5C 572.32,322.817 574.32,300.15 576.5,277.5C 577.404,276.791 577.737,275.791 577.5,274.5C 518.167,274.5 458.833,274.5 399.5,274.5C 399.5,251.167 399.5,227.833 399.5,204.5C 476.5,204.5 553.5,204.5 630.5,204.5C 616.275,368.808 601.775,533.141 587,697.5C 524.702,715.533 462.202,732.866 399.5,749.5C 399.823,725.092 399.49,700.759 398.5,676.5 Z"/></g>
<g><path style="opacity:1" fill="#f2af96" d="M 221.5,275.5 C 280.664,274.501 339.998,274.168 399.5,274.5C 458.833,274.5 518.167,274.5 577.5,274.5C 577.737,275.791 577.404,276.791 576.5,277.5C 517.843,275.504 458.843,274.837 399.5,275.5C 340.167,275.5 280.833,275.5 221.5,275.5 Z"/></g>
<g><path style="opacity:1" fill="#ebeaea" d="M 221.5,275.5 C 280.833,275.5 340.167,275.5 399.5,275.5C 399.5,298.833 399.5,322.167 399.5,345.5C 365.996,345.168 332.662,345.502 299.5,346.5C 301.56,370.497 303.56,394.497 305.5,418.5C 336.833,418.5 368.167,418.5 399.5,418.5C 399.5,442.167 399.5,465.833 399.5,489.5C 346.5,489.5 293.5,489.5 240.5,489.5C 234.331,418.152 227.998,346.819 221.5,275.5 Z"/></g>
<g><path style="opacity:1" fill="#fffefe" d="M 399.5,275.5 C 458.843,274.837 517.843,275.504 576.5,277.5C 574.32,300.15 572.32,322.817 570.5,345.5C 513.5,345.5 456.5,345.5 399.5,345.5C 399.5,322.167 399.5,298.833 399.5,275.5 Z"/></g>
<g><path style="opacity:1" fill="#e44d26" d="M 299.5,346.5 C 332.833,346.5 366.167,346.5 399.5,346.5C 399.5,370.5 399.5,394.5 399.5,418.5C 368.167,418.5 336.833,418.5 305.5,418.5C 303.56,394.497 301.56,370.497 299.5,346.5 Z"/></g>
<g><path style="opacity:1" fill="#fffefe" d="M 399.5,418.5 C 454.167,418.5 508.833,418.5 563.5,418.5C 557.167,491.166 550.833,563.833 544.5,636.5C 496.091,649.685 447.758,663.018 399.5,676.5C 399.177,651.759 399.51,627.092 400.5,602.5C 426.186,595.661 451.852,588.661 477.5,581.5C 480.762,550.875 483.762,520.209 486.5,489.5C 457.5,489.5 428.5,489.5 399.5,489.5C 399.5,465.833 399.5,442.167 399.5,418.5 Z"/></g>
<g><path style="opacity:1" fill="#f16529" d="M 399.5,489.5 C 428.5,489.5 457.5,489.5 486.5,489.5C 483.762,520.209 480.762,550.875 477.5,581.5C 451.852,588.661 426.186,595.661 400.5,602.5C 400.167,602.5 399.833,602.5 399.5,602.5C 399.5,564.833 399.5,527.167 399.5,489.5 Z"/></g>
<g><path style="opacity:1" fill="#e79f8d" d="M 315.5,525.5 C 291.476,524.843 267.81,525.51 244.5,527.5C 243.596,526.791 243.263,525.791 243.5,524.5C 267.672,524.169 291.672,524.502 315.5,525.5 Z"/></g>
<g><path style="opacity:1" fill="#ebeaea" d="M 315.5,525.5 C 317.201,544.377 318.868,563.21 320.5,582C 346.855,588.902 373.189,595.736 399.5,602.5C 399.833,602.5 400.167,602.5 400.5,602.5C 399.51,627.092 399.177,651.759 399.5,676.5C 399.167,676.5 398.833,676.5 398.5,676.5C 350.472,663.294 302.472,649.961 254.5,636.5C 250.581,600.224 247.247,563.891 244.5,527.5C 267.81,525.51 291.476,524.843 315.5,525.5 Z"/></g>
</svg>
