<?xml version="1.0" encoding="UTF-8"?>
<!DOCTYPE svg PUBLIC "-//W3C//DTD SVG 1.1//EN" "http://www.w3.org/Graphics/SVG/1.1/DTD/svg11.dtd">
<svg xmlns="http://www.w3.org/2000/svg" version="1.1" width="225px" height="225px" style="shape-rendering:geometricPrecision; text-rendering:geometricPrecision; image-rendering:optimizeQuality; fill-rule:evenodd; clip-rule:evenodd" xmlns:xlink="http://www.w3.org/1999/xlink">
<g><path style="opacity:1" fill="#fefefe" d="M -0.5,-0.5 C 74.5,-0.5 149.5,-0.5 224.5,-0.5C 224.5,74.5 224.5,149.5 224.5,224.5C 149.5,224.5 74.5,224.5 -0.5,224.5C -0.5,149.5 -0.5,74.5 -0.5,-0.5 Z"/></g>
<g><path style="opacity:1" fill="#ea312d" d="M 123.5,29.5 C 127.266,35.3935 127.099,41.3935 123,47.5C 117.667,54.1667 111.667,60.1667 105,65.5C 102.755,68.8809 102.088,72.5475 103,76.5C 105.196,80.6117 107.196,84.6117 109,88.5C 105.297,85.1325 101.964,81.4658 99,77.5C 96.4442,71.4373 97.2776,65.9373 101.5,61C 107.625,56.5438 113.458,51.7105 119,46.5C 122.97,41.5325 124.47,35.8659 123.5,29.5 Z"/></g>
<g><path style="opacity:1" fill="#ea302d" d="M 131.5,53.5 C 132.552,53.3505 133.552,53.5172 134.5,54C 128.441,57.0589 123.274,61.2256 119,66.5C 118.377,71.9333 120.044,76.5999 124,80.5C 125.554,86.9028 123.387,91.0695 117.5,93C 118.573,91.6871 119.24,90.1871 119.5,88.5C 117.605,84.3773 115.438,80.3773 113,76.5C 111.123,69.4196 113.289,63.9196 119.5,60C 123.434,57.5361 127.434,55.3694 131.5,53.5 Z"/></g>
<g><path style="opacity:1" fill="#2a78bf" d="M 140.5,90.5 C 152.894,90.1458 156.227,95.3124 150.5,106C 146.431,109.573 141.764,111.573 136.5,112C 143.064,109.603 147.398,105.103 149.5,98.5C 149.152,96.3033 148.152,94.47 146.5,93C 143.833,92.6667 141.167,92.3333 138.5,92C 139.416,91.7216 140.082,91.2216 140.5,90.5 Z"/></g>
<g><path style="opacity:1" fill="#2f7ac0" d="M 88.5,92.5 C 94.9479,92.4351 94.9479,93.2685 88.5,95C 87.1667,96 87.1667,97 88.5,98C 103.552,98.63 118.552,98.2967 133.5,97C 128.478,99.5625 123.145,100.896 117.5,101C 104.73,102.013 92.0633,101.513 79.5,99.5C 79.33,98.1779 79.6634,97.0113 80.5,96C 83.3093,94.9066 85.976,93.7399 88.5,92.5 Z"/></g>
<g><path style="opacity:1" fill="#1d75bd" d="M 90.5,105.5 C 92.0541,106.693 93.7208,107.86 95.5,109C 105.92,109.845 116.253,109.345 126.5,107.5C 128.002,108.083 129.335,108.916 130.5,110C 126.389,111.891 122.056,112.891 117.5,113C 110.167,113.667 102.833,113.667 95.5,113C 93.2381,112.358 91.0715,111.525 89,110.5C 88.3872,108.505 88.8872,106.838 90.5,105.5 Z"/></g>
<g><path style="opacity:1" fill="#1a75be" d="M 94.5,117.5 C 95.2674,118.172 95.9341,119.005 96.5,120C 105.39,122.143 114.223,121.976 123,119.5C 125.058,120.112 126.891,121.112 128.5,122.5C 119.504,126.068 110.171,127.235 100.5,126C 97.4883,125.22 94.6549,124.053 92,122.5C 91.2938,120.045 92.1271,118.378 94.5,117.5 Z"/></g>
<g><path style="opacity:1" fill="#1f74bd" d="M 79.5,125.5 C 82.1873,125.336 84.854,125.503 87.5,126C 83.9021,126.154 80.5687,127.154 77.5,129C 76.1667,129.667 76.1667,130.333 77.5,131C 81.6495,132.737 85.9828,133.737 90.5,134C 102.167,134.667 113.833,134.667 125.5,134C 134.142,133.486 141.809,131.819 148.5,129C 142.259,133.303 135.259,135.636 127.5,136C 108.719,138.406 90.0518,137.739 71.5,134C 70.8333,133.333 70.1667,132.667 69.5,132C 72.4207,129.05 75.7541,126.883 79.5,125.5 Z"/></g>
<g><path style="opacity:1" fill="#2c75be" d="M 151.5,133.5 C 152.239,133.369 152.906,133.536 153.5,134C 152.122,135.713 150.455,137.047 148.5,138C 142.617,139.843 136.617,141.177 130.5,142C 116.444,142.928 102.444,142.595 88.5,141C 109.529,142.604 130.195,140.604 150.5,135C 151.056,134.617 151.389,134.117 151.5,133.5 Z"/></g>
<g><path style="opacity:1" fill="#eb3833" d="M 72.5,150.5 C 74.5,150.5 76.5,150.5 78.5,150.5C 78.6665,162.171 78.4999,173.838 78,185.5C 77.3741,190.097 74.8741,193.097 70.5,194.5C 69.09,194.132 68.09,193.299 67.5,192C 69.6667,191.167 71.1667,189.667 72,187.5C 72.4999,175.171 72.6665,162.838 72.5,150.5 Z"/></g>
<g><path style="opacity:1" fill="#ea302d" d="M 87.5,159.5 C 91.1817,159.335 94.8484,159.501 98.5,160C 99.9308,160.465 101.097,161.299 102,162.5C 102.5,170.159 102.666,177.826 102.5,185.5C 100.549,185.773 99.049,185.107 98,183.5C 92.1625,188.024 87.1625,187.358 83,181.5C 81.7794,176.03 83.9461,172.53 89.5,171C 92.146,170.503 94.8127,170.336 97.5,170.5C 97.7564,168.208 97.4231,166.041 96.5,164C 92.577,163.207 88.7436,163.374 85,164.5C 84.51,163.207 84.3433,161.873 84.5,160.5C 85.791,160.737 86.791,160.404 87.5,159.5 Z"/></g>
<g><path style="opacity:1" fill="#ea2e2b" d="M 136.5,159.5 C 141.206,159.085 145.706,159.752 150,161.5C 151.435,169.389 151.935,177.389 151.5,185.5C 149.508,185.672 147.842,185.005 146.5,183.5C 143.29,186.222 139.624,187.056 135.5,186C 130.188,181.428 130.188,176.761 135.5,172C 139.026,170.663 142.692,170.163 146.5,170.5C 146.896,167.956 146.229,165.789 144.5,164C 140.467,163.65 136.633,163.483 133,163.5C 132.333,162.833 132.333,162.167 133,161.5C 134.302,160.915 135.469,160.249 136.5,159.5 Z"/></g>
<g><path style="opacity:1" fill="#ea2e2c" d="M 106.5,159.5 C 108.5,159.5 110.5,159.5 112.5,159.5C 114.326,166.136 116.16,172.803 118,179.5C 120.94,173.174 122.774,166.507 123.5,159.5C 125.167,159.5 126.833,159.5 128.5,159.5C 127.257,167.732 125.09,175.732 122,183.5C 119.624,185.744 116.957,186.077 114,184.5C 111.392,176.179 108.892,167.846 106.5,159.5 Z"/></g>
<g><path style="opacity:1" fill="#fef5f5" d="M 90.5,173.5 C 92.8333,173.5 95.1667,173.5 97.5,173.5C 99.0566,180.442 96.39,183.275 89.5,182C 86.8146,178.883 87.148,176.05 90.5,173.5 Z"/></g>
<g><path style="opacity:1" fill="#fef4f3" d="M 139.5,173.5 C 141.833,173.5 144.167,173.5 146.5,173.5C 148.057,180.442 145.39,183.275 138.5,182C 135.665,178.695 135.999,175.862 139.5,173.5 Z"/></g>
</svg>
