<?xml version="1.0" encoding="UTF-8"?>
<!DOCTYPE svg PUBLIC "-//W3C//DTD SVG 1.1//EN" "http://www.w3.org/Graphics/SVG/1.1/DTD/svg11.dtd">
<svg xmlns="http://www.w3.org/2000/svg" version="1.1" width="225px" height="225px" style="shape-rendering:geometricPrecision; text-rendering:geometricPrecision; image-rendering:optimizeQuality; fill-rule:evenodd; clip-rule:evenodd" xmlns:xlink="http://www.w3.org/1999/xlink">
<g><path style="opacity:1" fill="#fffefd" d="M -0.5,-0.5 C 74.5,-0.5 149.5,-0.5 224.5,-0.5C 224.5,74.5 224.5,149.5 224.5,224.5C 149.5,224.5 74.5,224.5 -0.5,224.5C -0.5,149.5 -0.5,74.5 -0.5,-0.5 Z"/></g>
<g><path style="opacity:1" fill="#f9de1c" d="M 99.5,0.5 C 148.132,-2.10541 184.966,17.2279 210,58.5C 227.852,94.1296 227.852,129.796 210,165.5C 184.729,207.222 147.563,226.388 98.5,223C 53.0673,215.048 22.2339,189.548 6,146.5C -6.98211,99.7926 4.18456,59.9592 39.5,27C 57.0989,12.6373 77.0989,3.80394 99.5,0.5 Z"/></g>
<g><path style="opacity:1" fill="#82752b" d="M 98.5,61.5 C 92.5,61.5 86.5,61.5 80.5,61.5C 80.8309,85.6725 80.4976,109.672 79.5,133.5C 79.5,109.167 79.5,84.8333 79.5,60.5C 86.0221,60.1765 92.3554,60.5098 98.5,61.5 Z"/></g>
<g><path style="opacity:1" fill="#383432" d="M 134.5,61.5 C 144.766,60.6778 154.766,61.8444 164.5,65C 166.223,65.5232 167.556,66.5232 168.5,68C 166.864,73.2424 165.03,78.4091 163,83.5C 155.28,78.3551 146.78,76.5218 137.5,78C 126.733,83.6004 125.733,90.6004 134.5,99C 141.348,102.59 148.348,105.923 155.5,109C 170.613,118.418 175.113,131.585 169,148.5C 164.857,156.644 158.357,161.811 149.5,164C 135.972,168.014 122.972,166.68 110.5,160C 109.196,159.196 108.529,158.029 108.5,156.5C 109.845,151.454 111.345,146.454 113,141.5C 123.596,149.362 135.096,151.195 147.5,147C 153.537,142.451 155.037,136.618 152,129.5C 149.795,126.96 147.295,124.793 144.5,123C 136.438,120.135 128.771,116.469 121.5,112C 109.25,100.667 107.416,87.8341 116,73.5C 121.037,67.6056 127.204,63.6056 134.5,61.5 Z"/></g>
<g><path style="opacity:1" fill="#373332" d="M 98.5,61.5 C 98.6666,87.1688 98.5,112.835 98,138.5C 96.6954,151.12 90.1954,159.62 78.5,164C 70.8984,165.523 63.2318,165.856 55.5,165C 52.578,164.583 49.9113,163.583 47.5,162C 49.0197,156.909 50.353,151.743 51.5,146.5C 59.0902,150.259 66.7569,150.426 74.5,147C 77.9994,143.17 79.666,138.67 79.5,133.5C 80.4976,109.672 80.8309,85.6725 80.5,61.5C 86.5,61.5 92.5,61.5 98.5,61.5 Z"/></g>
</svg>
