<?xml version="1.0" encoding="UTF-8"?>
<!DOCTYPE svg PUBLIC "-//W3C//DTD SVG 1.1//EN" "http://www.w3.org/Graphics/SVG/1.1/DTD/svg11.dtd">
<svg xmlns="http://www.w3.org/2000/svg" version="1.1" width="334px" height="297px" style="shape-rendering:geometricPrecision; text-rendering:geometricPrecision; image-rendering:optimizeQuality; fill-rule:evenodd; clip-rule:evenodd" xmlns:xlink="http://www.w3.org/1999/xlink">
<g><path style="opacity:1" fill="#fcfcfc" d="M -0.5,-0.5 C 110.833,-0.5 222.167,-0.5 333.5,-0.5C 333.5,98.5 333.5,197.5 333.5,296.5C 222.167,296.5 110.833,296.5 -0.5,296.5C -0.5,197.5 -0.5,98.5 -0.5,-0.5 Z"/></g>
<g><path style="opacity:1" fill="#f3c4a6" d="M 255.5,73.5 C 255.859,71.629 256.859,70.129 258.5,69C 231.458,68.1843 204.458,68.351 177.5,69.5C 177.5,69.1667 177.5,68.8333 177.5,68.5C 204.662,67.5021 231.995,67.1688 259.5,67.5C 259.378,70.2921 258.044,72.2921 255.5,73.5 Z"/></g>
<g><path style="opacity:1" fill="#998ae3" d="M 173.5,72.5 C 168.221,77.9603 163.221,83.6269 158.5,89.5C 157.222,89.7822 156.222,90.4489 155.5,91.5C 150.821,89.742 147.988,86.4086 147,81.5C 142.749,82.7283 140.416,81.0616 140,76.5C 137.833,74.6667 135.667,72.8333 133.5,71C 134.108,70.1301 134.941,69.6301 136,69.5C 148.088,69.4332 160.255,69.5999 172.5,70C 173.252,70.6708 173.586,71.5041 173.5,72.5 Z"/></g>
<g><path style="opacity:1" fill="#9190e1" d="M 126.5,68.5 C 143.5,68.5 160.5,68.5 177.5,68.5C 177.5,68.8333 177.5,69.1667 177.5,69.5C 176.167,70.5 174.833,71.5 173.5,72.5C 173.586,71.5041 173.252,70.6708 172.5,70C 160.255,69.5999 148.088,69.4332 136,69.5C 134.941,69.6301 134.108,70.1301 133.5,71C 135.667,72.8333 137.833,74.6667 140,76.5C 140.416,81.0616 142.749,82.7283 147,81.5C 147.988,86.4086 150.821,89.742 155.5,91.5C 154.5,92.8333 153.5,94.1667 152.5,95.5C 151.5,96.1667 150.5,96.8333 149.5,97.5C 146.518,97.8956 143.851,97.2289 141.5,95.5C 141.709,94.914 142.043,94.414 142.5,94C 141.207,93.51 139.873,93.3433 138.5,93.5C 138.135,88.0251 135.135,85.1918 129.5,85C 130.205,83.4435 129.539,82.2768 127.5,81.5C 126.052,78.7332 125.219,76.0665 125,73.5C 123.445,71.8542 121.779,71.5209 120,72.5C 119.5,72 119,71.5 118.5,71C 121.166,69.9395 123.833,69.1061 126.5,68.5 Z"/></g>
<g><path style="opacity:1" fill="#7c9de0" d="M 97.5,68.5 C 102.833,68.5 108.167,68.5 113.5,68.5C 112.391,69.29 111.058,69.79 109.5,70C 111.481,70.6054 111.815,71.6054 110.5,73C 113.871,75.3458 117.204,77.6792 120.5,80C 120.043,80.414 119.709,80.914 119.5,81.5C 121.834,83.4408 124.334,85.1075 127,86.5C 127.216,88.3839 127.883,90.0506 129,91.5C 131.464,90.4744 133.298,91.3077 134.5,94C 135.588,96.151 137.422,98.3177 140,100.5C 140.414,100.043 140.914,99.7093 141.5,99.5C 142.057,101.332 143.057,102.665 144.5,103.5C 142.771,104.236 141.771,105.57 141.5,107.5C 139.5,109.167 137.5,110.833 135.5,112.5C 135.5,110.167 135.5,107.833 135.5,105.5C 133.549,105.773 132.049,105.107 131,103.5C 130.692,104.308 130.192,104.975 129.5,105.5C 128.64,101.605 126.307,99.1052 122.5,98C 119.22,93.3916 115.22,89.725 110.5,87C 108.5,84.3333 106.5,81.6667 104.5,79C 102.559,77.0972 100.226,76.2639 97.5,76.5C 97.5,73.8333 97.5,71.1667 97.5,68.5 Z"/></g>
<g><path style="opacity:1" fill="#8797e0" d="M 113.5,68.5 C 117.833,68.5 122.167,68.5 126.5,68.5C 123.833,69.1061 121.166,69.9395 118.5,71C 119,71.5 119.5,72 120,72.5C 121.779,71.5209 123.445,71.8542 125,73.5C 125.219,76.0665 126.052,78.7332 127.5,81.5C 129.539,82.2768 130.205,83.4435 129.5,85C 135.135,85.1918 138.135,88.0251 138.5,93.5C 139.873,93.3433 141.207,93.51 142.5,94C 142.043,94.414 141.709,94.914 141.5,95.5C 143.851,97.2289 146.518,97.8956 149.5,97.5C 149.167,98.1667 148.833,98.8333 148.5,99.5C 147.167,100.833 145.833,102.167 144.5,103.5C 143.057,102.665 142.057,101.332 141.5,99.5C 140.914,99.7093 140.414,100.043 140,100.5C 137.422,98.3177 135.588,96.151 134.5,94C 133.298,91.3077 131.464,90.4744 129,91.5C 127.883,90.0506 127.216,88.3839 127,86.5C 124.334,85.1075 121.834,83.4408 119.5,81.5C 119.709,80.914 120.043,80.414 120.5,80C 117.204,77.6792 113.871,75.3458 110.5,73C 111.815,71.6054 111.481,70.6054 109.5,70C 111.058,69.79 112.391,69.29 113.5,68.5 Z"/></g>
<g><path style="opacity:1" fill="#ec8b46" d="M 255.5,73.5 C 252.215,76.1185 249.215,79.1185 246.5,82.5C 240.167,88.1667 234.167,94.1667 228.5,100.5C 224.5,103.833 220.833,107.5 217.5,111.5C 211.167,117.167 205.167,123.167 199.5,129.5C 194.833,133.833 190.167,138.167 185.5,142.5C 183.234,142.141 181.401,142.808 180,144.5C 179.692,143.692 179.192,143.025 178.5,142.5C 176.902,143.485 175.235,143.651 173.5,143C 174.833,142.333 174.833,141.667 173.5,141C 175.301,140.683 175.634,140.016 174.5,139C 172.873,139.43 171.373,139.596 170,139.5C 168.878,137.376 167.378,135.543 165.5,134C 166.022,133.439 166.355,132.772 166.5,132C 164.758,129.775 163.591,127.275 163,124.5C 157.082,118.746 151.248,112.746 145.5,106.5C 146.351,103.388 147.517,103.054 149,105.5C 149.18,103.512 149.014,101.512 148.5,99.5C 148.833,98.8333 149.167,98.1667 149.5,97.5C 150.5,96.8333 151.5,96.1667 152.5,95.5C 155.478,94.5223 157.478,92.5223 158.5,89.5C 163.221,83.6269 168.221,77.9603 173.5,72.5C 174.833,71.5 176.167,70.5 177.5,69.5C 204.458,68.351 231.458,68.1843 258.5,69C 256.859,70.129 255.859,71.629 255.5,73.5 Z"/></g>
<g><path style="opacity:1" fill="#70a3df" d="M 97.5,76.5 C 100.226,76.2639 102.559,77.0972 104.5,79C 106.5,81.6667 108.5,84.3333 110.5,87C 115.22,89.725 119.22,93.3916 122.5,98C 126.307,99.1052 128.64,101.605 129.5,105.5C 130.192,104.975 130.692,104.308 131,103.5C 132.049,105.107 133.549,105.773 135.5,105.5C 135.5,107.833 135.5,110.167 135.5,112.5C 133.785,114.882 131.785,116.882 129.5,118.5C 124.737,113.842 119.571,109.509 114,105.5C 113,102.833 112,100.167 111,97.5C 107.58,95.7488 105.246,93.0821 104,89.5C 101.827,92.277 101.327,92.1103 102.5,89C 101.347,87.117 99.6807,86.2837 97.5,86.5C 97.5,83.1667 97.5,79.8333 97.5,76.5 Z"/></g>
<g><path style="opacity:1" fill="#cd8c83" d="M 158.5,89.5 C 157.478,92.5223 155.478,94.5223 152.5,95.5C 153.5,94.1667 154.5,92.8333 155.5,91.5C 156.222,90.4489 157.222,89.7822 158.5,89.5 Z"/></g>
<g><path style="opacity:1" fill="#efceb9" d="M 246.5,82.5 C 241.5,89.5 235.5,95.5 228.5,100.5C 234.167,94.1667 240.167,88.1667 246.5,82.5 Z"/></g>
<g><path style="opacity:1" fill="#63aade" d="M 97.5,86.5 C 99.6807,86.2837 101.347,87.117 102.5,89C 101.327,92.1103 101.827,92.277 104,89.5C 105.246,93.0821 107.58,95.7488 111,97.5C 112,100.167 113,102.833 114,105.5C 119.571,109.509 124.737,113.842 129.5,118.5C 126.928,122.745 123.594,126.411 119.5,129.5C 119.215,127.712 119.548,126.045 120.5,124.5C 121.396,125.506 122.062,125.506 122.5,124.5C 121.205,122.672 120.205,120.672 119.5,118.5C 115.724,118.273 113.057,116.107 111.5,112C 109.671,111.727 108.171,110.893 107,109.5C 106.667,109.833 106.333,110.167 106,110.5C 105.208,106.921 103.875,103.588 102,100.5C 101.581,101.672 100.915,102.672 100,103.5C 97.9881,98.0831 97.1548,92.4165 97.5,86.5 Z"/></g>
<g><path style="opacity:1" fill="#e08655" d="M 148.5,99.5 C 149.014,101.512 149.18,103.512 149,105.5C 147.517,103.054 146.351,103.388 145.5,106.5C 151.248,112.746 157.082,118.746 163,124.5C 163.591,127.275 164.758,129.775 166.5,132C 166.355,132.772 166.022,133.439 165.5,134C 167.378,135.543 168.878,137.376 170,139.5C 171.373,139.596 172.873,139.43 174.5,139C 175.634,140.016 175.301,140.683 173.5,141C 174.833,141.667 174.833,142.333 173.5,143C 175.235,143.651 176.902,143.485 178.5,142.5C 179.192,143.025 179.692,143.692 180,144.5C 181.401,142.808 183.234,142.141 185.5,142.5C 184.5,143.833 183.5,145.167 182.5,146.5C 180.856,146.81 179.856,147.81 179.5,149.5C 178.508,149.328 177.842,149.662 177.5,150.5C 174.279,150.203 171.113,150.203 168,150.5C 168.311,149.065 168.145,147.732 167.5,146.5C 166.726,145.289 165.893,145.289 165,146.5C 164.667,145.167 164.333,143.833 164,142.5C 162.513,141.845 161.347,140.845 160.5,139.5C 158.27,139.292 156.104,139.292 154,139.5C 151.194,136.694 148.36,133.86 145.5,131C 144.552,130.517 143.552,130.351 142.5,130.5C 142.741,127.001 141.908,126.668 140,129.5C 138.167,127.667 136.333,125.833 134.5,124C 134.833,123.667 135.167,123.333 135.5,123C 134.186,122.015 133.186,120.848 132.5,119.5C 134.408,115.92 137.074,112.92 140.5,110.5C 141.386,109.675 141.719,108.675 141.5,107.5C 141.771,105.57 142.771,104.236 144.5,103.5C 145.833,102.167 147.167,100.833 148.5,99.5 Z"/></g>
<g><path style="opacity:1" fill="#54b4dc" d="M 97.5,68.5 C 97.5,71.1667 97.5,73.8333 97.5,76.5C 97.5,79.8333 97.5,83.1667 97.5,86.5C 97.1548,92.4165 97.9881,98.0831 100,103.5C 100.915,102.672 101.581,101.672 102,100.5C 103.875,103.588 105.208,106.921 106,110.5C 106.333,110.167 106.667,109.833 107,109.5C 108.171,110.893 109.671,111.727 111.5,112C 113.057,116.107 115.724,118.273 119.5,118.5C 120.205,120.672 121.205,122.672 122.5,124.5C 122.062,125.506 121.396,125.506 120.5,124.5C 119.548,126.045 119.215,127.712 119.5,129.5C 118.833,130.5 118.167,131.5 117.5,132.5C 113.102,135.895 109.436,139.895 106.5,144.5C 104.539,145.46 102.873,146.793 101.5,148.5C 100.194,150.473 98.5273,152.139 96.5,153.5C 96.1687,124.995 96.502,96.6618 97.5,68.5 Z"/></g>
<g><path style="opacity:1" fill="#eeceb9" d="M 217.5,111.5 C 212.5,118.5 206.5,124.5 199.5,129.5C 205.167,123.167 211.167,117.167 217.5,111.5 Z"/></g>
<g><path style="opacity:1" fill="#c87f6c" d="M 141.5,107.5 C 141.719,108.675 141.386,109.675 140.5,110.5C 137.074,112.92 134.408,115.92 132.5,119.5C 130.824,120.183 130.157,121.517 130.5,123.5C 129.325,123.281 128.325,123.614 127.5,124.5C 129.451,127.786 131.785,130.786 134.5,133.5C 135.086,133.291 135.586,132.957 136,132.5C 137.827,134.154 139.66,134.988 141.5,135C 141.043,135.414 140.709,135.914 140.5,136.5C 142.401,137.545 144.067,138.878 145.5,140.5C 146.615,141.598 146.615,142.765 145.5,144C 147.851,146.019 149.851,148.352 151.5,151C 151.043,151.414 150.709,151.914 150.5,152.5C 155.298,153.801 159.131,156.468 162,160.5C 162.333,160.167 162.667,159.833 163,159.5C 163.816,160.823 164.983,161.489 166.5,161.5C 164.833,163.5 163.167,165.5 161.5,167.5C 159.564,168.259 157.731,169.259 156,170.5C 154.697,170.022 153.531,169.355 152.5,168.5C 150.141,163.839 146.475,160.506 141.5,158.5C 140.833,157.167 140.167,155.833 139.5,154.5C 136.499,152.654 133.665,150.654 131,148.5C 129.334,149.34 129.167,148.84 130.5,147C 129.451,146.508 128.451,146.674 127.5,147.5C 126.702,145.922 126.202,144.256 126,142.5C 125.333,141.167 124.667,141.167 124,142.5C 122.956,141.377 122.29,140.044 122,138.5C 121.586,138.957 121.086,139.291 120.5,139.5C 119.818,138.757 119.151,138.091 118.5,137.5C 117.699,135.958 117.366,134.292 117.5,132.5C 118.167,131.5 118.833,130.5 119.5,129.5C 123.594,126.411 126.928,122.745 129.5,118.5C 131.785,116.882 133.785,114.882 135.5,112.5C 137.5,110.833 139.5,109.167 141.5,107.5 Z"/></g>
<g><path style="opacity:1" fill="#d58260" d="M 132.5,119.5 C 133.186,120.848 134.186,122.015 135.5,123C 135.167,123.333 134.833,123.667 134.5,124C 136.333,125.833 138.167,127.667 140,129.5C 141.908,126.668 142.741,127.001 142.5,130.5C 143.552,130.351 144.552,130.517 145.5,131C 148.36,133.86 151.194,136.694 154,139.5C 156.104,139.292 158.27,139.292 160.5,139.5C 161.347,140.845 162.513,141.845 164,142.5C 164.333,143.833 164.667,145.167 165,146.5C 165.893,145.289 166.726,145.289 167.5,146.5C 168.145,147.732 168.311,149.065 168,150.5C 171.113,150.203 174.279,150.203 177.5,150.5C 174.5,153.833 171.5,157.167 168.5,160.5C 167.833,160.833 167.167,161.167 166.5,161.5C 164.983,161.489 163.816,160.823 163,159.5C 162.667,159.833 162.333,160.167 162,160.5C 159.131,156.468 155.298,153.801 150.5,152.5C 150.709,151.914 151.043,151.414 151.5,151C 149.851,148.352 147.851,146.019 145.5,144C 146.615,142.765 146.615,141.598 145.5,140.5C 144.067,138.878 142.401,137.545 140.5,136.5C 140.709,135.914 141.043,135.414 141.5,135C 139.66,134.988 137.827,134.154 136,132.5C 135.586,132.957 135.086,133.291 134.5,133.5C 131.785,130.786 129.451,127.786 127.5,124.5C 128.325,123.614 129.325,123.281 130.5,123.5C 130.157,121.517 130.824,120.183 132.5,119.5 Z"/></g>
<g><path style="opacity:1" fill="#f0cfbc" d="M 199.5,129.5 C 194.833,136.167 189.167,141.833 182.5,146.5C 183.5,145.167 184.5,143.833 185.5,142.5C 190.167,138.167 194.833,133.833 199.5,129.5 Z"/></g>
<g><path style="opacity:1" fill="#b3797f" d="M 117.5,132.5 C 117.366,134.292 117.699,135.958 118.5,137.5C 108.375,140.223 108.042,143.723 117.5,148C 117.167,148.333 116.833,148.667 116.5,149C 120.413,151.125 124.413,152.958 128.5,154.5C 128.178,156.722 128.845,158.556 130.5,160C 133.146,162.082 136.146,163.415 139.5,164C 140.833,166 142.5,167.667 144.5,169C 143.346,169.914 143.513,170.747 145,171.5C 145.414,171.043 145.914,170.709 146.5,170.5C 148.848,176.033 151.848,176.533 155.5,172C 154.552,171.517 153.552,171.351 152.5,171.5C 152.5,170.5 152.5,169.5 152.5,168.5C 153.531,169.355 154.697,170.022 156,170.5C 157.731,169.259 159.564,168.259 161.5,167.5C 159.167,170.167 156.833,172.833 154.5,175.5C 153.5,175.833 152.833,176.5 152.5,177.5C 148.498,180.844 144.498,184.177 140.5,187.5C 138.916,186.618 137.249,185.785 135.5,185C 136.167,184.333 136.833,183.667 137.5,183C 136.069,182.535 134.903,181.701 134,180.5C 133.667,181.167 133.333,181.833 133,182.5C 133.046,180.687 132.88,179.021 132.5,177.5C 131.914,177.709 131.414,178.043 131,178.5C 127.551,176.195 124.051,174.028 120.5,172C 119.833,170 119.167,168 118.5,166C 113.872,164.184 110.205,161.184 107.5,157C 106.552,156.517 105.552,156.351 104.5,156.5C 104.33,155.178 104.663,154.011 105.5,153C 104.09,152.632 103.09,151.799 102.5,150.5C 104.446,148.915 105.779,146.915 106.5,144.5C 109.436,139.895 113.102,135.895 117.5,132.5 Z"/></g>
<g><path style="opacity:1" fill="#bf7c74" d="M 118.5,137.5 C 119.151,138.091 119.818,138.757 120.5,139.5C 121.086,139.291 121.586,138.957 122,138.5C 122.29,140.044 122.956,141.377 124,142.5C 124.667,141.167 125.333,141.167 126,142.5C 126.202,144.256 126.702,145.922 127.5,147.5C 128.451,146.674 129.451,146.508 130.5,147C 129.167,148.84 129.334,149.34 131,148.5C 133.665,150.654 136.499,152.654 139.5,154.5C 140.167,155.833 140.833,157.167 141.5,158.5C 146.475,160.506 150.141,163.839 152.5,168.5C 152.5,169.5 152.5,170.5 152.5,171.5C 153.552,171.351 154.552,171.517 155.5,172C 151.848,176.533 148.848,176.033 146.5,170.5C 145.914,170.709 145.414,171.043 145,171.5C 143.513,170.747 143.346,169.914 144.5,169C 142.5,167.667 140.833,166 139.5,164C 136.146,163.415 133.146,162.082 130.5,160C 128.845,158.556 128.178,156.722 128.5,154.5C 124.413,152.958 120.413,151.125 116.5,149C 116.833,148.667 117.167,148.333 117.5,148C 108.042,143.723 108.375,140.223 118.5,137.5 Z"/></g>
<g><path style="opacity:1" fill="#8e92e0" d="M 179.5,149.5 C 181.415,152.155 183.415,154.821 185.5,157.5C 182.245,157.986 179.578,156.986 177.5,154.5C 175.365,155.468 173.698,156.968 172.5,159C 173.716,162.221 175.716,164.888 178.5,167C 177.692,167.308 177.025,167.808 176.5,168.5C 177.642,170.378 178.642,172.212 179.5,174C 178.304,174.654 178.304,175.154 179.5,175.5C 180.5,174.167 181.5,172.833 182.5,171.5C 184.836,172.594 184.836,173.927 182.5,175.5C 183.282,177.329 182.616,178.829 180.5,180C 182.429,180.35 184.429,181.017 186.5,182C 185.833,182.667 185.167,183.333 184.5,184C 184.094,185.803 184.594,187.636 186,189.5C 187,188.833 188,188.167 189,187.5C 188.954,189.313 189.12,190.979 189.5,192.5C 188.5,193.833 187.5,195.167 186.5,196.5C 188.833,196.5 191.167,196.5 193.5,196.5C 189.235,200.314 189.901,203.147 195.5,205C 194.978,205.561 194.645,206.228 194.5,207C 195.34,208.767 196.673,210.101 198.5,211C 197.483,212.049 197.316,213.216 198,214.5C 198.893,213.289 199.726,213.289 200.5,214.5C 199.833,215.167 199.167,215.833 198.5,216.5C 201.102,217.435 203.102,219.102 204.5,221.5C 204.023,222.478 203.357,223.311 202.5,224C 202.617,226.43 203.284,228.93 204.5,231.5C 203.127,231.657 201.793,231.49 200.5,231C 198.5,229.333 196.5,227.667 194.5,226C 195.167,225.667 195.833,225.333 196.5,225C 190.854,224.11 190.521,223.11 195.5,222C 193.009,221.374 193.009,220.541 195.5,219.5C 194.609,218.41 193.609,218.41 192.5,219.5C 191.861,216.816 191.861,214.316 192.5,212C 190.899,211.727 189.399,211.227 188,210.5C 188.423,208.613 188.256,206.613 187.5,204.5C 185.058,204.646 184.391,203.813 185.5,202C 183.747,199.61 182.08,197.11 180.5,194.5C 181.167,193.833 181.833,193.167 182.5,192.5C 180.041,191.209 178.541,189.209 178,186.5C 177.667,187.167 177.333,187.833 177,188.5C 176.316,187.216 176.483,186.049 177.5,185C 176.809,183.933 176.309,182.766 176,181.5C 175.333,182.833 174.667,182.833 174,181.5C 173.749,179.567 173.249,177.734 172.5,176C 173.328,175.085 174.328,174.419 175.5,174C 173.896,172.763 172.229,171.597 170.5,170.5C 170.709,169.914 171.043,169.414 171.5,169C 169.965,166.362 168.965,163.528 168.5,160.5C 171.5,157.167 174.5,153.833 177.5,150.5C 177.842,149.662 178.508,149.328 179.5,149.5 Z"/></g>
<g><path style="opacity:1" fill="#a77587" d="M 106.5,144.5 C 105.779,146.915 104.446,148.915 102.5,150.5C 103.09,151.799 104.09,152.632 105.5,153C 104.663,154.011 104.33,155.178 104.5,156.5C 105.552,156.351 106.552,156.517 107.5,157C 110.205,161.184 113.872,164.184 118.5,166C 119.167,168 119.833,170 120.5,172C 124.051,174.028 127.551,176.195 131,178.5C 131.414,178.043 131.914,177.709 132.5,177.5C 132.88,179.021 133.046,180.687 133,182.5C 133.333,181.833 133.667,181.167 134,180.5C 134.903,181.701 136.069,182.535 137.5,183C 136.833,183.667 136.167,184.333 135.5,185C 137.249,185.785 138.916,186.618 140.5,187.5C 139.139,189.527 137.473,191.194 135.5,192.5C 133.518,190.404 131.351,188.404 129,186.5C 127.23,187.276 125.397,187.11 123.5,186C 123.833,185.667 124.167,185.333 124.5,185C 121.571,179.857 117.404,177.357 112,177.5C 111.517,176.552 111.351,175.552 111.5,174.5C 110.448,174.649 109.448,174.483 108.5,174C 104.531,169.133 101.031,164.633 98,160.5C 96.7909,156.732 97.7909,153.732 101,151.5C 101.483,150.552 101.649,149.552 101.5,148.5C 102.873,146.793 104.539,145.46 106.5,144.5 Z"/></g>
<g><path style="opacity:1" fill="#7b9ee0" d="M 154.5,175.5 C 158.467,176.254 159.133,178.087 156.5,181C 158.024,183.694 159.69,186.36 161.5,189C 160.833,189.667 160.167,190.333 159.5,191C 161.44,190.822 163.107,191.822 164.5,194C 163.643,194.689 162.977,195.522 162.5,196.5C 163.865,197.941 165.365,199.274 167,200.5C 167.617,201.449 167.451,202.282 166.5,203C 167.167,203.333 167.833,203.667 168.5,204C 167.235,205.337 166.735,206.837 167,208.5C 168.016,207.366 168.683,207.699 169,209.5C 169.333,208.833 169.667,208.167 170,207.5C 170.833,209 172,210.167 173.5,211C 172.167,211.333 170.833,211.667 169.5,212C 170.641,212.741 170.641,213.575 169.5,214.5C 172.028,215.816 172.028,216.983 169.5,218C 171.5,219.667 173.5,221.333 175.5,223C 173.993,223.837 173.493,225.004 174,226.5C 175.945,228.181 177.945,228.848 180,228.5C 180.692,229.025 181.192,229.692 181.5,230.5C 176.544,231.494 171.544,231.827 166.5,231.5C 166.47,226.537 164.47,222.704 160.5,220C 161.637,214.918 161.804,209.751 161,204.5C 157.489,204.207 154.656,202.707 152.5,200C 152.905,199.055 153.572,198.388 154.5,198C 150.802,196.808 148.802,194.308 148.5,190.5C 153.464,191.543 155.131,189.876 153.5,185.5C 152.325,185.719 151.325,185.386 150.5,184.5C 149.89,181.972 150.557,179.639 152.5,177.5C 152.833,176.5 153.5,175.833 154.5,175.5 Z"/></g>
<g><path style="opacity:1" fill="#9f728f" d="M 101.5,148.5 C 101.649,149.552 101.483,150.552 101,151.5C 97.7909,153.732 96.7909,156.732 98,160.5C 101.031,164.633 104.531,169.133 108.5,174C 109.448,174.483 110.448,174.649 111.5,174.5C 111.351,175.552 111.517,176.552 112,177.5C 117.404,177.357 121.571,179.857 124.5,185C 124.167,185.333 123.833,185.667 123.5,186C 125.397,187.11 127.23,187.276 129,186.5C 131.351,188.404 133.518,190.404 135.5,192.5C 134.167,194.167 132.833,195.833 131.5,197.5C 129.833,198.833 128.167,200.167 126.5,201.5C 125.312,200.636 124.145,199.636 123,198.5C 122.667,199.167 122.333,199.833 122,200.5C 120.441,198.783 119.608,196.783 119.5,194.5C 116.343,193.537 113.51,191.87 111,189.5C 109.452,190.684 107.952,190.517 106.5,189C 108.974,186.572 108.474,186.072 105,187.5C 103.992,185.741 102.492,184.574 100.5,184C 98.3757,181.436 97.0424,178.603 96.5,175.5C 96.5,168.167 96.5,160.833 96.5,153.5C 98.5273,152.139 100.194,150.473 101.5,148.5 Z"/></g>
<g><path style="opacity:1" fill="#a7a1cc" d="M 218.5,190.5 C 222.833,194.167 226.833,198.167 230.5,202.5C 225.5,199.5 221.5,195.5 218.5,190.5 Z"/></g>
<g><path style="opacity:1" fill="#928ee2" d="M 185.5,157.5 C 187.167,158.5 188.5,159.833 189.5,161.5C 188.022,161.238 186.689,161.571 185.5,162.5C 186.5,163.833 187.5,165.167 188.5,166.5C 185.81,170.237 186.81,172.903 191.5,174.5C 188.047,175.479 187.714,176.979 190.5,179C 195.7,179.283 196.367,180.783 192.5,183.5C 193.103,186.886 195.103,188.719 198.5,189C 197.542,190.147 197.875,191.147 199.5,192C 198.483,193.049 198.316,194.216 199,195.5C 199.667,196.833 200.333,196.833 201,195.5C 201.72,197.112 201.554,198.612 200.5,200C 202.928,201.162 203.595,202.829 202.5,205C 205.742,209.536 209.076,214.036 212.5,218.5C 212.291,219.086 211.957,219.586 211.5,220C 212.868,222.712 213.701,225.546 214,228.5C 214.833,229.333 215.667,230.167 216.5,231C 229.833,231.667 243.167,231.667 256.5,231C 254.624,230.082 253.624,228.582 253.5,226.5C 255.63,228.127 257.63,229.96 259.5,232C 258.956,232.717 258.289,233.217 257.5,233.5C 240.675,232.503 223.675,232.17 206.5,232.5C 206.158,231.662 205.492,231.328 204.5,231.5C 203.284,228.93 202.617,226.43 202.5,224C 203.357,223.311 204.023,222.478 204.5,221.5C 203.102,219.102 201.102,217.435 198.5,216.5C 199.167,215.833 199.833,215.167 200.5,214.5C 199.726,213.289 198.893,213.289 198,214.5C 197.316,213.216 197.483,212.049 198.5,211C 196.673,210.101 195.34,208.767 194.5,207C 194.645,206.228 194.978,205.561 195.5,205C 189.901,203.147 189.235,200.314 193.5,196.5C 191.167,196.5 188.833,196.5 186.5,196.5C 187.5,195.167 188.5,193.833 189.5,192.5C 189.12,190.979 188.954,189.313 189,187.5C 188,188.167 187,188.833 186,189.5C 184.594,187.636 184.094,185.803 184.5,184C 185.167,183.333 185.833,182.667 186.5,182C 184.429,181.017 182.429,180.35 180.5,180C 182.616,178.829 183.282,177.329 182.5,175.5C 184.836,173.927 184.836,172.594 182.5,171.5C 181.5,172.833 180.5,174.167 179.5,175.5C 178.304,175.154 178.304,174.654 179.5,174C 178.642,172.212 177.642,170.378 176.5,168.5C 177.025,167.808 177.692,167.308 178.5,167C 175.716,164.888 173.716,162.221 172.5,159C 173.698,156.968 175.365,155.468 177.5,154.5C 179.578,156.986 182.245,157.986 185.5,157.5 Z"/></g>
<g><path style="opacity:1" fill="#906e99" d="M 96.5,175.5 C 97.0424,178.603 98.3757,181.436 100.5,184C 102.492,184.574 103.992,185.741 105,187.5C 108.474,186.072 108.974,186.572 106.5,189C 107.952,190.517 109.452,190.684 111,189.5C 113.51,191.87 116.343,193.537 119.5,194.5C 119.608,196.783 120.441,198.783 122,200.5C 122.333,199.833 122.667,199.167 123,198.5C 124.145,199.636 125.312,200.636 126.5,201.5C 126.5,201.833 126.5,202.167 126.5,202.5C 124.183,203.82 122.183,205.486 120.5,207.5C 117.956,207.896 115.789,207.229 114,205.5C 113.667,206.167 113.333,206.833 113,207.5C 111.98,206.109 111.147,204.609 110.5,203C 109.167,202.667 107.833,202.333 106.5,202C 105.255,199.343 103.255,197.51 100.5,196.5C 99.914,196.709 99.414,197.043 99,197.5C 98.8784,195.563 98.045,194.23 96.5,193.5C 96.5,187.5 96.5,181.5 96.5,175.5 Z"/></g>
<g><path style="opacity:1" fill="#846c9f" d="M 96.5,193.5 C 98.045,194.23 98.8784,195.563 99,197.5C 99.414,197.043 99.914,196.709 100.5,196.5C 103.255,197.51 105.255,199.343 106.5,202C 107.833,202.333 109.167,202.667 110.5,203C 111.147,204.609 111.98,206.109 113,207.5C 113.333,206.833 113.667,206.167 114,205.5C 115.789,207.229 117.956,207.896 120.5,207.5C 117.833,210.833 114.833,213.833 111.5,216.5C 109.223,215.021 106.89,213.521 104.5,212C 103.207,211.51 101.873,211.343 100.5,211.5C 99.7742,209.43 99.1075,207.763 98.5,206.5C 98.1667,210.333 97.8333,214.167 97.5,218C 97.5102,222.229 98.1768,226.062 99.5,229.5C 98.4489,230.222 97.7822,231.222 97.5,232.5C 96.5045,219.677 96.1712,206.677 96.5,193.5 Z"/></g>
<g><path style="opacity:1" fill="#73a2de" d="M 152.5,177.5 C 150.557,179.639 149.89,181.972 150.5,184.5C 151.325,185.386 152.325,185.719 153.5,185.5C 155.131,189.876 153.464,191.543 148.5,190.5C 148.802,194.308 150.802,196.808 154.5,198C 153.572,198.388 152.905,199.055 152.5,200C 154.656,202.707 157.489,204.207 161,204.5C 161.804,209.751 161.637,214.918 160.5,220C 164.47,222.704 166.47,226.537 166.5,231.5C 165.167,231.5 163.833,231.5 162.5,231.5C 157.821,231.666 153.155,231.499 148.5,231C 150.303,229.738 151.636,228.071 152.5,226C 148.914,223.834 146.247,220.834 144.5,217C 146.575,215.419 146.575,213.585 144.5,211.5C 143.914,211.709 143.414,212.043 143,212.5C 142.249,207.735 139.915,204.068 136,201.5C 135.888,198.553 134.388,197.22 131.5,197.5C 132.833,195.833 134.167,194.167 135.5,192.5C 137.473,191.194 139.139,189.527 140.5,187.5C 144.498,184.177 148.498,180.844 152.5,177.5 Z"/></g>
<g><path style="opacity:1" fill="#c7c9e9" d="M 96.5,153.5 C 96.5,160.833 96.5,168.167 96.5,175.5C 96.5,181.5 96.5,187.5 96.5,193.5C 96.1712,206.677 96.5045,219.677 97.5,232.5C 108.167,232.5 118.833,232.5 129.5,232.5C 140.5,232.5 151.5,232.5 162.5,232.5C 177.167,232.5 191.833,232.5 206.5,232.5C 223.675,232.17 240.675,232.503 257.5,233.5C 203.5,233.5 149.5,233.5 95.5,233.5C 95.1688,206.661 95.5021,179.995 96.5,153.5 Z"/></g>
<g><path style="opacity:1" fill="#7668a8" d="M 111.5,216.5 C 109.833,218.5 108.167,220.5 106.5,222.5C 103.833,224.5 101.5,226.833 99.5,229.5C 98.1768,226.062 97.5102,222.229 97.5,218C 97.8333,214.167 98.1667,210.333 98.5,206.5C 99.1075,207.763 99.7742,209.43 100.5,211.5C 101.873,211.343 103.207,211.51 104.5,212C 106.89,213.521 109.223,215.021 111.5,216.5 Z"/></g>
<g><path style="opacity:1" fill="#67a7dc" d="M 131.5,197.5 C 134.388,197.22 135.888,198.553 136,201.5C 139.915,204.068 142.249,207.735 143,212.5C 143.414,212.043 143.914,211.709 144.5,211.5C 146.575,213.585 146.575,215.419 144.5,217C 146.247,220.834 148.914,223.834 152.5,226C 151.636,228.071 150.303,229.738 148.5,231C 153.155,231.499 157.821,231.666 162.5,231.5C 162.5,231.833 162.5,232.167 162.5,232.5C 151.5,232.5 140.5,232.5 129.5,232.5C 129.5,232.167 129.5,231.833 129.5,231.5C 132.85,231.665 136.183,231.498 139.5,231C 141.994,228.607 141.327,227.44 137.5,227.5C 136.862,225.54 136.862,223.707 137.5,222C 136.667,221.167 135.833,220.333 135,219.5C 134.259,214.081 132.092,209.414 128.5,205.5C 131.029,202.363 130.362,201.363 126.5,202.5C 126.5,202.167 126.5,201.833 126.5,201.5C 128.167,200.167 129.833,198.833 131.5,197.5 Z"/></g>
<g><path style="opacity:1" fill="#5eacde" d="M 129.5,231.5 C 128.127,231.657 126.793,231.49 125.5,231C 125.833,230.667 126.167,230.333 126.5,230C 123.533,226.253 120.533,222.42 117.5,218.5C 117.977,217.522 118.643,216.689 119.5,216C 118.5,215.5 117.5,215 116.5,214.5C 113.417,217.594 110.084,220.261 106.5,222.5C 108.167,220.5 109.833,218.5 111.5,216.5C 114.833,213.833 117.833,210.833 120.5,207.5C 122.183,205.486 124.183,203.82 126.5,202.5C 130.362,201.363 131.029,202.363 128.5,205.5C 132.092,209.414 134.259,214.081 135,219.5C 135.833,220.333 136.667,221.167 137.5,222C 136.862,223.707 136.862,225.54 137.5,227.5C 141.327,227.44 141.994,228.607 139.5,231C 136.183,231.498 132.85,231.665 129.5,231.5 Z"/></g>
<g><path style="opacity:1" fill="#52b0d8" d="M 129.5,231.5 C 129.5,231.833 129.5,232.167 129.5,232.5C 118.833,232.5 108.167,232.5 97.5,232.5C 97.7822,231.222 98.4489,230.222 99.5,229.5C 101.5,226.833 103.833,224.5 106.5,222.5C 110.084,220.261 113.417,217.594 116.5,214.5C 117.5,215 118.5,215.5 119.5,216C 118.643,216.689 117.977,217.522 117.5,218.5C 120.533,222.42 123.533,226.253 126.5,230C 126.167,230.333 125.833,230.667 125.5,231C 126.793,231.49 128.127,231.657 129.5,231.5 Z"/></g>
<g><path style="opacity:1" fill="#8597e0" d="M 168.5,160.5 C 168.965,163.528 169.965,166.362 171.5,169C 171.043,169.414 170.709,169.914 170.5,170.5C 172.229,171.597 173.896,172.763 175.5,174C 174.328,174.419 173.328,175.085 172.5,176C 173.249,177.734 173.749,179.567 174,181.5C 174.667,182.833 175.333,182.833 176,181.5C 176.309,182.766 176.809,183.933 177.5,185C 176.483,186.049 176.316,187.216 177,188.5C 177.333,187.833 177.667,187.167 178,186.5C 178.541,189.209 180.041,191.209 182.5,192.5C 181.833,193.167 181.167,193.833 180.5,194.5C 182.08,197.11 183.747,199.61 185.5,202C 184.391,203.813 185.058,204.646 187.5,204.5C 188.256,206.613 188.423,208.613 188,210.5C 189.399,211.227 190.899,211.727 192.5,212C 191.861,214.316 191.861,216.816 192.5,219.5C 193.609,218.41 194.609,218.41 195.5,219.5C 193.009,220.541 193.009,221.374 195.5,222C 190.521,223.11 190.854,224.11 196.5,225C 195.833,225.333 195.167,225.667 194.5,226C 196.5,227.667 198.5,229.333 200.5,231C 201.793,231.49 203.127,231.657 204.5,231.5C 205.492,231.328 206.158,231.662 206.5,232.5C 191.833,232.5 177.167,232.5 162.5,232.5C 162.5,232.167 162.5,231.833 162.5,231.5C 163.833,231.5 165.167,231.5 166.5,231.5C 171.544,231.827 176.544,231.494 181.5,230.5C 181.192,229.692 180.692,229.025 180,228.5C 177.945,228.848 175.945,228.181 174,226.5C 173.493,225.004 173.993,223.837 175.5,223C 173.5,221.333 171.5,219.667 169.5,218C 172.028,216.983 172.028,215.816 169.5,214.5C 170.641,213.575 170.641,212.741 169.5,212C 170.833,211.667 172.167,211.333 173.5,211C 172,210.167 170.833,209 170,207.5C 169.667,208.167 169.333,208.833 169,209.5C 168.683,207.699 168.016,207.366 167,208.5C 166.735,206.837 167.235,205.337 168.5,204C 167.833,203.667 167.167,203.333 166.5,203C 167.451,202.282 167.617,201.449 167,200.5C 165.365,199.274 163.865,197.941 162.5,196.5C 162.977,195.522 163.643,194.689 164.5,194C 163.107,191.822 161.44,190.822 159.5,191C 160.167,190.333 160.833,189.667 161.5,189C 159.69,186.36 158.024,183.694 156.5,181C 159.133,178.087 158.467,176.254 154.5,175.5C 156.833,172.833 159.167,170.167 161.5,167.5C 163.167,165.5 164.833,163.5 166.5,161.5C 167.167,161.167 167.833,160.833 168.5,160.5 Z"/></g>
<g><path style="opacity:1" fill="#988be4" d="M 189.5,161.5 C 199.5,170.833 209.167,180.5 218.5,190.5C 221.5,195.5 225.5,199.5 230.5,202.5C 238.167,210.5 245.833,218.5 253.5,226.5C 253.624,228.582 254.624,230.082 256.5,231C 243.167,231.667 229.833,231.667 216.5,231C 215.667,230.167 214.833,229.333 214,228.5C 213.701,225.546 212.868,222.712 211.5,220C 211.957,219.586 212.291,219.086 212.5,218.5C 209.076,214.036 205.742,209.536 202.5,205C 203.595,202.829 202.928,201.162 200.5,200C 201.554,198.612 201.72,197.112 201,195.5C 200.333,196.833 199.667,196.833 199,195.5C 198.316,194.216 198.483,193.049 199.5,192C 197.875,191.147 197.542,190.147 198.5,189C 195.103,188.719 193.103,186.886 192.5,183.5C 196.367,180.783 195.7,179.283 190.5,179C 187.714,176.979 188.047,175.479 191.5,174.5C 186.81,172.903 185.81,170.237 188.5,166.5C 187.5,165.167 186.5,163.833 185.5,162.5C 186.689,161.571 188.022,161.238 189.5,161.5 Z"/></g>
</svg>
