<?xml version="1.0" encoding="UTF-8"?>
<!DOCTYPE svg PUBLIC "-//W3C//DTD SVG 1.1//EN" "http://www.w3.org/Graphics/SVG/1.1/DTD/svg11.dtd">
<svg xmlns="http://www.w3.org/2000/svg" version="1.1" width="512px" height="512px" style="shape-rendering:geometricPrecision; text-rendering:geometricPrecision; image-rendering:optimizeQuality; fill-rule:evenodd; clip-rule:evenodd" xmlns:xlink="http://www.w3.org/1999/xlink">
<g><path style="opacity:0.933" fill="#000000" d="M 112.5,-0.5 C 116.833,-0.5 121.167,-0.5 125.5,-0.5C 141.017,6.14139 146.517,17.8081 142,34.5C 160.029,52.195 177.696,70.195 195,88.5C 197.105,92.5834 198.438,96.9167 199,101.5C 199.5,110.16 199.666,118.827 199.5,127.5C 204.833,127.5 210.167,127.5 215.5,127.5C 215.333,115.829 215.5,104.162 216,92.5C 218.435,87.7762 222.269,86.2762 227.5,88C 229.049,89.214 230.215,90.714 231,92.5C 231.5,104.162 231.667,115.829 231.5,127.5C 236.833,127.5 242.167,127.5 247.5,127.5C 247.333,86.4986 247.5,45.4986 248,4.5C 248.997,2.67694 250.164,1.01027 251.5,-0.5C 254.167,-0.5 256.833,-0.5 259.5,-0.5C 260.836,1.01027 262.003,2.67694 263,4.5C 263.5,45.4986 263.667,86.4986 263.5,127.5C 268.833,127.5 274.167,127.5 279.5,127.5C 279.333,115.829 279.5,104.162 280,92.5C 282.435,87.7762 286.269,86.2762 291.5,88C 293.049,89.214 294.215,90.714 295,92.5C 295.5,104.162 295.667,115.829 295.5,127.5C 300.833,127.5 306.167,127.5 311.5,127.5C 311.833,105.49 311.5,83.4899 310.5,61.5C 297.812,54.7866 293.312,44.4533 297,30.5C 305.328,15.0591 317.495,11.2258 333.5,19C 346.827,32.3749 346.827,45.7082 333.5,59C 331.833,59.8333 330.167,60.6667 328.5,61.5C 327.5,83.4899 327.167,105.49 327.5,127.5C 368.167,124.167 386.833,142.833 383.5,183.5C 391.84,183.666 400.173,183.5 408.5,183C 411.177,182.751 413.51,181.751 415.5,180C 432.5,163 449.5,146 466.5,129C 461.111,113.436 466.111,102.436 481.5,96C 496.082,93.4528 506.082,98.9528 511.5,112.5C 511.5,117.167 511.5,121.833 511.5,126.5C 504.294,141.197 492.627,146.363 476.5,142C 458.805,160.029 440.805,177.696 422.5,195C 418.417,197.105 414.083,198.438 409.5,199C 400.84,199.5 392.173,199.666 383.5,199.5C 383.5,204.833 383.5,210.167 383.5,215.5C 395.171,215.333 406.838,215.5 418.5,216C 423.224,218.435 424.724,222.269 423,227.5C 421.786,229.049 420.286,230.215 418.5,231C 406.838,231.5 395.171,231.667 383.5,231.5C 383.5,236.833 383.5,242.167 383.5,247.5C 424.501,247.333 465.501,247.5 506.5,248C 508.323,248.997 509.99,250.164 511.5,251.5C 511.5,254.167 511.5,256.833 511.5,259.5C 509.99,260.836 508.323,262.003 506.5,263C 465.501,263.5 424.501,263.667 383.5,263.5C 383.5,268.833 383.5,274.167 383.5,279.5C 395.171,279.333 406.838,279.5 418.5,280C 423.224,282.435 424.724,286.269 423,291.5C 421.786,293.049 420.286,294.215 418.5,295C 406.838,295.5 395.171,295.667 383.5,295.5C 383.5,300.833 383.5,306.167 383.5,311.5C 405.51,311.833 427.51,311.5 449.5,310.5C 456.213,297.812 466.547,293.312 480.5,297C 495.941,305.328 499.774,317.495 492,333.5C 478.625,346.827 465.292,346.827 452,333.5C 451.167,331.833 450.333,330.167 449.5,328.5C 427.51,327.5 405.51,327.167 383.5,327.5C 383.886,336.9 383.386,346.234 382,355.5C 377.7,360.446 373.033,360.779 368,356.5C 367.399,354.863 366.899,353.197 366.5,351.5C 367.659,288.188 367.826,224.855 367,161.5C 364.5,152.333 358.667,146.5 349.5,144C 286.145,143.174 222.812,143.341 159.5,144.5C 153.033,143.572 150.533,139.905 152,133.5C 153.48,130.337 155.98,128.504 159.5,128C 167.493,127.5 175.493,127.334 183.5,127.5C 183.666,119.16 183.5,110.827 183,102.5C 182.751,99.8232 181.751,97.4899 180,95.5C 163,78.5 146,61.5 129,44.5C 113.494,49.9203 102.494,44.9203 96,29.5C 93.4528,14.9183 98.9528,4.91835 112.5,-0.5 Z M 115.5,15.5 C 122.237,14.195 126.237,16.8617 127.5,23.5C 125.676,29.58 121.676,31.7466 115.5,30C 110.214,25.1687 110.214,20.3354 115.5,15.5 Z M 316.5,31.5 C 324.164,30.6662 327.664,33.9995 327,41.5C 323.196,47.3771 318.529,48.0438 313,43.5C 310.972,38.5584 312.139,34.5584 316.5,31.5 Z M 484.5,111.5 C 494.058,111.22 497.225,115.553 494,124.5C 488.893,128.777 484.56,128.111 481,122.5C 479.662,117.96 480.829,114.293 484.5,111.5 Z M 470.5,311.5 C 478.687,312.54 481.187,316.873 478,324.5C 473.375,328.646 469.041,328.313 465,323.5C 463.393,317.721 465.227,313.721 470.5,311.5 Z"/></g>
<g><path style="opacity:0.933" fill="#000000" d="M 398.5,511.5 C 394.167,511.5 389.833,511.5 385.5,511.5C 369.983,504.859 364.483,493.192 369,476.5C 350.971,458.805 333.304,440.805 316,422.5C 313.895,418.417 312.562,414.083 312,409.5C 311.5,400.84 311.334,392.173 311.5,383.5C 306.167,383.5 300.833,383.5 295.5,383.5C 295.667,395.171 295.5,406.838 295,418.5C 292.565,423.224 288.731,424.724 283.5,423C 281.951,421.786 280.785,420.286 280,418.5C 279.5,406.838 279.333,395.171 279.5,383.5C 274.167,383.5 268.833,383.5 263.5,383.5C 263.667,424.501 263.5,465.501 263,506.5C 262.003,508.323 260.836,509.99 259.5,511.5C 256.833,511.5 254.167,511.5 251.5,511.5C 250.164,509.99 248.997,508.323 248,506.5C 247.5,465.501 247.333,424.501 247.5,383.5C 242.167,383.5 236.833,383.5 231.5,383.5C 231.667,395.171 231.5,406.838 231,418.5C 228.565,423.224 224.731,424.724 219.5,423C 217.951,421.786 216.785,420.286 216,418.5C 215.5,406.838 215.333,395.171 215.5,383.5C 210.167,383.5 204.833,383.5 199.5,383.5C 199.167,405.51 199.5,427.51 200.5,449.5C 213.188,456.213 217.688,466.547 214,480.5C 205.672,495.941 193.505,499.774 177.5,492C 164.173,478.625 164.173,465.292 177.5,452C 179.167,451.167 180.833,450.333 182.5,449.5C 183.5,427.51 183.833,405.51 183.5,383.5C 142.833,386.833 124.167,368.167 127.5,327.5C 119.16,327.334 110.827,327.5 102.5,328C 99.8232,328.249 97.4899,329.249 95.5,331C 78.5,348 61.5,365 44.5,382C 49.8892,397.564 44.8892,408.564 29.5,415C 14.9183,417.547 4.91835,412.047 -0.5,398.5C -0.5,393.833 -0.5,389.167 -0.5,384.5C 6.7062,369.803 18.3729,364.637 34.5,369C 52.195,350.971 70.195,333.304 88.5,316C 92.5834,313.895 96.9167,312.562 101.5,312C 110.16,311.5 118.827,311.334 127.5,311.5C 127.5,306.167 127.5,300.833 127.5,295.5C 115.829,295.667 104.162,295.5 92.5,295C 87.7762,292.565 86.2762,288.731 88,283.5C 89.214,281.951 90.714,280.785 92.5,280C 104.162,279.5 115.829,279.333 127.5,279.5C 127.5,274.167 127.5,268.833 127.5,263.5C 86.4986,263.667 45.4986,263.5 4.5,263C 2.67694,262.003 1.01027,260.836 -0.5,259.5C -0.5,256.833 -0.5,254.167 -0.5,251.5C 1.01027,250.164 2.67694,248.997 4.5,248C 45.4986,247.5 86.4986,247.333 127.5,247.5C 127.5,242.167 127.5,236.833 127.5,231.5C 115.829,231.667 104.162,231.5 92.5,231C 87.7762,228.565 86.2762,224.731 88,219.5C 89.214,217.951 90.714,216.785 92.5,216C 104.162,215.5 115.829,215.333 127.5,215.5C 127.5,210.167 127.5,204.833 127.5,199.5C 105.49,199.167 83.4899,199.5 61.5,200.5C 54.7866,213.188 44.4533,217.688 30.5,214C 15.0591,205.672 11.2258,193.505 19,177.5C 32.3749,164.173 45.7082,164.173 59,177.5C 59.8333,179.167 60.6667,180.833 61.5,182.5C 83.4899,183.5 105.49,183.833 127.5,183.5C 127.334,175.493 127.5,167.493 128,159.5C 130.774,151.095 135.774,149.428 143,154.5C 143.601,156.137 144.101,157.803 144.5,159.5C 143.341,222.812 143.174,286.145 144,349.5C 146.5,358.667 152.333,364.5 161.5,367C 224.855,367.826 288.188,367.659 351.5,366.5C 357.967,367.428 360.467,371.095 359,377.5C 357.52,380.663 355.02,382.496 351.5,383C 343.507,383.5 335.507,383.666 327.5,383.5C 327.334,391.84 327.5,400.173 328,408.5C 328.249,411.177 329.249,413.51 331,415.5C 347.5,432 364,448.5 380.5,465C 392.857,461.654 403.357,464.821 412,474.5C 419.635,491.44 415.135,503.773 398.5,511.5 Z M 36.5,183.5 C 45.6101,183.772 48.4435,188.105 45,196.5C 41.0395,200.478 37.0395,200.478 33,196.5C 30.3476,191.039 31.5142,186.706 36.5,183.5 Z M 22.5,383.5 C 29.2895,384.736 31.7895,388.736 30,395.5C 25.3333,400.833 20.6667,400.833 16,395.5C 14.3053,389.213 16.472,385.213 22.5,383.5 Z M 187.5,464.5 C 198.469,463.987 201.469,468.487 196.5,478C 187.961,481.451 183.794,478.618 184,469.5C 184.997,467.677 186.164,466.01 187.5,464.5 Z M 388.5,480.5 C 396.656,479.821 400.156,483.488 399,491.5C 394.239,496.812 389.572,496.812 385,491.5C 383.262,486.962 384.429,483.296 388.5,480.5 Z"/></g>
<g><path style="opacity:0.93" fill="#000000" d="M 226.5,167.5 C 237.339,166.291 247.006,168.957 255.5,175.5C 268.047,166.316 281.381,165.149 295.5,172C 305.951,179.024 309.951,188.691 307.5,201C 327.377,207.213 336.543,220.713 335,241.5C 333.666,248.503 330.499,254.503 325.5,259.5C 337.83,274.142 338.663,289.476 328,305.5C 324.561,308.791 321.061,311.958 317.5,315C 313.275,333.219 301.775,342.719 283,343.5C 272.303,343.565 263.137,339.899 255.5,332.5C 239.695,345.677 223.029,346.844 205.5,336C 198.028,329.556 193.861,321.39 193,311.5C 173.853,296.404 170.353,278.237 182.5,257C 171.831,239.687 173.498,223.687 187.5,209C 192.275,205.279 197.609,202.612 203.5,201C 201.049,188.691 205.049,179.024 215.5,172C 219.157,170.178 222.824,168.678 226.5,167.5 Z M 228.5,183.5 C 241.15,182.233 247.983,187.9 249,200.5C 253.333,204.5 257.667,204.5 262,200.5C 262.233,189.936 267.566,184.269 278,183.5C 287.947,183.775 292.613,188.775 292,198.5C 287.584,200.122 283.084,201.622 278.5,203C 272.403,210.003 273.736,215.169 282.5,218.5C 293.006,213.895 303.006,214.728 312.5,221C 321.348,229.917 321.681,239.084 313.5,248.5C 310.391,250.475 307.557,252.808 305,255.5C 303.306,262.328 305.806,266.995 312.5,269.5C 321.192,278.039 321.692,287.039 314,296.5C 308.389,288.196 300.722,282.863 291,280.5C 284.369,282.759 282.369,287.092 285,293.5C 287.626,296.231 290.793,298.064 294.5,299C 304.83,309.692 303.496,318.692 290.5,326C 278.172,329.899 269.339,326.066 264,314.5C 263.333,296.5 263.333,278.5 264,260.5C 265.743,255.09 269.243,251.256 274.5,249C 278.899,248.183 283.232,247.183 287.5,246C 291.5,241.667 291.5,237.333 287.5,233C 279.215,230.788 271.382,231.955 264,236.5C 263.667,232.833 263.333,229.167 263,225.5C 258,217.5 253,217.5 248,225.5C 247.667,239.833 247.333,254.167 247,268.5C 240.689,263.598 235.022,263.931 230,269.5C 228.798,273.793 229.965,277.293 233.5,280C 240.693,281.86 245.193,286.36 247,293.5C 247.667,300.5 247.667,307.5 247,314.5C 242.56,324.806 234.726,328.973 223.5,327C 212.171,323.829 208.005,316.663 211,305.5C 213.612,302.611 215.445,299.278 216.5,295.5C 211.348,285.22 205.348,284.886 198.5,294.5C 191.11,287.327 189.61,278.993 194,269.5C 199.172,261.822 206.339,256.989 215.5,255C 218.658,251.528 219.158,247.694 217,243.5C 215.278,241.556 213.111,240.556 210.5,240.5C 205.035,241.938 199.701,243.438 194.5,245C 189.276,234.335 191.609,225.668 201.5,219C 206.504,216.416 211.837,215.082 217.5,215C 222.224,212.565 223.724,208.731 222,203.5C 216.391,194.372 218.558,187.705 228.5,183.5 Z"/></g>
</svg>
