<?xml version="1.0" encoding="UTF-8"?>
<!DOCTYPE svg PUBLIC "-//W3C//DTD SVG 1.1//EN" "http://www.w3.org/Graphics/SVG/1.1/DTD/svg11.dtd">
<svg xmlns="http://www.w3.org/2000/svg" version="1.1" width="800px" height="800px" style="shape-rendering:geometricPrecision; text-rendering:geometricPrecision; image-rendering:optimizeQuality; fill-rule:evenodd; clip-rule:evenodd" xmlns:xlink="http://www.w3.org/1999/xlink">
<g><path style="opacity:0.995" fill="#8ac400" d="M 386.5,-0.5 C 394.833,-0.5 403.167,-0.5 411.5,-0.5C 519.366,60.7732 627.033,122.606 734.5,185C 743.167,191.006 748.667,199.173 751,209.5C 751.667,335.833 751.667,462.167 751,588.5C 747.349,601.622 739.515,611.455 727.5,618C 625.241,676.601 523.241,735.601 421.5,795C 418.107,796.62 414.774,798.12 411.5,799.5C 403.167,799.5 394.833,799.5 386.5,799.5C 278.464,737.641 170.464,675.474 62.5,613C 54.1966,606.91 49.03,598.743 47,588.5C 46.3333,462.5 46.3333,336.5 47,210.5C 50.3332,198.819 57.1665,189.652 67.5,183C 173.634,121.273 279.967,60.1067 386.5,-0.5 Z"/></g>
<g><path style="opacity:1" fill="#666860" d="M 545.5,289.5 C 545.825,344.875 545.492,400.208 544.5,455.5C 526.062,466.892 507.396,478.059 488.5,489C 485.298,490.483 481.964,490.817 478.5,490C 459.584,478.959 440.751,467.793 422,456.5C 420.852,444.259 420.352,431.925 420.5,419.5C 420.667,407.833 420.833,396.167 421,384.5C 439.918,372.623 459.085,361.123 478.5,350C 481.167,349.333 483.833,349.333 486.5,350C 490.833,352.333 495.167,354.667 499.5,357C 501.112,357.72 502.612,357.554 504,356.5C 504.333,326.833 504.667,297.167 505,267.5C 506.868,266.328 508.702,266.495 510.5,268C 521.135,273.986 531.801,279.986 542.5,286C 543.71,287.039 544.71,288.206 545.5,289.5 Z"/></g>
<g><path style="opacity:1" fill="#85b70e" d="M 545.5,289.5 C 546.665,344.332 546.832,399.332 546,454.5C 545.617,455.056 545.117,455.389 544.5,455.5C 545.492,400.208 545.825,344.875 545.5,289.5 Z"/></g>
<g><path style="opacity:1" fill="#666860" d="M 146.5,346.5 C 147.873,346.343 149.207,346.51 150.5,347C 170.581,358.456 190.415,370.289 210,382.5C 210.829,413.405 210.662,444.238 209.5,475C 208.167,475.667 206.833,475.667 205.5,475C 193.917,468.293 182.417,461.459 171,454.5C 169.697,438.925 169.03,423.259 169,407.5C 167.833,405 166,403.167 163.5,402C 158.351,399.341 153.184,396.841 148,394.5C 139.984,397.334 132.984,401.667 127,407.5C 126.667,422.833 126.333,438.167 126,453.5C 114.416,461.044 102.583,468.21 90.5,475C 88.6332,475.711 87.1332,475.211 86,473.5C 85.3333,443.167 85.3333,412.833 86,382.5C 105.982,370.096 126.149,358.096 146.5,346.5 Z"/></g>
<g><path style="opacity:1" fill="#fefefc" d="M 311.5,347.5 C 315.463,347.089 319.13,347.922 322.5,350C 339.833,360 357.167,370 374.5,380C 376.049,381.214 377.215,382.714 378,384.5C 378.979,407.921 378.646,431.255 377,454.5C 357.582,466.126 338.082,477.626 318.5,489C 314.88,489.841 311.546,489.174 308.5,487C 291.833,477.333 275.167,467.667 258.5,458C 256,456.833 254.167,455 253,452.5C 252.021,429.079 252.354,405.745 254,382.5C 273.147,370.682 292.314,359.016 311.5,347.5 Z"/></g>
<g><path style="opacity:1" fill="#666860" d="M 645.5,348.5 C 648.978,348.184 652.312,348.684 655.5,350C 674.246,360.455 692.746,371.288 711,382.5C 711.934,390.605 711.601,398.605 710,406.5C 699.416,412.875 688.916,419.375 678.5,426C 676.323,427.202 673.989,427.702 671.5,427.5C 671.666,420.825 671.5,414.158 671,407.5C 664.917,403.541 658.751,399.708 652.5,396C 650.833,395.333 649.167,395.333 647.5,396C 641.75,399.626 635.916,403.126 630,406.5C 629.333,414.833 629.333,423.167 630,431.5C 648.425,442.965 667.259,453.799 686.5,464C 687.574,464.739 688.241,465.739 688.5,467C 686.825,469.685 684.492,471.685 681.5,473C 671.5,478.333 661.5,483.667 651.5,489C 648.217,489.743 645.217,489.076 642.5,487C 625.167,477 607.833,467 590.5,457C 589.299,456.097 588.465,454.931 588,453.5C 587.333,430.167 587.333,406.833 588,383.5C 607.147,371.682 626.314,360.016 645.5,348.5 Z"/></g>
<g><path style="opacity:1" fill="#8dc60c" d="M 314.5,395.5 C 322.015,398.843 329.182,402.843 336,407.5C 336.667,415.5 336.667,423.5 336,431.5C 329.375,435.894 322.542,439.894 315.5,443.5C 308.458,439.894 301.625,435.894 295,431.5C 294.333,423.5 294.333,415.5 295,407.5C 301.672,403.637 308.172,399.637 314.5,395.5 Z"/></g>
<g><path style="opacity:1" fill="#8ac204" d="M 481.5,395.5 C 489.015,398.843 496.182,402.843 503,407.5C 503.667,415.5 503.667,423.5 503,431.5C 496.375,435.894 489.542,439.894 482.5,443.5C 475.458,439.894 468.625,435.894 462,431.5C 461.333,423.5 461.333,415.5 462,407.5C 468.672,403.637 475.172,399.637 481.5,395.5 Z"/></g>
<g><path style="opacity:1" fill="#66695f" d="M 646.5,405.5 C 651.891,405.939 656.724,407.939 661,411.5C 661.828,416.202 661.662,420.869 660.5,425.5C 656.861,427.316 653.361,429.316 650,431.5C 645.946,429.89 642.113,427.89 638.5,425.5C 637.338,420.869 637.172,416.202 638,411.5C 640.988,409.601 643.821,407.601 646.5,405.5 Z"/></g>
</svg>
