<?xml version="1.0" encoding="UTF-8"?>
<!DOCTYPE svg PUBLIC "-//W3C//DTD SVG 1.1//EN" "http://www.w3.org/Graphics/SVG/1.1/DTD/svg11.dtd">
<svg xmlns="http://www.w3.org/2000/svg" version="1.1" width="480px" height="480px" style="shape-rendering:geometricPrecision; text-rendering:geometricPrecision; image-rendering:optimizeQuality; fill-rule:evenodd; clip-rule:evenodd" xmlns:xlink="http://www.w3.org/1999/xlink">
<g><path style="opacity:0.995" fill="#3776ac" d="M 211.5,-0.5 C 229.167,-0.5 246.833,-0.5 264.5,-0.5C 272.774,0.579329 281.107,1.91266 289.5,3.5C 255.14,38.527 220.473,73.1937 185.5,107.5C 164.833,107.5 144.167,107.5 123.5,107.5C 123.333,86.8306 123.5,66.164 124,45.5C 127.36,32.1365 135.193,22.3032 147.5,16C 167.89,6.4033 189.223,0.903298 211.5,-0.5 Z M 173.5,36.5 C 192.502,40.5044 198.336,51.5044 191,69.5C 182.657,78.3203 173.157,79.8203 162.5,74C 150.422,62.3082 150.755,50.9749 163.5,40C 166.85,38.5137 170.184,37.347 173.5,36.5 Z"/></g>
<g><path style="opacity:0.996" fill="#3773a5" d="M 289.5,3.5 C 310.901,6.05859 329.234,14.7253 344.5,29.5C 265.75,106.75 187.416,184.583 109.5,263C 83.1946,288.305 57.1946,313.972 31.5,340C 30.9056,340.464 30.2389,340.631 29.5,340.5C 21.9729,333.453 16.1396,325.12 12,315.5C 8.25395,306.43 5.42062,297.096 3.5,287.5C 59.1178,233.549 114.118,178.883 168.5,123.5C 192.5,123.5 216.5,123.5 240.5,123.5C 240.5,118.167 240.5,112.833 240.5,107.5C 222.167,107.5 203.833,107.5 185.5,107.5C 220.473,73.1937 255.14,38.527 289.5,3.5 Z"/></g>
<g><path style="opacity:0.996" fill="#366f9f" d="M 344.5,29.5 C 351.57,36.644 355.737,45.3106 357,55.5C 357.5,68.8292 357.667,82.1625 357.5,95.5C 311.473,141.194 265.473,186.86 219.5,232.5C 199.464,232.089 179.464,232.589 159.5,234C 130.832,241.006 114.332,259.173 110,288.5C 109.5,311.831 109.333,335.164 109.5,358.5C 92.1288,358.896 74.7954,358.396 57.5,357C 46.431,354.304 37.0977,348.804 29.5,340.5C 30.2389,340.631 30.9056,340.464 31.5,340C 57.1946,313.972 83.1946,288.305 109.5,263C 187.416,184.583 265.75,106.75 344.5,29.5 Z"/></g>
<g><path style="opacity:0.987" fill="#356c99" d="M 357.5,95.5 C 357.914,124.859 357.414,154.192 356,183.5C 351.759,205.742 338.926,220.576 317.5,228C 311.617,229.843 305.617,231.177 299.5,232C 272.835,232.5 246.169,232.667 219.5,232.5C 265.473,186.86 311.473,141.194 357.5,95.5 Z"/></g>
<g><path style="opacity:0.993" fill="#3777ac" d="M 168.5,123.5 C 114.118,178.883 59.1178,233.549 3.5,287.5C 2.05911,279.394 0.725773,271.394 -0.5,263.5C -0.5,247.5 -0.5,231.5 -0.5,215.5C 1.29829,191.606 8.79829,169.606 22,149.5C 33.1554,135.498 47.6554,126.998 65.5,124C 99.8317,123.5 134.165,123.333 168.5,123.5 Z"/></g>
<g><path style="opacity:0.998" fill="#ffd141" d="M 449.5,135.5 C 462.091,147.998 470.591,162.998 475,180.5C 476.706,186.405 477.873,192.405 478.5,198.5C 428.7,249.801 379.034,301.301 329.5,353C 331.382,353.198 333.048,353.698 334.5,354.5C 306.5,354.5 278.5,354.5 250.5,354.5C 247.359,353.679 244.025,353.179 240.5,353C 309.669,279.998 379.336,207.498 449.5,135.5 Z"/></g>
<g><path style="opacity:0.997" fill="#ffcc3b" d="M 478.5,198.5 C 478.5,199.167 478.833,199.5 479.5,199.5C 479.5,225.5 479.5,251.5 479.5,277.5C 476.129,298.775 467.629,317.775 454,334.5C 443.927,344.788 431.761,351.288 417.5,354C 389.835,354.5 362.169,354.667 334.5,354.5C 333.048,353.698 331.382,353.198 329.5,353C 379.034,301.301 428.7,249.801 478.5,198.5 Z"/></g>
<g><path style="opacity:0.996" fill="#ffd647" d="M 449.5,135.5 C 379.336,207.498 309.669,279.998 240.5,353C 244.025,353.179 247.359,353.679 250.5,354.5C 247.167,354.5 243.833,354.5 240.5,354.5C 240.5,357.833 240.5,361.167 240.5,364.5C 239.679,361.359 239.179,358.025 239,354.5C 211.697,383.47 184.03,412.137 156,440.5C 151.599,445.393 147.432,450.393 143.5,455.5C 132.678,447.532 126.178,436.865 124,423.5C 123.5,414.84 123.334,406.173 123.5,397.5C 124.327,392.015 124.827,386.348 125,380.5C 164.302,338.863 203.969,297.53 244,256.5C 247.073,252.939 249.906,249.272 252.5,245.5C 276.205,245.938 299.872,245.438 323.5,244C 351.497,235.997 367.33,217.497 371,188.5C 371.5,165.836 371.667,143.169 371.5,120.5C 388.17,120.333 404.837,120.5 421.5,121C 432.447,122.971 441.78,127.805 449.5,135.5 Z"/></g>
<g><path style="opacity:0.976" fill="#ffdb4d" d="M 252.5,245.5 C 249.906,249.272 247.073,252.939 244,256.5C 203.969,297.53 164.302,338.863 125,380.5C 124.827,386.348 124.327,392.015 123.5,397.5C 123.333,365.498 123.5,333.498 124,301.5C 127.868,270.297 145.368,252.13 176.5,247C 201.805,245.59 227.138,245.09 252.5,245.5 Z"/></g>
<g><path style="opacity:0.994" fill="#ffd141" d="M 240.5,364.5 C 240.5,366.5 240.5,368.5 240.5,370.5C 266.5,370.5 292.5,370.5 318.5,370.5C 284.704,406.131 250.704,441.631 216.5,477C 217.416,477.278 218.082,477.778 218.5,478.5C 197.704,477.467 177.704,472.967 158.5,465C 153.097,462.308 148.097,459.142 143.5,455.5C 147.432,450.393 151.599,445.393 156,440.5C 184.03,412.137 211.697,383.47 239,354.5C 239.179,358.025 239.679,361.359 240.5,364.5 Z"/></g>
<g><path style="opacity:0.981" fill="#ffcb3b" d="M 318.5,370.5 C 331.5,370.5 344.5,370.5 357.5,370.5C 357.667,391.169 357.5,411.836 357,432.5C 354.031,445.14 346.864,454.64 335.5,461C 321.159,469.002 305.826,474.002 289.5,476C 278.385,477.539 267.385,478.705 256.5,479.5C 246.833,479.5 237.167,479.5 227.5,479.5C 224.713,478.523 221.713,478.19 218.5,478.5C 218.082,477.778 217.416,477.278 216.5,477C 250.704,441.631 284.704,406.131 318.5,370.5 Z M 301.5,400.5 C 316.434,399.46 325.101,406.293 327.5,421C 325.081,435.044 316.748,441.711 302.5,441C 287.564,435.542 283.064,425.375 289,410.5C 292.191,405.837 296.358,402.503 301.5,400.5 Z"/></g>
</svg>
