<?xml version="1.0" encoding="UTF-8"?>
<!DOCTYPE svg PUBLIC "-//W3C//DTD SVG 1.1//EN" "http://www.w3.org/Graphics/SVG/1.1/DTD/svg11.dtd">
<svg xmlns="http://www.w3.org/2000/svg" version="1.1" width="1200px" height="848px" style="shape-rendering:geometricPrecision; text-rendering:geometricPrecision; image-rendering:optimizeQuality; fill-rule:evenodd; clip-rule:evenodd" xmlns:xlink="http://www.w3.org/1999/xlink">
<g><path style="opacity:0.986" fill="#61dafb" d="M 451.5,110.5 C 470.618,110.557 488.951,114.39 506.5,122C 526.469,131.007 545.135,142.007 562.5,155C 575.202,164.689 587.535,174.856 599.5,185.5C 620.606,166.221 643.273,149.055 667.5,134C 683.463,124.52 700.463,117.52 718.5,113C 758.57,103.287 786.737,117.12 803,154.5C 811.167,178.837 814.501,203.837 813,229.5C 812.015,254.727 808.515,279.561 802.5,304C 844.907,315.703 883.241,335.036 917.5,362C 930.32,373.479 939.987,387.145 946.5,403C 951.493,419.765 949.993,435.932 942,451.5C 933.35,466.82 921.85,479.653 907.5,490C 890.104,502.704 871.437,513.37 851.5,522C 835.581,528.463 819.581,534.629 803.5,540.5C 813.992,581.034 816.492,622.034 811,663.5C 807.976,685.715 798.476,704.548 782.5,720C 766.934,731.117 749.6,735.117 730.5,732C 706.935,727.812 684.935,719.478 664.5,707C 641.575,692.415 620.075,675.915 600,657.5C 570.658,686.095 537.158,708.595 499.5,725C 434.867,746.932 397.7,724.098 388,656.5C 383.998,617.35 386.832,578.683 396.5,540.5C 364.23,530.198 333.564,516.365 304.5,499C 287.031,487.53 272.198,473.363 260,456.5C 247.745,436.516 246.411,415.849 256,394.5C 264.928,378.495 276.761,364.995 291.5,354C 323.063,332.071 357.397,315.571 394.5,304.5C 394.833,303.833 395.167,303.167 395.5,302.5C 386.375,265.295 383.542,227.628 387,189.5C 388.734,171.633 394.067,154.967 403,139.5C 414.707,122.235 430.873,112.569 451.5,110.5 Z M 738.5,142.5 C 755.203,142.101 766.369,149.768 772,165.5C 779.607,188.562 782.273,212.228 780,236.5C 778.625,256.415 775.625,276.082 771,295.5C 741.544,288.176 711.711,282.843 681.5,279.5C 663.298,255.292 643.965,231.958 623.5,209.5C 648.445,184.404 677.112,164.571 709.5,150C 719.02,146.371 728.686,143.871 738.5,142.5 Z M 451.5,143.5 C 471.458,143.873 490.125,149.04 507.5,159C 532.167,173.164 554.833,189.997 575.5,209.5C 554.735,231.727 535.402,255.06 517.5,279.5C 487.506,282.999 457.839,288.332 428.5,295.5C 418.927,261.091 416.093,226.091 420,190.5C 421.461,177.923 425.461,166.256 432,155.5C 436.969,148.776 443.469,144.776 451.5,143.5 Z M 598.5,232.5 C 611.859,246.194 624.526,260.527 636.5,275.5C 611.509,275.377 586.509,275.544 561.5,276C 573.294,261.04 585.627,246.54 598.5,232.5 Z M 578.5,308.5 C 606.916,308.033 635.249,309.199 663.5,312C 687.236,345.949 708.07,381.782 726,419.5C 726.484,421.913 726.15,424.246 725,426.5C 707.402,463.553 686.902,498.72 663.5,532C 620.828,536.666 578.162,536.666 535.5,532C 511.764,498.051 490.93,462.218 473,424.5C 472.333,423.167 472.333,421.833 473,420.5C 490.661,382.324 511.494,346.157 535.5,312C 549.957,310.47 564.291,309.303 578.5,308.5 Z M 488.5,316.5 C 489.873,316.343 491.207,316.51 492.5,317C 478.864,337.763 466.364,359.263 455,381.5C 447.127,363.751 440.96,345.417 436.5,326.5C 453.977,323.27 471.31,319.937 488.5,316.5 Z M 706.5,317.5 C 725.108,319.051 743.608,322.384 762,327.5C 757.23,345.81 751.23,363.81 744,381.5C 732.735,359.282 720.235,337.949 706.5,317.5 Z M 401.5,336.5 C 402.5,336.5 403.5,336.5 404.5,336.5C 412.752,365.756 423.085,394.256 435.5,422C 423.557,450.047 412.891,478.547 403.5,507.5C 366.44,496.638 332.773,479.471 302.5,456C 295.52,449.358 289.687,441.858 285,433.5C 280.63,421.913 282.297,411.247 290,401.5C 303.134,386.023 318.634,373.523 336.5,364C 357.564,353.127 379.23,343.96 401.5,336.5 Z M 794.5,336.5 C 830.756,346.296 863.756,362.463 893.5,385C 902.957,392.448 910.124,401.614 915,412.5C 918.051,424.021 915.718,434.354 908,443.5C 901.462,451.706 893.962,458.872 885.5,465C 857.772,483.694 827.772,497.861 795.5,507.5C 786.649,478.303 775.983,449.803 763.5,422C 775.517,394.115 785.851,365.615 794.5,336.5 Z M 743.5,461.5 C 751.228,479.173 757.894,497.34 763.5,516C 744.688,520.963 725.688,524.63 706.5,527C 720.503,506.166 732.836,484.333 743.5,461.5 Z M 454.5,462.5 C 466.258,484.513 478.925,506.013 492.5,527C 474.394,524.713 456.394,521.38 438.5,517C 437.572,516.612 436.905,515.945 436.5,515C 441.813,497.226 447.813,479.726 454.5,462.5 Z M 427.5,548.5 C 457.205,555.284 487.205,560.451 517.5,564C 534.117,587.034 552.284,608.867 572,629.5C 573.602,631.369 574.602,633.369 575,635.5C 552.282,657.549 526.782,675.715 498.5,690C 483.399,697.776 467.399,701.11 450.5,700C 440.361,697.864 433.194,692.031 429,682.5C 424.287,671.981 421.287,660.981 420,649.5C 417.921,628.8 418.254,608.133 421,587.5C 422.952,574.452 425.119,561.452 427.5,548.5 Z M 768.5,548.5 C 770.124,548.36 771.29,549.027 772,550.5C 781,586.492 783,622.825 778,659.5C 776.196,670.432 772.196,680.432 766,689.5C 759.901,696.708 752.067,700.374 742.5,700.5C 721.254,698.211 701.588,691.377 683.5,680C 661.791,666.966 641.791,651.632 623.5,634C 644.342,611.833 663.675,588.5 681.5,564C 710.98,560.755 739.98,555.588 768.5,548.5 Z M 562.5,567.5 C 587.176,567.167 611.842,567.5 636.5,568.5C 625.098,583.291 612.765,597.291 599.5,610.5C 586.051,597.057 573.718,582.723 562.5,567.5 Z"/></g>
<g><path style="opacity:0.992" fill="#61dafb" d="M 589.5,356.5 C 634.535,355.205 659.868,376.872 665.5,421.5C 660.631,465.76 635.964,487.593 591.5,487C 555.66,480.155 536.326,458.489 533.5,422C 536.254,386.422 554.92,364.589 589.5,356.5 Z"/></g>
</svg>
