<?xml version="1.0" encoding="UTF-8"?>
<!DOCTYPE svg PUBLIC "-//W3C//DTD SVG 1.1//EN" "http://www.w3.org/Graphics/SVG/1.1/DTD/svg11.dtd">
<svg xmlns="http://www.w3.org/2000/svg" version="1.1" width="260px" height="260px" style="shape-rendering:geometricPrecision; text-rendering:geometricPrecision; image-rendering:optimizeQuality; fill-rule:evenodd; clip-rule:evenodd" xmlns:xlink="http://www.w3.org/1999/xlink">
<g><path style="opacity:0.986" fill="#222222" d="M 113.5,-0.5 C 124.167,-0.5 134.833,-0.5 145.5,-0.5C 195.638,7.49467 230.805,34.828 251,81.5C 254.802,92.0497 257.635,102.716 259.5,113.5C 259.5,124.167 259.5,134.833 259.5,145.5C 249.95,201.184 218.617,237.684 165.5,255C 158.741,256.715 152.075,258.215 145.5,259.5C 134.833,259.5 124.167,259.5 113.5,259.5C 49.8055,247.806 11.8055,209.806 -0.5,145.5C -0.5,134.833 -0.5,124.167 -0.5,113.5C 7.49467,63.3618 34.828,28.1952 81.5,8C 92.0497,4.19792 102.716,1.36459 113.5,-0.5 Z"/></g>
<g><path style="opacity:1" fill="#02d1f7" d="M 85.5,43.5 C 96.8475,43.8938 107.181,47.3938 116.5,54C 120.689,57.6896 125.022,61.1896 129.5,64.5C 137.539,56.9662 146.539,50.7995 156.5,46C 173.601,39.9669 184.101,45.8002 188,63.5C 188.859,75.0066 188.192,86.3399 186,97.5C 200.506,101.25 212.84,108.584 223,119.5C 226.455,126.636 226.122,133.636 222,140.5C 212.342,150.82 200.675,157.82 187,161.5C 188.373,172.419 188.706,183.419 188,194.5C 184.682,212.909 174.182,219.076 156.5,213C 146.458,208.316 137.458,202.149 129.5,194.5C 119.695,204.464 108.028,211.297 94.5,215C 84.3117,216.822 77.1451,212.989 73,203.5C 71.0609,196.982 70.2276,190.316 70.5,183.5C 70.5852,176.414 71.0852,169.414 72,162.5C 61.7357,159.118 52.2357,154.285 43.5,148C 28.9206,135.632 28.9206,123.298 43.5,111C 52.6419,104.596 62.6419,100.096 73.5,97.5C 70.6327,85.6771 69.7994,73.6771 71,61.5C 72.7807,52.9004 77.614,46.9004 85.5,43.5 Z"/></g>
<g><path style="opacity:1" fill="#222323" d="M 85.5,52.5 C 100.613,53.5559 113.279,59.7226 123.5,71C 117.596,77.4809 111.929,84.1475 106.5,91C 98.1268,91.9513 89.7935,93.118 81.5,94.5C 78.8524,84.6611 78.019,74.6611 79,64.5C 79.8746,59.7475 82.0413,55.7475 85.5,52.5 Z"/></g>
<g><path style="opacity:1" fill="#222323" d="M 162.5,52.5 C 165.85,52.335 169.183,52.5017 172.5,53C 175.381,54.2506 177.214,56.4173 178,59.5C 179.993,71.1795 179.826,82.8461 177.5,94.5C 168.821,93.4983 160.154,92.3316 151.5,91C 146.407,84.1508 141.074,77.4841 135.5,71C 143.327,62.9868 152.327,56.8201 162.5,52.5 Z"/></g>
<g><path style="opacity:1" fill="#22292b" d="M 128.5,77.5 C 130.371,77.8588 131.871,78.8588 133,80.5C 135.5,83.6667 138,86.8333 140.5,90C 133.167,90.6667 125.833,90.6667 118.5,90C 122.047,85.9587 125.38,81.792 128.5,77.5 Z"/></g>
<g><path style="opacity:1" fill="#222424" d="M 112.5,98.5 C 124.2,98.268 135.866,98.768 147.5,100C 153.798,109.425 159.465,119.258 164.5,129.5C 159.382,140.243 153.382,150.41 146.5,160C 134.819,160.833 123.152,160.666 111.5,159.5C 105.033,150.013 99.3662,140.013 94.5,129.5C 99.7292,118.632 105.729,108.298 112.5,98.5 Z"/></g>
<g><path style="opacity:1" fill="#222729" d="M 95.5,100.5 C 97.1992,100.34 98.8659,100.506 100.5,101C 96.8735,107.085 93.3735,113.252 90,119.5C 87.2584,114.109 85.4251,108.442 84.5,102.5C 88.3597,102.192 92.0264,101.525 95.5,100.5 Z"/></g>
<g><path style="opacity:1" fill="#222627" d="M 158.5,100.5 C 163.7,101.449 168.866,102.449 174,103.5C 172.97,108.928 171.304,114.261 169,119.5C 165.243,113.26 161.743,106.926 158.5,100.5 Z"/></g>
<g><path style="opacity:1" fill="#222324" d="M 72.5,105.5 C 73.8333,105.5 75.1667,105.5 76.5,105.5C 78.5603,113.681 81.2269,121.681 84.5,129.5C 81.1766,136.969 78.3433,144.635 76,152.5C 63.5022,151.251 52.8355,145.918 44,136.5C 39.6975,128.975 41.1975,122.808 48.5,118C 56.1522,113.009 64.1522,108.842 72.5,105.5 Z"/></g>
<g><path style="opacity:1" fill="#222323" d="M 182.5,105.5 C 193.788,108.313 203.955,113.313 213,120.5C 215.37,122.87 216.87,125.704 217.5,129C 215.881,134.91 212.548,139.576 207.5,143C 200.332,147.558 192.665,151.058 184.5,153.5C 180.879,145.474 177.545,137.307 174.5,129C 177.47,121.257 180.137,113.423 182.5,105.5 Z"/></g>
<g><path style="opacity:1" fill="#00d5fb" d="M 123.5,112.5 C 139.843,111.011 147.343,118.344 146,134.5C 139.716,146.594 130.549,149.428 118.5,143C 112.014,136.02 110.847,128.186 115,119.5C 117.441,116.546 120.275,114.213 123.5,112.5 Z"/></g>
<g><path style="opacity:1" fill="#232829" d="M 89.5,139.5 C 93.2664,145.521 96.9331,151.687 100.5,158C 95.06,158.636 89.7267,158.136 84.5,156.5C 85.5535,150.671 87.2202,145.004 89.5,139.5 Z"/></g>
<g><path style="opacity:1" fill="#232829" d="M 168.5,139.5 C 171.332,144.509 173.666,149.842 175.5,155.5C 170.685,156.563 165.852,157.563 161,158.5C 160.167,158.167 159.333,157.833 158.5,157.5C 162.353,151.795 165.686,145.795 168.5,139.5 Z"/></g>
<g><path style="opacity:1" fill="#222323" d="M 81.5,164.5 C 90.0496,166.48 98.7162,167.814 107.5,168.5C 112.099,175.269 117.266,181.602 123,187.5C 116.096,196.416 106.93,202.583 95.5,206C 85.5053,208.024 80.0053,203.858 79,193.5C 78.1333,183.658 78.9667,173.992 81.5,164.5 Z"/></g>
<g><path style="opacity:1" fill="#222324" d="M 173.5,164.5 C 175.144,164.286 176.644,164.62 178,165.5C 181.291,176.819 181.291,188.153 178,199.5C 177.208,201.587 176.041,203.421 174.5,205C 170.289,206.534 165.956,206.867 161.5,206C 152.211,202.11 144.044,196.61 137,189.5C 136.333,188.5 136.333,187.5 137,186.5C 142.596,180.907 147.43,174.74 151.5,168C 159.026,167.147 166.359,165.981 173.5,164.5 Z"/></g>
<g><path style="opacity:1" fill="#232b2c" d="M 118.5,169.5 C 125.655,168.345 132.988,168.178 140.5,169C 137.121,173.59 133.621,178.09 130,182.5C 126.149,178.094 122.316,173.761 118.5,169.5 Z"/></g>
</svg>
