<?xml version="1.0" encoding="UTF-8"?>
<!DOCTYPE svg PUBLIC "-//W3C//DTD SVG 1.1//EN" "http://www.w3.org/Graphics/SVG/1.1/DTD/svg11.dtd">
<svg xmlns="http://www.w3.org/2000/svg" version="1.1" width="259px" height="194px" style="shape-rendering:geometricPrecision; text-rendering:geometricPrecision; image-rendering:optimizeQuality; fill-rule:evenodd; clip-rule:evenodd" xmlns:xlink="http://www.w3.org/1999/xlink">
<g><path style="opacity:1" fill="#fefefe" d="M -0.5,-0.5 C 85.8333,-0.5 172.167,-0.5 258.5,-0.5C 258.5,64.1667 258.5,128.833 258.5,193.5C 172.167,193.5 85.8333,193.5 -0.5,193.5C -0.5,128.833 -0.5,64.1667 -0.5,-0.5 Z"/></g>
<g><path style="opacity:1" fill="#eeb0b9" d="M 175.5,21.5 C 175.56,20.9569 175.893,20.6236 176.5,20.5C 177.825,32.6602 177.825,44.6602 176.5,56.5C 176.828,44.6547 176.495,32.988 175.5,21.5 Z"/></g>
<g><path style="opacity:1" fill="#f10303" d="M 175.5,21.5 C 176.495,32.988 176.828,44.6547 176.5,56.5C 175.461,58.5311 173.795,59.8645 171.5,60.5C 165.212,63.4826 158.545,65.4826 151.5,66.5C 143.51,66.9855 135.51,66.4855 127.5,65C 129.5,64.6667 131.5,64.3333 133.5,64C 132.207,63.51 130.873,63.3433 129.5,63.5C 129.184,55.2476 129.518,47.081 130.5,39C 128.167,38.6667 125.833,38.3333 123.5,38C 124.108,37.1301 124.941,36.6301 126,36.5C 128.478,37.2446 130.978,37.9112 133.5,38.5C 136.687,37.1345 140.02,36.3012 143.5,36C 142.5,35.6667 141.5,35.3333 140.5,35C 141.737,34.7679 142.737,34.2679 143.5,33.5C 152.872,31.2128 162.205,28.3795 171.5,25C 173.093,24.0513 174.426,22.8846 175.5,21.5 Z"/></g>
<g><path style="opacity:1" fill="#d70302" d="M 143.5,33.5 C 142.737,34.2679 141.737,34.7679 140.5,35C 141.5,35.3333 142.5,35.6667 143.5,36C 140.02,36.3012 136.687,37.1345 133.5,38.5C 130.978,37.9112 128.478,37.2446 126,36.5C 124.941,36.6301 124.108,37.1301 123.5,38C 125.833,38.3333 128.167,38.6667 130.5,39C 129.518,47.081 129.184,55.2476 129.5,63.5C 130.873,63.3433 132.207,63.51 133.5,64C 131.5,64.3333 129.5,64.6667 127.5,65C 135.51,66.4855 143.51,66.9855 151.5,66.5C 148.833,67.5 146.167,68.5 143.5,69.5C 135.474,70.3366 127.474,71.3366 119.5,72.5C 115.19,73.0802 110.857,73.4135 106.5,73.5C 103.482,73.6646 100.482,73.498 97.5,73C 100.833,72.6667 104.167,72.3333 107.5,72C 106.207,71.51 104.873,71.3433 103.5,71.5C 103.5,66.1667 103.5,60.8333 103.5,55.5C 100.833,55.5 98.1667,55.5 95.5,55.5C 95.5,52.8333 95.5,50.1667 95.5,47.5C 90.3183,47.4427 90.3183,46.776 95.5,45.5C 95.1667,45.1667 94.8333,44.8333 94.5,44.5C 91.5217,45.7181 88.6883,45.3847 86,43.5C 84.9568,47.2259 84.4568,46.8926 84.5,42.5C 87.5078,42.2991 90.5078,41.9657 93.5,41.5C 95.3328,41.4146 96.6661,40.7479 97.5,39.5C 112.807,37.2822 128.14,35.2822 143.5,33.5 Z"/></g>
<g><path style="opacity:1" fill="#c80203" d="M 97.5,39.5 C 96.6661,40.7479 95.3328,41.4146 93.5,41.5C 90.5078,41.9657 87.5078,42.2991 84.5,42.5C 84.4568,46.8926 84.9568,47.2259 86,43.5C 88.6883,45.3847 91.5217,45.7181 94.5,44.5C 94.8333,44.8333 95.1667,45.1667 95.5,45.5C 90.3183,46.776 90.3183,47.4427 95.5,47.5C 95.5,50.1667 95.5,52.8333 95.5,55.5C 98.1667,55.5 100.833,55.5 103.5,55.5C 103.5,60.8333 103.5,66.1667 103.5,71.5C 104.873,71.3433 106.207,71.51 107.5,72C 104.167,72.3333 100.833,72.6667 97.5,73C 100.482,73.498 103.482,73.6646 106.5,73.5C 106.5,73.8333 106.5,74.1667 106.5,74.5C 98.0887,75.426 89.7554,76.7593 81.5,78.5C 81.1677,66.4815 81.501,54.4815 82.5,42.5C 87.4265,41.0931 92.4265,40.0931 97.5,39.5 Z"/></g>
<g><path style="opacity:1" fill="#100e0d" d="M 171.5,60.5 C 174.797,62.1335 176.464,64.8001 176.5,68.5C 167.688,74.3277 158.021,77.9943 147.5,79.5C 146.167,79.5 144.833,79.5 143.5,79.5C 143.626,77.8002 144.293,76.3002 145.5,75C 144.41,72.9403 142.743,71.607 140.5,71C 141.737,70.7679 142.737,70.2679 143.5,69.5C 146.167,68.5 148.833,67.5 151.5,66.5C 158.545,65.4826 165.212,63.4826 171.5,60.5 Z"/></g>
<g><path style="opacity:1" fill="#2a2928" d="M 143.5,69.5 C 142.737,70.2679 141.737,70.7679 140.5,71C 142.743,71.607 144.41,72.9403 145.5,75C 144.293,76.3002 143.626,77.8002 143.5,79.5C 138.087,81.5602 132.42,82.8936 126.5,83.5C 123.193,84.0508 119.86,84.3841 116.5,84.5C 115.081,83.5489 113.415,83.2155 111.5,83.5C 111.5,82.5 111.5,81.5 111.5,80.5C 100.873,79.6493 100.873,78.4826 111.5,77C 110.167,76.6667 108.833,76.3333 107.5,76C 110.036,75.8138 112.369,75.3138 114.5,74.5C 116.306,73.9759 117.972,73.3092 119.5,72.5C 127.474,71.3366 135.474,70.3366 143.5,69.5 Z"/></g>
<g><path style="opacity:1" fill="#602b1b" d="M 119.5,72.5 C 117.972,73.3092 116.306,73.9759 114.5,74.5C 111.833,74.5 109.167,74.5 106.5,74.5C 106.5,74.1667 106.5,73.8333 106.5,73.5C 110.857,73.4135 115.19,73.0802 119.5,72.5 Z"/></g>
<g><path style="opacity:1" fill="#ee0102" d="M 176.5,68.5 C 176.667,80.5046 176.5,92.5046 176,104.5C 174.629,106.041 173.129,107.375 171.5,108.5C 164.366,111.397 157.033,113.73 149.5,115.5C 146.455,115.508 143.455,115.841 140.5,116.5C 136.451,114.57 132.118,113.403 127.5,113C 129.167,112.667 130.833,112.333 132.5,112C 131.552,111.517 130.552,111.351 129.5,111.5C 129.5,103.5 129.5,95.5 129.5,87.5C 127.801,87.6602 126.134,87.4935 124.5,87C 129.65,86.7315 134.65,85.7315 139.5,84C 138.5,83.6667 137.5,83.3333 136.5,83C 140.627,82.5202 144.293,81.3536 147.5,79.5C 158.021,77.9943 167.688,74.3277 176.5,68.5 Z"/></g>
<g><path style="opacity:1" fill="#41403e" d="M 106.5,74.5 C 109.167,74.5 111.833,74.5 114.5,74.5C 112.369,75.3138 110.036,75.8138 107.5,76C 108.833,76.3333 110.167,76.6667 111.5,77C 100.873,78.4826 100.873,79.6493 111.5,80.5C 111.5,81.5 111.5,82.5 111.5,83.5C 101.254,82.563 91.2541,80.8963 81.5,78.5C 89.7554,76.7593 98.0887,75.426 106.5,74.5 Z"/></g>
<g><path style="opacity:1" fill="#d80101" d="M 143.5,79.5 C 144.833,79.5 146.167,79.5 147.5,79.5C 144.293,81.3536 140.627,82.5202 136.5,83C 137.5,83.3333 138.5,83.6667 139.5,84C 134.65,85.7315 129.65,86.7315 124.5,87C 126.134,87.4935 127.801,87.6602 129.5,87.5C 129.5,95.5 129.5,103.5 129.5,111.5C 130.552,111.351 131.552,111.517 132.5,112C 130.833,112.333 129.167,112.667 127.5,113C 132.118,113.403 136.451,114.57 140.5,116.5C 133.543,118.078 126.543,119.411 119.5,120.5C 117.833,120.5 116.167,120.5 114.5,120.5C 110.154,120.666 105.821,120.499 101.5,120C 103.449,112.106 104.116,103.939 103.5,95.5C 104.5,95.5 105.5,95.5 106.5,95.5C 106.223,92.5525 106.556,89.7191 107.5,87C 113.539,86.6635 119.539,85.9968 125.5,85C 126.056,84.6174 126.389,84.1174 126.5,83.5C 132.42,82.8936 138.087,81.5602 143.5,79.5 Z"/></g>
<g><path style="opacity:1" fill="#cc0403" d="M 126.5,83.5 C 126.389,84.1174 126.056,84.6174 125.5,85C 119.539,85.9968 113.539,86.6635 107.5,87C 106.556,89.7191 106.223,92.5525 106.5,95.5C 105.5,95.5 104.5,95.5 103.5,95.5C 104.116,103.939 103.449,112.106 101.5,120C 105.821,120.499 110.154,120.666 114.5,120.5C 106.69,121.979 98.6897,123.146 90.5,124C 87.9963,124.698 85.663,125.531 83.5,126.5C 81.5203,114.545 80.8536,102.212 81.5,89.5C 93.2578,88.3269 104.925,86.6603 116.5,84.5C 119.86,84.3841 123.193,84.0508 126.5,83.5 Z"/></g>
<g><path style="opacity:1" fill="#24211f" d="M 149.5,115.5 C 153.483,117.937 152.816,119.104 147.5,119C 149.595,119.556 149.762,120.056 148,120.5C 146.535,119.67 145.035,119.504 143.5,120C 146.167,120.667 146.167,121.333 143.5,122C 147.375,123.347 147.375,124.514 143.5,125.5C 144.602,126.176 145.602,126.842 146.5,127.5C 142.807,128.06 139.14,128.727 135.5,129.5C 131.353,128.675 127.019,128.175 122.5,128C 122.167,127.667 121.833,127.333 121.5,127C 123.5,126.667 125.5,126.333 127.5,126C 122.279,125.458 122.279,124.624 127.5,123.5C 125.19,121.517 122.523,120.517 119.5,120.5C 126.543,119.411 133.543,118.078 140.5,116.5C 143.455,115.841 146.455,115.508 149.5,115.5 Z"/></g>
<g><path style="opacity:1" fill="#efb4b9" d="M 176.5,116.5 C 177.66,128.66 177.827,140.993 177,153.5C 176.329,154.252 175.496,154.586 174.5,154.5C 174.783,153.711 175.283,153.044 176,152.5C 176.5,140.505 176.667,128.505 176.5,116.5 Z"/></g>
<g><path style="opacity:1" fill="#120e0e" d="M 171.5,108.5 C 174.797,110.133 176.464,112.8 176.5,116.5C 167.706,122.322 158.04,125.989 147.5,127.5C 147.167,127.5 146.833,127.5 146.5,127.5C 145.602,126.842 144.602,126.176 143.5,125.5C 147.375,124.514 147.375,123.347 143.5,122C 146.167,121.333 146.167,120.667 143.5,120C 145.035,119.504 146.535,119.67 148,120.5C 149.762,120.056 149.595,119.556 147.5,119C 152.816,119.104 153.483,117.937 149.5,115.5C 157.033,113.73 164.366,111.397 171.5,108.5 Z"/></g>
<g><path style="opacity:1" fill="#353534" d="M 114.5,120.5 C 116.167,120.5 117.833,120.5 119.5,120.5C 122.523,120.517 125.19,121.517 127.5,123.5C 122.279,124.624 122.279,125.458 127.5,126C 125.5,126.333 123.5,126.667 121.5,127C 121.833,127.333 122.167,127.667 122.5,128C 127.019,128.175 131.353,128.675 135.5,129.5C 132.031,129.547 128.698,130.213 125.5,131.5C 122.455,131.508 119.455,131.841 116.5,132.5C 105.419,130.936 94.4187,128.936 83.5,126.5C 85.663,125.531 87.9963,124.698 90.5,124C 98.6897,123.146 106.69,121.979 114.5,120.5 Z"/></g>
<g><path style="opacity:1" fill="#f30102" d="M 176.5,116.5 C 176.667,128.505 176.5,140.505 176,152.5C 175.283,153.044 174.783,153.711 174.5,154.5C 166.411,158.974 157.744,161.64 148.5,162.5C 147.207,161.842 145.707,161.508 144,161.5C 141.532,162.646 138.699,163.146 135.5,163C 137.988,161.538 140.655,160.538 143.5,160C 141.866,159.506 140.199,159.34 138.5,159.5C 138.5,151.5 138.5,143.5 138.5,135.5C 135.402,135.587 135.068,135.087 137.5,134C 135.122,133.026 135.456,132.359 138.5,132C 136.833,131.667 135.167,131.333 133.5,131C 137.102,130.524 140.602,131.024 144,132.5C 148.435,131.743 148.269,130.909 143.5,130C 145.066,129.392 146.4,128.558 147.5,127.5C 158.04,125.989 167.706,122.322 176.5,116.5 Z"/></g>
<g><path style="opacity:1" fill="#de0102" d="M 146.5,127.5 C 146.833,127.5 147.167,127.5 147.5,127.5C 146.4,128.558 145.066,129.392 143.5,130C 148.269,130.909 148.435,131.743 144,132.5C 140.602,131.024 137.102,130.524 133.5,131C 135.167,131.333 136.833,131.667 138.5,132C 135.456,132.359 135.122,133.026 137.5,134C 135.068,135.087 135.402,135.587 138.5,135.5C 138.5,143.5 138.5,151.5 138.5,159.5C 140.199,159.34 141.866,159.506 143.5,160C 140.655,160.538 137.988,161.538 135.5,163C 138.699,163.146 141.532,162.646 144,161.5C 145.707,161.508 147.207,161.842 148.5,162.5C 136.496,165.763 124.162,167.763 111.5,168.5C 109.883,167.962 108.216,167.629 106.5,167.5C 106.5,164.833 106.5,162.167 106.5,159.5C 105.5,159.5 104.5,159.5 103.5,159.5C 103.5,151.5 103.5,143.5 103.5,135.5C 106.833,134.3 110.167,134.3 113.5,135.5C 117.003,133.999 120.669,133.166 124.5,133C 125.056,132.617 125.389,132.117 125.5,131.5C 128.698,130.213 132.031,129.547 135.5,129.5C 139.14,128.727 142.807,128.06 146.5,127.5 Z"/></g>
<g><path style="opacity:1" fill="#c90504" d="M 125.5,131.5 C 125.389,132.117 125.056,132.617 124.5,133C 120.669,133.166 117.003,133.999 113.5,135.5C 110.167,134.3 106.833,134.3 103.5,135.5C 103.5,143.5 103.5,151.5 103.5,159.5C 104.5,159.5 105.5,159.5 106.5,159.5C 106.5,162.167 106.5,164.833 106.5,167.5C 108.216,167.629 109.883,167.962 111.5,168.5C 101.918,169.912 92.2516,171.579 82.5,173.5C 81.501,161.518 81.1677,149.518 81.5,137.5C 93.128,135.588 104.795,133.921 116.5,132.5C 119.455,131.841 122.455,131.508 125.5,131.5 Z"/></g>
</svg>
