<?xml version="1.0" encoding="UTF-8"?>
<!DOCTYPE svg PUBLIC "-//W3C//DTD SVG 1.1//EN" "http://www.w3.org/Graphics/SVG/1.1/DTD/svg11.dtd">
<svg xmlns="http://www.w3.org/2000/svg" version="1.1" width="1200px" height="1200px" style="shape-rendering:geometricPrecision; text-rendering:geometricPrecision; image-rendering:optimizeQuality; fill-rule:evenodd; clip-rule:evenodd" xmlns:xlink="http://www.w3.org/1999/xlink">
<g><path style="opacity:1" fill="#fbaf40" d="M -0.5,-0.5 C 399.167,-0.5 798.833,-0.5 1198.5,-0.5C 1198.5,3.83333 1198.5,8.16667 1198.5,12.5C 798.833,12.5 399.167,12.5 -0.5,12.5C -0.5,8.16667 -0.5,3.83333 -0.5,-0.5 Z"/></g>
<g><path style="opacity:1" fill="#fbab3f" d="M -0.5,12.5 C 399.167,12.5 798.833,12.5 1198.5,12.5C 1198.5,31.1667 1198.5,49.8333 1198.5,68.5C 798.833,68.5 399.167,68.5 -0.5,68.5C -0.5,49.8333 -0.5,31.1667 -0.5,12.5 Z"/></g>
<g><path style="opacity:1" fill="#fba53d" d="M -0.5,68.5 C 399.167,68.5 798.833,68.5 1198.5,68.5C 1198.5,87.1667 1198.5,105.833 1198.5,124.5C 798.833,124.5 399.167,124.5 -0.5,124.5C -0.5,105.833 -0.5,87.1667 -0.5,68.5 Z"/></g>
<g><path style="opacity:1" fill="#fb9f3c" d="M -0.5,124.5 C 399.167,124.5 798.833,124.5 1198.5,124.5C 1198.5,144.833 1198.5,165.167 1198.5,185.5C 798.833,185.5 399.167,185.5 -0.5,185.5C -0.5,165.167 -0.5,144.833 -0.5,124.5 Z"/></g>
<g><path style="opacity:1" fill="#fb993b" d="M -0.5,185.5 C 399.167,185.5 798.833,185.5 1198.5,185.5C 1198.5,207.5 1198.5,229.5 1198.5,251.5C 983.167,251.5 767.833,251.5 552.5,251.5C 552.167,251.5 551.833,251.5 551.5,251.5C 542.73,242.228 533.73,233.062 524.5,224C 522.5,223.333 520.5,223.333 518.5,224C 515.833,226.667 513.167,229.333 510.5,232C 505.167,232.333 499.833,232.667 494.5,233C 491.5,236 488.5,239 485.5,242C 477.5,242.333 469.5,242.667 461.5,243C 458.833,245.667 456.167,248.333 453.5,251C 302.167,251.5 150.834,251.667 -0.5,251.5C -0.5,229.5 -0.5,207.5 -0.5,185.5 Z"/></g>
<g><path style="opacity:1" fill="#fb923a" d="M 551.5,251.5 C 547.818,251.335 544.152,251.501 540.5,252C 536.167,256.333 531.833,260.667 527.5,265C 523.833,265.333 520.167,265.667 516.5,266C 513.833,268.667 511.167,271.333 508.5,274C 507.207,274.49 505.873,274.657 504.5,274.5C 502.143,274.337 499.81,274.503 497.5,275C 494.5,278 491.5,281 488.5,284C 484.5,284.333 480.5,284.667 476.5,285C 473.833,287.667 471.167,290.333 468.5,293C 463.167,293.333 457.833,293.667 452.5,294C 449.833,296.667 447.167,299.333 444.5,302C 436.167,302.333 427.833,302.667 419.5,303C 416.5,306 413.5,309 410.5,312C 273.5,312.5 136.5,312.667 -0.5,312.5C -0.5,292.167 -0.5,271.833 -0.5,251.5C 150.834,251.667 302.167,251.5 453.5,251C 456.167,248.333 458.833,245.667 461.5,243C 469.5,242.667 477.5,242.333 485.5,242C 488.5,239 491.5,236 494.5,233C 499.833,232.667 505.167,232.333 510.5,232C 513.167,229.333 515.833,226.667 518.5,224C 520.5,223.333 522.5,223.333 524.5,224C 533.73,233.062 542.73,242.228 551.5,251.5 Z"/></g>
<g><path style="opacity:1" fill="#f88b3b" d="M 551.5,251.5 C 551.833,251.5 552.167,251.5 552.5,251.5C 558.833,258.167 565.167,264.833 571.5,271.5C 569.08,273.92 566.08,275.087 562.5,275C 559.5,278 556.5,281 553.5,284C 550.833,284.333 548.167,284.667 545.5,285C 542.833,287.667 540.167,290.333 537.5,293C 535.5,293.333 533.5,293.667 531.5,294C 528.833,296.667 526.167,299.333 523.5,302C 520.833,302.333 518.167,302.667 515.5,303C 512.5,306 509.5,309 506.5,312C 504.5,312.333 502.5,312.667 500.5,313C 497.833,315.667 495.167,318.333 492.5,321C 488.833,321.333 485.167,321.667 481.5,322C 478.5,325 475.5,328 472.5,331C 469.167,331.333 465.833,331.667 462.5,332C 459.833,334.667 457.167,337.333 454.5,340C 450.167,340.333 445.833,340.667 441.5,341C 438.479,344.877 434.812,347.711 430.5,349.5C 455.167,324.5 479.833,299.5 504.5,274.5C 505.873,274.657 507.207,274.49 508.5,274C 511.167,271.333 513.833,268.667 516.5,266C 520.167,265.667 523.833,265.333 527.5,265C 531.833,260.667 536.167,256.333 540.5,252C 544.152,251.501 547.818,251.335 551.5,251.5 Z"/></g>
<g><path style="opacity:1" fill="#fc923a" d="M 552.5,251.5 C 767.833,251.5 983.167,251.5 1198.5,251.5C 1198.5,271.833 1198.5,292.167 1198.5,312.5C 1003.5,312.5 808.5,312.5 613.5,312.5C 611.833,311.167 610.167,309.833 608.5,308.5C 602.833,302.167 596.833,296.167 590.5,290.5C 584.5,283.833 578.167,277.5 571.5,271.5C 565.167,264.833 558.833,258.167 552.5,251.5 Z"/></g>
<g><path style="opacity:1" fill="#f7863a" d="M 571.5,271.5 C 578.167,277.5 584.5,283.833 590.5,290.5C 588.804,290.685 587.471,291.519 586.5,293C 584.167,293.333 581.833,293.667 579.5,294C 576.186,298.675 571.852,301.675 566.5,303C 559.785,309.407 552.785,315.407 545.5,321C 543.5,321.333 541.5,321.667 539.5,322C 536.5,325 533.5,328 530.5,331C 527.833,331.333 525.167,331.667 522.5,332C 515.833,337.667 509.167,343.333 502.5,349C 500.167,349.333 497.833,349.667 495.5,350C 492.5,353 489.5,356 486.5,359C 481.148,360.325 476.814,363.325 473.5,368C 470.5,368.333 467.5,368.667 464.5,369C 461.833,371.667 459.167,374.333 456.5,377C 453.5,377.333 450.5,377.667 447.5,378C 443.963,381.369 440.629,384.869 437.5,388.5C 430.869,382.369 424.369,376.036 418,369.5C 417.333,370.167 417.333,370.833 418,371.5C 422.423,377.355 426.59,383.355 430.5,389.5C 425.761,392.731 421.428,396.564 417.5,401C 413.833,401.333 410.167,401.667 406.5,402C 403.833,404.667 401.167,407.333 398.5,410C 395.833,410.333 393.167,410.667 390.5,411C 387.296,414.036 384.296,417.203 381.5,420.5C 376.848,417.179 372.515,413.513 368.5,409.5C 389.45,390.218 409.783,370.218 429.5,349.5C 429.833,349.5 430.167,349.5 430.5,349.5C 434.812,347.711 438.479,344.877 441.5,341C 445.833,340.667 450.167,340.333 454.5,340C 457.167,337.333 459.833,334.667 462.5,332C 465.833,331.667 469.167,331.333 472.5,331C 475.5,328 478.5,325 481.5,322C 485.167,321.667 488.833,321.333 492.5,321C 495.167,318.333 497.833,315.667 500.5,313C 502.5,312.667 504.5,312.333 506.5,312C 509.5,309 512.5,306 515.5,303C 518.167,302.667 520.833,302.333 523.5,302C 526.167,299.333 528.833,296.667 531.5,294C 533.5,293.667 535.5,293.333 537.5,293C 540.167,290.333 542.833,287.667 545.5,285C 548.167,284.667 550.833,284.333 553.5,284C 556.5,281 559.5,278 562.5,275C 566.08,275.087 569.08,273.92 571.5,271.5 Z"/></g>
<g><path style="opacity:1" fill="#fb8d39" d="M 504.5,274.5 C 479.833,299.5 455.167,324.5 430.5,349.5C 430.167,349.5 429.833,349.5 429.5,349.5C 426.482,349.335 423.482,349.502 420.5,350C 417.5,353 414.5,356 411.5,359C 405.5,359.333 399.5,359.667 393.5,360C 390.833,362.667 388.167,365.333 385.5,368C 372.833,368.333 360.167,368.667 347.5,369C 344.536,372.644 341.036,375.478 337,377.5C 330.317,377.508 323.484,377.341 316.5,377C 318.833,374.667 321.167,372.333 323.5,370C 319.028,368.563 314.361,368.063 309.5,368.5C 313.63,363.869 317.963,359.369 322.5,355C 214.834,354.5 107.167,354.333 -0.5,354.5C -0.5,340.5 -0.5,326.5 -0.5,312.5C 136.5,312.667 273.5,312.5 410.5,312C 413.5,309 416.5,306 419.5,303C 427.833,302.667 436.167,302.333 444.5,302C 447.167,299.333 449.833,296.667 452.5,294C 457.833,293.667 463.167,293.333 468.5,293C 471.167,290.333 473.833,287.667 476.5,285C 480.5,284.667 484.5,284.333 488.5,284C 491.5,281 494.5,278 497.5,275C 499.81,274.503 502.143,274.337 504.5,274.5 Z"/></g>
<g><path style="opacity:1" fill="#f48038" d="M 590.5,290.5 C 596.833,296.167 602.833,302.167 608.5,308.5C 602.809,311.678 597.809,315.845 593.5,321C 591.5,321.333 589.5,321.667 587.5,322C 581.358,328.231 575.025,334.231 568.5,340C 566.5,340.333 564.5,340.667 562.5,341C 556.5,347 550.5,353 544.5,359C 542.167,359.333 539.833,359.667 537.5,360C 530.833,365.667 524.167,371.333 517.5,377C 512.364,379.118 508.03,382.451 504.5,387C 502.167,387.333 499.833,387.667 497.5,388C 490.076,396.096 482.076,403.43 473.5,410C 469.288,409.727 466.622,411.56 465.5,415.5C 456.14,406.472 446.807,397.472 437.5,388.5C 440.629,384.869 443.963,381.369 447.5,378C 450.5,377.667 453.5,377.333 456.5,377C 459.167,374.333 461.833,371.667 464.5,369C 467.5,368.667 470.5,368.333 473.5,368C 476.814,363.325 481.148,360.325 486.5,359C 489.5,356 492.5,353 495.5,350C 497.833,349.667 500.167,349.333 502.5,349C 509.167,343.333 515.833,337.667 522.5,332C 525.167,331.667 527.833,331.333 530.5,331C 533.5,328 536.5,325 539.5,322C 541.5,321.667 543.5,321.333 545.5,321C 552.785,315.407 559.785,309.407 566.5,303C 571.852,301.675 576.186,298.675 579.5,294C 581.833,293.667 584.167,293.333 586.5,293C 587.471,291.519 588.804,290.685 590.5,290.5 Z"/></g>
<g><path style="opacity:1" fill="#f17935" d="M 608.5,308.5 C 610.167,309.833 611.833,311.167 613.5,312.5C 616.833,316.167 620.167,319.833 623.5,323.5C 616.856,328.512 610.522,334.012 604.5,340C 602.5,340.333 600.5,340.667 598.5,341C 592.5,347 586.5,353 580.5,359C 578.833,359.333 577.167,359.667 575.5,360C 565.225,368.604 555.225,377.604 545.5,387C 543.5,387.333 541.5,387.667 539.5,388C 532.167,395.333 524.833,402.667 517.5,410C 515.167,410.333 512.833,410.667 510.5,411C 504.5,417 498.5,423 492.5,429C 490.167,429.333 487.833,429.667 485.5,430C 484.748,430.671 484.414,431.504 484.5,432.5C 477.869,427.204 471.535,421.537 465.5,415.5C 466.622,411.56 469.288,409.727 473.5,410C 482.076,403.43 490.076,396.096 497.5,388C 499.833,387.667 502.167,387.333 504.5,387C 508.03,382.451 512.364,379.118 517.5,377C 524.167,371.333 530.833,365.667 537.5,360C 539.833,359.667 542.167,359.333 544.5,359C 550.5,353 556.5,347 562.5,341C 564.5,340.667 566.5,340.333 568.5,340C 575.025,334.231 581.358,328.231 587.5,322C 589.5,321.667 591.5,321.333 593.5,321C 597.809,315.845 602.809,311.678 608.5,308.5 Z"/></g>
<g><path style="opacity:1" fill="#fc8d39" d="M 613.5,312.5 C 808.5,312.5 1003.5,312.5 1198.5,312.5C 1198.5,326.5 1198.5,340.5 1198.5,354.5C 1021.67,354.167 844.999,354.5 668.5,355.5C 655.364,345.359 641.697,336.026 627.5,327.5C 626.527,325.861 625.194,324.527 623.5,323.5C 620.167,319.833 616.833,316.167 613.5,312.5 Z"/></g>
<g><path style="opacity:1" fill="#ef7333" d="M 623.5,323.5 C 625.194,324.527 626.527,325.861 627.5,327.5C 630.253,332.008 633.253,336.341 636.5,340.5C 635.127,340.343 633.793,340.51 632.5,341C 629.186,345.675 624.852,348.675 619.5,350C 617.442,353.397 614.442,355.063 610.5,355C 591.5,373.333 572.5,391.667 553.5,410C 551.833,410.333 550.167,410.667 548.5,411C 538.255,419.24 528.588,428.24 519.5,438C 512.119,438.867 506.786,442.7 503.5,449.5C 496.843,444.175 490.51,438.509 484.5,432.5C 484.414,431.504 484.748,430.671 485.5,430C 487.833,429.667 490.167,429.333 492.5,429C 498.5,423 504.5,417 510.5,411C 512.833,410.667 515.167,410.333 517.5,410C 524.833,402.667 532.167,395.333 539.5,388C 541.5,387.667 543.5,387.333 545.5,387C 555.225,377.604 565.225,368.604 575.5,360C 577.167,359.667 578.833,359.333 580.5,359C 586.5,353 592.5,347 598.5,341C 600.5,340.667 602.5,340.333 604.5,340C 610.522,334.012 616.856,328.512 623.5,323.5 Z"/></g>
<g><path style="opacity:1" fill="#fffefe" d="M 627.5,327.5 C 641.697,336.026 655.364,345.359 668.5,355.5C 673.825,359.831 679.158,364.164 684.5,368.5C 704.015,387.671 722.015,408.004 738.5,429.5C 752.534,450.224 764.534,472.224 774.5,495.5C 782.227,515.427 788.227,535.76 792.5,556.5C 794.157,575.124 794.823,593.79 794.5,612.5C 793.614,627.982 790.947,643.149 786.5,658C 790.394,663.639 794.394,669.139 798.5,674.5C 800.93,679.037 803.597,683.37 806.5,687.5C 815.128,703.715 821.795,720.715 826.5,738.5C 828.813,749.378 830.146,760.378 830.5,771.5C 830.852,780.053 829.685,788.386 827,796.5C 826.261,797.574 825.261,798.241 824,798.5C 817.376,787.198 809.21,777.031 799.5,768C 781.892,755.114 762.226,750.448 740.5,754C 731.204,755.654 722.204,758.321 713.5,762C 657.43,794.829 597.43,804.829 533.5,792C 487.86,782.408 445.86,764.575 407.5,738.5C 386.054,723.408 366.054,706.408 347.5,687.5C 343.622,682.411 339.289,677.745 334.5,673.5C 323.183,659.534 312.849,644.868 303.5,629.5C 305.884,631.885 308.55,633.885 311.5,635.5C 320.233,641.562 329.233,647.229 338.5,652.5C 346.813,657.659 355.48,662.326 364.5,666.5C 371.418,669.695 378.418,672.695 385.5,675.5C 393.06,678.446 400.727,681.112 408.5,683.5C 465.715,702.189 522.382,700.689 578.5,679C 586.81,675.848 594.476,671.682 601.5,666.5C 569.332,640.707 538.665,613.041 509.5,583.5C 505.5,578.833 501.167,574.5 496.5,570.5C 492.139,565.807 487.805,561.141 483.5,556.5C 479.139,551.807 474.805,547.141 470.5,542.5C 464.508,535.175 458.175,528.175 451.5,521.5C 447.247,514.91 442.247,508.91 436.5,503.5C 430.514,495.517 424.181,487.851 417.5,480.5C 411.18,472.183 404.514,464.183 397.5,456.5C 388.542,444.208 379.209,432.208 369.5,420.5C 363.924,413.134 359.09,405.468 355,397.5C 359.669,401.337 364.169,405.337 368.5,409.5C 372.515,413.513 376.848,417.179 381.5,420.5C 392.204,429.871 403.204,438.871 414.5,447.5C 421.919,454.588 429.919,460.921 438.5,466.5C 451.238,477.567 464.571,487.9 478.5,497.5C 485.53,503.188 492.863,508.522 500.5,513.5C 520.409,528.467 541.076,542.467 562.5,555.5C 563.521,554.998 563.688,554.332 563,553.5C 546.893,536.568 531.393,519.235 516.5,501.5C 511.298,494.422 505.631,487.755 499.5,481.5C 490.542,469.208 481.209,457.208 471.5,445.5C 465.853,437.193 459.853,429.193 453.5,421.5C 445.821,410.796 438.154,400.129 430.5,389.5C 426.59,383.355 422.423,377.355 418,371.5C 417.333,370.833 417.333,370.167 418,369.5C 424.369,376.036 430.869,382.369 437.5,388.5C 446.807,397.472 456.14,406.472 465.5,415.5C 471.535,421.537 477.869,427.204 484.5,432.5C 490.51,438.509 496.843,444.175 503.5,449.5C 508.458,454.31 513.791,458.643 519.5,462.5C 525.554,468.887 532.221,474.554 539.5,479.5C 543.944,484.219 548.944,488.219 554.5,491.5C 558.587,495.922 563.254,499.589 568.5,502.5C 572.913,507.21 577.913,511.21 583.5,514.5C 612.715,537.528 643.215,558.861 675,578.5C 682.865,560.003 687.532,540.67 689,520.5C 691.406,486.387 686.906,453.387 675.5,421.5C 674.232,416.03 672.565,410.696 670.5,405.5C 668.15,400.095 665.816,394.761 663.5,389.5C 661.438,384.375 659.104,379.375 656.5,374.5C 652.988,367.466 648.988,360.799 644.5,354.5C 642.261,349.593 639.594,344.926 636.5,340.5C 633.253,336.341 630.253,332.008 627.5,327.5 Z"/></g>
<g><path style="opacity:1" fill="#ec6d30" d="M 636.5,340.5 C 639.594,344.926 642.261,349.593 644.5,354.5C 636.821,364.023 627.821,371.856 617.5,378C 602.252,391.245 587.585,405.245 573.5,420C 568.148,421.325 563.814,424.325 560.5,429C 549.921,437.574 539.921,446.907 530.5,457C 528.5,457.333 526.5,457.667 524.5,458C 522.963,459.707 521.296,461.207 519.5,462.5C 513.791,458.643 508.458,454.31 503.5,449.5C 506.786,442.7 512.119,438.867 519.5,438C 528.588,428.24 538.255,419.24 548.5,411C 550.167,410.667 551.833,410.333 553.5,410C 572.5,391.667 591.5,373.333 610.5,355C 614.442,355.063 617.442,353.397 619.5,350C 624.852,348.675 629.186,345.675 632.5,341C 633.793,340.51 635.127,340.343 636.5,340.5 Z"/></g>
<g><path style="opacity:1" fill="#fc8a38" d="M -0.5,354.5 C 107.167,354.333 214.834,354.5 322.5,355C 317.963,359.369 313.63,363.869 309.5,368.5C 206.167,368.5 102.833,368.5 -0.5,368.5C -0.5,363.833 -0.5,359.167 -0.5,354.5 Z"/></g>
<g><path style="opacity:1" fill="#e9672d" d="M 644.5,354.5 C 648.988,360.799 652.988,367.466 656.5,374.5C 651.427,378.066 646.76,382.232 642.5,387C 636.598,390.895 631.264,395.561 626.5,401C 624.833,401.333 623.167,401.667 621.5,402C 606.167,417.333 590.833,432.667 575.5,448C 562.575,456.235 550.741,466.068 540,477.5C 539.536,478.094 539.369,478.761 539.5,479.5C 532.221,474.554 525.554,468.887 519.5,462.5C 521.296,461.207 522.963,459.707 524.5,458C 526.5,457.667 528.5,457.333 530.5,457C 539.921,446.907 549.921,437.574 560.5,429C 563.814,424.325 568.148,421.325 573.5,420C 587.585,405.245 602.252,391.245 617.5,378C 627.821,371.856 636.821,364.023 644.5,354.5 Z"/></g>
<g><path style="opacity:1" fill="#fc8a38" d="M 1198.5,354.5 C 1198.5,359.167 1198.5,363.833 1198.5,368.5C 1027.17,368.5 855.833,368.5 684.5,368.5C 679.158,364.164 673.825,359.831 668.5,355.5C 844.999,354.5 1021.67,354.167 1198.5,354.5 Z"/></g>
<g><path style="opacity:1" fill="#fb8638" d="M 429.5,349.5 C 409.783,370.218 389.45,390.218 368.5,409.5C 364.169,405.337 359.669,401.337 355,397.5C 359.09,405.468 363.924,413.134 369.5,420.5C 366.813,420.336 364.146,420.503 361.5,421C 358.833,423.667 356.167,426.333 353.5,429C 347.5,429.333 341.5,429.667 335.5,430C 332.833,432.667 330.167,435.333 327.5,438C 307.503,438.5 287.503,438.667 267.5,438.5C 258.827,438.666 250.16,438.5 241.5,438C 244.167,435.333 246.833,432.667 249.5,430C 166.167,429.5 82.834,429.333 -0.5,429.5C -0.5,409.167 -0.5,388.833 -0.5,368.5C 102.833,368.5 206.167,368.5 309.5,368.5C 314.361,368.063 319.028,368.563 323.5,370C 321.167,372.333 318.833,374.667 316.5,377C 323.484,377.341 330.317,377.508 337,377.5C 341.036,375.478 344.536,372.644 347.5,369C 360.167,368.667 372.833,368.333 385.5,368C 388.167,365.333 390.833,362.667 393.5,360C 399.5,359.667 405.5,359.333 411.5,359C 414.5,356 417.5,353 420.5,350C 423.482,349.502 426.482,349.335 429.5,349.5 Z"/></g>
<g><path style="opacity:1" fill="#fc8637" d="M 684.5,368.5 C 855.833,368.5 1027.17,368.5 1198.5,368.5C 1198.5,388.833 1198.5,409.167 1198.5,429.5C 1045.17,429.5 891.833,429.5 738.5,429.5C 722.015,408.004 704.015,387.671 684.5,368.5 Z"/></g>
<g><path style="opacity:1" fill="#e6602a" d="M 656.5,374.5 C 659.104,379.375 661.438,384.375 663.5,389.5C 648.914,403.947 633.581,417.447 617.5,430C 596.885,451.118 575.885,471.618 554.5,491.5C 548.944,488.219 543.944,484.219 539.5,479.5C 539.369,478.761 539.536,478.094 540,477.5C 550.741,466.068 562.575,456.235 575.5,448C 590.833,432.667 606.167,417.333 621.5,402C 623.167,401.667 624.833,401.333 626.5,401C 631.264,395.561 636.598,390.895 642.5,387C 646.76,382.232 651.427,378.066 656.5,374.5 Z"/></g>
<g><path style="opacity:1" fill="#f78139" d="M 430.5,389.5 C 438.154,400.129 445.821,410.796 453.5,421.5C 450.101,423.388 447.101,425.888 444.5,429C 441.833,429.333 439.167,429.667 436.5,430C 433.833,432.667 431.167,435.333 428.5,438C 422.403,438.91 417.736,442.077 414.5,447.5C 403.204,438.871 392.204,429.871 381.5,420.5C 384.296,417.203 387.296,414.036 390.5,411C 393.167,410.667 395.833,410.333 398.5,410C 401.167,407.333 403.833,404.667 406.5,402C 410.167,401.667 413.833,401.333 417.5,401C 421.428,396.564 425.761,392.731 430.5,389.5 Z"/></g>
<g><path style="opacity:1" fill="#e35a27" d="M 663.5,389.5 C 665.816,394.761 668.15,400.095 670.5,405.5C 664.141,409.346 658.474,414.18 653.5,420C 652.5,420.333 651.5,420.667 650.5,421C 623.299,448.368 595.965,475.535 568.5,502.5C 563.254,499.589 558.587,495.922 554.5,491.5C 575.885,471.618 596.885,451.118 617.5,430C 633.581,417.447 648.914,403.947 663.5,389.5 Z"/></g>
<g><path style="opacity:1" fill="#df5424" d="M 670.5,405.5 C 672.565,410.696 674.232,416.03 675.5,421.5C 644.117,451.883 613.45,482.883 583.5,514.5C 577.913,511.21 572.913,507.21 568.5,502.5C 595.965,475.535 623.299,448.368 650.5,421C 651.5,420.667 652.5,420.333 653.5,420C 658.474,414.18 664.141,409.346 670.5,405.5 Z"/></g>
<g><path style="opacity:1" fill="#f47a37" d="M 453.5,421.5 C 459.853,429.193 465.853,437.193 471.5,445.5C 469.804,445.685 468.471,446.519 467.5,448C 465.167,448.333 462.833,448.667 460.5,449C 457.297,453.222 453.297,456.222 448.5,458C 445.568,461.442 442.235,464.275 438.5,466.5C 429.919,460.921 421.919,454.588 414.5,447.5C 417.736,442.077 422.403,438.91 428.5,438C 431.167,435.333 433.833,432.667 436.5,430C 439.167,429.667 441.833,429.333 444.5,429C 447.101,425.888 450.101,423.388 453.5,421.5 Z"/></g>
<g><path style="opacity:1" fill="#fc7f36" d="M -0.5,429.5 C 82.834,429.333 166.167,429.5 249.5,430C 246.833,432.667 244.167,435.333 241.5,438C 250.16,438.5 258.827,438.666 267.5,438.5C 264.704,441.797 261.704,444.964 258.5,448C 271.5,448.333 284.5,448.667 297.5,449C 280.833,465.667 264.167,482.333 247.5,499C 249.5,499.667 251.5,499.667 253.5,499C 270.347,481.986 287.347,465.153 304.5,448.5C 289.023,465.488 272.689,482.321 255.5,499C 270.167,499.333 284.833,499.667 299.5,500C 297.959,501.371 296.625,502.871 295.5,504.5C 295.167,504.5 294.833,504.5 294.5,504.5C 292.801,504.34 291.134,504.506 289.5,505C 286.833,507.667 284.167,510.333 281.5,513C 271.325,513.475 261.325,513.808 251.5,514C 248.249,517.758 244.582,520.925 240.5,523.5C 239.833,523.333 239.167,523.167 238.5,523C 241.5,520 244.5,517 247.5,514C 247,513.833 246.5,513.667 246,513.5C 242.213,516.284 238.713,519.451 235.5,523C 229.025,523.406 222.525,523.572 216,523.5C 215.167,523.333 214.333,523.167 213.5,523C 216.5,520 219.5,517 222.5,514C 211.049,513.736 199.382,513.403 187.5,513C 186.549,512.282 186.383,511.449 187,510.5C 188.833,508.667 190.667,506.833 192.5,505C 187.5,504.667 182.5,504.333 177.5,504C 176.5,503 175.5,502 174.5,501C 176.167,499.333 177.833,497.667 179.5,496C 119.501,495.5 59.5009,495.333 -0.5,495.5C -0.5,473.5 -0.5,451.5 -0.5,429.5 Z"/></g>
<g><path style="opacity:1" fill="#f98038" d="M 369.5,420.5 C 379.209,432.208 388.542,444.208 397.5,456.5C 395.708,457.309 393.708,457.809 391.5,458C 388.833,460.667 386.167,463.333 383.5,466C 380.833,466.333 378.167,466.667 375.5,467C 372.5,470 369.5,473 366.5,476C 364.5,476.333 362.5,476.667 360.5,477C 357.833,479.667 355.167,482.333 352.5,485C 348.167,485.333 343.833,485.667 339.5,486C 336.5,489 333.5,492 330.5,495C 326.167,495.333 321.833,495.667 317.5,496C 314.833,498.667 312.167,501.333 309.5,504C 304.845,504.499 300.179,504.666 295.5,504.5C 296.625,502.871 297.959,501.371 299.5,500C 284.833,499.667 270.167,499.333 255.5,499C 272.689,482.321 289.023,465.488 304.5,448.5C 287.347,465.153 270.347,481.986 253.5,499C 251.5,499.667 249.5,499.667 247.5,499C 264.167,482.333 280.833,465.667 297.5,449C 284.5,448.667 271.5,448.333 258.5,448C 261.704,444.964 264.704,441.797 267.5,438.5C 287.503,438.667 307.503,438.5 327.5,438C 330.167,435.333 332.833,432.667 335.5,430C 341.5,429.667 347.5,429.333 353.5,429C 356.167,426.333 358.833,423.667 361.5,421C 364.146,420.503 366.813,420.336 369.5,420.5 Z"/></g>
<g><path style="opacity:1" fill="#fc8036" d="M 738.5,429.5 C 891.833,429.5 1045.17,429.5 1198.5,429.5C 1198.5,451.5 1198.5,473.5 1198.5,495.5C 1057.17,495.5 915.833,495.5 774.5,495.5C 764.534,472.224 752.534,450.224 738.5,429.5 Z"/></g>
<g><path style="opacity:1" fill="#db4b20" d="M 675.5,421.5 C 686.906,453.387 691.406,486.387 689,520.5C 687.532,540.67 682.865,560.003 675,578.5C 643.215,558.861 612.715,537.528 583.5,514.5C 613.45,482.883 644.117,451.883 675.5,421.5 Z"/></g>
<g><path style="opacity:1" fill="#f07234" d="M 471.5,445.5 C 481.209,457.208 490.542,469.208 499.5,481.5C 498.101,484.39 495.768,485.89 492.5,486C 488.463,490.896 483.796,494.729 478.5,497.5C 464.571,487.9 451.238,477.567 438.5,466.5C 442.235,464.275 445.568,461.442 448.5,458C 453.297,456.222 457.297,453.222 460.5,449C 462.833,448.667 465.167,448.333 467.5,448C 468.471,446.519 469.804,445.685 471.5,445.5 Z"/></g>
<g><path style="opacity:1" fill="#f67937" d="M 397.5,456.5 C 404.514,464.183 411.18,472.183 417.5,480.5C 415.129,483.372 412.129,485.206 408.5,486C 404.97,490.549 400.636,493.882 395.5,496C 392.833,498.667 390.167,501.333 387.5,504C 385.167,504.333 382.833,504.667 380.5,505C 377.833,507.667 375.167,510.333 372.5,513C 370.167,513.333 367.833,513.667 365.5,514C 362.5,517 359.5,520 356.5,523C 354.167,523.333 351.833,523.667 349.5,524C 345.167,528.333 340.833,532.667 336.5,537C 333.833,537.333 331.167,537.667 328.5,538C 325.833,540.667 323.167,543.333 320.5,546C 318.5,546.333 316.5,546.667 314.5,547C 311.833,549.667 309.167,552.333 306.5,555C 302.167,555.333 297.833,555.667 293.5,556C 290.5,559 287.5,562 284.5,565C 281.833,565.333 279.167,565.667 276.5,566C 273.833,568.667 271.167,571.333 268.5,574C 262.086,574.207 255.753,574.707 249.5,575.5C 245.167,571.5 240.833,567.5 236.5,563.5C 255.833,543.833 275.167,524.167 294.5,504.5C 294.833,504.5 295.167,504.5 295.5,504.5C 300.179,504.666 304.845,504.499 309.5,504C 312.167,501.333 314.833,498.667 317.5,496C 321.833,495.667 326.167,495.333 330.5,495C 333.5,492 336.5,489 339.5,486C 343.833,485.667 348.167,485.333 352.5,485C 355.167,482.333 357.833,479.667 360.5,477C 362.5,476.667 364.5,476.333 366.5,476C 369.5,473 372.5,470 375.5,467C 378.167,466.667 380.833,466.333 383.5,466C 386.167,463.333 388.833,460.667 391.5,458C 393.708,457.809 395.708,457.309 397.5,456.5 Z"/></g>
<g><path style="opacity:1" fill="#eb6830" d="M 499.5,481.5 C 505.631,487.755 511.298,494.422 516.5,501.5C 513.995,503.715 510.995,504.881 507.5,505C 504.553,507.436 502.22,510.269 500.5,513.5C 492.863,508.522 485.53,503.188 478.5,497.5C 483.796,494.729 488.463,490.896 492.5,486C 495.768,485.89 498.101,484.39 499.5,481.5 Z"/></g>
<g><path style="opacity:1" fill="#fc7935" d="M -0.5,495.5 C 59.5009,495.333 119.501,495.5 179.5,496C 177.833,497.667 176.167,499.333 174.5,501C 175.5,502 176.5,503 177.5,504C 182.5,504.333 187.5,504.667 192.5,505C 190.667,506.833 188.833,508.667 187,510.5C 186.383,511.449 186.549,512.282 187.5,513C 199.382,513.403 211.049,513.736 222.5,514C 219.5,517 216.5,520 213.5,523C 214.333,523.167 215.167,523.333 216,523.5C 222.525,523.572 229.025,523.406 235.5,523C 238.713,519.451 242.213,516.284 246,513.5C 246.5,513.667 247,513.833 247.5,514C 244.5,517 241.5,520 238.5,523C 239.167,523.167 239.833,523.333 240.5,523.5C 244.582,520.925 248.249,517.758 251.5,514C 261.325,513.808 271.325,513.475 281.5,513C 284.167,510.333 286.833,507.667 289.5,505C 291.134,504.506 292.801,504.34 294.5,504.5C 275.167,524.167 255.833,543.833 236.5,563.5C 233.703,561.205 231.036,558.705 228.5,556C 152.167,555.5 75.8341,555.333 -0.5,555.5C -0.5,535.5 -0.5,515.5 -0.5,495.5 Z"/></g>
<g><path style="opacity:1" fill="#f47335" d="M 417.5,480.5 C 424.181,487.851 430.514,495.517 436.5,503.5C 433.921,504.228 431.254,504.728 428.5,505C 422.5,511 416.5,517 410.5,523C 408.167,523.333 405.833,523.667 403.5,524C 396.167,531.333 388.833,538.667 381.5,546C 379.167,546.333 376.833,546.667 374.5,547C 371.186,551.675 366.852,554.675 361.5,556C 355.09,562.343 348.423,568.343 341.5,574C 339.167,574.333 336.833,574.667 334.5,575C 331.5,578 328.5,581 325.5,584C 323.167,584.333 320.833,584.667 318.5,585C 315.833,587.667 313.167,590.333 310.5,593C 308.167,593.333 305.833,593.667 303.5,594C 300.297,598.222 296.297,601.222 291.5,603C 288.553,605.436 286.22,608.269 284.5,611.5C 272.861,599.527 261.194,587.527 249.5,575.5C 255.753,574.707 262.086,574.207 268.5,574C 271.167,571.333 273.833,568.667 276.5,566C 279.167,565.667 281.833,565.333 284.5,565C 287.5,562 290.5,559 293.5,556C 297.833,555.667 302.167,555.333 306.5,555C 309.167,552.333 311.833,549.667 314.5,547C 316.5,546.667 318.5,546.333 320.5,546C 323.167,543.333 325.833,540.667 328.5,538C 331.167,537.667 333.833,537.333 336.5,537C 340.833,532.667 345.167,528.333 349.5,524C 351.833,523.667 354.167,523.333 356.5,523C 359.5,520 362.5,517 365.5,514C 367.833,513.667 370.167,513.333 372.5,513C 375.167,510.333 377.833,507.667 380.5,505C 382.833,504.667 385.167,504.333 387.5,504C 390.167,501.333 392.833,498.667 395.5,496C 400.636,493.882 404.97,490.549 408.5,486C 412.129,485.206 415.129,483.372 417.5,480.5 Z"/></g>
<g><path style="opacity:1" fill="#fd7934" d="M 774.5,495.5 C 915.833,495.5 1057.17,495.5 1198.5,495.5C 1198.5,515.5 1198.5,535.5 1198.5,555.5C 1063,555.167 927.666,555.5 792.5,556.5C 788.227,535.76 782.227,515.427 774.5,495.5 Z"/></g>
<g><path style="opacity:1" fill="#f06d32" d="M 436.5,503.5 C 442.247,508.91 447.247,514.91 451.5,521.5C 449.974,523.13 447.974,523.963 445.5,524C 438.167,531.333 430.833,538.667 423.5,546C 418.703,547.778 414.703,550.778 411.5,555C 410.167,555.333 408.833,555.667 407.5,556C 401.5,562 395.5,568 389.5,574C 387.167,574.333 384.833,574.667 382.5,575C 376.5,581 370.5,587 364.5,593C 360.167,593.333 355.833,593.667 351.5,594C 337.578,607.419 324.245,621.252 311.5,635.5C 308.55,633.885 305.884,631.885 303.5,629.5C 297.5,623.833 291.5,618.167 285.5,612.5C 285.5,611.833 285.167,611.5 284.5,611.5C 286.22,608.269 288.553,605.436 291.5,603C 296.297,601.222 300.297,598.222 303.5,594C 305.833,593.667 308.167,593.333 310.5,593C 313.167,590.333 315.833,587.667 318.5,585C 320.833,584.667 323.167,584.333 325.5,584C 328.5,581 331.5,578 334.5,575C 336.833,574.667 339.167,574.333 341.5,574C 348.423,568.343 355.09,562.343 361.5,556C 366.852,554.675 371.186,551.675 374.5,547C 376.833,546.667 379.167,546.333 381.5,546C 388.833,538.667 396.167,531.333 403.5,524C 405.833,523.667 408.167,523.333 410.5,523C 416.5,517 422.5,511 428.5,505C 431.254,504.728 433.921,504.228 436.5,503.5 Z"/></g>
<g><path style="opacity:1" fill="#e45e2c" d="M 516.5,501.5 C 531.393,519.235 546.893,536.568 563,553.5C 563.688,554.332 563.521,554.998 562.5,555.5C 541.076,542.467 520.409,528.467 500.5,513.5C 502.22,510.269 504.553,507.436 507.5,505C 510.995,504.881 513.995,503.715 516.5,501.5 Z"/></g>
<g><path style="opacity:1" fill="#ec672f" d="M 451.5,521.5 C 458.175,528.175 464.508,535.175 470.5,542.5C 464.225,545.254 458.891,549.42 454.5,555C 452.833,555.333 451.167,555.667 449.5,556C 437.081,569.089 424.081,581.423 410.5,593C 408.833,593.333 407.167,593.667 405.5,594C 396.5,603 387.5,612 378.5,621C 376.833,621.333 375.167,621.667 373.5,622C 363.255,630.24 353.588,639.24 344.5,649C 342.833,649.333 341.167,649.667 339.5,650C 338.748,650.671 338.414,651.504 338.5,652.5C 329.233,647.229 320.233,641.562 311.5,635.5C 324.245,621.252 337.578,607.419 351.5,594C 355.833,593.667 360.167,593.333 364.5,593C 370.5,587 376.5,581 382.5,575C 384.833,574.667 387.167,574.333 389.5,574C 395.5,568 401.5,562 407.5,556C 408.833,555.667 410.167,555.333 411.5,555C 414.703,550.778 418.703,547.778 423.5,546C 430.833,538.667 438.167,531.333 445.5,524C 447.974,523.963 449.974,523.13 451.5,521.5 Z"/></g>
<g><path style="opacity:1" fill="#e8602b" d="M 470.5,542.5 C 474.805,547.141 479.139,551.807 483.5,556.5C 480.369,559.129 477.369,561.962 474.5,565C 472.833,565.333 471.167,565.667 469.5,566C 451.138,584.695 432.472,603.029 413.5,621C 411.5,621.333 409.5,621.667 407.5,622C 392.578,636.419 378.245,651.252 364.5,666.5C 355.48,662.326 346.813,657.659 338.5,652.5C 338.414,651.504 338.748,650.671 339.5,650C 341.167,649.667 342.833,649.333 344.5,649C 353.588,639.24 363.255,630.24 373.5,622C 375.167,621.667 376.833,621.333 378.5,621C 387.5,612 396.5,603 405.5,594C 407.167,593.667 408.833,593.333 410.5,593C 424.081,581.423 437.081,569.089 449.5,556C 451.167,555.667 452.833,555.333 454.5,555C 458.891,549.42 464.225,545.254 470.5,542.5 Z"/></g>
<g><path style="opacity:1" fill="#fc7333" d="M -0.5,555.5 C 75.8341,555.333 152.167,555.5 228.5,556C 231.036,558.705 233.703,561.205 236.5,563.5C 240.833,567.5 245.167,571.5 249.5,575.5C 261.194,587.527 272.861,599.527 284.5,611.5C 285.167,611.5 285.5,611.833 285.5,612.5C 190.167,612.5 94.8333,612.5 -0.5,612.5C -0.5,593.5 -0.5,574.5 -0.5,555.5 Z"/></g>
<g><path style="opacity:1" fill="#fd7333" d="M 1198.5,555.5 C 1198.5,574.5 1198.5,593.5 1198.5,612.5C 1063.83,612.5 929.167,612.5 794.5,612.5C 794.823,593.79 794.157,575.124 792.5,556.5C 927.666,555.5 1063,555.167 1198.5,555.5 Z"/></g>
<g><path style="opacity:1" fill="#e45a28" d="M 483.5,556.5 C 487.805,561.141 492.139,565.807 496.5,570.5C 479.368,587.132 462.368,603.965 445.5,621C 443.833,621.333 442.167,621.667 440.5,622C 420.7,638.3 402.367,656.133 385.5,675.5C 378.418,672.695 371.418,669.695 364.5,666.5C 378.245,651.252 392.578,636.419 407.5,622C 409.5,621.667 411.5,621.333 413.5,621C 432.472,603.029 451.138,584.695 469.5,566C 471.167,565.667 472.833,565.333 474.5,565C 477.369,561.962 480.369,559.129 483.5,556.5 Z"/></g>
<g><path style="opacity:1" fill="#e15425" d="M 496.5,570.5 C 501.167,574.5 505.5,578.833 509.5,583.5C 475.284,615.213 441.784,647.88 409,681.5C 408.536,682.094 408.369,682.761 408.5,683.5C 400.727,681.112 393.06,678.446 385.5,675.5C 402.367,656.133 420.7,638.3 440.5,622C 442.167,621.667 443.833,621.333 445.5,621C 462.368,603.965 479.368,587.132 496.5,570.5 Z"/></g>
<g><path style="opacity:1" fill="#db4b20" d="M 509.5,583.5 C 538.665,613.041 569.332,640.707 601.5,666.5C 594.476,671.682 586.81,675.848 578.5,679C 522.382,700.689 465.715,702.189 408.5,683.5C 408.369,682.761 408.536,682.094 409,681.5C 441.784,647.88 475.284,615.213 509.5,583.5 Z"/></g>
<g><path style="opacity:1" fill="#fd6d32" d="M -0.5,612.5 C 94.8333,612.5 190.167,612.5 285.5,612.5C 291.5,618.167 297.5,623.833 303.5,629.5C 312.849,644.868 323.183,659.534 334.5,673.5C 222.833,673.5 111.167,673.5 -0.5,673.5C -0.5,653.167 -0.5,632.833 -0.5,612.5 Z"/></g>
<g><path style="opacity:1" fill="#fd6d32" d="M 794.5,612.5 C 929.167,612.5 1063.83,612.5 1198.5,612.5C 1198.5,632.833 1198.5,653.167 1198.5,673.5C 1065,673.167 931.666,673.5 798.5,674.5C 794.394,669.139 790.394,663.639 786.5,658C 790.947,643.149 793.614,627.982 794.5,612.5 Z"/></g>
<g><path style="opacity:1" fill="#fd6932" d="M -0.5,673.5 C 111.167,673.5 222.833,673.5 334.5,673.5C 339.289,677.745 343.622,682.411 347.5,687.5C 231.5,687.5 115.5,687.5 -0.5,687.5C -0.5,682.833 -0.5,678.167 -0.5,673.5 Z"/></g>
<g><path style="opacity:1" fill="#fd6932" d="M 1198.5,673.5 C 1198.5,678.167 1198.5,682.833 1198.5,687.5C 1067.83,687.5 937.167,687.5 806.5,687.5C 803.597,683.37 800.93,679.037 798.5,674.5C 931.666,673.5 1065,673.167 1198.5,673.5 Z"/></g>
<g><path style="opacity:1" fill="#fd6631" d="M -0.5,687.5 C 115.5,687.5 231.5,687.5 347.5,687.5C 366.054,706.408 386.054,723.408 407.5,738.5C 271.5,738.5 135.5,738.5 -0.5,738.5C -0.5,721.5 -0.5,704.5 -0.5,687.5 Z"/></g>
<g><path style="opacity:1" fill="#fd6631" d="M 806.5,687.5 C 937.167,687.5 1067.83,687.5 1198.5,687.5C 1198.5,704.5 1198.5,721.5 1198.5,738.5C 1074.5,738.5 950.5,738.5 826.5,738.5C 821.795,720.715 815.128,703.715 806.5,687.5 Z"/></g>
<g><path style="opacity:1" fill="#fd602f" d="M -0.5,738.5 C 135.5,738.5 271.5,738.5 407.5,738.5C 445.86,764.575 487.86,782.408 533.5,792C 597.43,804.829 657.43,794.829 713.5,762C 722.204,758.321 731.204,755.654 740.5,754C 762.226,750.448 781.892,755.114 799.5,768C 809.21,777.031 817.376,787.198 824,798.5C 825.261,798.241 826.261,797.574 827,796.5C 829.685,788.386 830.852,780.053 830.5,771.5C 830.146,760.378 828.813,749.378 826.5,738.5C 950.5,738.5 1074.5,738.5 1198.5,738.5C 1198.5,758.833 1198.5,779.167 1198.5,799.5C 798.833,799.5 399.167,799.5 -0.5,799.5C -0.5,779.167 -0.5,758.833 -0.5,738.5 Z"/></g>
<g><path style="opacity:1" fill="#fe5a2e" d="M -0.5,799.5 C 399.167,799.5 798.833,799.5 1198.5,799.5C 1198.5,818.167 1198.5,836.833 1198.5,855.5C 798.833,855.5 399.167,855.5 -0.5,855.5C -0.5,836.833 -0.5,818.167 -0.5,799.5 Z"/></g>
<g><path style="opacity:1" fill="#fe542d" d="M -0.5,855.5 C 399.167,855.5 798.833,855.5 1198.5,855.5C 1198.5,874.5 1198.5,893.5 1198.5,912.5C 798.833,912.5 399.167,912.5 -0.5,912.5C -0.5,893.5 -0.5,874.5 -0.5,855.5 Z"/></g>
<g><path style="opacity:1" fill="#fe4e2c" d="M -0.5,912.5 C 399.167,912.5 798.833,912.5 1198.5,912.5C 1198.5,934.167 1198.5,955.833 1198.5,977.5C 798.833,977.5 399.167,977.5 -0.5,977.5C -0.5,955.833 -0.5,934.167 -0.5,912.5 Z"/></g>
<g><path style="opacity:1" fill="#fd4b2a" d="M -0.5,977.5 C 399.167,977.5 798.833,977.5 1198.5,977.5C 1198.5,979.167 1198.5,980.833 1198.5,982.5C 798.833,982.5 399.167,982.5 -0.5,982.5C -0.5,980.833 -0.5,979.167 -0.5,977.5 Z"/></g>
<g><path style="opacity:1" fill="#fe472a" d="M -0.5,982.5 C 399.167,982.5 798.833,982.5 1198.5,982.5C 1198.5,1001.17 1198.5,1019.83 1198.5,1038.5C 798.833,1038.5 399.167,1038.5 -0.5,1038.5C -0.5,1019.83 -0.5,1001.17 -0.5,982.5 Z"/></g>
<g><path style="opacity:1" fill="#fe4129" d="M -0.5,1038.5 C 399.167,1038.5 798.833,1038.5 1198.5,1038.5C 1198.5,1058.83 1198.5,1079.17 1198.5,1099.5C 798.833,1099.5 399.167,1099.5 -0.5,1099.5C -0.5,1079.17 -0.5,1058.83 -0.5,1038.5 Z"/></g>
<g><path style="opacity:1" fill="#ff3b28" d="M -0.5,1099.5 C 399.167,1099.5 798.833,1099.5 1198.5,1099.5C 1198.5,1118.17 1198.5,1136.83 1198.5,1155.5C 798.833,1155.5 399.167,1155.5 -0.5,1155.5C -0.5,1136.83 -0.5,1118.17 -0.5,1099.5 Z"/></g>
<g><path style="opacity:1" fill="#ff3627" d="M -0.5,1155.5 C 399.167,1155.5 798.833,1155.5 1198.5,1155.5C 1198.5,1170.17 1198.5,1184.83 1198.5,1199.5C 798.833,1199.5 399.167,1199.5 -0.5,1199.5C -0.5,1184.83 -0.5,1170.17 -0.5,1155.5 Z"/></g>
</svg>
