<svg xmlns="http://www.w3.org/2000/svg" width="15.546" height="12.719" viewBox="0 0 15.546 12.719">
  <path id="mail" d="M2.489,4.8,8.773,9.2l6.284-4.4a.711.711,0,0,0-.631-.391H3.12A.711.711,0,0,0,2.489,4.8ZM15.132,6.477,9.178,10.645a.707.707,0,0,1-.81,0L2.413,6.477V13.6a.711.711,0,0,0,.707.707H14.426a.711.711,0,0,0,.707-.707ZM1,5.12A2.124,2.124,0,0,1,3.12,3H14.426a2.124,2.124,0,0,1,2.12,2.12V13.6a2.124,2.124,0,0,1-2.12,2.12H3.12A2.124,2.124,0,0,1,1,13.6Z" transform="translate(-1 -3)" fill-rule="evenodd"/>
</svg>