<svg xmlns="http://www.w3.org/2000/svg" width="15.193" height="16.273" viewBox="0 0 15.193 16.273">
  <path id="github" d="M14.415.5a1.063,1.063,0,0,1,.148.031.707.707,0,0,1,.448.4,4.289,4.289,0,0,1,.25,2.6l-.044.18.113.149a4.552,4.552,0,0,1,.858,2.459l0,.206c0,3.2-1.39,4.806-3.895,5.425l-.2.046.034.086a3.062,3.062,0,0,1,.184,1.066l-.008.167v2.735a.707.707,0,0,1-1.409.082l0-.082,0-2.79a1.675,1.675,0,0,0-.373-1.191l-.095-.106a.707.707,0,0,1,.429-1.194c2.663-.3,3.922-1.356,3.922-4.244a3.137,3.137,0,0,0-.865-2.163.707.707,0,0,1-.15-.734,2.876,2.876,0,0,0,.107-1.656l-.01-.035-.067.017-.1.026a6.377,6.377,0,0,0-1.706.864.707.707,0,0,1-.578.1,8.748,8.748,0,0,0-4.577,0,.707.707,0,0,1-.578-.1A6.765,6.765,0,0,0,4.68,2.015L4.5,1.962,4.39,1.934l-.009.035a2.876,2.876,0,0,0,.052,1.495l.055.161a.707.707,0,0,1-.15.734,3.14,3.14,0,0,0-.865,2.184c0,2.861,1.25,3.912,3.931,4.245a.707.707,0,0,1,.474,1.131l-.054.062a1.667,1.667,0,0,0-.47,1.167l0,.165v2.735a.707.707,0,0,1-1.408.082l0-.082V14.818a3.3,3.3,0,0,1-3.379-1.272l-.192-.235-.238-.3a1.506,1.506,0,0,0-.554-.5l-.049-.015a.707.707,0,0,1,.343-1.371,2.307,2.307,0,0,1,1.247.866l.145.176.286.36a2.032,2.032,0,0,0,2.393.859v-.021a3.088,3.088,0,0,1,.121-1.1l.058-.176L6.16,12,6.12,12c-2.561-.6-4-2.136-4.058-5.236l0-.214a4.551,4.551,0,0,1,.86-2.686l.115-.153-.043-.18a4.289,4.289,0,0,1,.173-2.407L3.241.929a.707.707,0,0,1,.449-.4A1.061,1.061,0,0,1,3.837.5a4.561,4.561,0,0,1,2.826.921l.116.072.307-.067a10.161,10.161,0,0,1,4.08,0l.307.067.116-.072A4.561,4.561,0,0,1,14.415.5Z" transform="translate(-1 -0.48)"/>
</svg>