<svg xmlns="http://www.w3.org/2000/svg" width="15.546" height="15.546" viewBox="0 0 15.546 15.546">
  <path id="instagram" d="M5.24,2.413A2.826,2.826,0,0,0,2.413,5.24v7.066A2.827,2.827,0,0,0,5.24,15.132h7.066a2.827,2.827,0,0,0,2.826-2.826V5.24a2.827,2.827,0,0,0-2.826-2.826ZM1,5.24A4.24,4.24,0,0,1,5.24,1h7.066a4.24,4.24,0,0,1,4.24,4.24v7.066a4.24,4.24,0,0,1-4.24,4.24H5.24A4.24,4.24,0,0,1,1,12.306Zm10.953-.353a.707.707,0,0,1,.707-.707h.007a.707.707,0,1,1,0,1.413h-.007A.707.707,0,0,1,11.953,4.886ZM9.114,6.645a2.12,2.12,0,1,0,1.188.6A2.12,2.12,0,0,0,9.114,6.645ZM7.176,5.606A3.533,3.533,0,1,1,5.648,7.154,3.533,3.533,0,0,1,7.176,5.606Z" transform="translate(-1 -1)" fill-rule="evenodd"/>
</svg>