<svg width="17" height="16" viewBox="0 0 17 16" fill="none" xmlns="http://www.w3.org/2000/svg">
<rect x="0.400391" y="0.458496" width="16" height="15.1344" fill="#F7DF1E"/>
<path d="M8.54494 8.9296C8.7592 9.27789 9.03789 9.53384 9.53079 9.53384C9.94493 9.53384 10.2094 9.32782 10.2094 9.04306C10.2094 8.70187 9.93767 8.58099 9.48187 8.38254L9.23203 8.27576C8.51086 7.96988 8.03183 7.58667 8.03183 6.77649C8.03183 6.03024 8.60287 5.46216 9.49539 5.46216C10.1308 5.46216 10.5876 5.68228 10.9167 6.25882L10.1385 6.75635C9.96719 6.45041 9.78235 6.32993 9.49539 6.32993C9.20264 6.32993 9.01715 6.5148 9.01715 6.75635C9.01715 7.05487 9.20282 7.17572 9.63159 7.3606L9.88142 7.46713C10.7306 7.82971 11.21 8.19931 11.21 9.03027C11.21 9.92615 10.5031 10.417 9.55396 10.417C8.62584 10.417 8.02621 9.97662 7.73285 9.39941L8.54494 8.9296ZM5.01469 9.01587C5.17166 9.29315 5.31448 9.52768 5.65782 9.52768C5.98618 9.52768 6.1933 9.39975 6.1933 8.90237V5.51892H7.19264V8.91583C7.19264 9.9462 6.58595 10.4151 5.70038 10.4151C4.90024 10.4151 4.43684 10.0028 4.20117 9.50623L5.01469 9.01587Z" fill="black"/>
</svg>
