<?xml version="1.0" encoding="UTF-8"?>
<!DOCTYPE svg PUBLIC "-//W3C//DTD SVG 1.1//EN" "http://www.w3.org/Graphics/SVG/1.1/DTD/svg11.dtd">
<svg xmlns="http://www.w3.org/2000/svg" version="1.1" width="2500px" height="2500px" style="shape-rendering:geometricPrecision; text-rendering:geometricPrecision; image-rendering:optimizeQuality; fill-rule:evenodd; clip-rule:evenodd" xmlns:xlink="http://www.w3.org/1999/xlink">
<g><path style="opacity:0.993" fill="#000000" d="M 1676.5,1024.5 C 1669.96,1001.75 1659.46,981.083 1645,962.5C 1638.31,954.14 1629.81,948.64 1619.5,946C 1610.39,944.154 1602.06,945.821 1594.5,951C 1590.95,955.716 1586.95,959.883 1582.5,963.5C 1546.21,950.63 1508.87,946.13 1470.5,950C 1458.12,951.308 1446.12,953.808 1434.5,957.5C 1421.73,950.946 1409.06,944.113 1396.5,937C 1386.05,931.851 1375.05,930.185 1363.5,932C 1351.23,937.6 1341.39,946.1 1334,957.5C 1325.05,972.004 1319.05,987.671 1316,1004.5C 1313.23,1018.43 1310.9,1032.43 1309,1046.5C 1308.03,1052.65 1306.53,1058.65 1304.5,1064.5C 1303.83,1064.5 1303.5,1064.83 1303.5,1065.5C 1303.5,1065.83 1303.5,1066.17 1303.5,1066.5C 1302.66,1066.84 1302.33,1067.51 1302.5,1068.5C 1301.66,1068.84 1301.33,1069.51 1301.5,1070.5C 1299.38,1073.09 1298.04,1076.09 1297.5,1079.5C 1296.66,1079.84 1296.33,1080.51 1296.5,1081.5C 1295.66,1081.84 1295.33,1082.51 1295.5,1083.5C 1295.5,1083.83 1295.5,1084.17 1295.5,1084.5C 1294.83,1084.5 1294.5,1084.83 1294.5,1085.5C 1294.5,1085.83 1294.5,1086.17 1294.5,1086.5C 1293.66,1086.84 1293.33,1087.51 1293.5,1088.5C 1293.5,1088.83 1293.5,1089.17 1293.5,1089.5C 1292.83,1089.5 1292.5,1089.83 1292.5,1090.5C 1265.44,1165.43 1274.27,1235.76 1319,1301.5C 1368.19,1363.84 1432.69,1393.34 1512.5,1390C 1565.86,1385.95 1612.2,1366.12 1651.5,1330.5C 1652.17,1330.5 1652.5,1330.17 1652.5,1329.5C 1653.17,1329.5 1653.5,1329.17 1653.5,1328.5C 1654.17,1328.5 1654.5,1328.17 1654.5,1327.5C 1655.17,1327.5 1655.5,1327.17 1655.5,1326.5C 1668.72,1316.29 1681.39,1305.29 1693.5,1293.5C 1721.5,1322.17 1749.17,1351.17 1776.5,1380.5C 1743.51,1414.32 1706.51,1442.82 1665.5,1466C 1620.59,1488.81 1572.92,1501.15 1522.5,1503C 1451.89,1508.15 1385.23,1494.48 1322.5,1462C 1224.77,1404.14 1170.27,1318.3 1159,1204.5C 1151.51,1133.45 1163.84,1066.11 1196,1002.5C 1235.18,934.797 1291.01,885.963 1363.5,856C 1473.19,814.573 1579.52,821.906 1682.5,878C 1719.61,899.094 1751.94,926.094 1779.5,959C 1751.17,986 1722.83,1013 1694.5,1040C 1693.83,1040.67 1693.17,1040.67 1692.5,1040C 1687.3,1034.63 1681.96,1029.46 1676.5,1024.5 Z M 1582.5,963.5 C 1581.75,965.246 1580.42,966.246 1578.5,966.5C 1532.34,949.463 1485.51,947.129 1438,959.5C 1436.89,958.695 1435.72,958.028 1434.5,957.5C 1446.12,953.808 1458.12,951.308 1470.5,950C 1508.87,946.13 1546.21,950.63 1582.5,963.5 Z"/></g>
<g><path style="opacity:0.992" fill="#000000" d="M 2177.5,1384.5 C 2169.94,1404.96 2159.77,1423.96 2147,1441.5C 2145.55,1458.72 2153.39,1466.55 2170.5,1465C 2227.71,1432.98 2279.38,1393.48 2325.5,1346.5C 2326.17,1346.5 2326.5,1346.17 2326.5,1345.5C 2327.17,1345.5 2327.5,1345.17 2327.5,1344.5C 2334.79,1340.18 2341.79,1335.35 2348.5,1330C 2362.61,1318.39 2376.28,1306.22 2389.5,1293.5C 2417.15,1321.99 2444.65,1350.66 2472,1379.5C 2438.62,1414.84 2400.46,1444.34 2357.5,1468C 2313.69,1489.53 2267.36,1501.2 2218.5,1503C 2157.49,1507.17 2098.83,1497.5 2042.5,1474C 1941.59,1425.73 1880.42,1346.56 1859,1236.5C 1848.82,1175.71 1852.15,1115.71 1869,1056.5C 1896.71,975.216 1948.21,914.049 2023.5,873C 2113.45,826.038 2207.12,817.038 2304.5,846C 2370.73,867.341 2426.89,903.841 2473,955.5C 2473.64,956.609 2474.14,957.775 2474.5,959C 2446.69,986.645 2418.35,1013.81 2389.5,1040.5C 2362.58,1012.55 2331.91,989.717 2297.5,972C 2235.89,943.853 2173.22,941.186 2109.5,964C 2052.37,989.127 2012.21,1030.63 1989,1088.5C 1975.85,1128.72 1972.85,1169.72 1980,1211.5C 1997.16,1295 2046.33,1349.83 2127.5,1376C 2143.84,1380.83 2160.5,1383.67 2177.5,1384.5 Z"/></g>
<g><path style="opacity:0.994" fill="#c2201e" d="M 65.5,845.5 C 106.833,845.5 148.167,845.5 189.5,845.5C 189.333,918.834 189.5,992.167 190,1065.5C 247.138,992.061 304.638,918.894 362.5,846C 411.833,845.333 461.167,845.333 510.5,846C 436.075,941.515 361.408,1036.85 286.5,1132C 368.5,1250.33 450.5,1368.67 532.5,1487C 483.497,1487.83 434.497,1487.67 385.5,1486.5C 320.528,1392.36 255.362,1298.36 190,1204.5C 189.5,1298.83 189.333,1393.17 189.5,1487.5C 148.167,1487.5 106.833,1487.5 65.5,1487.5C 65.5,1273.5 65.5,1059.5 65.5,845.5 Z"/></g>
<g><path style="opacity:0.993" fill="#c2201e" d="M 613.5,845.5 C 654.833,845.5 696.167,845.5 737.5,845.5C 737.333,994.167 737.5,1142.83 738,1291.5C 739.418,1350.92 769.751,1381.92 829,1384.5C 865.504,1384.92 893.504,1369.92 913,1339.5C 916.873,1331.21 919.54,1322.55 921,1313.5C 923.603,1295.26 924.937,1276.93 925,1258.5C 925.5,1120.83 925.667,983.167 925.5,845.5C 966.5,845.5 1007.5,845.5 1048.5,845.5C 1048.67,986.5 1048.5,1127.5 1048,1268.5C 1047.93,1301.26 1044.26,1333.6 1037,1365.5C 1016.97,1420.54 980.466,1460.71 927.5,1486C 883.862,1502.72 838.862,1507.72 792.5,1501C 724.858,1490.95 673.692,1456.78 639,1398.5C 628.441,1375.27 621.774,1350.93 619,1325.5C 616.184,1303.25 614.517,1280.92 614,1258.5C 613.5,1120.83 613.333,983.167 613.5,845.5 Z"/></g>
<g><path style="opacity:0.994" fill="#fefdfd" d="M 1434.5,957.5 C 1435.72,958.028 1436.89,958.695 1438,959.5C 1485.51,947.129 1532.34,949.463 1578.5,966.5C 1580.42,966.246 1581.75,965.246 1582.5,963.5C 1586.95,959.883 1590.95,955.716 1594.5,951C 1602.06,945.821 1610.39,944.154 1619.5,946C 1629.81,948.64 1638.31,954.14 1645,962.5C 1659.46,981.083 1669.96,1001.75 1676.5,1024.5C 1678.52,1033.12 1680.36,1041.78 1682,1050.5C 1723.55,1119.9 1728.55,1191.9 1697,1266.5C 1686.07,1288.58 1672.23,1308.58 1655.5,1326.5C 1654.83,1326.5 1654.5,1326.83 1654.5,1327.5C 1653.83,1327.5 1653.5,1327.83 1653.5,1328.5C 1652.83,1328.5 1652.5,1328.83 1652.5,1329.5C 1651.83,1329.5 1651.5,1329.83 1651.5,1330.5C 1612.2,1366.12 1565.86,1385.95 1512.5,1390C 1432.69,1393.34 1368.19,1363.84 1319,1301.5C 1274.27,1235.76 1265.44,1165.43 1292.5,1090.5C 1293.17,1090.5 1293.5,1090.17 1293.5,1089.5C 1293.5,1089.17 1293.5,1088.83 1293.5,1088.5C 1294.34,1088.16 1294.67,1087.49 1294.5,1086.5C 1294.5,1086.17 1294.5,1085.83 1294.5,1085.5C 1295.17,1085.5 1295.5,1085.17 1295.5,1084.5C 1295.5,1084.17 1295.5,1083.83 1295.5,1083.5C 1296.34,1083.16 1296.67,1082.49 1296.5,1081.5C 1297.34,1081.16 1297.67,1080.49 1297.5,1079.5C 1299.62,1076.91 1300.96,1073.91 1301.5,1070.5C 1302.34,1070.16 1302.67,1069.49 1302.5,1068.5C 1303.34,1068.16 1303.67,1067.49 1303.5,1066.5C 1303.5,1066.17 1303.5,1065.83 1303.5,1065.5C 1304.17,1065.5 1304.5,1065.17 1304.5,1064.5C 1306.53,1058.65 1308.03,1052.65 1309,1046.5C 1310.9,1032.43 1313.23,1018.43 1316,1004.5C 1319.05,987.671 1325.05,972.004 1334,957.5C 1341.39,946.1 1351.23,937.6 1363.5,932C 1375.05,930.185 1386.05,931.851 1396.5,937C 1409.06,944.113 1421.73,950.946 1434.5,957.5 Z M 1582.5,963.5 C 1581.75,965.246 1580.42,966.246 1578.5,966.5C 1532.34,949.463 1485.51,947.129 1438,959.5C 1436.89,958.695 1435.72,958.028 1434.5,957.5C 1446.12,953.808 1458.12,951.308 1470.5,950C 1508.87,946.13 1546.21,950.63 1582.5,963.5 Z"/></g>
<g><path style="opacity:0.984" fill="#fefdfd" d="M 2327.5,1344.5 C 2326.83,1344.5 2326.5,1344.83 2326.5,1345.5C 2325.83,1345.5 2325.5,1345.83 2325.5,1346.5C 2279.38,1393.48 2227.71,1432.98 2170.5,1465C 2153.39,1466.55 2145.55,1458.72 2147,1441.5C 2159.77,1423.96 2169.94,1404.96 2177.5,1384.5C 2178.54,1381.22 2179.87,1378.06 2181.5,1375C 2102.65,1366.69 2045.15,1327.53 2009,1257.5C 1987.55,1209.96 1983.55,1160.96 1997,1110.5C 2015.88,1049.28 2054.38,1005.12 2112.5,978C 2184.08,949.159 2252.08,955.825 2316.5,998C 2372.97,1040.27 2402.31,1096.94 2404.5,1168C 2403.91,1218.78 2388.74,1264.62 2359,1305.5C 2348.97,1318.9 2338.47,1331.9 2327.5,1344.5 Z"/></g>
<g><path style="opacity:1" fill="#c3201f" d="M 1372.5,965.5 C 1378.82,965.659 1384.82,967.159 1390.5,970C 1403.86,976.338 1416.52,983.672 1428.5,992C 1431.83,992.667 1435.17,992.667 1438.5,992C 1472.48,982.237 1506.81,980.904 1541.5,988C 1554.24,991.749 1566.91,995.583 1579.5,999.5C 1582.26,999.458 1584.93,998.958 1587.5,998C 1594.3,992.544 1601.63,987.877 1609.5,984C 1613.63,983.146 1617.63,983.48 1621.5,985C 1632.32,997.792 1640.15,1012.29 1645,1028.5C 1648.1,1038.58 1649.77,1048.92 1650,1059.5C 1689.06,1119.6 1695.06,1182.94 1668,1249.5C 1633.93,1320.88 1577.26,1357.88 1498,1360.5C 1428.3,1358.16 1374.63,1327.82 1337,1269.5C 1307.64,1220.8 1300.97,1169.13 1317,1114.5C 1324.3,1098.91 1331.3,1083.24 1338,1067.5C 1340.09,1053.56 1341.75,1039.56 1343,1025.5C 1345.69,1007.77 1351.35,991.104 1360,975.5C 1363.49,971.162 1367.66,967.829 1372.5,965.5 Z"/></g>
<g><path style="opacity:1" fill="#c3201f" d="M 2178.5,985.5 C 2245.52,981.76 2300.02,1005.76 2342,1057.5C 2382.2,1114.9 2389.86,1176.56 2365,1242.5C 2351.66,1271.86 2334.33,1298.53 2313,1322.5C 2274.8,1362.73 2232.47,1397.73 2186,1427.5C 2198.1,1403.1 2207.6,1377.6 2214.5,1351C 2144.59,1353.96 2088.76,1327.79 2047,1272.5C 2011.83,1218.62 2005.16,1161.28 2027,1100.5C 2056.62,1034.72 2107.12,996.39 2178.5,985.5 Z"/></g>
<g><path style="opacity:1" fill="#fefdfd" d="M 1459.5,1124.5 C 1473.23,1122.94 1482.4,1128.61 1487,1141.5C 1487.67,1159.5 1487.67,1177.5 1487,1195.5C 1482.16,1208.84 1472.66,1214.34 1458.5,1212C 1450.67,1209.5 1445.5,1204.33 1443,1196.5C 1442.33,1178.17 1442.33,1159.83 1443,1141.5C 1446.02,1133.32 1451.52,1127.65 1459.5,1124.5 Z"/></g>
<g><path style="opacity:1" fill="#fefafa" d="M 1622.5,1124.5 C 1636.43,1123.37 1645.6,1129.37 1650,1142.5C 1650.67,1159.5 1650.67,1176.5 1650,1193.5C 1643.94,1211.61 1632.1,1216.78 1614.5,1209C 1609.43,1205.02 1606.26,1199.85 1605,1193.5C 1604.33,1176.5 1604.33,1159.5 1605,1142.5C 1607.68,1133.32 1613.52,1127.32 1622.5,1124.5 Z"/></g>
<g><path style="opacity:0.896" fill="#7f807f" d="M 2142.5,1610.5 C 2145.83,1610.5 2149.17,1610.5 2152.5,1610.5C 2152.5,1643.83 2152.5,1677.17 2152.5,1710.5C 2149.17,1710.5 2145.83,1710.5 2142.5,1710.5C 2142.5,1677.17 2142.5,1643.83 2142.5,1610.5 Z"/></g>
<g><path style="opacity:0.906" fill="#7f807f" d="M 2261.5,1610.5 C 2264.83,1610.5 2268.17,1610.5 2271.5,1610.5C 2271.33,1622.5 2271.5,1634.5 2272,1646.5C 2279.69,1638.19 2289.19,1635.36 2300.5,1638C 2316.88,1644.58 2323.55,1656.75 2320.5,1674.5C 2322.2,1702.64 2309.2,1714.47 2281.5,1710C 2277.73,1708.7 2274.56,1706.53 2272,1703.5C 2271.5,1705.81 2271.34,1708.14 2271.5,1710.5C 2268.17,1710.5 2264.83,1710.5 2261.5,1710.5C 2261.5,1677.17 2261.5,1643.83 2261.5,1610.5 Z M 2287.5,1646.5 C 2299.19,1645.37 2306.69,1650.37 2310,1661.5C 2310.89,1671.23 2310.56,1680.89 2309,1690.5C 2302.07,1703.02 2292.24,1705.86 2279.5,1699C 2275.69,1696.88 2273.19,1693.71 2272,1689.5C 2271.07,1679.09 2271.41,1668.76 2273,1658.5C 2276.08,1652.23 2280.91,1648.23 2287.5,1646.5 Z"/></g>
<g><path style="opacity:0.913" fill="#7f807f" d="M 1387.5,1613.5 C 1400.55,1611.87 1412.88,1614.04 1424.5,1620C 1428.38,1624.26 1427.55,1627.76 1422,1630.5C 1411,1623.08 1399.17,1621.25 1386.5,1625C 1378.59,1629.59 1373.76,1636.42 1372,1645.5C 1370.03,1656.83 1370.03,1668.16 1372,1679.5C 1374.82,1694.01 1383.66,1701.67 1398.5,1702.5C 1408.26,1701.95 1416.93,1698.62 1424.5,1692.5C 1426.66,1694.83 1428.66,1697.33 1430.5,1700C 1418.41,1710.52 1404.41,1714.19 1388.5,1711C 1373.92,1707.42 1365.09,1698.26 1362,1683.5C 1359.48,1667 1360.14,1650.67 1364,1634.5C 1368.6,1623.73 1376.43,1616.73 1387.5,1613.5 Z"/></g>
<g><path style="opacity:0.913" fill="#7f807f" d="M 2077.5,1613.5 C 2090.55,1611.87 2102.88,1614.04 2114.5,1620C 2118.38,1624.26 2117.55,1627.76 2112,1630.5C 2101,1623.08 2089.17,1621.25 2076.5,1625C 2068.59,1629.59 2063.76,1636.42 2062,1645.5C 2060.03,1656.83 2060.03,1668.16 2062,1679.5C 2064.82,1694.01 2073.66,1701.67 2088.5,1702.5C 2098.26,1701.95 2106.93,1698.62 2114.5,1692.5C 2116.66,1694.83 2118.66,1697.33 2120.5,1700C 2108.41,1710.52 2094.41,1714.19 2078.5,1711C 2063.92,1707.42 2055.09,1698.26 2052,1683.5C 2049.48,1667 2050.14,1650.67 2054,1634.5C 2058.6,1623.73 2066.43,1616.73 2077.5,1613.5 Z"/></g>
<g><path style="opacity:0.88" fill="#7f807f" d="M 242.5,1614.5 C 246.167,1614.5 249.833,1614.5 253.5,1614.5C 253.333,1629.84 253.5,1645.17 254,1660.5C 268.5,1645.33 283,1630.17 297.5,1615C 302.167,1614.33 306.833,1614.33 311.5,1615C 298.682,1628.65 285.682,1642.15 272.5,1655.5C 286.167,1673.5 299.833,1691.5 313.5,1709.5C 309.205,1710.66 304.871,1710.83 300.5,1710C 288.545,1694.59 276.712,1679.09 265,1663.5C 261.333,1667.17 257.667,1670.83 254,1674.5C 253.5,1686.5 253.333,1698.5 253.5,1710.5C 249.833,1710.5 246.167,1710.5 242.5,1710.5C 242.5,1678.5 242.5,1646.5 242.5,1614.5 Z"/></g>
<g><path style="opacity:0.916" fill="#7f807f" d="M 660.5,1614.5 C 663.833,1614.5 667.167,1614.5 670.5,1614.5C 670.333,1635.5 670.5,1656.5 671,1677.5C 671.189,1693.19 679.023,1701.52 694.5,1702.5C 706.447,1702.72 713.947,1697.05 717,1685.5C 718.449,1661.88 718.949,1638.21 718.5,1614.5C 721.833,1614.5 725.167,1614.5 728.5,1614.5C 728.667,1637.84 728.5,1661.17 728,1684.5C 724.758,1702.96 713.758,1711.96 695,1711.5C 674.756,1712.25 663.423,1702.59 661,1682.5C 660.5,1659.84 660.333,1637.17 660.5,1614.5 Z"/></g>
<g><path style="opacity:0.887" fill="#7f807f" d="M 838.5,1615.5 C 842.167,1615.5 845.833,1615.5 849.5,1615.5C 849.5,1618.83 849.5,1622.17 849.5,1625.5C 845.833,1625.5 842.167,1625.5 838.5,1625.5C 838.5,1622.17 838.5,1618.83 838.5,1615.5 Z"/></g>
<g><path style="opacity:0.887" fill="#7f807f" d="M 1155.5,1615.5 C 1159.17,1615.5 1162.83,1615.5 1166.5,1615.5C 1166.5,1618.83 1166.5,1622.17 1166.5,1625.5C 1162.83,1625.5 1159.17,1625.5 1155.5,1625.5C 1155.5,1622.17 1155.5,1618.83 1155.5,1615.5 Z"/></g>
<g><path style="opacity:0.933" fill="#7f807f" d="M 1198.5,1620.5 C 1201.5,1620.5 1204.5,1620.5 1207.5,1620.5C 1207.5,1626.5 1207.5,1632.5 1207.5,1638.5C 1214.17,1638.5 1220.83,1638.5 1227.5,1638.5C 1227.5,1641.5 1227.5,1644.5 1227.5,1647.5C 1220.83,1647.5 1214.17,1647.5 1207.5,1647.5C 1207.33,1661.84 1207.5,1676.17 1208,1690.5C 1207.18,1698.11 1210.51,1702.11 1218,1702.5C 1221.47,1701.84 1224.97,1701.5 1228.5,1701.5C 1228.38,1703.73 1228.71,1705.9 1229.5,1708C 1220.16,1712.98 1210.99,1712.48 1202,1706.5C 1200.72,1704.28 1199.72,1701.95 1199,1699.5C 1198.5,1682.17 1198.33,1664.84 1198.5,1647.5C 1194.17,1647.5 1189.83,1647.5 1185.5,1647.5C 1185.5,1644.5 1185.5,1641.5 1185.5,1638.5C 1189.83,1638.5 1194.17,1638.5 1198.5,1638.5C 1198.5,1632.5 1198.5,1626.5 1198.5,1620.5 Z"/></g>
<g><path style="opacity:0.933" fill="#7f807f" d="M 1825.5,1620.5 C 1828.5,1620.5 1831.5,1620.5 1834.5,1620.5C 1834.5,1626.5 1834.5,1632.5 1834.5,1638.5C 1841.17,1638.5 1847.83,1638.5 1854.5,1638.5C 1854.5,1641.5 1854.5,1644.5 1854.5,1647.5C 1847.83,1647.5 1841.17,1647.5 1834.5,1647.5C 1834.33,1661.84 1834.5,1676.17 1835,1690.5C 1834.18,1698.11 1837.51,1702.11 1845,1702.5C 1848.47,1701.84 1851.97,1701.5 1855.5,1701.5C 1855.38,1703.73 1855.71,1705.9 1856.5,1708C 1847.16,1712.98 1837.99,1712.48 1829,1706.5C 1827.72,1704.28 1826.72,1701.95 1826,1699.5C 1825.5,1682.17 1825.33,1664.84 1825.5,1647.5C 1821.17,1647.5 1816.83,1647.5 1812.5,1647.5C 1812.5,1644.5 1812.5,1641.5 1812.5,1638.5C 1816.83,1638.5 1821.17,1638.5 1825.5,1638.5C 1825.5,1632.5 1825.5,1626.5 1825.5,1620.5 Z"/></g>
<g><path style="opacity:0.908" fill="#7f807f" d="M 346.5,1637.5 C 373.437,1635.1 386.437,1647.44 385.5,1674.5C 385.369,1705.24 370.369,1716.74 340.5,1709C 327.41,1701.28 322.076,1689.78 324.5,1674.5C 322.833,1662.31 326.167,1651.81 334.5,1643C 338.284,1640.47 342.284,1638.64 346.5,1637.5 Z M 348.5,1646.5 C 363.142,1644.22 371.975,1650.22 375,1664.5C 376.045,1673.65 375.379,1682.65 373,1691.5C 367.888,1700.76 360.055,1704.26 349.5,1702C 341.114,1699.61 336.28,1694.11 335,1685.5C 334.333,1677.83 334.333,1670.17 335,1662.5C 336.859,1654.82 341.359,1649.48 348.5,1646.5 Z"/></g>
<g><path style="opacity:0.894" fill="#7f807f" d="M 431.5,1637.5 C 436.897,1637.22 442.23,1637.55 447.5,1638.5C 447.833,1639.17 448.167,1639.83 448.5,1640.5C 447.622,1643.13 446.955,1645.8 446.5,1648.5C 431.727,1644.46 422.56,1649.8 419,1664.5C 418.5,1679.83 418.333,1695.16 418.5,1710.5C 415.167,1710.5 411.833,1710.5 408.5,1710.5C 408.5,1686.5 408.5,1662.5 408.5,1638.5C 411.833,1638.5 415.167,1638.5 418.5,1638.5C 418.335,1641.52 418.502,1644.52 419,1647.5C 422.462,1643.2 426.629,1639.86 431.5,1637.5 Z"/></g>
<g><path style="opacity:0.92" fill="#7f807f" d="M 484.5,1637.5 C 496.324,1635.33 506.49,1638.33 515,1646.5C 520.8,1656 522.966,1666.33 521.5,1677.5C 505.5,1677.5 489.5,1677.5 473.5,1677.5C 473.148,1695.98 482.148,1704.15 500.5,1702C 505.987,1700.92 510.987,1698.76 515.5,1695.5C 518.228,1698.12 519.228,1701.12 518.5,1704.5C 504.563,1712.71 490.23,1713.54 475.5,1707C 469.121,1701.96 465.287,1695.46 464,1687.5C 463.101,1677.11 463.434,1666.77 465,1656.5C 468.121,1646.54 474.621,1640.21 484.5,1637.5 Z M 486.5,1646.5 C 503.449,1644.78 511.783,1652.45 511.5,1669.5C 498.833,1669.5 486.167,1669.5 473.5,1669.5C 472.486,1658.58 476.819,1650.91 486.5,1646.5 Z"/></g>
<g><path style="opacity:0.904" fill="#7f807f" d="M 560.5,1637.5 C 568.685,1636.9 576.685,1637.73 584.5,1640C 588.719,1642.55 591.886,1646.05 594,1650.5C 595.464,1670.43 595.964,1690.43 595.5,1710.5C 592.5,1710.5 589.5,1710.5 586.5,1710.5C 586.663,1708.14 586.497,1705.81 586,1703.5C 575.606,1711.77 564.106,1713.61 551.5,1709C 544.081,1704.67 540.414,1698.17 540.5,1689.5C 541.378,1675.79 548.711,1668.62 562.5,1668C 570.159,1667.5 577.826,1667.33 585.5,1667.5C 587.335,1650.91 580.002,1644.08 563.5,1647C 558.277,1648.61 553.277,1650.78 548.5,1653.5C 546.461,1651.26 544.795,1648.76 543.5,1646C 548.99,1642.59 554.657,1639.75 560.5,1637.5 Z M 560.5,1676.5 C 568.833,1676.5 577.167,1676.5 585.5,1676.5C 588.196,1695.64 579.863,1704.14 560.5,1702C 551.078,1697.85 548.578,1691.02 553,1681.5C 555.17,1679.18 557.67,1677.51 560.5,1676.5 Z"/></g>
<g><path style="opacity:0.904" fill="#7f807f" d="M 779.5,1637.5 C 793.598,1634.62 804.098,1639.28 811,1651.5C 812.451,1671.11 812.951,1690.78 812.5,1710.5C 809.167,1710.5 805.833,1710.5 802.5,1710.5C 802.667,1693.16 802.5,1675.83 802,1658.5C 799.708,1650.26 794.208,1646.26 785.5,1646.5C 775.801,1646.7 769.301,1651.36 766,1660.5C 765.5,1677.16 765.333,1693.83 765.5,1710.5C 762.167,1710.5 758.833,1710.5 755.5,1710.5C 755.5,1686.5 755.5,1662.5 755.5,1638.5C 758.833,1638.5 762.167,1638.5 765.5,1638.5C 765.336,1641.19 765.503,1643.85 766,1646.5C 766.465,1645.07 767.299,1643.9 768.5,1643C 772.017,1640.67 775.683,1638.84 779.5,1637.5 Z"/></g>
<g><path style="opacity:0.92" fill="#7f807f" d="M 965.5,1637.5 C 977.324,1635.33 987.49,1638.33 996,1646.5C 1001.8,1656 1003.97,1666.33 1002.5,1677.5C 986.5,1677.5 970.5,1677.5 954.5,1677.5C 954.148,1695.98 963.148,1704.15 981.5,1702C 986.987,1700.92 991.987,1698.76 996.5,1695.5C 999.228,1698.12 1000.23,1701.12 999.5,1704.5C 985.563,1712.71 971.23,1713.54 956.5,1707C 950.121,1701.96 946.287,1695.46 945,1687.5C 944.101,1677.11 944.434,1666.77 946,1656.5C 949.121,1646.54 955.621,1640.21 965.5,1637.5 Z M 967.5,1646.5 C 984.449,1644.78 992.783,1652.45 992.5,1669.5C 979.833,1669.5 967.167,1669.5 954.5,1669.5C 953.486,1658.58 957.819,1650.91 967.5,1646.5 Z"/></g>
<g><path style="opacity:0.894" fill="#7f807f" d="M 1048.5,1637.5 C 1053.9,1637.22 1059.23,1637.55 1064.5,1638.5C 1064.83,1639.17 1065.17,1639.83 1065.5,1640.5C 1064.62,1643.13 1063.96,1645.8 1063.5,1648.5C 1048.73,1644.46 1039.56,1649.8 1036,1664.5C 1035.5,1679.83 1035.33,1695.16 1035.5,1710.5C 1032.17,1710.5 1028.83,1710.5 1025.5,1710.5C 1025.5,1686.5 1025.5,1662.5 1025.5,1638.5C 1028.83,1638.5 1032.17,1638.5 1035.5,1638.5C 1035.34,1641.52 1035.5,1644.52 1036,1647.5C 1039.46,1643.2 1043.63,1639.86 1048.5,1637.5 Z"/></g>
<g><path style="opacity:0.9" fill="#7f807f" d="M 1098.5,1637.5 C 1108.1,1636.72 1117.44,1637.88 1126.5,1641C 1128.63,1642.05 1130.29,1643.55 1131.5,1645.5C 1130.44,1647.96 1129.1,1650.29 1127.5,1652.5C 1117.43,1646.02 1106.76,1644.85 1095.5,1649C 1089.12,1654.39 1089.12,1659.73 1095.5,1665C 1104.45,1667.79 1113.45,1670.46 1122.5,1673C 1133.16,1678.97 1136.33,1687.8 1132,1699.5C 1125.91,1708.37 1117.41,1712.37 1106.5,1711.5C 1096.26,1711.86 1087.26,1708.86 1079.5,1702.5C 1080.4,1699.34 1082.23,1697.01 1085,1695.5C 1095.91,1703.04 1107.41,1704.21 1119.5,1699C 1125.02,1692.99 1124.69,1687.32 1118.5,1682C 1110.31,1679.2 1101.97,1676.87 1093.5,1675C 1081.56,1669.31 1078.06,1660.14 1083,1647.5C 1086.86,1641.99 1092.03,1638.66 1098.5,1637.5 Z"/></g>
<g><path style="opacity:0.908" fill="#7f807f" d="M 1470.5,1637.5 C 1497.44,1635.1 1510.44,1647.44 1509.5,1674.5C 1509.37,1705.24 1494.37,1716.74 1464.5,1709C 1451.41,1701.28 1446.08,1689.78 1448.5,1674.5C 1446.83,1662.31 1450.17,1651.81 1458.5,1643C 1462.28,1640.47 1466.28,1638.64 1470.5,1637.5 Z M 1472.5,1646.5 C 1487.14,1644.22 1495.97,1650.22 1499,1664.5C 1500.05,1673.65 1499.38,1682.65 1497,1691.5C 1491.89,1700.76 1484.06,1704.26 1473.5,1702C 1465.11,1699.61 1460.28,1694.11 1459,1685.5C 1458.33,1677.83 1458.33,1670.17 1459,1662.5C 1460.86,1654.82 1465.36,1649.48 1472.5,1646.5 Z"/></g>
<g><path style="opacity:0.898" fill="#7f807f" d="M 1554.5,1637.5 C 1561.69,1636.94 1568.69,1637.78 1575.5,1640C 1578.58,1642.32 1581.08,1645.16 1583,1648.5C 1590.52,1638.66 1600.35,1635.16 1612.5,1638C 1621.69,1640.17 1626.85,1646 1628,1655.5C 1628.5,1673.83 1628.67,1692.16 1628.5,1710.5C 1625.17,1710.5 1621.83,1710.5 1618.5,1710.5C 1618.67,1693.16 1618.5,1675.83 1618,1658.5C 1615.5,1648.2 1609,1644.37 1598.5,1647C 1591.93,1649.24 1587.76,1653.74 1586,1660.5C 1585.5,1677.16 1585.33,1693.83 1585.5,1710.5C 1582.17,1710.5 1578.83,1710.5 1575.5,1710.5C 1575.67,1693.16 1575.5,1675.83 1575,1658.5C 1572.5,1648.2 1566,1644.37 1555.5,1647C 1548.93,1649.24 1544.76,1653.74 1543,1660.5C 1542.5,1677.16 1542.33,1693.83 1542.5,1710.5C 1539.17,1710.5 1535.83,1710.5 1532.5,1710.5C 1532.5,1686.5 1532.5,1662.5 1532.5,1638.5C 1535.83,1638.5 1539.17,1638.5 1542.5,1638.5C 1542.34,1640.86 1542.5,1643.19 1543,1645.5C 1546.48,1642.16 1550.32,1639.49 1554.5,1637.5 Z"/></g>
<g><path style="opacity:0.905" fill="#7f807f" d="M 1678.5,1637.5 C 1696.54,1634.92 1708.04,1642.25 1713,1659.5C 1713.67,1669.5 1713.67,1679.5 1713,1689.5C 1707.75,1706.39 1696.25,1713.55 1678.5,1711C 1673.19,1709.93 1668.69,1707.43 1665,1703.5C 1664.5,1715.16 1664.33,1726.83 1664.5,1738.5C 1661.17,1738.5 1657.83,1738.5 1654.5,1738.5C 1654.5,1705.17 1654.5,1671.83 1654.5,1638.5C 1657.83,1638.5 1661.17,1638.5 1664.5,1638.5C 1664.34,1641.19 1664.5,1643.85 1665,1646.5C 1668.45,1641.86 1672.95,1638.86 1678.5,1637.5 Z M 1680.5,1646.5 C 1692.19,1645.37 1699.69,1650.37 1703,1661.5C 1703.89,1671.23 1703.56,1680.89 1702,1690.5C 1695.07,1703.02 1685.24,1705.86 1672.5,1699C 1668.69,1696.88 1666.19,1693.71 1665,1689.5C 1664.07,1679.09 1664.41,1668.76 1666,1658.5C 1669.08,1652.23 1673.91,1648.23 1680.5,1646.5 Z"/></g>
<g><path style="opacity:0.92" fill="#7f807f" d="M 1895.5,1637.5 C 1907.32,1635.33 1917.49,1638.33 1926,1646.5C 1931.8,1656 1933.97,1666.33 1932.5,1677.5C 1916.5,1677.5 1900.5,1677.5 1884.5,1677.5C 1884.15,1695.98 1893.15,1704.15 1911.5,1702C 1916.99,1700.92 1921.99,1698.76 1926.5,1695.5C 1929.23,1698.12 1930.23,1701.12 1929.5,1704.5C 1915.56,1712.71 1901.23,1713.54 1886.5,1707C 1880.12,1701.96 1876.29,1695.46 1875,1687.5C 1874.1,1677.11 1874.43,1666.77 1876,1656.5C 1879.12,1646.54 1885.62,1640.21 1895.5,1637.5 Z M 1897.5,1646.5 C 1914.45,1644.78 1922.78,1652.45 1922.5,1669.5C 1909.83,1669.5 1897.17,1669.5 1884.5,1669.5C 1883.49,1658.58 1887.82,1650.91 1897.5,1646.5 Z"/></g>
<g><path style="opacity:0.894" fill="#7f807f" d="M 1978.5,1637.5 C 1983.9,1637.22 1989.23,1637.55 1994.5,1638.5C 1994.83,1639.17 1995.17,1639.83 1995.5,1640.5C 1994.62,1643.13 1993.96,1645.8 1993.5,1648.5C 1978.73,1644.46 1969.56,1649.8 1966,1664.5C 1965.5,1679.83 1965.33,1695.16 1965.5,1710.5C 1962.17,1710.5 1958.83,1710.5 1955.5,1710.5C 1955.5,1686.5 1955.5,1662.5 1955.5,1638.5C 1958.83,1638.5 1962.17,1638.5 1965.5,1638.5C 1965.34,1641.52 1965.5,1644.52 1966,1647.5C 1969.46,1643.2 1973.63,1639.86 1978.5,1637.5 Z"/></g>
<g><path style="opacity:0.912" fill="#7f807f" d="M 838.5,1638.5 C 841.833,1638.5 845.167,1638.5 848.5,1638.5C 848.5,1662.5 848.5,1686.5 848.5,1710.5C 845.167,1710.5 841.833,1710.5 838.5,1710.5C 838.5,1686.5 838.5,1662.5 838.5,1638.5 Z"/></g>
<g><path style="opacity:0.895" fill="#7f807f" d="M 867.5,1638.5 C 871.106,1638.21 874.606,1638.54 878,1639.5C 885,1659.17 892,1678.83 899,1698.5C 905.469,1678.76 912.136,1659.09 919,1639.5C 922.394,1638.54 925.894,1638.21 929.5,1638.5C 921.375,1662.21 913.042,1685.87 904.5,1709.5C 900.555,1710.49 896.555,1710.82 892.5,1710.5C 884.167,1686.5 875.833,1662.5 867.5,1638.5 Z"/></g>
<g><path style="opacity:0.912" fill="#7f807f" d="M 1155.5,1638.5 C 1158.83,1638.5 1162.17,1638.5 1165.5,1638.5C 1165.5,1662.5 1165.5,1686.5 1165.5,1710.5C 1162.17,1710.5 1158.83,1710.5 1155.5,1710.5C 1155.5,1686.5 1155.5,1662.5 1155.5,1638.5 Z"/></g>
<g><path style="opacity:0.895" fill="#7f807f" d="M 1242.5,1638.5 C 1245.9,1638.18 1249.23,1638.51 1252.5,1639.5C 1259.76,1658.79 1266.93,1678.13 1274,1697.5C 1281.14,1677.91 1287.97,1658.24 1294.5,1638.5C 1298.18,1638.33 1301.85,1638.5 1305.5,1639C 1293.34,1672.15 1281.17,1705.32 1269,1738.5C 1265.68,1739.24 1262.51,1738.58 1259.5,1736.5C 1262.8,1728.11 1265.8,1719.61 1268.5,1711C 1259.39,1686.96 1250.73,1662.8 1242.5,1638.5 Z"/></g>
<g><path style="opacity:0.928" fill="#7f807f" d="M 1737.5,1638.5 C 1740.5,1638.5 1743.5,1638.5 1746.5,1638.5C 1746.1,1656.54 1746.6,1674.54 1748,1692.5C 1750.64,1699.32 1755.64,1702.66 1763,1702.5C 1773.21,1702.08 1779.88,1697.08 1783,1687.5C 1783.5,1671.17 1783.67,1654.84 1783.5,1638.5C 1786.83,1638.5 1790.17,1638.5 1793.5,1638.5C 1793.5,1662.5 1793.5,1686.5 1793.5,1710.5C 1790.17,1710.5 1786.83,1710.5 1783.5,1710.5C 1784.81,1702.2 1783.14,1701.03 1778.5,1707C 1767.5,1713 1756.5,1713 1745.5,1707C 1742.12,1703.73 1739.62,1699.9 1738,1695.5C 1737.5,1676.5 1737.33,1657.5 1737.5,1638.5 Z"/></g>
<g><path style="opacity:0.928" fill="#7f807f" d="M 2178.5,1638.5 C 2181.5,1638.5 2184.5,1638.5 2187.5,1638.5C 2187.1,1656.54 2187.6,1674.54 2189,1692.5C 2191.64,1699.32 2196.64,1702.66 2204,1702.5C 2214.21,1702.08 2220.88,1697.08 2224,1687.5C 2224.5,1671.17 2224.67,1654.84 2224.5,1638.5C 2227.83,1638.5 2231.17,1638.5 2234.5,1638.5C 2234.5,1662.5 2234.5,1686.5 2234.5,1710.5C 2231.17,1710.5 2227.83,1710.5 2224.5,1710.5C 2225.81,1702.2 2224.14,1701.03 2219.5,1707C 2208.5,1713 2197.5,1713 2186.5,1707C 2183.12,1703.73 2180.62,1699.9 2179,1695.5C 2178.5,1676.5 2178.33,1657.5 2178.5,1638.5 Z"/></g>
</svg>
