<?xml version="1.0" encoding="UTF-8"?>
<!DOCTYPE svg PUBLIC "-//W3C//DTD SVG 1.1//EN" "http://www.w3.org/Graphics/SVG/1.1/DTD/svg11.dtd">
<svg xmlns="http://www.w3.org/2000/svg" version="1.1" width="2500px" height="2500px" style="shape-rendering:geometricPrecision; text-rendering:geometricPrecision; image-rendering:optimizeQuality; fill-rule:evenodd; clip-rule:evenodd" xmlns:xlink="http://www.w3.org/1999/xlink">
<g><path style="opacity:0.981" fill="#000000" d="M 1523.5,770.5 C 1618.21,769.56 1701.21,799.727 1772.5,861C 1777.2,867.131 1777.7,873.631 1774,880.5C 1766.83,887 1759.67,893.5 1752.5,900C 1748.01,902.833 1743.34,903.166 1738.5,901C 1661.3,835.861 1572.63,811.861 1472.5,829C 1362.96,852.566 1284.13,914.733 1236,1015.5C 1213.42,1070.83 1206.08,1128.16 1214,1187.5C 1229.27,1283.36 1277.43,1357.53 1358.5,1410C 1452.91,1466.84 1551.58,1475.51 1654.5,1436C 1684.51,1422.68 1711.84,1405.34 1736.5,1384C 1741.35,1381.21 1746.35,1380.88 1751.5,1383C 1759.33,1390.17 1767.17,1397.33 1775,1404.5C 1777.18,1409.99 1776.85,1415.32 1774,1420.5C 1694.07,1490.14 1600.9,1520.3 1494.5,1511C 1402.5,1502.25 1324.67,1464.75 1261,1398.5C 1184.66,1317.15 1150.99,1220.48 1160,1108.5C 1169.69,1007.94 1212.53,924.773 1288.5,859C 1356.09,801.561 1434.42,772.061 1523.5,770.5 Z"/></g>
<g><path style="opacity:0.981" fill="#000000" d="M 2218.5,770.5 C 2315.29,769.029 2399.46,800.362 2471,864.5C 2473.37,870.555 2472.7,876.221 2469,881.5C 2462.17,887.667 2455.33,893.833 2448.5,900C 2443.97,902.637 2439.3,902.97 2434.5,901C 2346.26,827.948 2246.59,806.615 2135.5,837C 2042.91,866.591 1975.41,925.091 1933,1012.5C 1903.6,1084.21 1898.93,1157.55 1919,1232.5C 1948.81,1324.6 2007.65,1391.1 2095.5,1432C 2180.76,1468.84 2266.43,1469.84 2352.5,1435C 2368.47,1427.68 2383.81,1419.35 2398.5,1410C 2411.17,1400.67 2423.83,1391.33 2436.5,1382C 2440.74,1381.18 2444.74,1381.84 2448.5,1384C 2455.67,1390.5 2462.83,1397 2470,1403.5C 2473.8,1410.61 2472.97,1417.11 2467.5,1423C 2387.71,1490.59 2295.38,1519.92 2190.5,1511C 2095.67,1502.33 2016.17,1463.17 1952,1393.5C 1877.93,1311.61 1845.93,1215.28 1856,1104.5C 1866,1008.34 1906.83,928.17 1978.5,864C 2046.85,803.486 2126.85,772.319 2218.5,770.5 Z"/></g>
<g><path style="opacity:0.976" fill="#000000" d="M 47.5,781.5 C 59.5046,781.333 71.5046,781.5 83.5,782C 87.7703,783.27 90.2703,786.104 91,790.5C 91.3333,884.5 91.6667,978.5 92,1072.5C 164,976.5 236,880.5 308,784.5C 309.419,783.54 310.919,782.707 312.5,782C 327.5,781.333 342.5,781.333 357.5,782C 366.212,786.752 367.712,793.252 362,801.5C 293.68,892.143 225.846,983.143 158.5,1074.5C 248.333,1213.5 338.167,1352.5 428,1491.5C 429.92,1499.16 427.087,1504 419.5,1506C 405.833,1506.67 392.167,1506.67 378.5,1506C 376.131,1505.46 374.131,1504.3 372.5,1502.5C 289.47,1373.97 206.636,1245.3 124,1116.5C 113.333,1129.83 102.667,1143.17 92,1156.5C 91.6667,1270.17 91.3333,1383.83 91,1497.5C 90.1667,1502.33 87.3333,1505.17 82.5,1506C 71.1667,1506.67 59.8333,1506.67 48.5,1506C 43.6667,1505.17 40.8333,1502.33 40,1497.5C 39.3333,1261.83 39.3333,1026.17 40,790.5C 40.9227,786.086 43.4227,783.086 47.5,781.5 Z"/></g>
<g><path style="opacity:0.982" fill="#000000" d="M 557.5,781.5 C 569.838,781.333 582.171,781.5 594.5,782C 597.573,782.739 599.74,784.572 601,787.5C 601.333,952.833 601.667,1118.17 602,1283.5C 608.073,1356.22 643.573,1409.05 708.5,1442C 774.569,1471.22 837.569,1465.89 897.5,1426C 945.183,1390.59 971.017,1343.09 975,1283.5C 975.333,1118.17 975.667,952.833 976,787.5C 977.26,784.572 979.427,782.739 982.5,782C 994.833,781.333 1007.17,781.333 1019.5,782C 1022.2,782.69 1024.36,784.19 1026,786.5C 1027.16,872.957 1027.66,959.457 1027.5,1046C 1027.66,1133.53 1027.16,1221.03 1026,1308.5C 1009.97,1391.77 964.473,1452.94 889.5,1492C 843.196,1511.48 795.196,1517.15 745.5,1509C 672.843,1494.45 618.01,1455.29 581,1391.5C 561.126,1354.34 550.792,1314.67 550,1272.5C 549.333,1111.83 549.333,951.167 550,790.5C 550.913,786.094 553.413,783.094 557.5,781.5 Z"/></g>
<g><path style="opacity:0.906" fill="#7f807f" d="M 46.5,1687.5 C 50.1667,1687.5 53.8333,1687.5 57.5,1687.5C 57.3334,1704.84 57.5001,1722.17 58,1739.5C 73.1667,1722.33 88.3333,1705.17 103.5,1688C 108.202,1687.17 112.869,1687.34 117.5,1688.5C 104.167,1703.5 90.8333,1718.5 77.5,1733.5C 90.8413,1753.52 104.675,1773.18 119,1792.5C 119.483,1793.45 119.649,1794.45 119.5,1795.5C 114.901,1795.8 110.401,1795.47 106,1794.5C 94.0549,1776.89 81.7216,1759.56 69,1742.5C 64.9648,1746.2 61.2981,1750.2 58,1754.5C 57.3407,1767.83 56.8407,1781.16 56.5,1794.5C 53.1667,1794.5 49.8333,1794.5 46.5,1794.5C 46.5,1758.83 46.5,1723.17 46.5,1687.5 Z"/></g>
<g><path style="opacity:0.922" fill="#7f807f" d="M 530.5,1689.5 C 533.833,1689.5 537.167,1689.5 540.5,1689.5C 540.333,1713.17 540.5,1736.84 541,1760.5C 542.539,1781.72 553.706,1790.55 574.5,1787C 582.3,1783.27 587.134,1777.1 589,1768.5C 590.209,1742.19 591.042,1715.86 591.5,1689.5C 594.833,1689.5 598.167,1689.5 601.5,1689.5C 601.667,1713.5 601.5,1737.5 601,1761.5C 598.182,1791.3 582.015,1803.13 552.5,1797C 541.633,1792.81 534.8,1784.98 532,1773.5C 530.543,1745.54 530.043,1717.54 530.5,1689.5 Z"/></g>
<g><path style="opacity:0.915" fill="#7f807f" d="M 732.5,1690.5 C 736.167,1690.5 739.833,1690.5 743.5,1690.5C 743.5,1694.5 743.5,1698.5 743.5,1702.5C 739.833,1702.5 736.167,1702.5 732.5,1702.5C 732.5,1698.5 732.5,1694.5 732.5,1690.5 Z"/></g>
<g><path style="opacity:0.919" fill="#7f807f" d="M 1383.5,1691.5 C 1394.43,1690.94 1404.77,1693.11 1414.5,1698C 1416.98,1699.31 1418.98,1701.14 1420.5,1703.5C 1418.97,1706.56 1416.97,1709.23 1414.5,1711.5C 1404.07,1703.31 1392.41,1700.81 1379.5,1704C 1370.85,1707.79 1365.35,1714.29 1363,1723.5C 1359.67,1739.5 1359.67,1755.5 1363,1771.5C 1370.03,1789.31 1382.87,1795.47 1401.5,1790C 1407.1,1787.95 1411.94,1784.79 1416,1780.5C 1418.36,1783.36 1420.53,1786.36 1422.5,1789.5C 1416.32,1796.26 1408.65,1800.43 1399.5,1802C 1372.18,1806 1356.01,1794.5 1351,1767.5C 1350.33,1754.17 1350.33,1740.83 1351,1727.5C 1353.41,1707.6 1364.25,1695.6 1383.5,1691.5 Z"/></g>
<g><path style="opacity:0.915" fill="#7f807f" d="M 1103.5,1692.5 C 1107.17,1692.5 1110.83,1692.5 1114.5,1692.5C 1114.5,1696.5 1114.5,1700.5 1114.5,1704.5C 1110.83,1704.5 1107.17,1704.5 1103.5,1704.5C 1103.5,1700.5 1103.5,1696.5 1103.5,1692.5 Z"/></g>
<g><path style="opacity:0.943" fill="#7f807f" d="M 2245.5,1692.5 C 2248.83,1692.5 2252.17,1692.5 2255.5,1692.5C 2255.5,1729.83 2255.5,1767.17 2255.5,1804.5C 2251.83,1804.5 2248.17,1804.5 2244.5,1804.5C 2245.39,1767.17 2245.72,1729.84 2245.5,1692.5 Z"/></g>
<g><path style="opacity:0.928" fill="#7f807f" d="M 2385.5,1693.5 C 2388.83,1693.5 2392.17,1693.5 2395.5,1693.5C 2395.33,1707.17 2395.5,1720.84 2396,1734.5C 2402.31,1725.95 2410.81,1722.45 2421.5,1724C 2435.54,1726.2 2443.7,1734.37 2446,1748.5C 2446.92,1760.89 2446.58,1773.22 2445,1785.5C 2440.95,1799.55 2431.62,1806.88 2417,1807.5C 2408.61,1807.6 2401.61,1804.6 2396,1798.5C 2395.5,1800.81 2395.34,1803.14 2395.5,1805.5C 2391.83,1805.5 2388.17,1805.5 2384.5,1805.5C 2385.39,1768.17 2385.72,1730.84 2385.5,1693.5 Z M 2415.5,1733.5 C 2425.45,1734.06 2431.95,1739.06 2435,1748.5C 2437,1759.5 2437,1770.5 2435,1781.5C 2429.47,1796.77 2419.3,1800.93 2404.5,1794C 2400.34,1791.19 2397.51,1787.36 2396,1782.5C 2395.33,1771.83 2395.33,1761.17 2396,1750.5C 2399.31,1741.02 2405.81,1735.35 2415.5,1733.5 Z"/></g>
<g><path style="opacity:0.919" fill="#7f807f" d="M 2175.5,1694.5 C 2186.43,1693.94 2196.77,1696.11 2206.5,1701C 2208.98,1702.31 2210.98,1704.14 2212.5,1706.5C 2210.97,1709.56 2208.97,1712.23 2206.5,1714.5C 2196.07,1706.31 2184.41,1703.81 2171.5,1707C 2162.85,1710.79 2157.35,1717.29 2155,1726.5C 2151.67,1742.5 2151.67,1758.5 2155,1774.5C 2162.03,1792.31 2174.87,1798.47 2193.5,1793C 2199.1,1790.95 2203.94,1787.79 2208,1783.5C 2210.36,1786.36 2212.53,1789.36 2214.5,1792.5C 2208.32,1799.26 2200.65,1803.43 2191.5,1805C 2164.18,1809 2148.01,1797.5 2143,1770.5C 2142.33,1757.17 2142.33,1743.83 2143,1730.5C 2145.41,1710.6 2156.25,1698.6 2175.5,1694.5 Z"/></g>
<g><path style="opacity:0.912" fill="#7f807f" d="M 1156.5,1698.5 C 1159.83,1698.5 1163.17,1698.5 1166.5,1698.5C 1166.5,1705.5 1166.5,1712.5 1166.5,1719.5C 1173.17,1719.5 1179.83,1719.5 1186.5,1719.5C 1186.5,1722.5 1186.5,1725.5 1186.5,1728.5C 1179.83,1728.5 1173.17,1728.5 1166.5,1728.5C 1166.33,1747.17 1166.5,1765.84 1167,1784.5C 1168.54,1788.87 1171.71,1791.2 1176.5,1791.5C 1179.84,1790.57 1183.17,1790.07 1186.5,1790C 1187.22,1792.46 1187.88,1794.96 1188.5,1797.5C 1187.62,1798.97 1186.29,1799.8 1184.5,1800C 1177.75,1800.88 1171.08,1800.54 1164.5,1799C 1160.7,1796.91 1158.2,1793.75 1157,1789.5C 1155.91,1778.71 1155.41,1767.87 1155.5,1757C 1155.51,1747.79 1155.85,1738.62 1156.5,1729.5C 1152.22,1728.51 1147.88,1728.17 1143.5,1728.5C 1143.5,1725.5 1143.5,1722.5 1143.5,1719.5C 1147.83,1719.5 1152.17,1719.5 1156.5,1719.5C 1156.5,1712.5 1156.5,1705.5 1156.5,1698.5 Z"/></g>
<g><path style="opacity:0.912" fill="#7f807f" d="M 1874.5,1701.5 C 1877.83,1701.5 1881.17,1701.5 1884.5,1701.5C 1884.5,1708.5 1884.5,1715.5 1884.5,1722.5C 1891.17,1722.5 1897.83,1722.5 1904.5,1722.5C 1904.5,1725.5 1904.5,1728.5 1904.5,1731.5C 1897.83,1731.5 1891.17,1731.5 1884.5,1731.5C 1884.33,1750.17 1884.5,1768.84 1885,1787.5C 1886.54,1791.87 1889.71,1794.2 1894.5,1794.5C 1897.84,1793.57 1901.17,1793.07 1904.5,1793C 1905.22,1795.46 1905.88,1797.96 1906.5,1800.5C 1905.62,1801.97 1904.29,1802.8 1902.5,1803C 1895.75,1803.88 1889.08,1803.54 1882.5,1802C 1878.7,1799.91 1876.2,1796.75 1875,1792.5C 1873.91,1781.71 1873.41,1770.87 1873.5,1760C 1873.51,1750.79 1873.85,1741.62 1874.5,1732.5C 1870.22,1731.51 1865.88,1731.17 1861.5,1731.5C 1861.5,1728.5 1861.5,1725.5 1861.5,1722.5C 1865.83,1722.5 1870.17,1722.5 1874.5,1722.5C 1874.5,1715.5 1874.5,1708.5 1874.5,1701.5 Z"/></g>
<g><path style="opacity:0.91" fill="#7f807f" d="M 166.5,1712.5 C 187.473,1711.32 199.64,1720.99 203,1741.5C 204.062,1753.28 203.396,1764.95 201,1776.5C 193.032,1793.39 179.866,1799.56 161.5,1795C 147.941,1790.4 140.775,1780.9 140,1766.5C 138.99,1755.06 139.657,1743.72 142,1732.5C 146.522,1721.13 154.689,1714.46 166.5,1712.5 Z M 167.5,1722.5 C 180.914,1721.42 189.08,1727.42 192,1740.5C 192.903,1751.23 192.569,1761.89 191,1772.5C 184.009,1786.21 173.509,1789.71 159.5,1783C 154.996,1779.16 152.162,1774.33 151,1768.5C 150.333,1759.5 150.333,1750.5 151,1741.5C 152.502,1731.51 158.002,1725.18 167.5,1722.5 Z"/></g>
<g><path style="opacity:0.923" fill="#7f807f" d="M 263.5,1712.5 C 268.841,1712.12 273.841,1713.12 278.5,1715.5C 277.346,1718.45 276.346,1721.45 275.5,1724.5C 262.26,1721.3 253.093,1725.96 248,1738.5C 246.566,1757.12 246.066,1775.79 246.5,1794.5C 242.833,1794.5 239.167,1794.5 235.5,1794.5C 236.333,1767.84 236.667,1741.18 236.5,1714.5C 239.833,1714.5 243.167,1714.5 246.5,1714.5C 246.335,1718.18 246.501,1721.85 247,1725.5C 250.41,1718.39 255.91,1714.06 263.5,1712.5 Z"/></g>
<g><path style="opacity:0.902" fill="#7f807f" d="M 326.5,1713.5 C 343.957,1712.14 355.124,1719.8 360,1736.5C 361.262,1744.11 361.762,1751.78 361.5,1759.5C 344.487,1759.17 327.487,1759.5 310.5,1760.5C 310.934,1767.24 312.767,1773.57 316,1779.5C 321.712,1786.06 328.879,1788.56 337.5,1787C 344.059,1785.6 350.059,1783.27 355.5,1780C 357.415,1782.65 358.582,1785.48 359,1788.5C 344.476,1798.77 329.31,1799.94 313.5,1792C 306.023,1785.55 301.856,1777.38 301,1767.5C 299.949,1756.05 300.616,1744.72 303,1733.5C 307.206,1722.49 315.04,1715.83 326.5,1713.5 Z M 327.5,1723.5 C 339.533,1722.59 347.033,1727.92 350,1739.5C 350.455,1742.85 350.955,1746.19 351.5,1749.5C 338.167,1749.5 324.833,1749.5 311.5,1749.5C 310.322,1736.48 315.655,1727.81 327.5,1723.5 Z"/></g>
<g><path style="opacity:0.916" fill="#7f807f" d="M 414.5,1713.5 C 427.061,1711.95 436.894,1716.29 444,1726.5C 444.822,1728.79 445.489,1731.12 446,1733.5C 446.5,1754.5 446.667,1775.5 446.5,1796.5C 443.167,1796.5 439.833,1796.5 436.5,1796.5C 436.665,1793.48 436.498,1790.48 436,1787.5C 430.222,1794.38 422.722,1797.72 413.5,1797.5C 397.288,1796.96 389.288,1788.62 389.5,1772.5C 388.81,1760.03 394.477,1752.2 406.5,1749C 416.494,1748.5 426.494,1748.33 436.5,1748.5C 437.961,1727.46 428.628,1719.96 408.5,1726C 404.905,1727.71 401.405,1729.55 398,1731.5C 395.458,1729.45 393.625,1726.78 392.5,1723.5C 399.191,1718.48 406.525,1715.15 414.5,1713.5 Z M 411.5,1757.5 C 419.833,1757.5 428.167,1757.5 436.5,1757.5C 440.286,1775.3 433.286,1785.3 415.5,1787.5C 400.913,1785.33 396.413,1777.33 402,1763.5C 404.551,1760.32 407.718,1758.32 411.5,1757.5 Z"/></g>
<g><path style="opacity:0.919" fill="#7f807f" d="M 665.5,1714.5 C 679.643,1713.02 689.476,1718.69 695,1731.5C 696.445,1753.46 696.945,1775.46 696.5,1797.5C 692.833,1797.5 689.167,1797.5 685.5,1797.5C 685.798,1785.17 686.131,1772.83 686.5,1760.5C 686.555,1752.46 686.055,1744.46 685,1736.5C 682.166,1728.58 676.499,1724.58 668,1724.5C 657.953,1726.19 651.286,1731.86 648,1741.5C 647.5,1759.83 647.333,1778.16 647.5,1796.5C 643.833,1796.5 640.167,1796.5 636.5,1796.5C 637.333,1769.84 637.667,1743.18 637.5,1716.5C 640.833,1716.5 644.167,1716.5 647.5,1716.5C 647.336,1719.19 647.503,1721.85 648,1724.5C 652.709,1719 658.543,1715.67 665.5,1714.5 Z"/></g>
<g><path style="opacity:0.902" fill="#7f807f" d="M 884.5,1715.5 C 901.957,1714.14 913.124,1721.8 918,1738.5C 919.262,1746.11 919.762,1753.78 919.5,1761.5C 902.487,1761.17 885.487,1761.5 868.5,1762.5C 868.934,1769.24 870.767,1775.57 874,1781.5C 879.712,1788.06 886.879,1790.56 895.5,1789C 902.059,1787.6 908.059,1785.27 913.5,1782C 915.415,1784.65 916.582,1787.48 917,1790.5C 902.476,1800.77 887.31,1801.94 871.5,1794C 864.023,1787.55 859.856,1779.38 859,1769.5C 857.949,1758.05 858.616,1746.72 861,1735.5C 865.206,1724.49 873.04,1717.83 884.5,1715.5 Z M 885.5,1725.5 C 897.533,1724.59 905.033,1729.92 908,1741.5C 908.455,1744.85 908.955,1748.19 909.5,1751.5C 896.167,1751.5 882.833,1751.5 869.5,1751.5C 868.322,1738.48 873.655,1729.81 885.5,1725.5 Z"/></g>
<g><path style="opacity:0.923" fill="#7f807f" d="M 979.5,1716.5 C 984.841,1716.12 989.841,1717.12 994.5,1719.5C 993.346,1722.45 992.346,1725.45 991.5,1728.5C 978.26,1725.3 969.093,1729.96 964,1742.5C 962.566,1761.12 962.066,1779.79 962.5,1798.5C 958.833,1798.5 955.167,1798.5 951.5,1798.5C 952.333,1771.84 952.667,1745.18 952.5,1718.5C 955.833,1718.5 959.167,1718.5 962.5,1718.5C 962.335,1722.18 962.501,1725.85 963,1729.5C 966.41,1722.39 971.91,1718.06 979.5,1716.5 Z"/></g>
<g><path style="opacity:0.902" fill="#7f807f" d="M 1039.5,1716.5 C 1049,1715.97 1058,1717.8 1066.5,1722C 1068.33,1722.9 1069.66,1724.23 1070.5,1726C 1069.4,1728.92 1067.74,1731.42 1065.5,1733.5C 1055.9,1726.61 1045.57,1725.11 1034.5,1729C 1026.92,1734.03 1025.92,1740.03 1031.5,1747C 1041.7,1750.91 1052.04,1754.58 1062.5,1758C 1069.41,1762.35 1072.74,1768.68 1072.5,1777C 1072.18,1787.33 1067.18,1794.33 1057.5,1798C 1042.25,1802.42 1028.25,1799.92 1015.5,1790.5C 1016.83,1787.17 1018.66,1784.17 1021,1781.5C 1031.84,1790.22 1043.67,1792.06 1056.5,1787C 1063.17,1780.33 1063.17,1773.67 1056.5,1767C 1046.41,1763.92 1036.41,1760.58 1026.5,1757C 1018.55,1751.16 1015.72,1743.32 1018,1733.5C 1021.55,1723.11 1028.71,1717.44 1039.5,1716.5 Z"/></g>
<g><path style="opacity:0.949" fill="#7f807f" d="M 732.5,1717.5 C 736.167,1717.5 739.833,1717.5 743.5,1717.5C 742.545,1744.15 742.211,1770.81 742.5,1797.5C 739.167,1797.5 735.833,1797.5 732.5,1797.5C 732.5,1770.83 732.5,1744.17 732.5,1717.5 Z"/></g>
<g><path style="opacity:0.899" fill="#7f807f" d="M 770.5,1717.5 C 774.437,1717.21 778.27,1717.54 782,1718.5C 789.202,1740.44 796.202,1762.44 803,1784.5C 810.674,1762.31 817.84,1739.98 824.5,1717.5C 828.167,1717.5 831.833,1717.5 835.5,1717.5C 826.777,1744.17 817.944,1770.84 809,1797.5C 804.891,1798.56 800.725,1798.56 796.5,1797.5C 788.035,1770.77 779.368,1744.11 770.5,1717.5 Z"/></g>
<g><path style="opacity:0.91" fill="#7f807f" d="M 1475.5,1718.5 C 1496.47,1717.32 1508.64,1726.99 1512,1747.5C 1513.06,1759.28 1512.4,1770.95 1510,1782.5C 1502.03,1799.39 1488.87,1805.56 1470.5,1801C 1456.94,1796.4 1449.77,1786.9 1449,1772.5C 1447.99,1761.06 1448.66,1749.72 1451,1738.5C 1455.52,1727.13 1463.69,1720.46 1475.5,1718.5 Z M 1476.5,1728.5 C 1489.91,1727.42 1498.08,1733.42 1501,1746.5C 1501.9,1757.23 1501.57,1767.89 1500,1778.5C 1493.01,1792.21 1482.51,1795.71 1468.5,1789C 1464,1785.16 1461.16,1780.33 1460,1774.5C 1459.33,1765.5 1459.33,1756.5 1460,1747.5C 1461.5,1737.51 1467,1731.18 1476.5,1728.5 Z"/></g>
<g><path style="opacity:0.949" fill="#7f807f" d="M 1103.5,1719.5 C 1107.17,1719.5 1110.83,1719.5 1114.5,1719.5C 1113.54,1746.15 1113.21,1772.81 1113.5,1799.5C 1110.17,1799.5 1106.83,1799.5 1103.5,1799.5C 1103.5,1772.83 1103.5,1746.17 1103.5,1719.5 Z"/></g>
<g><path style="opacity:0.912" fill="#7f807f" d="M 1209.5,1719.5 C 1213.67,1718.96 1217.51,1719.62 1221,1721.5C 1228.2,1742.77 1235.2,1764.1 1242,1785.5C 1249.79,1763.98 1257.29,1742.31 1264.5,1720.5C 1268.12,1719.34 1271.79,1719.17 1275.5,1720C 1262.61,1756 1250.11,1792.17 1238,1828.5C 1237.52,1830.48 1236.35,1831.81 1234.5,1832.5C 1232.24,1831.53 1229.9,1830.87 1227.5,1830.5C 1230.39,1820.67 1233.39,1810.84 1236.5,1801C 1227.79,1773.71 1218.79,1746.55 1209.5,1719.5 Z"/></g>
<g><path style="opacity:0.917" fill="#7f807f" d="M 1570.5,1719.5 C 1579.58,1718.74 1587.41,1721.41 1594,1727.5C 1595,1729.5 1596,1731.5 1597,1733.5C 1604.32,1721.77 1614.82,1717.6 1628.5,1721C 1636.16,1724 1641,1729.5 1643,1737.5C 1643.5,1759.16 1643.67,1780.83 1643.5,1802.5C 1640.17,1802.5 1636.83,1802.5 1633.5,1802.5C 1633.67,1782.5 1633.5,1762.5 1633,1742.5C 1629.88,1732.35 1623.05,1728.52 1612.5,1731C 1605.9,1733.26 1601.74,1737.76 1600,1744.5C 1599.77,1763.85 1599.27,1783.19 1598.5,1802.5C 1595.17,1802.5 1591.83,1802.5 1588.5,1802.5C 1588.67,1782.16 1588.5,1761.83 1588,1741.5C 1586.08,1733.7 1581.08,1729.7 1573,1729.5C 1563.27,1730.56 1557.27,1735.9 1555,1745.5C 1554.5,1764.16 1554.33,1782.83 1554.5,1801.5C 1550.83,1801.5 1547.17,1801.5 1543.5,1801.5C 1544.33,1774.84 1544.67,1748.18 1544.5,1721.5C 1547.83,1721.5 1551.17,1721.5 1554.5,1721.5C 1554.34,1724.19 1554.5,1726.85 1555,1729.5C 1558.9,1723.98 1564.07,1720.65 1570.5,1719.5 Z"/></g>
<g><path style="opacity:0.915" fill="#7f807f" d="M 1708.5,1719.5 C 1726.2,1719.04 1737.03,1727.38 1741,1744.5C 1741.67,1755.5 1741.67,1766.5 1741,1777.5C 1734.66,1800.52 1720.16,1808.02 1697.5,1800C 1695.04,1798.54 1692.87,1796.71 1691,1794.5C 1690.5,1807.5 1690.33,1820.5 1690.5,1833.5C 1686.83,1833.5 1683.17,1833.5 1679.5,1833.5C 1680,1796.17 1680.33,1758.84 1680.5,1721.5C 1683.83,1721.5 1687.17,1721.5 1690.5,1721.5C 1690.34,1724.19 1690.5,1726.85 1691,1729.5C 1695.67,1723.92 1701.5,1720.59 1708.5,1719.5 Z M 1710.5,1729.5 C 1720.45,1730.06 1726.95,1735.06 1730,1744.5C 1732,1755.5 1732,1766.5 1730,1777.5C 1724.47,1792.77 1714.3,1796.93 1699.5,1790C 1695.34,1787.19 1692.51,1783.36 1691,1778.5C 1690.33,1767.83 1690.33,1757.17 1691,1746.5C 1694.31,1737.02 1700.81,1731.35 1710.5,1729.5 Z"/></g>
<g><path style="opacity:0.902" fill="#7f807f" d="M 1958.5,1720.5 C 1975.96,1719.14 1987.12,1726.8 1992,1743.5C 1993.26,1751.11 1993.76,1758.78 1993.5,1766.5C 1976.49,1766.17 1959.49,1766.5 1942.5,1767.5C 1942.93,1774.24 1944.77,1780.57 1948,1786.5C 1953.71,1793.06 1960.88,1795.56 1969.5,1794C 1976.06,1792.6 1982.06,1790.27 1987.5,1787C 1989.42,1789.65 1990.58,1792.48 1991,1795.5C 1976.48,1805.77 1961.31,1806.94 1945.5,1799C 1938.02,1792.55 1933.86,1784.38 1933,1774.5C 1931.95,1763.05 1932.62,1751.72 1935,1740.5C 1939.21,1729.49 1947.04,1722.83 1958.5,1720.5 Z M 1959.5,1730.5 C 1971.53,1729.59 1979.03,1734.92 1982,1746.5C 1982.46,1749.85 1982.96,1753.19 1983.5,1756.5C 1970.17,1756.5 1956.83,1756.5 1943.5,1756.5C 1942.32,1743.48 1947.66,1734.81 1959.5,1730.5 Z"/></g>
<g><path style="opacity:0.923" fill="#7f807f" d="M 2053.5,1721.5 C 2058.84,1721.12 2063.84,1722.12 2068.5,1724.5C 2067.35,1727.45 2066.35,1730.45 2065.5,1733.5C 2052.26,1730.3 2043.09,1734.96 2038,1747.5C 2036.57,1766.12 2036.07,1784.79 2036.5,1803.5C 2032.83,1803.5 2029.17,1803.5 2025.5,1803.5C 2026.33,1776.84 2026.67,1750.18 2026.5,1723.5C 2029.83,1723.5 2033.17,1723.5 2036.5,1723.5C 2036.33,1727.18 2036.5,1730.85 2037,1734.5C 2040.41,1727.39 2045.91,1723.06 2053.5,1721.5 Z"/></g>
<g><path style="opacity:0.902" fill="#7f807f" d="M 1773.5,1722.5 C 1777.17,1722.5 1780.83,1722.5 1784.5,1722.5C 1784.06,1733.99 1783.73,1745.49 1783.5,1757C 1783.43,1765.88 1783.93,1774.71 1785,1783.5C 1787.9,1790.74 1793.24,1794.41 1801,1794.5C 1810.75,1793.62 1817.42,1788.62 1821,1779.5C 1821.36,1760.49 1821.86,1741.49 1822.5,1722.5C 1825.83,1722.5 1829.17,1722.5 1832.5,1722.5C 1832.81,1749.53 1832.47,1776.53 1831.5,1803.5C 1828.17,1803.5 1824.83,1803.5 1821.5,1803.5C 1821.66,1800.48 1821.5,1797.48 1821,1794.5C 1809.96,1805.51 1797.46,1807.34 1783.5,1800C 1778.23,1795.72 1775.06,1790.22 1774,1783.5C 1773.5,1763.17 1773.33,1742.84 1773.5,1722.5 Z"/></g>
<g><path style="opacity:0.902" fill="#7f807f" d="M 2290.5,1724.5 C 2294.17,1724.5 2297.83,1724.5 2301.5,1724.5C 2301.06,1735.99 2300.73,1747.49 2300.5,1759C 2300.43,1767.88 2300.93,1776.71 2302,1785.5C 2304.9,1792.74 2310.24,1796.41 2318,1796.5C 2327.75,1795.62 2334.42,1790.62 2338,1781.5C 2338.36,1762.49 2338.86,1743.49 2339.5,1724.5C 2342.83,1724.5 2346.17,1724.5 2349.5,1724.5C 2349.81,1751.53 2349.47,1778.53 2348.5,1805.5C 2345.17,1805.5 2341.83,1805.5 2338.5,1805.5C 2338.66,1802.48 2338.5,1799.48 2338,1796.5C 2326.96,1807.51 2314.46,1809.34 2300.5,1802C 2295.23,1797.72 2292.06,1792.22 2291,1785.5C 2290.5,1765.17 2290.33,1744.84 2290.5,1724.5 Z"/></g>
</svg>
