<?xml version="1.0" encoding="UTF-8"?>
<!DOCTYPE svg PUBLIC "-//W3C//DTD SVG 1.1//EN" "http://www.w3.org/Graphics/SVG/1.1/DTD/svg11.dtd">
<svg xmlns="http://www.w3.org/2000/svg" version="1.1" width="2500px" height="2500px" style="shape-rendering:geometricPrecision; text-rendering:geometricPrecision; image-rendering:optimizeQuality; fill-rule:evenodd; clip-rule:evenodd" xmlns:xlink="http://www.w3.org/1999/xlink">
<g><path style="opacity:0.981" fill="#fdfdfd" d="M 1572.5,750.5 C 1669.42,748.073 1753.59,779.073 1825,843.5C 1850.22,876.329 1850.88,909.662 1827,943.5C 1818.43,952.735 1809.27,961.235 1799.5,969C 1784.77,979.432 1768.43,984.099 1750.5,983C 1751.28,985.74 1751.78,988.574 1752,991.5C 1793.8,1060.39 1795.14,1130.06 1756,1200.5C 1749.37,1211.41 1741.54,1221.41 1732.5,1230.5C 1733.17,1230.83 1733.83,1231.17 1734.5,1231.5C 1760.89,1225.48 1784.56,1230.98 1805.5,1248C 1812.97,1254.47 1820.14,1261.3 1827,1268.5C 1851.1,1302.94 1850.1,1336.61 1824,1369.5C 1747.91,1437.09 1658.74,1467.25 1556.5,1460C 1462.99,1452 1384.83,1413.5 1322,1344.5C 1247.83,1259.95 1218.83,1161.62 1235,1049.5C 1251.73,952.495 1299.56,874.995 1378.5,817C 1436.48,775.618 1501.14,753.451 1572.5,750.5 Z M 1498.5,1266.5 C 1468.1,1250.54 1443.94,1227.87 1426,1198.5C 1417.52,1184.04 1411.18,1168.71 1407,1152.5C 1405.56,1146.89 1404.9,1141.22 1405,1135.5C 1417.56,1192.69 1448.73,1236.36 1498.5,1266.5 Z M 1498.5,1266.5 C 1502.15,1267.66 1505.48,1269.33 1508.5,1271.5C 1504.58,1270.87 1501.25,1269.21 1498.5,1266.5 Z"/></g>
<g><path style="opacity:0.981" fill="#fdfdfd" d="M 2204.5,750.5 C 2301.42,748.073 2385.59,779.073 2457,843.5C 2482.22,876.329 2482.88,909.662 2459,943.5C 2448.43,954.078 2437.26,963.911 2425.5,973C 2397.38,988.082 2369.71,987.416 2342.5,971C 2385.67,1017.53 2402.51,1072.36 2393,1135.5C 2384.08,1176.35 2365.91,1212.35 2338.5,1243.5C 2338.83,1243.83 2339.17,1244.17 2339.5,1244.5C 2363.67,1227.11 2389.67,1223.94 2417.5,1235C 2434.43,1244.93 2449.27,1257.43 2462,1272.5C 2482.88,1306.3 2480.88,1338.63 2456,1369.5C 2379.91,1437.09 2290.74,1467.25 2188.5,1460C 2079.52,1449.28 1992.69,1400.11 1928,1312.5C 1877.52,1240.92 1856.18,1161.25 1864,1073.5C 1878.35,951.566 1937.85,859.066 2042.5,796C 2093.07,768.359 2147.07,753.192 2204.5,750.5 Z M 2082.5,1229.5 C 2085.5,1231.83 2088.17,1234.5 2090.5,1237.5C 2086.83,1235.83 2084.17,1233.17 2082.5,1229.5 Z M 2093.5,1240.5 C 2125.28,1265.87 2161.61,1280.54 2202.5,1284.5C 2201.57,1286.8 2200.73,1289.13 2200,1291.5C 2198.35,1290.28 2196.52,1289.45 2194.5,1289C 2164.45,1283.8 2136.78,1272.8 2111.5,1256C 2105.01,1251.34 2099.01,1246.18 2093.5,1240.5 Z"/></g>
<g><path style="opacity:1" fill="#000000" d="M 1566.5,771.5 C 1659.62,767.367 1740.79,796.034 1810,857.5C 1821.81,871.39 1826.14,887.39 1823,905.5C 1819.29,920.881 1811.13,933.381 1798.5,943C 1787.02,954.905 1773.02,961.739 1756.5,963.5C 1750.77,939.525 1739.43,918.692 1722.5,901C 1709.77,890.13 1696.1,888.464 1681.5,896C 1676.98,901.52 1672.14,906.687 1667,911.5C 1625.25,895.669 1582.75,893.336 1539.5,904.5C 1524.08,896.124 1508.41,888.291 1492.5,881C 1480.79,876.856 1469.79,878.189 1459.5,885C 1442.95,899.911 1432.78,918.411 1429,940.5C 1426.43,955.928 1423.43,971.261 1420,986.5C 1391.52,1025.07 1378.85,1068.4 1382,1116.5C 1387.67,1193.39 1424.17,1250.23 1491.5,1287C 1549.45,1315.65 1608.45,1317.98 1668.5,1294C 1687.54,1285.15 1704.88,1273.82 1720.5,1260C 1737.59,1248.73 1755.93,1246.39 1775.5,1253C 1789.11,1260.94 1801.28,1270.77 1812,1282.5C 1822.28,1296.17 1825.95,1311.5 1823,1328.5C 1820.44,1340.04 1814.94,1349.88 1806.5,1358C 1725.74,1426.12 1632.74,1452.12 1527.5,1436C 1451.91,1422.3 1388.41,1387.13 1337,1330.5C 1268.75,1253.04 1241.08,1162.71 1254,1059.5C 1265.88,980.243 1301.04,913.409 1359.5,859C 1417.95,805.228 1486.95,776.062 1566.5,771.5 Z M 1498.5,1266.5 C 1502.15,1267.66 1505.48,1269.33 1508.5,1271.5C 1504.58,1270.87 1501.25,1269.21 1498.5,1266.5 Z"/></g>
<g><path style="opacity:1" fill="#000000" d="M 2198.5,771.5 C 2283.18,767.566 2358.85,791.399 2425.5,843C 2432.36,848.857 2438.86,855.024 2445,861.5C 2456.25,878.251 2458.59,896.251 2452,915.5C 2449.84,920.492 2447.17,925.159 2444,929.5C 2435.77,938.402 2426.93,946.569 2417.5,954C 2397.32,966.236 2376.99,966.569 2356.5,955C 2294.28,902.069 2224.28,888.736 2146.5,915C 2079.18,941.98 2036.35,990.48 2018,1060.5C 2001.39,1156.1 2033.55,1229.94 2114.5,1282C 2137.54,1295.29 2162.2,1304.12 2188.5,1308.5C 2182.34,1321.49 2175.18,1333.82 2167,1345.5C 2166.14,1365.64 2175.31,1372.47 2194.5,1366C 2227.78,1346.38 2259.11,1324.05 2288.5,1299C 2313.43,1289.36 2335.77,1275.7 2355.5,1258C 2368.38,1249.92 2382.38,1247.25 2397.5,1250C 2406.77,1252.13 2415.1,1256.13 2422.5,1262C 2431.33,1269.5 2439.5,1277.67 2447,1286.5C 2456.34,1302.72 2458.01,1319.72 2452,1337.5C 2449.44,1343.63 2446.1,1349.29 2442,1354.5C 2371.68,1416.95 2289.18,1445.45 2194.5,1440C 2104.6,1433.3 2029.44,1396.8 1969,1330.5C 1900.39,1253.16 1872.73,1162.83 1886,1059.5C 1902.69,956.241 1954.86,876.408 2042.5,820C 2090.4,790.42 2142.4,774.254 2198.5,771.5 Z"/></g>
<g><path style="opacity:0.97" fill="#fefefe" d="M 429.5,782.5 C 469.35,779.831 498.184,796.165 516,831.5C 528.011,864.759 523.011,895.092 501,922.5C 448.5,971 396,1019.5 343.5,1068C 402.703,1106.87 449.87,1157.04 485,1218.5C 511.02,1266.91 523.353,1318.58 522,1373.5C 514.145,1415.69 488.978,1439.86 446.5,1446C 408.347,1447.02 380.847,1430.52 364,1396.5C 358.394,1378.96 355.727,1360.96 356,1342.5C 350.145,1307.79 335.479,1277.46 312,1251.5C 295.548,1233.37 277.048,1217.87 256.5,1205C 247.489,1199.99 238.155,1195.83 228.5,1192.5C 228.667,1252.17 228.5,1311.83 228,1371.5C 221.051,1414.78 195.884,1439.62 152.5,1446C 114.56,1447.36 87.0597,1431.19 70,1397.5C 66.5199,1387.77 64.1866,1377.77 63,1367.5C 62.3333,1201.17 62.3333,1034.83 63,868.5C 69.819,820.349 97.4856,794.016 146,789.5C 188.024,792.545 214.691,814.211 226,854.5C 226.667,857.833 227.333,861.167 228,864.5C 228.333,892.833 228.667,921.167 229,949.5C 280.802,901.366 332.302,852.866 383.5,804C 396.755,792.308 412.089,785.141 429.5,782.5 Z"/></g>
<g><path style="opacity:0.975" fill="#fefdfd" d="M 638.5,783.5 C 672.686,783.003 698.853,797.003 717,825.5C 722.136,835.242 725.47,845.576 727,856.5C 727.333,951.167 727.667,1045.83 728,1140.5C 730.241,1187.15 748.741,1225.98 783.5,1257C 825.374,1292.47 873.374,1304.47 927.5,1293C 972.523,1280.74 1007.02,1254.57 1031,1214.5C 1043.33,1193.5 1050,1170.83 1051,1146.5C 1051.33,1050.17 1051.67,953.833 1052,857.5C 1057.3,822.867 1076.47,799.7 1109.5,788C 1156.06,777.034 1189.89,792.867 1211,835.5C 1212.98,842.087 1214.65,848.754 1216,855.5C 1216.67,957.167 1216.67,1058.83 1216,1160.5C 1205.84,1264.03 1158.67,1345.87 1074.5,1406C 1018.52,1444 956.522,1462.84 888.5,1462.5C 804.56,1462.5 731.56,1434.67 669.5,1379C 608.809,1324.22 573.309,1256.05 563,1174.5C 562.13,1167.19 561.463,1159.85 561,1152.5C 560.333,1054.5 560.333,956.5 561,858.5C 565.441,826.125 582.608,803.292 612.5,790C 621.22,787.487 629.887,785.32 638.5,783.5 Z"/></g>
<g><path style="opacity:1" fill="#c3201f" d="M 212.5,1166.5 C 211.081,1165.55 209.415,1165.22 207.5,1165.5C 207.5,1232.17 207.5,1298.83 207.5,1365.5C 204.833,1398.67 187.167,1418.5 154.5,1425C 123.701,1427.69 101.534,1415.19 88,1387.5C 86.1944,1381.94 84.8611,1376.28 84,1370.5C 83.3333,1201.5 83.3333,1032.5 84,863.5C 91.2091,831.288 111.209,813.621 144,810.5C 175.422,811.526 196.088,826.86 206,856.5C 207.25,861.42 207.75,866.42 207.5,871.5C 207.167,913.505 207.5,955.505 208.5,997.5C 209.107,997.376 209.44,997.043 209.5,996.5C 272.604,937.232 335.604,877.732 398.5,818C 423.541,798.868 449.541,797.535 476.5,814C 502.901,836.447 509.068,863.614 495,895.5C 492.247,900.008 489.247,904.341 486,908.5C 426.833,963 367.667,1017.5 308.5,1072C 392.369,1117.57 451.869,1184.73 487,1273.5C 497.804,1304.93 502.804,1337.26 502,1370.5C 496.575,1400.92 478.741,1419.09 448.5,1425C 416.002,1427.34 393.502,1413.5 381,1383.5C 379.274,1377.96 378.274,1372.3 378,1366.5C 377.891,1324.51 365.225,1286.84 340,1253.5C 315.082,1220.24 283.915,1194.74 246.5,1177C 235.415,1172.58 224.081,1169.08 212.5,1166.5 Z"/></g>
<g><path style="opacity:1" fill="#c3201f" d="M 633.5,804.5 C 670.142,802.018 694.308,818.018 706,852.5C 707.322,952.465 707.989,1052.46 708,1152.5C 715.337,1210.7 743.17,1256.2 791.5,1289C 834.555,1315.3 880.888,1323.3 930.5,1313C 980.887,1300.23 1019.72,1271.73 1047,1227.5C 1062.61,1200.65 1070.95,1171.65 1072,1140.5C 1072.33,1044.83 1072.67,949.167 1073,853.5C 1078.99,832.17 1092.16,817.004 1112.5,808C 1147.14,798.76 1173.3,809.593 1191,840.5C 1193.6,846.235 1195.27,852.235 1196,858.5C 1196.67,954.833 1196.67,1051.17 1196,1147.5C 1190.81,1243.38 1150.65,1320.88 1075.5,1380C 1003.65,1433.25 923.313,1452.58 834.5,1438C 776.737,1427.95 726.403,1403.28 683.5,1364C 622.047,1308.59 588.214,1239.42 582,1156.5C 581.333,1056.5 581.333,956.5 582,856.5C 585.844,834.979 597.677,819.479 617.5,810C 622.851,807.846 628.184,806.013 633.5,804.5 Z"/></g>
<g><path style="opacity:1" fill="#e08e8e" d="M 207.5,871.5 C 208.167,913.167 208.833,954.833 209.5,996.5C 209.44,997.043 209.107,997.376 208.5,997.5C 207.5,955.505 207.167,913.505 207.5,871.5 Z"/></g>
<g><path style="opacity:1" fill="#c3201f" d="M 1475.5,911.5 C 1478.85,911.335 1482.18,911.502 1485.5,912C 1497.38,919.209 1509.71,925.542 1522.5,931C 1527.45,936.159 1533.45,937.826 1540.5,936C 1583.71,923.884 1626.05,926.384 1667.5,943.5C 1669.87,943.158 1672.2,942.658 1674.5,942C 1679.13,939.357 1683.47,936.357 1687.5,933C 1694.38,927.591 1701.38,927.257 1708.5,932C 1717.71,942.924 1723.87,955.424 1727,969.5C 1729.38,979.066 1731.05,988.732 1732,998.5C 1766.69,1051.72 1772.69,1108.05 1750,1167.5C 1724.77,1221.38 1682.93,1254.55 1624.5,1267C 1549.28,1277.79 1490.44,1251.96 1448,1189.5C 1420.05,1142.31 1414.72,1092.64 1432,1040.5C 1437.67,1027.83 1443.33,1015.17 1449,1002.5C 1450.17,981.484 1453.5,960.818 1459,940.5C 1461.45,928.909 1466.95,919.243 1475.5,911.5 Z"/></g>
<g><path style="opacity:1" fill="#c3201f" d="M 2198.5,937.5 C 2268.28,935.293 2320.78,963.96 2356,1023.5C 2376.19,1064.57 2380.19,1107.24 2368,1151.5C 2356.43,1184.65 2338.77,1213.99 2315,1239.5C 2282.44,1274.79 2245.94,1304.62 2205.5,1329C 2216.77,1308.02 2224.77,1285.86 2229.5,1262.5C 2158.76,1266.05 2105.26,1237.72 2069,1177.5C 2038.16,1113.37 2044.16,1053.04 2087,996.5C 2116.52,962.489 2153.69,942.822 2198.5,937.5 Z"/></g>
<g><path style="opacity:1" fill="#fefafa" d="M 1556.5,1056.5 C 1570.39,1054.02 1579.55,1059.35 1584,1072.5C 1584.67,1088.17 1584.67,1103.83 1584,1119.5C 1580,1131.92 1571.5,1137.42 1558.5,1136C 1550.26,1133.43 1545.09,1127.93 1543,1119.5C 1542.33,1103.83 1542.33,1088.17 1543,1072.5C 1544.95,1064.89 1549.45,1059.56 1556.5,1056.5 Z"/></g>
<g><path style="opacity:1" fill="#fefcfc" d="M 1708.5,1055.5 C 1720.22,1055.27 1728.05,1060.6 1732,1071.5C 1732.67,1087.83 1732.67,1104.17 1732,1120.5C 1726.89,1133.87 1717.39,1138.71 1703.5,1135C 1697.51,1132.34 1693.67,1127.84 1692,1121.5C 1691.33,1104.17 1691.33,1086.83 1692,1069.5C 1695.59,1062.39 1701.09,1057.73 1708.5,1055.5 Z"/></g>
<g><path style="opacity:1" fill="#e18f8e" d="M 212.5,1166.5 C 211.167,1166.5 209.833,1166.5 208.5,1166.5C 208.832,1233 208.499,1299.34 207.5,1365.5C 207.5,1298.83 207.5,1232.17 207.5,1165.5C 209.415,1165.22 211.081,1165.55 212.5,1166.5 Z"/></g>
<g><path style="opacity:0.928" fill="#7f807f" d="M 2223.5,1537.5 C 2227.17,1537.5 2230.83,1537.5 2234.5,1537.5C 2234.5,1574.83 2234.5,1612.17 2234.5,1649.5C 2230.83,1649.5 2227.17,1649.5 2223.5,1649.5C 2223.5,1612.17 2223.5,1574.83 2223.5,1537.5 Z"/></g>
<g><path style="opacity:0.915" fill="#7f807f" d="M 2356.5,1537.5 C 2360.17,1537.5 2363.83,1537.5 2367.5,1537.5C 2367.33,1551.17 2367.5,1564.84 2368,1578.5C 2374.1,1571.62 2381.76,1567.95 2391,1567.5C 2407.34,1567.83 2417.68,1575.83 2422,1591.5C 2424.22,1604.57 2423.88,1617.57 2421,1630.5C 2417.76,1640.74 2410.93,1647.24 2400.5,1650C 2394.17,1650.67 2387.83,1650.67 2381.5,1650C 2376.11,1648.55 2371.61,1645.72 2368,1641.5C 2367.5,1644.15 2367.34,1646.81 2367.5,1649.5C 2363.83,1649.5 2360.17,1649.5 2356.5,1649.5C 2356.5,1612.17 2356.5,1574.83 2356.5,1537.5 Z M 2384.5,1578.5 C 2398.03,1576.34 2406.86,1581.67 2411,1594.5C 2413.13,1605.57 2412.79,1616.57 2410,1627.5C 2404.29,1639.11 2395.12,1643.27 2382.5,1640C 2374.53,1637.7 2369.69,1632.53 2368,1624.5C 2367.1,1613.77 2367.43,1603.11 2369,1592.5C 2372.49,1585.83 2377.66,1581.17 2384.5,1578.5 Z"/></g>
<g><path style="opacity:0.914" fill="#7f807f" d="M 1379.5,1541.5 C 1394.04,1539.55 1407.7,1542.05 1420.5,1549C 1421.99,1549.75 1422.99,1550.91 1423.5,1552.5C 1422.41,1555.68 1420.58,1558.35 1418,1560.5C 1405.83,1552.11 1392.67,1549.94 1378.5,1554C 1368.45,1559.06 1362.62,1567.23 1361,1578.5C 1360.33,1590.17 1360.33,1601.83 1361,1613.5C 1363.84,1630.84 1374,1639.84 1391.5,1640.5C 1402.48,1640.59 1411.98,1636.92 1420,1629.5C 1423.1,1632.39 1425.1,1635.72 1426,1639.5C 1409.43,1651.9 1391.26,1654.73 1371.5,1648C 1357.3,1640.12 1349.8,1627.96 1349,1611.5C 1348.33,1600.83 1348.33,1590.17 1349,1579.5C 1350.92,1559.91 1361.08,1547.25 1379.5,1541.5 Z"/></g>
<g><path style="opacity:0.914" fill="#7f807f" d="M 2152.5,1541.5 C 2167.04,1539.55 2180.7,1542.05 2193.5,1549C 2194.99,1549.75 2195.99,1550.91 2196.5,1552.5C 2195.41,1555.68 2193.58,1558.35 2191,1560.5C 2178.83,1552.11 2165.67,1549.94 2151.5,1554C 2141.45,1559.06 2135.62,1567.23 2134,1578.5C 2133.33,1590.17 2133.33,1601.83 2134,1613.5C 2136.84,1630.84 2147,1639.84 2164.5,1640.5C 2175.48,1640.59 2184.98,1636.92 2193,1629.5C 2196.1,1632.39 2198.1,1635.72 2199,1639.5C 2182.43,1651.9 2164.26,1654.73 2144.5,1648C 2130.3,1640.12 2122.8,1627.96 2122,1611.5C 2121.33,1600.83 2121.33,1590.17 2122,1579.5C 2123.92,1559.91 2134.08,1547.25 2152.5,1541.5 Z"/></g>
<g><path style="opacity:0.935" fill="#7f807f" d="M 96.5,1542.5 C 100.167,1542.5 103.833,1542.5 107.5,1542.5C 107.333,1559.84 107.5,1577.17 108,1594.5C 124.5,1577.33 141,1560.17 157.5,1543C 162.533,1542.17 167.533,1542.34 172.5,1543.5C 157.605,1558.23 143.272,1573.39 129.5,1589C 144.819,1608.99 160.153,1628.99 175.5,1649C 170.5,1649.67 165.5,1649.67 160.5,1649C 147.358,1631.69 134.024,1614.52 120.5,1597.5C 115.815,1601.35 111.648,1605.68 108,1610.5C 107.5,1623.5 107.333,1636.5 107.5,1649.5C 103.833,1649.5 100.167,1649.5 96.5,1649.5C 96.5,1613.83 96.5,1578.17 96.5,1542.5 Z"/></g>
<g><path style="opacity:0.918" fill="#7f807f" d="M 563.5,1542.5 C 567.167,1542.5 570.833,1542.5 574.5,1542.5C 574.333,1564.17 574.5,1585.84 575,1607.5C 575.942,1636.81 590.109,1646.64 617.5,1637C 621.491,1634.01 624.324,1630.18 626,1625.5C 627.878,1618.97 628.878,1612.31 629,1605.5C 629.5,1584.5 629.667,1563.5 629.5,1542.5C 633.167,1542.5 636.833,1542.5 640.5,1542.5C 640.667,1566.5 640.5,1590.5 640,1614.5C 638.817,1638.68 626.15,1651.02 602,1651.5C 577.859,1651.03 565.193,1638.69 564,1614.5C 563.5,1590.5 563.333,1566.5 563.5,1542.5 Z"/></g>
<g><path style="opacity:0.879" fill="#7f807f" d="M 763.5,1543.5 C 767.5,1543.5 771.5,1543.5 775.5,1543.5C 775.5,1547.5 775.5,1551.5 775.5,1555.5C 771.5,1555.5 767.5,1555.5 763.5,1555.5C 763.5,1551.5 763.5,1547.5 763.5,1543.5 Z"/></g>
<g><path style="opacity:0.879" fill="#7f807f" d="M 1118.5,1543.5 C 1122.5,1543.5 1126.5,1543.5 1130.5,1543.5C 1130.5,1547.5 1130.5,1551.5 1130.5,1555.5C 1126.5,1555.5 1122.5,1555.5 1118.5,1555.5C 1118.5,1551.5 1118.5,1547.5 1118.5,1543.5 Z"/></g>
<g><path style="opacity:0.931" fill="#7f807f" d="M 1165.5,1548.5 C 1169.17,1548.5 1172.83,1548.5 1176.5,1548.5C 1176.5,1555.5 1176.5,1562.5 1176.5,1569.5C 1183.83,1569.5 1191.17,1569.5 1198.5,1569.5C 1198.5,1572.5 1198.5,1575.5 1198.5,1578.5C 1191.17,1578.5 1183.83,1578.5 1176.5,1578.5C 1176.1,1597.2 1176.6,1615.87 1178,1634.5C 1178.69,1637.06 1180.19,1638.89 1182.5,1640C 1188.19,1640.63 1193.86,1640.46 1199.5,1639.5C 1200.33,1642.47 1200.5,1645.47 1200,1648.5C 1193.32,1650.41 1186.48,1650.91 1179.5,1650C 1169.92,1646.7 1165.42,1639.87 1166,1629.5C 1165.5,1612.5 1165.33,1595.5 1165.5,1578.5C 1161.17,1578.5 1156.83,1578.5 1152.5,1578.5C 1152.5,1575.5 1152.5,1572.5 1152.5,1569.5C 1156.83,1569.5 1161.17,1569.5 1165.5,1569.5C 1165.5,1562.5 1165.5,1555.5 1165.5,1548.5 Z"/></g>
<g><path style="opacity:0.931" fill="#7f807f" d="M 1867.5,1548.5 C 1871.17,1548.5 1874.83,1548.5 1878.5,1548.5C 1878.5,1555.5 1878.5,1562.5 1878.5,1569.5C 1885.83,1569.5 1893.17,1569.5 1900.5,1569.5C 1900.5,1572.5 1900.5,1575.5 1900.5,1578.5C 1893.17,1578.5 1885.83,1578.5 1878.5,1578.5C 1878.1,1597.2 1878.6,1615.87 1880,1634.5C 1880.69,1637.06 1882.19,1638.89 1884.5,1640C 1890.19,1640.63 1895.86,1640.46 1901.5,1639.5C 1902.33,1642.47 1902.5,1645.47 1902,1648.5C 1895.32,1650.41 1888.48,1650.91 1881.5,1650C 1871.92,1646.7 1867.42,1639.87 1868,1629.5C 1867.5,1612.5 1867.33,1595.5 1867.5,1578.5C 1863.17,1578.5 1858.83,1578.5 1854.5,1578.5C 1854.5,1575.5 1854.5,1572.5 1854.5,1569.5C 1858.83,1569.5 1863.17,1569.5 1867.5,1569.5C 1867.5,1562.5 1867.5,1555.5 1867.5,1548.5 Z"/></g>
<g><path style="opacity:0.923" fill="#7f807f" d="M 219.5,1567.5 C 239.103,1567.2 250.937,1576.53 255,1595.5C 256.139,1607.63 255.472,1619.63 253,1631.5C 249.224,1641.61 242.057,1647.78 231.5,1650C 221.541,1651.35 211.874,1650.35 202.5,1647C 194.805,1641.78 189.972,1634.62 188,1625.5C 187.333,1614.83 187.333,1604.17 188,1593.5C 192.087,1576.9 202.587,1568.24 219.5,1567.5 Z M 218.5,1577.5 C 230.63,1576.97 238.797,1582.3 243,1593.5C 245,1604.17 245,1614.83 243,1625.5C 237.403,1638.71 227.57,1643.55 213.5,1640C 205.417,1636.91 200.583,1631.08 199,1622.5C 198.105,1612.44 198.438,1602.44 200,1592.5C 203.425,1583.89 209.592,1578.89 218.5,1577.5 Z"/></g>
<g><path style="opacity:0.914" fill="#7f807f" d="M 313.5,1567.5 C 317.142,1568.08 320.809,1568.58 324.5,1569C 326.283,1570.07 326.783,1571.57 326,1573.5C 325.358,1575.76 324.525,1577.93 323.5,1580C 306.313,1576.54 296.146,1583.37 293,1600.5C 292.5,1616.83 292.333,1633.16 292.5,1649.5C 288.833,1649.5 285.167,1649.5 281.5,1649.5C 281.5,1622.83 281.5,1596.17 281.5,1569.5C 285.167,1569.5 288.833,1569.5 292.5,1569.5C 292.335,1573.18 292.501,1576.85 293,1580.5C 297.757,1572.71 304.591,1568.38 313.5,1567.5 Z"/></g>
<g><path style="opacity:0.911" fill="#7f807f" d="M 374.5,1567.5 C 391.421,1567.37 402.255,1575.37 407,1591.5C 408.247,1598.78 408.747,1606.11 408.5,1613.5C 390.5,1613.5 372.5,1613.5 354.5,1613.5C 355.708,1636.95 367.708,1645.45 390.5,1639C 394.167,1637.17 397.833,1635.33 401.5,1633.5C 403.653,1635.79 405.32,1638.46 406.5,1641.5C 394.888,1650.05 381.888,1652.88 367.5,1650C 354.109,1646.61 346.275,1638.11 344,1624.5C 343.333,1614.17 343.333,1603.83 344,1593.5C 347.966,1577.36 358.133,1568.69 374.5,1567.5 Z M 373.5,1577.5 C 390.058,1578.06 398.058,1586.73 397.5,1603.5C 383.167,1603.5 368.833,1603.5 354.5,1603.5C 353.746,1593.51 357.412,1585.68 365.5,1580C 368.31,1579.22 370.977,1578.38 373.5,1577.5 Z"/></g>
<g><path style="opacity:0.918" fill="#7f807f" d="M 460.5,1567.5 C 467.99,1567.5 474.99,1569.33 481.5,1573C 487.444,1577.72 490.611,1583.89 491,1591.5C 491.5,1610.83 491.667,1630.16 491.5,1649.5C 487.833,1649.5 484.167,1649.5 480.5,1649.5C 481.811,1641.2 480.144,1640.03 475.5,1646C 472.382,1647.89 469.049,1649.23 465.5,1650C 435.62,1653.68 424.787,1641.18 433,1612.5C 435.989,1608.51 439.822,1605.68 444.5,1604C 456.447,1602.61 468.447,1602.11 480.5,1602.5C 481.499,1582.99 472.499,1575.16 453.5,1579C 447.859,1580.57 442.693,1583.07 438,1586.5C 436.111,1583.89 434.611,1581.06 433.5,1578C 441.369,1571.44 450.369,1567.94 460.5,1567.5 Z M 453.5,1611.5 C 462.5,1611.5 471.5,1611.5 480.5,1611.5C 483.388,1629.76 475.721,1639.76 457.5,1641.5C 442.673,1639.51 437.84,1631.51 443,1617.5C 446.069,1614.55 449.569,1612.55 453.5,1611.5 Z"/></g>
<g><path style="opacity:0.922" fill="#7f807f" d="M 703.5,1567.5 C 710.998,1567.48 717.998,1569.31 724.5,1573C 729.86,1577.22 733.027,1582.72 734,1589.5C 734.5,1609.5 734.667,1629.5 734.5,1649.5C 730.833,1649.5 727.167,1649.5 723.5,1649.5C 723.952,1629.11 723.452,1608.78 722,1588.5C 718.376,1581.43 712.543,1578.1 704.5,1578.5C 693.048,1578.97 685.548,1584.64 682,1595.5C 681.5,1613.5 681.333,1631.5 681.5,1649.5C 677.833,1649.5 674.167,1649.5 670.5,1649.5C 670.5,1622.83 670.5,1596.17 670.5,1569.5C 674.167,1569.5 677.833,1569.5 681.5,1569.5C 681.335,1572.52 681.502,1575.52 682,1578.5C 687.839,1572 695.005,1568.33 703.5,1567.5 Z"/></g>
<g><path style="opacity:0.911" fill="#7f807f" d="M 913.5,1567.5 C 930.421,1567.37 941.255,1575.37 946,1591.5C 947.247,1598.78 947.747,1606.11 947.5,1613.5C 929.5,1613.5 911.5,1613.5 893.5,1613.5C 894.708,1636.95 906.708,1645.45 929.5,1639C 933.167,1637.17 936.833,1635.33 940.5,1633.5C 942.653,1635.79 944.32,1638.46 945.5,1641.5C 933.888,1650.05 920.888,1652.88 906.5,1650C 893.109,1646.61 885.275,1638.11 883,1624.5C 882.333,1614.17 882.333,1603.83 883,1593.5C 886.966,1577.36 897.133,1568.69 913.5,1567.5 Z M 912.5,1577.5 C 929.058,1578.06 937.058,1586.73 936.5,1603.5C 922.167,1603.5 907.833,1603.5 893.5,1603.5C 892.746,1593.51 896.412,1585.68 904.5,1580C 907.31,1579.22 909.977,1578.38 912.5,1577.5 Z"/></g>
<g><path style="opacity:0.914" fill="#7f807f" d="M 1004.5,1567.5 C 1008.14,1568.08 1011.81,1568.58 1015.5,1569C 1017.28,1570.07 1017.78,1571.57 1017,1573.5C 1016.36,1575.76 1015.52,1577.93 1014.5,1580C 997.313,1576.54 987.146,1583.37 984,1600.5C 983.5,1616.83 983.333,1633.16 983.5,1649.5C 979.833,1649.5 976.167,1649.5 972.5,1649.5C 972.5,1622.83 972.5,1596.17 972.5,1569.5C 976.167,1569.5 979.833,1569.5 983.5,1569.5C 983.335,1573.18 983.501,1576.85 984,1580.5C 988.757,1572.71 995.591,1568.38 1004.5,1567.5 Z"/></g>
<g><path style="opacity:0.912" fill="#7f807f" d="M 1062.5,1567.5 C 1072.51,1567.5 1081.84,1570 1090.5,1575C 1091.31,1578.91 1089.97,1582.07 1086.5,1584.5C 1074.54,1576.63 1062.21,1575.79 1049.5,1582C 1043.44,1592.56 1046.44,1599.23 1058.5,1602C 1068.46,1603.21 1077.79,1606.21 1086.5,1611C 1091.84,1615.19 1094.18,1620.69 1093.5,1627.5C 1092.87,1639.65 1086.53,1647.15 1074.5,1650C 1060.29,1652.42 1046.96,1650.09 1034.5,1643C 1033.91,1638.97 1035.25,1635.47 1038.5,1632.5C 1050.33,1641.06 1063,1642.89 1076.5,1638C 1081.79,1634.56 1083.63,1629.73 1082,1623.5C 1081.22,1621.71 1080.05,1620.21 1078.5,1619C 1068,1615.17 1057.33,1611.83 1046.5,1609C 1038.62,1605.41 1034.62,1599.24 1034.5,1590.5C 1034.72,1581.23 1039.05,1574.73 1047.5,1571C 1052.51,1569.29 1057.51,1568.13 1062.5,1567.5 Z"/></g>
<g><path style="opacity:0.923" fill="#7f807f" d="M 1478.5,1567.5 C 1498.1,1567.2 1509.94,1576.53 1514,1595.5C 1515.14,1607.63 1514.47,1619.63 1512,1631.5C 1508.22,1641.61 1501.06,1647.78 1490.5,1650C 1480.54,1651.35 1470.87,1650.35 1461.5,1647C 1453.81,1641.78 1448.97,1634.62 1447,1625.5C 1446.33,1614.83 1446.33,1604.17 1447,1593.5C 1451.09,1576.9 1461.59,1568.24 1478.5,1567.5 Z M 1477.5,1577.5 C 1489.63,1576.97 1497.8,1582.3 1502,1593.5C 1504,1604.17 1504,1614.83 1502,1625.5C 1496.4,1638.71 1486.57,1643.55 1472.5,1640C 1464.42,1636.91 1459.58,1631.08 1458,1622.5C 1457.1,1612.44 1457.44,1602.44 1459,1592.5C 1462.43,1583.89 1468.59,1578.89 1477.5,1577.5 Z"/></g>
<g><path style="opacity:0.921" fill="#7f807f" d="M 1571.5,1567.5 C 1582.8,1566.91 1591.46,1571.25 1597.5,1580.5C 1607.34,1568.54 1619.67,1565.04 1634.5,1570C 1643.19,1574.88 1647.69,1582.38 1648,1592.5C 1648.5,1611.5 1648.67,1630.5 1648.5,1649.5C 1644.83,1649.5 1641.17,1649.5 1637.5,1649.5C 1637.93,1629.46 1637.43,1609.46 1636,1589.5C 1633.6,1581.63 1628.26,1577.96 1620,1578.5C 1610.42,1578.79 1604.08,1583.46 1601,1592.5C 1599.55,1611.45 1599.05,1630.45 1599.5,1649.5C 1595.83,1649.5 1592.17,1649.5 1588.5,1649.5C 1588.67,1629.5 1588.5,1609.5 1588,1589.5C 1585.6,1581.63 1580.26,1577.96 1572,1578.5C 1562.95,1578.86 1556.62,1583.19 1553,1591.5C 1551.55,1610.78 1551.05,1630.11 1551.5,1649.5C 1547.83,1649.5 1544.17,1649.5 1540.5,1649.5C 1540.5,1622.83 1540.5,1596.17 1540.5,1569.5C 1544.17,1569.5 1547.83,1569.5 1551.5,1569.5C 1551.34,1572.52 1551.5,1575.52 1552,1578.5C 1557,1572.09 1563.5,1568.42 1571.5,1567.5 Z"/></g>
<g><path style="opacity:0.915" fill="#7f807f" d="M 1709.5,1567.5 C 1730.74,1568.24 1741.91,1579.24 1743,1600.5C 1744.1,1611.7 1743.1,1622.7 1740,1633.5C 1731.42,1648.36 1718.58,1653.86 1701.5,1650C 1696.22,1648.38 1691.72,1645.55 1688,1641.5C 1687.5,1654.83 1687.33,1668.16 1687.5,1681.5C 1683.83,1681.5 1680.17,1681.5 1676.5,1681.5C 1676.5,1644.17 1676.5,1606.83 1676.5,1569.5C 1680.17,1569.5 1683.83,1569.5 1687.5,1569.5C 1687.34,1572.52 1687.5,1575.52 1688,1578.5C 1693.84,1572 1701.01,1568.33 1709.5,1567.5 Z M 1704.5,1578.5 C 1718.03,1576.34 1726.86,1581.67 1731,1594.5C 1733.13,1605.57 1732.79,1616.57 1730,1627.5C 1724.29,1639.11 1715.12,1643.27 1702.5,1640C 1694.53,1637.7 1689.69,1632.53 1688,1624.5C 1687.1,1613.77 1687.43,1603.11 1689,1592.5C 1692.49,1585.83 1697.66,1581.17 1704.5,1578.5 Z"/></g>
<g><path style="opacity:0.911" fill="#7f807f" d="M 1954.5,1567.5 C 1971.42,1567.37 1982.25,1575.37 1987,1591.5C 1988.25,1598.78 1988.75,1606.11 1988.5,1613.5C 1970.5,1613.5 1952.5,1613.5 1934.5,1613.5C 1935.71,1636.95 1947.71,1645.45 1970.5,1639C 1974.17,1637.17 1977.83,1635.33 1981.5,1633.5C 1983.65,1635.79 1985.32,1638.46 1986.5,1641.5C 1974.89,1650.05 1961.89,1652.88 1947.5,1650C 1934.11,1646.61 1926.28,1638.11 1924,1624.5C 1923.33,1614.17 1923.33,1603.83 1924,1593.5C 1927.97,1577.36 1938.13,1568.69 1954.5,1567.5 Z M 1953.5,1577.5 C 1970.06,1578.06 1978.06,1586.73 1977.5,1603.5C 1963.17,1603.5 1948.83,1603.5 1934.5,1603.5C 1933.75,1593.51 1937.41,1585.68 1945.5,1580C 1948.31,1579.22 1950.98,1578.38 1953.5,1577.5 Z"/></g>
<g><path style="opacity:0.914" fill="#7f807f" d="M 2045.5,1567.5 C 2049.14,1568.08 2052.81,1568.58 2056.5,1569C 2058.28,1570.07 2058.78,1571.57 2058,1573.5C 2057.36,1575.76 2056.52,1577.93 2055.5,1580C 2038.31,1576.54 2028.15,1583.37 2025,1600.5C 2024.5,1616.83 2024.33,1633.16 2024.5,1649.5C 2020.83,1649.5 2017.17,1649.5 2013.5,1649.5C 2013.5,1622.83 2013.5,1596.17 2013.5,1569.5C 2017.17,1569.5 2020.83,1569.5 2024.5,1569.5C 2024.33,1573.18 2024.5,1576.85 2025,1580.5C 2029.76,1572.71 2036.59,1568.38 2045.5,1567.5 Z"/></g>
<g><path style="opacity:0.929" fill="#7f807f" d="M 764.5,1569.5 C 768.167,1569.5 771.833,1569.5 775.5,1569.5C 775.5,1596.17 775.5,1622.83 775.5,1649.5C 771.833,1649.5 768.167,1649.5 764.5,1649.5C 764.5,1622.83 764.5,1596.17 764.5,1569.5 Z"/></g>
<g><path style="opacity:0.91" fill="#7f807f" d="M 795.5,1569.5 C 799.555,1569.18 803.555,1569.51 807.5,1570.5C 815.038,1592.61 822.871,1614.61 831,1636.5C 838.599,1614.54 846.099,1592.54 853.5,1570.5C 857.5,1569.17 861.5,1569.17 865.5,1570.5C 855.761,1596.72 846.428,1623.05 837.5,1649.5C 832.901,1649.8 828.401,1649.47 824,1648.5C 814.197,1622.26 804.697,1595.92 795.5,1569.5 Z"/></g>
<g><path style="opacity:0.929" fill="#7f807f" d="M 1119.5,1569.5 C 1123.17,1569.5 1126.83,1569.5 1130.5,1569.5C 1130.5,1596.17 1130.5,1622.83 1130.5,1649.5C 1126.83,1649.5 1123.17,1649.5 1119.5,1649.5C 1119.5,1622.83 1119.5,1596.17 1119.5,1569.5 Z"/></g>
<g><path style="opacity:0.909" fill="#7f807f" d="M 1215.5,1569.5 C 1219.5,1569.5 1223.5,1569.5 1227.5,1569.5C 1234.63,1591.73 1242.47,1613.73 1251,1635.5C 1258.83,1613.83 1266.67,1592.17 1274.5,1570.5C 1278.11,1569.51 1281.77,1569.18 1285.5,1569.5C 1272.5,1606.99 1259,1644.32 1245,1681.5C 1244.44,1682.02 1243.77,1682.36 1243,1682.5C 1240.89,1681.53 1238.72,1680.69 1236.5,1680C 1235.98,1679.44 1235.64,1678.77 1235.5,1678C 1238.14,1669.76 1240.97,1661.59 1244,1653.5C 1244.67,1651.5 1244.67,1649.5 1244,1647.5C 1234.21,1621.59 1224.71,1595.59 1215.5,1569.5 Z"/></g>
<g><path style="opacity:0.923" fill="#7f807f" d="M 1769.5,1569.5 C 1773.17,1569.5 1776.83,1569.5 1780.5,1569.5C 1780.33,1589.17 1780.5,1608.84 1781,1628.5C 1783.59,1637.06 1789.43,1641.06 1798.5,1640.5C 1809.95,1640.03 1817.45,1634.36 1821,1623.5C 1821.5,1605.5 1821.67,1587.5 1821.5,1569.5C 1825.17,1569.5 1828.83,1569.5 1832.5,1569.5C 1832.5,1596.17 1832.5,1622.83 1832.5,1649.5C 1828.83,1649.5 1825.17,1649.5 1821.5,1649.5C 1821.66,1646.48 1821.5,1643.48 1821,1640.5C 1814.74,1647.96 1806.74,1651.3 1797,1650.5C 1782.99,1651.14 1773.99,1644.81 1770,1631.5C 1769.5,1610.84 1769.33,1590.17 1769.5,1569.5 Z"/></g>
<g><path style="opacity:0.923" fill="#7f807f" d="M 2264.5,1569.5 C 2268.17,1569.5 2271.83,1569.5 2275.5,1569.5C 2275.33,1589.17 2275.5,1608.84 2276,1628.5C 2278.59,1637.06 2284.43,1641.06 2293.5,1640.5C 2304.95,1640.03 2312.45,1634.36 2316,1623.5C 2316.5,1605.5 2316.67,1587.5 2316.5,1569.5C 2320.17,1569.5 2323.83,1569.5 2327.5,1569.5C 2327.5,1596.17 2327.5,1622.83 2327.5,1649.5C 2323.83,1649.5 2320.17,1649.5 2316.5,1649.5C 2316.66,1646.48 2316.5,1643.48 2316,1640.5C 2309.74,1647.96 2301.74,1651.3 2292,1650.5C 2277.99,1651.14 2268.99,1644.81 2265,1631.5C 2264.5,1610.84 2264.33,1590.17 2264.5,1569.5 Z"/></g>
</svg>
