<?xml version="1.0" encoding="UTF-8"?>
<!DOCTYPE svg PUBLIC "-//W3C//DTD SVG 1.1//EN" "http://www.w3.org/Graphics/SVG/1.1/DTD/svg11.dtd">
<svg xmlns="http://www.w3.org/2000/svg" version="1.1" width="8250px" height="8250px" style="shape-rendering:geometricPrecision; text-rendering:geometricPrecision; image-rendering:optimizeQuality; fill-rule:evenodd; clip-rule:evenodd" xmlns:xlink="http://www.w3.org/1999/xlink">
<g><path style="opacity:1" fill="#c3201f" d="M 3674.5,7620.5 C 3834.96,7334.52 3956.46,7032.52 4039,6714.5C 4059.52,6635.09 4079.35,6555.76 4098.5,6476.5C 4016.87,6479.22 3935.21,6481.72 3853.5,6484C 3377.94,6488.86 2934.27,6373.2 2522.5,6137C 2110.06,5894.89 1786.89,5565.39 1553,5148.5C 1328.26,4738.21 1220.93,4298.88 1231,3830.5C 1246.82,3318.05 1399.16,2851.39 1688,2430.5C 1911.52,2109.95 2191.35,1851.12 2527.5,1654C 2603.94,1609.61 2682.61,1569.11 2763.5,1532.5C 2778.48,1410.29 2798.98,1288.96 2825,1168.5C 2856.82,1024.03 2902.82,884.362 2963,749.5C 2998.64,671.176 3040.64,596.843 3089,526.5C 3114.69,489.8 3143.02,455.134 3174,422.5C 3229.07,364.439 3293.23,319.272 3366.5,287C 3450.73,251.953 3536.73,246.953 3624.5,272C 3686.42,292.78 3742.09,324.114 3791.5,366C 3808.83,381.333 3826.17,396.667 3843.5,412C 3894.22,446.71 3947.56,477.377 4003.5,504C 4073.02,536.177 4143.52,566.01 4215,593.5C 4374.38,549.519 4536.55,521.352 4701.5,509C 4834.25,498.237 4966.92,499.237 5099.5,512C 5341.86,532.549 5575.69,588.382 5801,679.5C 5810.65,671.179 5819.65,662.179 5828,652.5C 5851.19,620.309 5875.52,588.975 5901,558.5C 5993,452.05 6108.5,411.55 6247.5,437C 6285.69,446.593 6322.02,460.926 6356.5,480C 6416.63,513.426 6470.46,555.259 6518,605.5C 6575.06,667.219 6624.39,734.552 6666,807.5C 6716.94,898.384 6762.27,992.051 6802,1088.5C 6852.88,1207.13 6892.54,1329.46 6921,1455.5C 6931.82,1506.39 6939.82,1557.73 6945,1609.5C 7094.02,1833.94 7203.36,2076.94 7273,2338.5C 7403.9,2842.43 7380.57,3339.09 7203,3828.5C 7061.65,4213.88 6838.48,4543.05 6533.5,4816C 6414.36,4921.48 6286.53,5014.98 6150,5096.5C 6079.76,5245.37 6000.09,5388.37 5911,5525.5C 5780.1,5725.44 5635.77,5915.44 5478,6095.5C 5326.25,6267.59 5166.42,6432.43 4998.5,6590C 4805.93,6768.95 4606.6,6939.28 4400.5,7101C 4165.85,7284.5 3923.85,7457.66 3674.5,7620.5 Z M 3511.5,620.5 C 3517.04,620.087 3522.37,620.92 3527.5,623C 3534.83,627.333 3542.17,631.667 3549.5,636C 3582.92,664.755 3616.92,692.755 3651.5,720C 3697.18,752.19 3745.18,780.857 3795.5,806C 3871.66,842.748 3948.99,876.748 4027.5,908C 4069.03,957.758 4122.37,981.425 4187.5,979C 4193.56,978.387 4199.56,977.387 4205.5,976C 4336.15,933.337 4469.48,902.004 4605.5,882C 4791.17,860 4976.83,860 5162.5,882C 5364.41,911.197 5558.74,966.53 5745.5,1048C 5771.39,1059.06 5798.39,1065.22 5826.5,1066.5C 5871.96,1063.6 5911.29,1046.76 5944.5,1016C 6012.5,982.668 6069,935.501 6114,874.5C 6127.58,856.344 6140.91,838.01 6154,819.5C 6161.43,810.977 6169.1,802.644 6177,794.5C 6190.42,801.455 6203.25,809.288 6215.5,818C 6250.07,848.554 6280.24,882.72 6306,920.5C 6383.82,1039.14 6447.15,1165.47 6496,1299.5C 6535.48,1404.28 6564.15,1511.94 6582,1622.5C 6584.32,1640.83 6585.16,1659.16 6584.5,1677.5C 6584.34,1707.17 6592.17,1734.51 6608,1759.5C 6695.11,1884.99 6769.44,2018.32 6831,2159.5C 6900.86,2332.26 6949.19,2510.93 6976,2695.5C 6998.87,2888.63 6997.87,3081.63 6973,3274.5C 6944.5,3458.65 6894.5,3636.65 6823,3808.5C 6744.51,3984.96 6645.84,4148.3 6527,4298.5C 6421.95,4425.55 6305.12,4540.38 6176.5,4643C 6030.27,4753.34 5872.61,4845.67 5703.5,4920C 5531.09,4990.02 5352.75,5038.69 5168.5,5066C 4969.65,5090.46 4770.98,5089.12 4572.5,5062C 4394.02,5033.61 4221.35,4984.95 4054.5,4916C 3890.18,4843.23 3736.84,4753.23 3594.5,4646C 3437.91,4522.42 3300.08,4380.92 3181,4221.5C 3085.48,4088.21 3004.48,3945.88 2938,3794.5C 2865.73,3617.07 2816.39,3433.41 2790,3243.5C 2768.79,3058.42 2769.45,2873.42 2792,2688.5C 2819.47,2504.62 2868.13,2326.62 2938,2154.5C 2961.05,2102.4 2985.71,2051.07 3012,2000.5C 3032,1965.83 3052,1931.17 3072,1896.5C 3084.34,1874.14 3094.34,1850.81 3102,1826.5C 3105.52,1811.69 3107.86,1796.69 3109,1781.5C 3115.85,1557.41 3150.52,1337.74 3213,1122.5C 3236.47,1041.25 3265.8,962.247 3301,885.5C 3330.79,823.877 3365.13,765.21 3404,709.5C 3418.1,692.733 3432.93,676.567 3448.5,661C 3456.58,652.916 3465.25,645.582 3474.5,639C 3486.14,631.18 3498.47,625.013 3511.5,620.5 Z"/></g>
<g><path style="opacity:1" fill="#c3201f" d="M 4509.5,2447.5 C 4610.89,2447.59 4687.72,2490.59 4740,2576.5C 4760.34,2613.19 4771.01,2652.53 4772,2694.5C 4772.67,2858.17 4772.67,3021.83 4772,3185.5C 4766.6,3280.86 4723.1,3352.69 4641.5,3401C 4556.95,3444.09 4473.28,3442.43 4390.5,3396C 4316.37,3348.62 4275.87,3280.79 4269,3192.5C 4268.33,3024.17 4268.33,2855.83 4269,2687.5C 4277.04,2592.86 4322.2,2522.36 4404.5,2476C 4437.66,2459.22 4472.66,2449.72 4509.5,2447.5 Z"/></g>
<g><path style="opacity:1" fill="#c3201f" d="M 6327.5,2447.5 C 6431.96,2447.79 6510.13,2492.79 6562,2582.5C 6577.7,2612.98 6587.04,2645.31 6590,2679.5C 6590.67,2853.17 6590.67,3026.83 6590,3200.5C 6579.02,3295.43 6531.19,3364.59 6446.5,3408C 6371.56,3441.54 6297.23,3440.21 6223.5,3404C 6142.75,3358.85 6097.58,3290.01 6088,3197.5C 6087.33,3025.83 6087.33,2854.17 6088,2682.5C 6097.01,2591.59 6140.84,2523.43 6219.5,2478C 6253.42,2460.02 6289.42,2449.86 6327.5,2447.5 Z"/></g>
<g><path style="opacity:1" fill="#dc8280" d="M 3674.5,7620.5 C 3673.83,7621.17 3673.83,7621.17 3674.5,7620.5 Z"/></g>
</svg>
