<?xml version="1.0" encoding="UTF-8"?>
<!DOCTYPE svg PUBLIC "-//W3C//DTD SVG 1.1//EN" "http://www.w3.org/Graphics/SVG/1.1/DTD/svg11.dtd">
<svg xmlns="http://www.w3.org/2000/svg" version="1.1" width="2500px" height="2500px" style="shape-rendering:geometricPrecision; text-rendering:geometricPrecision; image-rendering:optimizeQuality; fill-rule:evenodd; clip-rule:evenodd" xmlns:xlink="http://www.w3.org/1999/xlink">
<g><path style="opacity:0.984" fill="#000000" d="M 2009.5,677.5 C 2019.13,675.967 2027.8,678.134 2035.5,684C 2056.36,705.201 2078.69,724.534 2102.5,742C 2106.66,745.161 2111.16,747.661 2116,749.5C 2156.85,744.042 2197.69,744.209 2238.5,750C 2247.27,751.388 2255.94,753.221 2264.5,755.5C 2279.42,744.954 2292.26,732.288 2303,717.5C 2311.09,709.496 2320.59,707.329 2331.5,711C 2343.23,716.729 2352.4,725.229 2359,736.5C 2374.75,761.682 2386.42,788.682 2394,817.5C 2401.98,823.485 2409.32,830.152 2416,837.5C 2418.09,842.32 2417.75,846.987 2415,851.5C 2407.09,859.418 2398.59,866.585 2389.5,873C 2384.68,874.027 2380.35,873.027 2376.5,870C 2298.4,805.234 2209.4,783.234 2109.5,804C 2016.3,826.566 1946.14,879.399 1899,962.5C 1865.92,1028.48 1856.25,1097.81 1870,1170.5C 1890.98,1264.45 1943.48,1334.62 2027.5,1381C 2116.56,1426.87 2207.56,1431.2 2300.5,1394C 2329.18,1381.28 2355.18,1364.61 2378.5,1344C 2382.71,1342.47 2387.04,1342.13 2391.5,1343C 2399.63,1349.46 2407.46,1356.29 2415,1363.5C 2418.21,1368.85 2418.21,1374.19 2415,1379.5C 2338.74,1446.59 2249.58,1476.42 2147.5,1469C 2054.5,1461.74 1976,1424.57 1912,1357.5C 1835.82,1275.62 1803.48,1178.62 1815,1066.5C 1825.29,976.592 1863.62,901.259 1930,840.5C 1934.72,797.95 1946.72,757.617 1966,719.5C 1974.16,703.688 1985.66,690.854 2000.5,681C 2003.6,679.772 2006.6,678.606 2009.5,677.5 Z"/></g>
<g><path style="opacity:0.983" fill="#000000" d="M 1467.5,745.5 C 1569.52,738.599 1658.69,768.599 1735,835.5C 1737.64,840.03 1737.97,844.696 1736,849.5C 1728.86,856.976 1721.36,864.143 1713.5,871C 1708.2,874.246 1702.86,874.246 1697.5,871C 1628.22,812.334 1548.22,788.334 1457.5,799C 1356.56,814.684 1279.06,865.517 1225,951.5C 1193.04,1007.98 1179.7,1068.65 1185,1133.5C 1194.07,1228.51 1236.9,1304.01 1313.5,1360C 1396.56,1416.79 1486.9,1432.46 1584.5,1407C 1627.13,1393.95 1665.13,1372.95 1698.5,1344C 1703.99,1341.82 1709.32,1342.15 1714.5,1345C 1721,1350.83 1727.5,1356.67 1734,1362.5C 1737.11,1367.25 1737.78,1372.25 1736,1377.5C 1708.61,1403.64 1677.44,1424.47 1642.5,1440C 1570.89,1469.91 1496.89,1477.58 1420.5,1463C 1379.43,1454.87 1341.26,1439.7 1306,1417.5C 1286.27,1437.29 1262.77,1450.79 1235.5,1458C 1199.78,1468.27 1163.44,1471.93 1126.5,1469C 1111.82,1460.63 1107.65,1448.46 1114,1432.5C 1115.79,1429.7 1117.96,1427.2 1120.5,1425C 1147.42,1405.42 1170.25,1381.92 1189,1354.5C 1195.02,1345.8 1200.52,1336.8 1205.5,1327.5C 1144.76,1244.55 1121.93,1151.88 1137,1049.5C 1150.13,969.068 1185.96,900.901 1244.5,845C 1306.78,785.203 1381.11,752.036 1467.5,745.5 Z"/></g>
<g><path style="opacity:0.983" fill="#000000" d="M 46.5,755.5 C 58.5046,755.333 70.5046,755.5 82.5,756C 85.7559,757.587 87.9226,760.087 89,763.5C 89.3333,855.5 89.6667,947.5 90,1039.5C 160.577,946.012 230.91,852.346 301,758.5C 302.419,757.54 303.919,756.707 305.5,756C 320.5,755.333 335.5,755.333 350.5,756C 357.696,760.328 359.196,766.162 355,773.5C 288.167,863 221.333,952.5 154.5,1042C 242.333,1177.17 330.167,1312.33 418,1447.5C 420.212,1453.15 419.045,1457.99 414.5,1462C 398.926,1463.63 383.259,1463.97 367.5,1463C 366.421,1462.04 365.255,1461.21 364,1460.5C 283.665,1334.49 202.832,1208.83 121.5,1083.5C 111.218,1096.29 100.718,1108.95 90,1121.5C 89.6667,1232.83 89.3333,1344.17 89,1455.5C 88.0206,1458.63 86.1873,1461.13 83.5,1463C 70.8333,1463.67 58.1667,1463.67 45.5,1463C 43.714,1462.22 42.214,1461.05 41,1459.5C 39.8348,1228.34 39.0014,997.177 38.5,766C 39.1725,760.845 41.8392,757.345 46.5,755.5 Z"/></g>
<g><path style="opacity:0.978" fill="#000000" d="M 544.5,755.5 C 556.838,755.333 569.171,755.5 581.5,756C 584.973,756.807 587.14,758.973 588,762.5C 588.333,925.833 588.667,1089.17 589,1252.5C 597.219,1320.47 631.719,1369.97 692.5,1401C 754.704,1428.7 814.704,1424.7 872.5,1389C 920.586,1355.35 947.419,1309.18 953,1250.5C 953.333,1087.5 953.667,924.5 954,761.5C 955.26,758.572 957.427,756.739 960.5,756C 972.833,755.333 985.167,755.333 997.5,756C 1000.06,756.685 1001.89,758.185 1003,760.5C 1004.16,844.944 1004.66,929.444 1004.5,1014C 1004.33,1097.5 1004.17,1181 1004,1264.5C 989.965,1349.85 944.465,1412.01 867.5,1451C 821.673,1469.58 774.339,1474.58 725.5,1466C 656.914,1451.14 604.747,1413.64 569,1353.5C 550.261,1319.21 539.928,1282.55 538,1243.5C 537.333,1083.17 537.333,922.833 538,762.5C 539.018,758.985 541.185,756.652 544.5,755.5 Z"/></g>
<g><path style="opacity:0.982" fill="#000000" d="M 2101.5,1004.5 C 2123.3,1002.47 2137.46,1011.8 2144,1032.5C 2144.97,1061.22 2144.63,1089.88 2143,1118.5C 2135.37,1136.24 2121.87,1144.07 2102.5,1142C 2086.55,1138.38 2077.05,1128.55 2074,1112.5C 2073.03,1084.78 2073.37,1057.12 2075,1029.5C 2079.52,1016.47 2088.36,1008.14 2101.5,1004.5 Z"/></g>
<g><path style="opacity:0.982" fill="#000000" d="M 2382.5,1004.5 C 2403.85,1002.37 2418.02,1011.37 2425,1031.5C 2425.67,1059.5 2425.67,1087.5 2425,1115.5C 2418.23,1135.31 2404.4,1144.14 2383.5,1142C 2367.11,1138.27 2357.61,1128.11 2355,1111.5C 2354.04,1084.46 2354.38,1057.46 2356,1030.5C 2360.09,1016.91 2368.92,1008.25 2382.5,1004.5 Z"/></g>
<g><path style="opacity:0.921" fill="#7f807f" d="M 46.5,1640.5 C 49.8333,1640.5 53.1667,1640.5 56.5,1640.5C 56.3334,1657.5 56.5001,1674.5 57,1691.5C 72.0496,1674.57 87.2163,1657.74 102.5,1641C 107.167,1640.33 111.833,1640.33 116.5,1641C 102.782,1655.71 89.449,1670.71 76.5,1686C 90.2909,1705.96 104.291,1725.79 118.5,1745.5C 114.205,1746.66 109.871,1746.83 105.5,1746C 92.9728,1728.97 80.6395,1711.81 68.5,1694.5C 64.8765,1698.63 61.0432,1702.63 57,1706.5C 56.5001,1719.5 56.3334,1732.5 56.5,1745.5C 53.1667,1745.5 49.8333,1745.5 46.5,1745.5C 46.5,1710.5 46.5,1675.5 46.5,1640.5 Z"/></g>
<g><path style="opacity:0.916" fill="#7f807f" d="M 519.5,1642.5 C 522.833,1642.5 526.167,1642.5 529.5,1642.5C 529.333,1667.17 529.5,1691.84 530,1716.5C 533.166,1735.33 544,1742.5 562.5,1738C 569.52,1734.64 574.02,1729.14 576,1721.5C 577.03,1717.23 577.697,1712.89 578,1708.5C 578.5,1686.5 578.667,1664.5 578.5,1642.5C 581.833,1642.5 585.167,1642.5 588.5,1642.5C 588.667,1666.84 588.5,1691.17 588,1715.5C 585.314,1741.18 571.148,1752.35 545.5,1749C 534.043,1746.88 526.209,1740.38 522,1729.5C 519.261,1718.68 518.094,1707.68 518.5,1696.5C 519.219,1678.51 519.552,1660.51 519.5,1642.5 Z"/></g>
<g><path style="opacity:0.874" fill="#7f807f" d="M 716.5,1643.5 C 720.167,1643.5 723.833,1643.5 727.5,1643.5C 727.5,1647.5 727.5,1651.5 727.5,1655.5C 723.833,1655.5 720.167,1655.5 716.5,1655.5C 716.5,1651.5 716.5,1647.5 716.5,1643.5 Z"/></g>
<g><path style="opacity:0.874" fill="#7f807f" d="M 1079.5,1645.5 C 1083.17,1645.5 1086.83,1645.5 1090.5,1645.5C 1090.5,1649.5 1090.5,1653.5 1090.5,1657.5C 1086.83,1657.5 1083.17,1657.5 1079.5,1657.5C 1079.5,1653.5 1079.5,1649.5 1079.5,1645.5 Z"/></g>
<g><path style="opacity:0.909" fill="#7f807f" d="M 1347.5,1645.5 C 1359.72,1644.13 1371.39,1645.97 1382.5,1651C 1384.98,1652.31 1386.98,1654.14 1388.5,1656.5C 1387.33,1659.5 1385.67,1662.17 1383.5,1664.5C 1372.24,1655.95 1359.91,1653.78 1346.5,1658C 1337.43,1663.96 1332.26,1672.46 1331,1683.5C 1330.11,1695.88 1330.44,1708.22 1332,1720.5C 1337.02,1737.93 1348.52,1745.1 1366.5,1742C 1373.22,1740.14 1379.22,1736.98 1384.5,1732.5C 1386.97,1734.77 1388.97,1737.44 1390.5,1740.5C 1379.52,1751.74 1366.19,1755.91 1350.5,1753C 1333.44,1748.93 1323.6,1738.09 1321,1720.5C 1318.39,1702.6 1319.39,1684.93 1324,1667.5C 1328.2,1656.13 1336.04,1648.79 1347.5,1645.5 Z"/></g>
<g><path style="opacity:0.916" fill="#7f807f" d="M 2195.5,1645.5 C 2198.83,1645.5 2202.17,1645.5 2205.5,1645.5C 2205.34,1682.17 2205,1718.84 2204.5,1755.5C 2201.17,1755.5 2197.83,1755.5 2194.5,1755.5C 2194.58,1718.83 2194.91,1682.16 2195.5,1645.5 Z"/></g>
<g><path style="opacity:0.909" fill="#7f807f" d="M 2332.5,1646.5 C 2335.83,1646.5 2339.17,1646.5 2342.5,1646.5C 2342.33,1659.5 2342.5,1672.5 2343,1685.5C 2356.32,1673.86 2369.99,1673.53 2384,1684.5C 2390.73,1694.04 2393.56,1704.71 2392.5,1716.5C 2394.13,1730.1 2390.46,1741.93 2381.5,1752C 2367.68,1761.17 2354.51,1760.33 2342,1749.5C 2341.5,1751.81 2341.34,1754.14 2341.5,1756.5C 2338.17,1756.5 2334.83,1756.5 2331.5,1756.5C 2331.58,1719.83 2331.91,1683.16 2332.5,1646.5 Z M 2358.5,1686.5 C 2370.52,1685.59 2378.02,1690.92 2381,1702.5C 2383.55,1715.17 2382.55,1727.5 2378,1739.5C 2370.53,1749.17 2361.36,1751 2350.5,1745C 2345.76,1741.69 2342.93,1737.19 2342,1731.5C 2341.01,1720.38 2341.67,1709.38 2344,1698.5C 2347.51,1692.81 2352.35,1688.81 2358.5,1686.5 Z"/></g>
<g><path style="opacity:0.909" fill="#7f807f" d="M 2121.5,1649.5 C 2133.72,1648.13 2145.39,1649.97 2156.5,1655C 2158.98,1656.31 2160.98,1658.14 2162.5,1660.5C 2161.33,1663.5 2159.67,1666.17 2157.5,1668.5C 2146.24,1659.95 2133.91,1657.78 2120.5,1662C 2111.43,1667.96 2106.26,1676.46 2105,1687.5C 2104.11,1699.88 2104.44,1712.22 2106,1724.5C 2111.02,1741.93 2122.52,1749.1 2140.5,1746C 2147.22,1744.14 2153.22,1740.98 2158.5,1736.5C 2160.97,1738.77 2162.97,1741.44 2164.5,1744.5C 2153.52,1755.74 2140.19,1759.91 2124.5,1757C 2107.44,1752.93 2097.6,1742.09 2095,1724.5C 2092.39,1706.6 2093.39,1688.93 2098,1671.5C 2102.2,1660.13 2110.04,1652.79 2121.5,1649.5 Z"/></g>
<g><path style="opacity:0.912" fill="#7f807f" d="M 1130.5,1651.5 C 1133.83,1651.5 1137.17,1651.5 1140.5,1651.5C 1140.5,1658.17 1140.5,1664.83 1140.5,1671.5C 1147.17,1671.5 1153.83,1671.5 1160.5,1671.5C 1160.5,1674.83 1160.5,1678.17 1160.5,1681.5C 1153.83,1681.5 1147.17,1681.5 1140.5,1681.5C 1140.33,1699.17 1140.5,1716.84 1141,1734.5C 1141.5,1739 1144,1741.5 1148.5,1742C 1152.22,1742.16 1155.89,1741.66 1159.5,1740.5C 1160.97,1743.15 1161.97,1745.98 1162.5,1749C 1158.62,1750.93 1154.45,1751.77 1150,1751.5C 1141.47,1752.57 1135.47,1749.24 1132,1741.5C 1130.55,1721.55 1130.05,1701.55 1130.5,1681.5C 1126.5,1681.5 1122.5,1681.5 1118.5,1681.5C 1118.5,1678.17 1118.5,1674.83 1118.5,1671.5C 1122.5,1671.5 1126.5,1671.5 1130.5,1671.5C 1130.5,1664.83 1130.5,1658.17 1130.5,1651.5 Z"/></g>
<g><path style="opacity:0.912" fill="#7f807f" d="M 1831.5,1654.5 C 1834.83,1654.5 1838.17,1654.5 1841.5,1654.5C 1841.5,1661.17 1841.5,1667.83 1841.5,1674.5C 1848.17,1674.5 1854.83,1674.5 1861.5,1674.5C 1861.5,1677.83 1861.5,1681.17 1861.5,1684.5C 1854.83,1684.5 1848.17,1684.5 1841.5,1684.5C 1841.33,1702.17 1841.5,1719.84 1842,1737.5C 1842.5,1742 1845,1744.5 1849.5,1745C 1853.22,1745.16 1856.89,1744.66 1860.5,1743.5C 1861.97,1746.15 1862.97,1748.98 1863.5,1752C 1859.62,1753.93 1855.45,1754.77 1851,1754.5C 1842.47,1755.57 1836.47,1752.24 1833,1744.5C 1831.55,1724.55 1831.05,1704.55 1831.5,1684.5C 1827.5,1684.5 1823.5,1684.5 1819.5,1684.5C 1819.5,1681.17 1819.5,1677.83 1819.5,1674.5C 1823.5,1674.5 1827.5,1674.5 1831.5,1674.5C 1831.5,1667.83 1831.5,1661.17 1831.5,1654.5 Z"/></g>
<g><path style="opacity:0.914" fill="#7f807f" d="M 160.5,1665.5 C 180.634,1662.79 193.134,1671.13 198,1690.5C 198.667,1700.83 198.667,1711.17 198,1721.5C 192.49,1742.52 178.99,1750.68 157.5,1746C 145.288,1741.44 138.455,1732.61 137,1719.5C 136.333,1710.83 136.333,1702.17 137,1693.5C 138.588,1678.76 146.421,1669.42 160.5,1665.5 Z M 161.5,1675.5 C 176.422,1673.61 185.256,1679.95 188,1694.5C 189.096,1704.97 188.429,1715.31 186,1725.5C 181.327,1734.75 173.827,1738.59 163.5,1737C 152.86,1733.93 147.36,1726.76 147,1715.5C 145.79,1705.26 146.79,1695.26 150,1685.5C 152.818,1680.84 156.651,1677.51 161.5,1675.5 Z"/></g>
<g><path style="opacity:0.911" fill="#7f807f" d="M 255.5,1666.5 C 259.514,1666.33 263.514,1666.5 267.5,1667C 269.384,1667.22 271.051,1667.88 272.5,1669C 271.243,1672.52 269.91,1676.02 268.5,1679.5C 250.813,1675.66 241.646,1682.99 241,1701.5C 240.5,1716.5 240.333,1731.5 240.5,1746.5C 237.167,1746.5 233.833,1746.5 230.5,1746.5C 230.286,1720.16 230.62,1693.82 231.5,1667.5C 234.833,1667.5 238.167,1667.5 241.5,1667.5C 240.81,1671.49 240.643,1675.49 241,1679.5C 244.162,1673.16 248.996,1668.83 255.5,1666.5 Z"/></g>
<g><path style="opacity:0.902" fill="#7f807f" d="M 316.5,1666.5 C 336.173,1663.91 348.007,1672.24 352,1691.5C 352.5,1698.16 352.666,1704.83 352.5,1711.5C 336.148,1711.72 319.815,1711.39 303.5,1710.5C 303.858,1733.83 315.191,1742.33 337.5,1736C 340.632,1734.37 343.632,1732.53 346.5,1730.5C 348.293,1733.25 349.959,1736.08 351.5,1739C 336.394,1750.02 320.728,1751.02 304.5,1742C 295.683,1732.26 292.016,1720.76 293.5,1707.5C 291.615,1692.98 295.948,1680.81 306.5,1671C 309.815,1669.17 313.149,1667.67 316.5,1666.5 Z M 317.5,1676.5 C 335.342,1675.12 343.676,1683.46 342.5,1701.5C 329.5,1701.5 316.5,1701.5 303.5,1701.5C 303.307,1690.2 307.974,1681.87 317.5,1676.5 Z"/></g>
<g><path style="opacity:0.918" fill="#7f807f" d="M 403.5,1666.5 C 413.455,1665.07 422.455,1667.24 430.5,1673C 435.658,1679.35 437.991,1686.68 437.5,1695C 436.578,1712.49 436.245,1729.99 436.5,1747.5C 433.167,1747.5 429.833,1747.5 426.5,1747.5C 426.664,1744.81 426.497,1742.15 426,1739.5C 420.388,1745.6 413.388,1748.6 405,1748.5C 389.269,1747.77 381.436,1739.6 381.5,1724C 380.857,1711.6 386.524,1703.94 398.5,1701C 408.161,1700.5 417.828,1700.33 427.5,1700.5C 429.274,1683.11 421.607,1675.28 404.5,1677C 398.859,1678.57 393.693,1681.07 389,1684.5C 386.796,1681.77 385.463,1678.77 385,1675.5C 390.562,1671.05 396.729,1668.05 403.5,1666.5 Z M 401.5,1709.5 C 409.833,1709.5 418.167,1709.5 426.5,1709.5C 430.819,1726.65 424.319,1736.32 407,1738.5C 392.962,1736.78 388.295,1729.11 393,1715.5C 395.322,1712.6 398.155,1710.6 401.5,1709.5 Z"/></g>
<g><path style="opacity:0.918" fill="#7f807f" d="M 648.5,1668.5 C 658.617,1667.23 667.451,1669.9 675,1676.5C 676.586,1678.67 677.92,1681 679,1683.5C 680.456,1705.45 680.956,1727.45 680.5,1749.5C 677.167,1749.5 673.833,1749.5 670.5,1749.5C 670.667,1729.83 670.5,1710.16 670,1690.5C 665.245,1679.46 657.079,1675.96 645.5,1680C 639.939,1682.56 636.106,1686.73 634,1692.5C 632.646,1711.14 632.146,1729.8 632.5,1748.5C 629.167,1748.5 625.833,1748.5 622.5,1748.5C 622.286,1722.16 622.62,1695.82 623.5,1669.5C 626.833,1669.5 630.167,1669.5 633.5,1669.5C 632.779,1672.82 632.612,1676.15 633,1679.5C 636.955,1674.03 642.122,1670.37 648.5,1668.5 Z"/></g>
<g><path style="opacity:0.927" fill="#7f807f" d="M 716.5,1669.5 C 719.833,1669.5 723.167,1669.5 726.5,1669.5C 726.5,1695.83 726.5,1722.17 726.5,1748.5C 723.167,1748.5 719.833,1748.5 716.5,1748.5C 716.5,1722.17 716.5,1695.83 716.5,1669.5 Z"/></g>
<g><path style="opacity:0.904" fill="#7f807f" d="M 753.5,1669.5 C 757.673,1668.96 761.506,1669.62 765,1671.5C 771.667,1692.83 778.333,1714.17 785,1735.5C 792.586,1714.41 799.586,1693.08 806,1671.5C 809.744,1670.37 813.577,1670.21 817.5,1671C 808.136,1696.59 799.469,1722.43 791.5,1748.5C 787.233,1748.8 783.066,1748.46 779,1747.5C 770.497,1721.48 761.997,1695.48 753.5,1669.5 Z"/></g>
<g><path style="opacity:0.902" fill="#7f807f" d="M 862.5,1669.5 C 882.173,1666.91 894.007,1675.24 898,1694.5C 898.5,1701.16 898.666,1707.83 898.5,1714.5C 882.148,1714.72 865.815,1714.39 849.5,1713.5C 849.858,1736.83 861.191,1745.33 883.5,1739C 886.632,1737.37 889.632,1735.53 892.5,1733.5C 894.293,1736.25 895.959,1739.08 897.5,1742C 882.394,1753.02 866.728,1754.02 850.5,1745C 841.683,1735.26 838.016,1723.76 839.5,1710.5C 837.615,1695.98 841.948,1683.81 852.5,1674C 855.815,1672.17 859.149,1670.67 862.5,1669.5 Z M 863.5,1679.5 C 881.342,1678.12 889.676,1686.46 888.5,1704.5C 875.5,1704.5 862.5,1704.5 849.5,1704.5C 849.307,1693.2 853.974,1684.87 863.5,1679.5 Z"/></g>
<g><path style="opacity:0.911" fill="#7f807f" d="M 955.5,1669.5 C 959.514,1669.33 963.514,1669.5 967.5,1670C 969.384,1670.22 971.051,1670.88 972.5,1672C 971.243,1675.52 969.91,1679.02 968.5,1682.5C 950.813,1678.66 941.646,1685.99 941,1704.5C 940.5,1719.5 940.333,1734.5 940.5,1749.5C 937.167,1749.5 933.833,1749.5 930.5,1749.5C 930.286,1723.16 930.62,1696.82 931.5,1670.5C 934.833,1670.5 938.167,1670.5 941.5,1670.5C 940.81,1674.49 940.643,1678.49 941,1682.5C 944.162,1676.16 948.996,1671.83 955.5,1669.5 Z"/></g>
<g><path style="opacity:0.903" fill="#7f807f" d="M 1014.5,1669.5 C 1025.57,1668.28 1035.91,1670.45 1045.5,1676C 1046.36,1676.69 1047.02,1677.52 1047.5,1678.5C 1045.8,1681.04 1044.3,1683.71 1043,1686.5C 1033.79,1679.56 1023.63,1677.73 1012.5,1681C 1005.12,1685.48 1003.78,1691.31 1008.5,1698.5C 1010.34,1699.92 1012.34,1701.09 1014.5,1702C 1023.09,1703.9 1031.43,1706.56 1039.5,1710C 1048.1,1716.39 1050.93,1724.89 1048,1735.5C 1042.62,1746.29 1033.78,1751.62 1021.5,1751.5C 1011.64,1751.29 1002.64,1748.45 994.5,1743C 993.978,1742.44 993.645,1741.77 993.5,1741C 994.747,1737.98 996.58,1735.48 999,1733.5C 1005.74,1738.25 1013.24,1740.91 1021.5,1741.5C 1028.7,1741.48 1034.2,1738.48 1038,1732.5C 1039.08,1727.93 1038.24,1723.76 1035.5,1720C 1026.87,1715.92 1017.87,1712.92 1008.5,1711C 997.104,1706.19 992.937,1697.69 996,1685.5C 998.968,1676.36 1005.13,1671.03 1014.5,1669.5 Z"/></g>
<g><path style="opacity:0.927" fill="#7f807f" d="M 1079.5,1671.5 C 1082.83,1671.5 1086.17,1671.5 1089.5,1671.5C 1089.5,1697.83 1089.5,1724.17 1089.5,1750.5C 1086.17,1750.5 1082.83,1750.5 1079.5,1750.5C 1079.5,1724.17 1079.5,1697.83 1079.5,1671.5 Z"/></g>
<g><path style="opacity:0.897" fill="#7f807f" d="M 1182.5,1671.5 C 1186.17,1671.5 1189.83,1671.5 1193.5,1671.5C 1199.7,1693.09 1206.7,1714.42 1214.5,1735.5C 1222.1,1714.7 1229.1,1693.7 1235.5,1672.5C 1239.23,1672.18 1242.89,1672.51 1246.5,1673.5C 1233.93,1710.3 1221.09,1746.97 1208,1783.5C 1205.11,1782.31 1202.28,1780.97 1199.5,1779.5C 1202.54,1770.2 1205.88,1761.04 1209.5,1752C 1200.2,1725.27 1191.2,1698.44 1182.5,1671.5 Z"/></g>
<g><path style="opacity:0.914" fill="#7f807f" d="M 1439.5,1671.5 C 1459.63,1668.79 1472.13,1677.13 1477,1696.5C 1477.67,1706.83 1477.67,1717.17 1477,1727.5C 1471.49,1748.52 1457.99,1756.68 1436.5,1752C 1424.29,1747.44 1417.45,1738.61 1416,1725.5C 1415.33,1716.83 1415.33,1708.17 1416,1699.5C 1417.59,1684.76 1425.42,1675.42 1439.5,1671.5 Z M 1440.5,1681.5 C 1455.42,1679.61 1464.26,1685.95 1467,1700.5C 1468.1,1710.97 1467.43,1721.31 1465,1731.5C 1460.33,1740.75 1452.83,1744.59 1442.5,1743C 1431.86,1739.93 1426.36,1732.76 1426,1721.5C 1424.79,1711.26 1425.79,1701.26 1429,1691.5C 1431.82,1686.84 1435.65,1683.51 1440.5,1681.5 Z"/></g>
<g><path style="opacity:0.916" fill="#7f807f" d="M 1534.5,1672.5 C 1546.25,1670.73 1555.25,1674.73 1561.5,1684.5C 1572.87,1671.1 1586.04,1669.1 1601,1678.5C 1604.09,1682.68 1606.09,1687.35 1607,1692.5C 1607.5,1712.83 1607.67,1733.16 1607.5,1753.5C 1604.17,1753.5 1600.83,1753.5 1597.5,1753.5C 1597.67,1734.5 1597.5,1715.5 1597,1696.5C 1596.21,1687.37 1591.21,1682.71 1582,1682.5C 1573.44,1683.06 1567.77,1687.39 1565,1695.5C 1563.55,1714.78 1563.05,1734.11 1563.5,1753.5C 1560.17,1753.5 1556.83,1753.5 1553.5,1753.5C 1553.67,1733.83 1553.5,1714.16 1553,1694.5C 1551.33,1686.66 1546.49,1682.66 1538.5,1682.5C 1529.25,1682.92 1523.41,1687.59 1521,1696.5C 1519.65,1715.14 1519.15,1733.8 1519.5,1752.5C 1516.17,1752.5 1512.83,1752.5 1509.5,1752.5C 1509.29,1726.16 1509.62,1699.82 1510.5,1673.5C 1513.83,1673.5 1517.17,1673.5 1520.5,1673.5C 1519.87,1676.49 1519.7,1679.49 1520,1682.5C 1523.69,1677.28 1528.52,1673.95 1534.5,1672.5 Z"/></g>
<g><path style="opacity:0.91" fill="#7f807f" d="M 1667.5,1672.5 C 1688.44,1671.04 1699.94,1680.71 1702,1701.5C 1702.76,1711.54 1702.42,1721.54 1701,1731.5C 1695.35,1749.58 1683.18,1756.75 1664.5,1753C 1659.21,1751.69 1655.04,1748.86 1652,1744.5C 1651.5,1757.5 1651.33,1770.5 1651.5,1783.5C 1648.17,1783.5 1644.83,1783.5 1641.5,1783.5C 1641.25,1746.82 1641.58,1710.16 1642.5,1673.5C 1645.83,1673.5 1649.17,1673.5 1652.5,1673.5C 1651.99,1676.84 1651.83,1680.17 1652,1683.5C 1655.75,1677.72 1660.91,1674.05 1667.5,1672.5 Z M 1668.5,1682.5 C 1680.52,1681.59 1688.02,1686.92 1691,1698.5C 1693.55,1711.17 1692.55,1723.5 1688,1735.5C 1680.53,1745.17 1671.36,1747 1660.5,1741C 1655.76,1737.69 1652.93,1733.19 1652,1727.5C 1651.01,1716.38 1651.67,1705.38 1654,1694.5C 1657.51,1688.81 1662.35,1684.81 1668.5,1682.5 Z"/></g>
<g><path style="opacity:0.921" fill="#7f807f" d="M 1733.5,1674.5 C 1736.83,1674.5 1740.17,1674.5 1743.5,1674.5C 1743.33,1693.84 1743.5,1713.17 1744,1732.5C 1746.04,1740.87 1751.37,1745.21 1760,1745.5C 1770.26,1744.57 1776.92,1739.24 1780,1729.5C 1780.5,1711.5 1780.67,1693.5 1780.5,1675.5C 1783.83,1675.5 1787.17,1675.5 1790.5,1675.5C 1790.5,1701.83 1790.5,1728.17 1790.5,1754.5C 1787.17,1754.5 1783.83,1754.5 1780.5,1754.5C 1780.66,1751.48 1780.5,1748.48 1780,1745.5C 1767.47,1757.37 1754.13,1758.37 1740,1748.5C 1736.66,1744.82 1734.66,1740.48 1734,1735.5C 1733.5,1715.17 1733.33,1694.84 1733.5,1674.5 Z"/></g>
<g><path style="opacity:0.902" fill="#7f807f" d="M 1912.5,1674.5 C 1932.17,1671.91 1944.01,1680.24 1948,1699.5C 1948.5,1706.16 1948.67,1712.83 1948.5,1719.5C 1932.15,1719.72 1915.81,1719.39 1899.5,1718.5C 1899.86,1741.83 1911.19,1750.33 1933.5,1744C 1936.63,1742.37 1939.63,1740.53 1942.5,1738.5C 1944.29,1741.25 1945.96,1744.08 1947.5,1747C 1932.39,1758.02 1916.73,1759.02 1900.5,1750C 1891.68,1740.26 1888.02,1728.76 1889.5,1715.5C 1887.62,1700.98 1891.95,1688.81 1902.5,1679C 1905.82,1677.17 1909.15,1675.67 1912.5,1674.5 Z M 1913.5,1684.5 C 1931.34,1683.12 1939.68,1691.46 1938.5,1709.5C 1925.5,1709.5 1912.5,1709.5 1899.5,1709.5C 1899.31,1698.2 1903.97,1689.87 1913.5,1684.5 Z"/></g>
<g><path style="opacity:0.911" fill="#7f807f" d="M 2005.5,1674.5 C 2009.51,1674.33 2013.51,1674.5 2017.5,1675C 2019.38,1675.22 2021.05,1675.88 2022.5,1677C 2021.24,1680.52 2019.91,1684.02 2018.5,1687.5C 2000.81,1683.66 1991.65,1690.99 1991,1709.5C 1990.5,1724.5 1990.33,1739.5 1990.5,1754.5C 1987.17,1754.5 1983.83,1754.5 1980.5,1754.5C 1980.29,1728.16 1980.62,1701.82 1981.5,1675.5C 1984.83,1675.5 1988.17,1675.5 1991.5,1675.5C 1990.81,1679.49 1990.64,1683.49 1991,1687.5C 1994.16,1681.16 1999,1676.83 2005.5,1674.5 Z"/></g>
<g><path style="opacity:0.921" fill="#7f807f" d="M 2239.5,1676.5 C 2242.83,1676.5 2246.17,1676.5 2249.5,1676.5C 2249.33,1695.84 2249.5,1715.17 2250,1734.5C 2252.04,1742.87 2257.37,1747.21 2266,1747.5C 2276.26,1746.57 2282.92,1741.24 2286,1731.5C 2286.5,1713.5 2286.67,1695.5 2286.5,1677.5C 2289.83,1677.5 2293.17,1677.5 2296.5,1677.5C 2296.5,1703.83 2296.5,1730.17 2296.5,1756.5C 2293.17,1756.5 2289.83,1756.5 2286.5,1756.5C 2286.66,1753.48 2286.5,1750.48 2286,1747.5C 2273.47,1759.37 2260.13,1760.37 2246,1750.5C 2242.66,1746.82 2240.66,1742.48 2240,1737.5C 2239.5,1717.17 2239.33,1696.84 2239.5,1676.5 Z"/></g>
</svg>
