<?xml version="1.0" encoding="UTF-8"?>
<!DOCTYPE svg PUBLIC "-//W3C//DTD SVG 1.1//EN" "http://www.w3.org/Graphics/SVG/1.1/DTD/svg11.dtd">
<svg xmlns="http://www.w3.org/2000/svg" version="1.1" width="2500px" height="2500px" style="shape-rendering:geometricPrecision; text-rendering:geometricPrecision; image-rendering:optimizeQuality; fill-rule:evenodd; clip-rule:evenodd" xmlns:xlink="http://www.w3.org/1999/xlink">
<g><path style="opacity:0.999" fill="#221714" d="M 1139.5,216.5 C 1154.17,216.751 1167.84,220.584 1180.5,228C 1193.46,237.955 1206.12,248.288 1218.5,259C 1238.19,272.186 1258.86,283.853 1280.5,294C 1300.38,302.792 1320.38,311.292 1340.5,319.5C 1475.68,272.558 1613.35,263.724 1753.5,293C 1812.02,305.897 1868.36,325.063 1922.5,350.5C 1931.95,345.569 1940.11,338.902 1947,330.5C 1954.67,320.167 1962.33,309.833 1970,299.5C 1989.52,274.827 2014.02,267.994 2043.5,279C 2061.59,287.754 2077.43,299.587 2091,314.5C 2116.22,344.581 2138.22,376.915 2157,411.5C 2186.26,463.684 2208.59,518.684 2224,576.5C 2227.53,592.375 2230.2,608.375 2232,624.5C 2341.12,799.118 2376.12,987.784 2337,1190.5C 2293.43,1384.58 2191.6,1539.75 2031.5,1656C 1854.29,1777.25 1659.63,1818.91 1447.5,1781C 1247.5,1738.66 1088.33,1634.82 970,1469.5C 854.219,1298.33 812.552,1110.33 845,905.5C 862.06,808.747 896.393,718.747 948,635.5C 952.685,562.076 965.352,490.076 986,419.5C 1000.76,369.175 1022.43,322.175 1051,278.5C 1064.53,259.639 1080.69,243.473 1099.5,230C 1111.89,222.369 1125.23,217.869 1139.5,216.5 Z"/></g>
<g><path style="opacity:0.997" fill="#211713" d="M 807.5,754.5 C 808.598,755.601 808.765,756.934 808,758.5C 750.189,926.25 745.189,1095.58 793,1266.5C 857.348,1476.85 983.181,1639.01 1170.5,1753C 1361.96,1862.69 1565.62,1894.02 1781.5,1847C 1801.25,1841.96 1820.92,1836.96 1840.5,1832C 1774.29,1968.55 1677.29,2077.88 1549.5,2160C 1459.54,2216.29 1362.21,2254.29 1257.5,2274C 1165.42,2292.42 1072.42,2301.25 978.5,2300.5C 854.584,2299.51 731.584,2288.34 609.5,2267C 456.718,2240.64 306.718,2203.3 159.5,2155C 152.963,2149.24 150.797,2142.08 153,2133.5C 154.378,2128.79 157.212,2125.29 161.5,2123C 290.899,2111.9 413.899,2077.9 530.5,2021C 404.178,1879.08 336.011,1712.58 326,1521.5C 319.519,1317.27 380.186,1136.27 508,978.5C 590.452,880.382 690.286,805.715 807.5,754.5 Z"/></g>
<g><path style="opacity:1" fill="#fefefe" d="M 1496.5,797.5 C 1536.9,794.936 1564.73,812.269 1580,849.5C 1581.29,853.759 1582.29,858.092 1583,862.5C 1583.67,915.833 1583.67,969.167 1583,1022.5C 1577.08,1059.75 1555.58,1081.92 1518.5,1089C 1485.6,1091.8 1460.43,1079.3 1443,1051.5C 1438.8,1042.91 1435.8,1033.91 1434,1024.5C 1433.33,970.5 1433.33,916.5 1434,862.5C 1438.67,834.673 1453.84,814.839 1479.5,803C 1485.23,800.992 1490.9,799.158 1496.5,797.5 Z"/></g>
<g><path style="opacity:1" fill="#fefefe" d="M 2095.5,797.5 C 2134.84,794.911 2162.34,811.577 2178,847.5C 2179.49,853.126 2180.82,858.792 2182,864.5C 2182.67,917.167 2182.67,969.833 2182,1022.5C 2176.31,1056.19 2157.14,1078.02 2124.5,1088C 2089.79,1093.89 2062.62,1082.39 2043,1053.5C 2037.38,1044.26 2034.05,1034.26 2033,1023.5C 2032.33,969.167 2032.33,914.833 2033,860.5C 2040.68,826.32 2061.51,805.32 2095.5,797.5 Z"/></g>
</svg>
