<?xml version="1.0" encoding="UTF-8"?>
<!DOCTYPE svg PUBLIC "-//W3C//DTD SVG 1.1//EN" "http://www.w3.org/Graphics/SVG/1.1/DTD/svg11.dtd">
<svg xmlns="http://www.w3.org/2000/svg" version="1.1" width="2500px" height="2500px" style="shape-rendering:geometricPrecision; text-rendering:geometricPrecision; image-rendering:optimizeQuality; fill-rule:evenodd; clip-rule:evenodd" xmlns:xlink="http://www.w3.org/1999/xlink">
<g><path style="opacity:0.993" fill="#000000" d="M 1758.5,962.5 C 1751.91,938.811 1740.24,917.978 1723.5,900C 1710.9,889.443 1697.23,887.776 1682.5,895C 1678.5,899.667 1674.5,904.333 1670.5,909C 1669.5,909.167 1668.5,909.333 1667.5,909.5C 1630.02,896.019 1591.69,892.853 1552.5,900C 1548.47,901.067 1544.47,902.234 1540.5,903.5C 1525.96,895.729 1511.29,888.229 1496.5,881C 1483.92,875.564 1471.92,876.564 1460.5,884C 1444.76,898.639 1434.6,916.472 1430,937.5C 1426.94,954.195 1423.77,970.862 1420.5,987.5C 1419.66,987.842 1419.33,988.508 1419.5,989.5C 1400.31,1014.88 1388.81,1043.55 1385,1075.5C 1375.51,1165.01 1408.68,1233.51 1484.5,1281C 1554.99,1319.58 1624.99,1318.92 1694.5,1279C 1703.74,1273.1 1712.4,1266.43 1720.5,1259C 1742.94,1244.1 1765.61,1243.76 1788.5,1258C 1796.67,1265.5 1804.83,1273 1813,1280.5C 1827.56,1300.8 1829.23,1322.13 1818,1344.5C 1813.58,1350.93 1808.41,1356.76 1802.5,1362C 1732.13,1420.12 1651.13,1445.79 1559.5,1439C 1472.38,1431.68 1399.21,1396.18 1340,1332.5C 1265.93,1249.96 1238.27,1153.63 1257,1043.5C 1273.74,958.497 1316.24,889.663 1384.5,837C 1463.2,779.411 1550.87,758.744 1647.5,775C 1711.68,786.672 1767.18,814.839 1814,859.5C 1829.55,883.079 1829.22,906.413 1813,929.5C 1804.5,937.333 1796,945.167 1787.5,953C 1778.66,958.668 1769,961.834 1758.5,962.5 Z"/></g>
<g><path style="opacity:0.992" fill="#000000" d="M 2189.5,1306.5 C 2184.29,1318.59 2177.79,1329.93 2170,1340.5C 2164.63,1352.06 2167.46,1360.89 2178.5,1367C 2182.83,1367.67 2187.17,1367.67 2191.5,1367C 2227.59,1346.06 2261.59,1322.23 2293.5,1295.5C 2317.43,1285.54 2339.1,1272.04 2358.5,1255C 2378.35,1244.72 2398.02,1245.05 2417.5,1256C 2428.32,1264.82 2438.49,1274.32 2448,1284.5C 2461.14,1306.96 2460.48,1328.96 2446,1350.5C 2390.27,1403.55 2323.77,1433.05 2246.5,1439C 2120.09,1446.2 2019.26,1399.37 1944,1298.5C 1897.03,1231.62 1877.36,1157.28 1885,1075.5C 1894.86,976.916 1938.7,897.416 2016.5,837C 2093.26,780.727 2178.93,759.727 2273.5,774C 2334.22,783.87 2387.89,808.536 2434.5,848C 2461,872.248 2464.5,899.414 2445,929.5C 2434.67,940.51 2423.17,950.01 2410.5,958C 2390.44,965.596 2371.44,963.596 2353.5,952C 2299.59,905.775 2237.92,891.108 2168.5,908C 2100.07,927.767 2052.57,970.6 2026,1036.5C 2010.03,1087.07 2011.69,1137.07 2031,1186.5C 2063.49,1253.13 2116.32,1293.13 2189.5,1306.5 Z"/></g>
<g><path style="opacity:0.993" fill="#c2201e" d="M 431.5,801.5 C 470.323,799.178 494.157,816.845 503,854.5C 505.11,872.393 501.11,888.726 491,903.5C 431.134,959.701 370.967,1015.53 310.5,1071C 391.755,1115.26 450.255,1180.09 486,1265.5C 498.811,1299.7 504.478,1335.03 503,1371.5C 496.044,1405.12 475.377,1423.12 441,1425.5C 411.345,1423.83 391.345,1409.16 381,1381.5C 381.63,1327.04 364.296,1279.37 329,1238.5C 320.167,1229.67 311.333,1220.83 302.5,1212C 283.435,1195.46 262.102,1182.46 238.5,1173C 229.099,1169.4 219.433,1166.9 209.5,1165.5C 209.667,1233.5 209.5,1301.5 209,1369.5C 202.591,1404.14 181.757,1422.81 146.5,1425.5C 113.284,1423.11 92.7843,1405.78 85,1373.5C 84.3333,1202.5 84.3333,1031.5 85,860.5C 92.6741,827.99 113.174,810.99 146.5,809.5C 175.177,810.346 195.011,824.012 206,850.5C 207.476,855.406 208.476,860.406 209,865.5C 209.333,908.833 209.667,952.167 210,995.5C 271.833,937 333.667,878.5 395.5,820C 405.782,810.36 417.782,804.193 431.5,801.5 Z"/></g>
<g><path style="opacity:0.992" fill="#c2201e" d="M 633.5,803.5 C 670.6,799.943 695.1,815.61 707,850.5C 708.322,948.465 708.988,1046.46 709,1144.5C 712.73,1195.79 733.897,1238.29 772.5,1272C 816.37,1308.56 866.703,1322.22 923.5,1313C 975.517,1302.26 1016.02,1274.76 1045,1230.5C 1060.77,1205.45 1069.77,1178.12 1072,1148.5C 1072.33,1051.5 1072.67,954.5 1073,857.5C 1078.49,829.007 1095.33,811.174 1123.5,804C 1162.94,800.138 1187.44,817.304 1197,855.5C 1197.67,955.833 1197.67,1056.17 1197,1156.5C 1190.96,1238.4 1157.8,1306.9 1097.5,1362C 1023.69,1427.26 937.691,1452.59 839.5,1438C 769.629,1426.15 710.795,1394.32 663,1342.5C 612.047,1287.37 585.047,1222.03 582,1146.5C 581.019,1048.14 581.352,949.81 583,851.5C 590.633,825.697 607.467,809.697 633.5,803.5 Z"/></g>
<g><path style="opacity:0.989" fill="#fefdfd" d="M 1758.5,962.5 C 1760.43,970.062 1761.93,977.729 1763,985.5C 1801.12,1048.99 1806.12,1114.99 1778,1183.5C 1743.78,1250.89 1688.95,1289.06 1613.5,1298C 1531.72,1303.35 1467.89,1272.52 1422,1205.5C 1392.5,1155.82 1384.5,1102.82 1398,1046.5C 1403.45,1031.61 1409.45,1016.94 1416,1002.5C 1417.64,998.278 1418.81,993.945 1419.5,989.5C 1420.34,989.158 1420.67,988.492 1420.5,987.5C 1423.77,970.862 1426.94,954.195 1430,937.5C 1434.6,916.472 1444.76,898.639 1460.5,884C 1471.92,876.564 1483.92,875.564 1496.5,881C 1511.29,888.229 1525.96,895.729 1540.5,903.5C 1544.47,902.234 1548.47,901.067 1552.5,900C 1591.69,892.853 1630.02,896.019 1667.5,909.5C 1668.5,909.333 1669.5,909.167 1670.5,909C 1674.5,904.333 1678.5,899.667 1682.5,895C 1697.23,887.776 1710.9,889.443 1723.5,900C 1740.24,917.978 1751.91,938.811 1758.5,962.5 Z"/></g>
<g><path style="opacity:1" fill="#c3201f" d="M 1476.5,910.5 C 1480.6,910.234 1484.6,910.734 1488.5,912C 1499.46,919.279 1511.13,925.279 1523.5,930C 1528.45,935.159 1534.45,936.826 1541.5,935C 1575.07,925.424 1608.74,925.09 1642.5,934C 1651.29,937.042 1660.13,939.876 1669,942.5C 1671.25,942.369 1673.42,941.869 1675.5,941C 1680.13,938.357 1684.47,935.357 1688.5,932C 1695.38,926.591 1702.38,926.257 1709.5,931C 1723.93,949.961 1731.43,971.461 1732,995.5C 1771.57,1056.55 1774.9,1119.55 1742,1184.5C 1707.58,1238.89 1657.91,1266.89 1593,1268.5C 1520.2,1265.45 1468.2,1231.12 1437,1165.5C 1419.37,1120.95 1419.04,1076.28 1436,1031.5C 1440.61,1022.62 1444.94,1013.62 1449,1004.5C 1451.7,991.307 1453.37,977.974 1454,964.5C 1456.46,948.786 1461.13,933.786 1468,919.5C 1470.36,915.973 1473.2,912.973 1476.5,910.5 Z"/></g>
<g><path style="opacity:0.982" fill="#fefdfd" d="M 2293.5,1295.5 C 2261.59,1322.23 2227.59,1346.06 2191.5,1367C 2187.17,1367.67 2182.83,1367.67 2178.5,1367C 2167.46,1360.89 2164.63,1352.06 2170,1340.5C 2177.79,1329.93 2184.29,1318.59 2189.5,1306.5C 2192.43,1300.31 2195.09,1293.97 2197.5,1287.5C 2132.25,1279.05 2082.75,1246.71 2049,1190.5C 2017.41,1128.98 2017.74,1067.65 2050,1006.5C 2087.36,945.884 2141.86,914.218 2213.5,911.5C 2287.13,914.208 2342.29,947.208 2379,1010.5C 2400.66,1053.43 2406.32,1098.43 2396,1145.5C 2387.44,1178.28 2372.78,1207.95 2352,1234.5C 2334.37,1256.63 2314.87,1276.96 2293.5,1295.5 Z"/></g>
<g><path style="opacity:1" fill="#c3201f" d="M 2199.5,936.5 C 2269.29,934.297 2321.79,962.964 2357,1022.5C 2375.02,1057.95 2380.35,1095.28 2373,1134.5C 2365.38,1166.41 2351.38,1195.07 2331,1220.5C 2295.13,1263.41 2253.63,1299.25 2206.5,1328C 2217.77,1307.03 2225.77,1284.86 2230.5,1261.5C 2163.27,1265.13 2111.1,1239.13 2074,1183.5C 2043.56,1128.89 2042.9,1073.89 2072,1018.5C 2101.35,970.899 2143.85,943.566 2199.5,936.5 Z"/></g>
<g><path style="opacity:1" fill="#fefafa" d="M 1557.5,1055.5 C 1571.39,1053.02 1580.55,1058.35 1585,1071.5C 1585.67,1087.17 1585.67,1102.83 1585,1118.5C 1581,1130.92 1572.5,1136.42 1559.5,1135C 1551.26,1132.43 1546.09,1126.93 1544,1118.5C 1543.33,1102.83 1543.33,1087.17 1544,1071.5C 1545.95,1063.89 1550.45,1058.56 1557.5,1055.5 Z"/></g>
<g><path style="opacity:1" fill="#fefcfc" d="M 1709.5,1054.5 C 1721.22,1054.27 1729.05,1059.6 1733,1070.5C 1733.67,1086.83 1733.67,1103.17 1733,1119.5C 1727.89,1132.87 1718.39,1137.71 1704.5,1134C 1698.51,1131.34 1694.67,1126.84 1693,1120.5C 1692.33,1103.17 1692.33,1085.83 1693,1068.5C 1696.59,1061.39 1702.09,1056.73 1709.5,1054.5 Z"/></g>
<g><path style="opacity:0.928" fill="#7f807f" d="M 2223.5,1537.5 C 2227.17,1537.5 2230.83,1537.5 2234.5,1537.5C 2234.5,1574.83 2234.5,1612.17 2234.5,1649.5C 2230.83,1649.5 2227.17,1649.5 2223.5,1649.5C 2223.5,1612.17 2223.5,1574.83 2223.5,1537.5 Z"/></g>
<g><path style="opacity:0.915" fill="#7f807f" d="M 2356.5,1537.5 C 2360.17,1537.5 2363.83,1537.5 2367.5,1537.5C 2367.33,1551.17 2367.5,1564.84 2368,1578.5C 2374.1,1571.62 2381.76,1567.95 2391,1567.5C 2407.34,1567.83 2417.68,1575.83 2422,1591.5C 2424.22,1604.57 2423.88,1617.57 2421,1630.5C 2417.76,1640.74 2410.93,1647.24 2400.5,1650C 2394.17,1650.67 2387.83,1650.67 2381.5,1650C 2376.11,1648.55 2371.61,1645.72 2368,1641.5C 2367.5,1644.15 2367.34,1646.81 2367.5,1649.5C 2363.83,1649.5 2360.17,1649.5 2356.5,1649.5C 2356.5,1612.17 2356.5,1574.83 2356.5,1537.5 Z M 2384.5,1578.5 C 2398.03,1576.34 2406.86,1581.67 2411,1594.5C 2413.13,1605.57 2412.79,1616.57 2410,1627.5C 2404.29,1639.11 2395.12,1643.27 2382.5,1640C 2374.53,1637.7 2369.69,1632.53 2368,1624.5C 2367.1,1613.77 2367.43,1603.11 2369,1592.5C 2372.49,1585.83 2377.66,1581.17 2384.5,1578.5 Z"/></g>
<g><path style="opacity:0.914" fill="#7f807f" d="M 1379.5,1541.5 C 1394.04,1539.55 1407.7,1542.05 1420.5,1549C 1421.99,1549.75 1422.99,1550.91 1423.5,1552.5C 1422.41,1555.68 1420.58,1558.35 1418,1560.5C 1405.83,1552.11 1392.67,1549.94 1378.5,1554C 1368.45,1559.06 1362.62,1567.23 1361,1578.5C 1360.33,1590.17 1360.33,1601.83 1361,1613.5C 1363.84,1630.84 1374,1639.84 1391.5,1640.5C 1402.48,1640.59 1411.98,1636.92 1420,1629.5C 1423.1,1632.39 1425.1,1635.72 1426,1639.5C 1409.43,1651.9 1391.26,1654.73 1371.5,1648C 1357.3,1640.12 1349.8,1627.96 1349,1611.5C 1348.33,1600.83 1348.33,1590.17 1349,1579.5C 1350.92,1559.91 1361.08,1547.25 1379.5,1541.5 Z"/></g>
<g><path style="opacity:0.914" fill="#7f807f" d="M 2152.5,1541.5 C 2167.04,1539.55 2180.7,1542.05 2193.5,1549C 2194.99,1549.75 2195.99,1550.91 2196.5,1552.5C 2195.41,1555.68 2193.58,1558.35 2191,1560.5C 2178.83,1552.11 2165.67,1549.94 2151.5,1554C 2141.45,1559.06 2135.62,1567.23 2134,1578.5C 2133.33,1590.17 2133.33,1601.83 2134,1613.5C 2136.84,1630.84 2147,1639.84 2164.5,1640.5C 2175.48,1640.59 2184.98,1636.92 2193,1629.5C 2196.1,1632.39 2198.1,1635.72 2199,1639.5C 2182.43,1651.9 2164.26,1654.73 2144.5,1648C 2130.3,1640.12 2122.8,1627.96 2122,1611.5C 2121.33,1600.83 2121.33,1590.17 2122,1579.5C 2123.92,1559.91 2134.08,1547.25 2152.5,1541.5 Z"/></g>
<g><path style="opacity:0.935" fill="#7f807f" d="M 96.5,1542.5 C 100.167,1542.5 103.833,1542.5 107.5,1542.5C 107.333,1559.84 107.5,1577.17 108,1594.5C 124.5,1577.33 141,1560.17 157.5,1543C 162.533,1542.17 167.533,1542.34 172.5,1543.5C 157.605,1558.23 143.272,1573.39 129.5,1589C 144.819,1608.99 160.153,1628.99 175.5,1649C 170.5,1649.67 165.5,1649.67 160.5,1649C 147.358,1631.69 134.024,1614.52 120.5,1597.5C 115.815,1601.35 111.648,1605.68 108,1610.5C 107.5,1623.5 107.333,1636.5 107.5,1649.5C 103.833,1649.5 100.167,1649.5 96.5,1649.5C 96.5,1613.83 96.5,1578.17 96.5,1542.5 Z"/></g>
<g><path style="opacity:0.918" fill="#7f807f" d="M 563.5,1542.5 C 567.167,1542.5 570.833,1542.5 574.5,1542.5C 574.333,1564.17 574.5,1585.84 575,1607.5C 575.942,1636.81 590.109,1646.64 617.5,1637C 621.491,1634.01 624.324,1630.18 626,1625.5C 627.878,1618.97 628.878,1612.31 629,1605.5C 629.5,1584.5 629.667,1563.5 629.5,1542.5C 633.167,1542.5 636.833,1542.5 640.5,1542.5C 640.667,1566.5 640.5,1590.5 640,1614.5C 638.817,1638.68 626.15,1651.02 602,1651.5C 577.859,1651.03 565.193,1638.69 564,1614.5C 563.5,1590.5 563.333,1566.5 563.5,1542.5 Z"/></g>
<g><path style="opacity:0.879" fill="#7f807f" d="M 763.5,1543.5 C 767.5,1543.5 771.5,1543.5 775.5,1543.5C 775.5,1547.5 775.5,1551.5 775.5,1555.5C 771.5,1555.5 767.5,1555.5 763.5,1555.5C 763.5,1551.5 763.5,1547.5 763.5,1543.5 Z"/></g>
<g><path style="opacity:0.879" fill="#7f807f" d="M 1118.5,1543.5 C 1122.5,1543.5 1126.5,1543.5 1130.5,1543.5C 1130.5,1547.5 1130.5,1551.5 1130.5,1555.5C 1126.5,1555.5 1122.5,1555.5 1118.5,1555.5C 1118.5,1551.5 1118.5,1547.5 1118.5,1543.5 Z"/></g>
<g><path style="opacity:0.931" fill="#7f807f" d="M 1165.5,1548.5 C 1169.17,1548.5 1172.83,1548.5 1176.5,1548.5C 1176.5,1555.5 1176.5,1562.5 1176.5,1569.5C 1183.83,1569.5 1191.17,1569.5 1198.5,1569.5C 1198.5,1572.5 1198.5,1575.5 1198.5,1578.5C 1191.17,1578.5 1183.83,1578.5 1176.5,1578.5C 1176.1,1597.2 1176.6,1615.87 1178,1634.5C 1178.69,1637.06 1180.19,1638.89 1182.5,1640C 1188.19,1640.63 1193.86,1640.46 1199.5,1639.5C 1200.33,1642.47 1200.5,1645.47 1200,1648.5C 1193.32,1650.41 1186.48,1650.91 1179.5,1650C 1169.92,1646.7 1165.42,1639.87 1166,1629.5C 1165.5,1612.5 1165.33,1595.5 1165.5,1578.5C 1161.17,1578.5 1156.83,1578.5 1152.5,1578.5C 1152.5,1575.5 1152.5,1572.5 1152.5,1569.5C 1156.83,1569.5 1161.17,1569.5 1165.5,1569.5C 1165.5,1562.5 1165.5,1555.5 1165.5,1548.5 Z"/></g>
<g><path style="opacity:0.931" fill="#7f807f" d="M 1867.5,1548.5 C 1871.17,1548.5 1874.83,1548.5 1878.5,1548.5C 1878.5,1555.5 1878.5,1562.5 1878.5,1569.5C 1885.83,1569.5 1893.17,1569.5 1900.5,1569.5C 1900.5,1572.5 1900.5,1575.5 1900.5,1578.5C 1893.17,1578.5 1885.83,1578.5 1878.5,1578.5C 1878.1,1597.2 1878.6,1615.87 1880,1634.5C 1880.69,1637.06 1882.19,1638.89 1884.5,1640C 1890.19,1640.63 1895.86,1640.46 1901.5,1639.5C 1902.33,1642.47 1902.5,1645.47 1902,1648.5C 1895.32,1650.41 1888.48,1650.91 1881.5,1650C 1871.92,1646.7 1867.42,1639.87 1868,1629.5C 1867.5,1612.5 1867.33,1595.5 1867.5,1578.5C 1863.17,1578.5 1858.83,1578.5 1854.5,1578.5C 1854.5,1575.5 1854.5,1572.5 1854.5,1569.5C 1858.83,1569.5 1863.17,1569.5 1867.5,1569.5C 1867.5,1562.5 1867.5,1555.5 1867.5,1548.5 Z"/></g>
<g><path style="opacity:0.923" fill="#7f807f" d="M 219.5,1567.5 C 239.103,1567.2 250.937,1576.53 255,1595.5C 256.139,1607.63 255.472,1619.63 253,1631.5C 249.224,1641.61 242.057,1647.78 231.5,1650C 221.541,1651.35 211.874,1650.35 202.5,1647C 194.805,1641.78 189.972,1634.62 188,1625.5C 187.333,1614.83 187.333,1604.17 188,1593.5C 192.087,1576.9 202.587,1568.24 219.5,1567.5 Z M 218.5,1577.5 C 230.63,1576.97 238.797,1582.3 243,1593.5C 245,1604.17 245,1614.83 243,1625.5C 237.403,1638.71 227.57,1643.55 213.5,1640C 205.417,1636.91 200.583,1631.08 199,1622.5C 198.105,1612.44 198.438,1602.44 200,1592.5C 203.425,1583.89 209.592,1578.89 218.5,1577.5 Z"/></g>
<g><path style="opacity:0.914" fill="#7f807f" d="M 313.5,1567.5 C 317.142,1568.08 320.809,1568.58 324.5,1569C 326.283,1570.07 326.783,1571.57 326,1573.5C 325.358,1575.76 324.525,1577.93 323.5,1580C 306.313,1576.54 296.146,1583.37 293,1600.5C 292.5,1616.83 292.333,1633.16 292.5,1649.5C 288.833,1649.5 285.167,1649.5 281.5,1649.5C 281.5,1622.83 281.5,1596.17 281.5,1569.5C 285.167,1569.5 288.833,1569.5 292.5,1569.5C 292.335,1573.18 292.501,1576.85 293,1580.5C 297.757,1572.71 304.591,1568.38 313.5,1567.5 Z"/></g>
<g><path style="opacity:0.911" fill="#7f807f" d="M 374.5,1567.5 C 391.421,1567.37 402.255,1575.37 407,1591.5C 408.247,1598.78 408.747,1606.11 408.5,1613.5C 390.5,1613.5 372.5,1613.5 354.5,1613.5C 355.708,1636.95 367.708,1645.45 390.5,1639C 394.167,1637.17 397.833,1635.33 401.5,1633.5C 403.653,1635.79 405.32,1638.46 406.5,1641.5C 394.888,1650.05 381.888,1652.88 367.5,1650C 354.109,1646.61 346.275,1638.11 344,1624.5C 343.333,1614.17 343.333,1603.83 344,1593.5C 347.966,1577.36 358.133,1568.69 374.5,1567.5 Z M 373.5,1577.5 C 390.058,1578.06 398.058,1586.73 397.5,1603.5C 383.167,1603.5 368.833,1603.5 354.5,1603.5C 353.746,1593.51 357.412,1585.68 365.5,1580C 368.31,1579.22 370.977,1578.38 373.5,1577.5 Z"/></g>
<g><path style="opacity:0.918" fill="#7f807f" d="M 460.5,1567.5 C 467.99,1567.5 474.99,1569.33 481.5,1573C 487.444,1577.72 490.611,1583.89 491,1591.5C 491.5,1610.83 491.667,1630.16 491.5,1649.5C 487.833,1649.5 484.167,1649.5 480.5,1649.5C 481.811,1641.2 480.144,1640.03 475.5,1646C 472.382,1647.89 469.049,1649.23 465.5,1650C 435.62,1653.68 424.787,1641.18 433,1612.5C 435.989,1608.51 439.822,1605.68 444.5,1604C 456.447,1602.61 468.447,1602.11 480.5,1602.5C 481.499,1582.99 472.499,1575.16 453.5,1579C 447.859,1580.57 442.693,1583.07 438,1586.5C 436.111,1583.89 434.611,1581.06 433.5,1578C 441.369,1571.44 450.369,1567.94 460.5,1567.5 Z M 453.5,1611.5 C 462.5,1611.5 471.5,1611.5 480.5,1611.5C 483.388,1629.76 475.721,1639.76 457.5,1641.5C 442.673,1639.51 437.84,1631.51 443,1617.5C 446.069,1614.55 449.569,1612.55 453.5,1611.5 Z"/></g>
<g><path style="opacity:0.922" fill="#7f807f" d="M 703.5,1567.5 C 710.998,1567.48 717.998,1569.31 724.5,1573C 729.86,1577.22 733.027,1582.72 734,1589.5C 734.5,1609.5 734.667,1629.5 734.5,1649.5C 730.833,1649.5 727.167,1649.5 723.5,1649.5C 723.952,1629.11 723.452,1608.78 722,1588.5C 718.376,1581.43 712.543,1578.1 704.5,1578.5C 693.048,1578.97 685.548,1584.64 682,1595.5C 681.5,1613.5 681.333,1631.5 681.5,1649.5C 677.833,1649.5 674.167,1649.5 670.5,1649.5C 670.5,1622.83 670.5,1596.17 670.5,1569.5C 674.167,1569.5 677.833,1569.5 681.5,1569.5C 681.335,1572.52 681.502,1575.52 682,1578.5C 687.839,1572 695.005,1568.33 703.5,1567.5 Z"/></g>
<g><path style="opacity:0.911" fill="#7f807f" d="M 913.5,1567.5 C 930.421,1567.37 941.255,1575.37 946,1591.5C 947.247,1598.78 947.747,1606.11 947.5,1613.5C 929.5,1613.5 911.5,1613.5 893.5,1613.5C 894.708,1636.95 906.708,1645.45 929.5,1639C 933.167,1637.17 936.833,1635.33 940.5,1633.5C 942.653,1635.79 944.32,1638.46 945.5,1641.5C 933.888,1650.05 920.888,1652.88 906.5,1650C 893.109,1646.61 885.275,1638.11 883,1624.5C 882.333,1614.17 882.333,1603.83 883,1593.5C 886.966,1577.36 897.133,1568.69 913.5,1567.5 Z M 912.5,1577.5 C 929.058,1578.06 937.058,1586.73 936.5,1603.5C 922.167,1603.5 907.833,1603.5 893.5,1603.5C 892.746,1593.51 896.412,1585.68 904.5,1580C 907.31,1579.22 909.977,1578.38 912.5,1577.5 Z"/></g>
<g><path style="opacity:0.914" fill="#7f807f" d="M 1004.5,1567.5 C 1008.14,1568.08 1011.81,1568.58 1015.5,1569C 1017.28,1570.07 1017.78,1571.57 1017,1573.5C 1016.36,1575.76 1015.52,1577.93 1014.5,1580C 997.313,1576.54 987.146,1583.37 984,1600.5C 983.5,1616.83 983.333,1633.16 983.5,1649.5C 979.833,1649.5 976.167,1649.5 972.5,1649.5C 972.5,1622.83 972.5,1596.17 972.5,1569.5C 976.167,1569.5 979.833,1569.5 983.5,1569.5C 983.335,1573.18 983.501,1576.85 984,1580.5C 988.757,1572.71 995.591,1568.38 1004.5,1567.5 Z"/></g>
<g><path style="opacity:0.912" fill="#7f807f" d="M 1062.5,1567.5 C 1072.51,1567.5 1081.84,1570 1090.5,1575C 1091.31,1578.91 1089.97,1582.07 1086.5,1584.5C 1074.54,1576.63 1062.21,1575.79 1049.5,1582C 1043.44,1592.56 1046.44,1599.23 1058.5,1602C 1068.46,1603.21 1077.79,1606.21 1086.5,1611C 1091.84,1615.19 1094.18,1620.69 1093.5,1627.5C 1092.87,1639.65 1086.53,1647.15 1074.5,1650C 1060.29,1652.42 1046.96,1650.09 1034.5,1643C 1033.91,1638.97 1035.25,1635.47 1038.5,1632.5C 1050.33,1641.06 1063,1642.89 1076.5,1638C 1081.79,1634.56 1083.63,1629.73 1082,1623.5C 1081.22,1621.71 1080.05,1620.21 1078.5,1619C 1068,1615.17 1057.33,1611.83 1046.5,1609C 1038.62,1605.41 1034.62,1599.24 1034.5,1590.5C 1034.72,1581.23 1039.05,1574.73 1047.5,1571C 1052.51,1569.29 1057.51,1568.13 1062.5,1567.5 Z"/></g>
<g><path style="opacity:0.923" fill="#7f807f" d="M 1478.5,1567.5 C 1498.1,1567.2 1509.94,1576.53 1514,1595.5C 1515.14,1607.63 1514.47,1619.63 1512,1631.5C 1508.22,1641.61 1501.06,1647.78 1490.5,1650C 1480.54,1651.35 1470.87,1650.35 1461.5,1647C 1453.81,1641.78 1448.97,1634.62 1447,1625.5C 1446.33,1614.83 1446.33,1604.17 1447,1593.5C 1451.09,1576.9 1461.59,1568.24 1478.5,1567.5 Z M 1477.5,1577.5 C 1489.63,1576.97 1497.8,1582.3 1502,1593.5C 1504,1604.17 1504,1614.83 1502,1625.5C 1496.4,1638.71 1486.57,1643.55 1472.5,1640C 1464.42,1636.91 1459.58,1631.08 1458,1622.5C 1457.1,1612.44 1457.44,1602.44 1459,1592.5C 1462.43,1583.89 1468.59,1578.89 1477.5,1577.5 Z"/></g>
<g><path style="opacity:0.921" fill="#7f807f" d="M 1571.5,1567.5 C 1582.8,1566.91 1591.46,1571.25 1597.5,1580.5C 1607.34,1568.54 1619.67,1565.04 1634.5,1570C 1643.19,1574.88 1647.69,1582.38 1648,1592.5C 1648.5,1611.5 1648.67,1630.5 1648.5,1649.5C 1644.83,1649.5 1641.17,1649.5 1637.5,1649.5C 1637.93,1629.46 1637.43,1609.46 1636,1589.5C 1633.6,1581.63 1628.26,1577.96 1620,1578.5C 1610.42,1578.79 1604.08,1583.46 1601,1592.5C 1599.55,1611.45 1599.05,1630.45 1599.5,1649.5C 1595.83,1649.5 1592.17,1649.5 1588.5,1649.5C 1588.67,1629.5 1588.5,1609.5 1588,1589.5C 1585.6,1581.63 1580.26,1577.96 1572,1578.5C 1562.95,1578.86 1556.62,1583.19 1553,1591.5C 1551.55,1610.78 1551.05,1630.11 1551.5,1649.5C 1547.83,1649.5 1544.17,1649.5 1540.5,1649.5C 1540.5,1622.83 1540.5,1596.17 1540.5,1569.5C 1544.17,1569.5 1547.83,1569.5 1551.5,1569.5C 1551.34,1572.52 1551.5,1575.52 1552,1578.5C 1557,1572.09 1563.5,1568.42 1571.5,1567.5 Z"/></g>
<g><path style="opacity:0.915" fill="#7f807f" d="M 1709.5,1567.5 C 1730.74,1568.24 1741.91,1579.24 1743,1600.5C 1744.1,1611.7 1743.1,1622.7 1740,1633.5C 1731.42,1648.36 1718.58,1653.86 1701.5,1650C 1696.22,1648.38 1691.72,1645.55 1688,1641.5C 1687.5,1654.83 1687.33,1668.16 1687.5,1681.5C 1683.83,1681.5 1680.17,1681.5 1676.5,1681.5C 1676.5,1644.17 1676.5,1606.83 1676.5,1569.5C 1680.17,1569.5 1683.83,1569.5 1687.5,1569.5C 1687.34,1572.52 1687.5,1575.52 1688,1578.5C 1693.84,1572 1701.01,1568.33 1709.5,1567.5 Z M 1704.5,1578.5 C 1718.03,1576.34 1726.86,1581.67 1731,1594.5C 1733.13,1605.57 1732.79,1616.57 1730,1627.5C 1724.29,1639.11 1715.12,1643.27 1702.5,1640C 1694.53,1637.7 1689.69,1632.53 1688,1624.5C 1687.1,1613.77 1687.43,1603.11 1689,1592.5C 1692.49,1585.83 1697.66,1581.17 1704.5,1578.5 Z"/></g>
<g><path style="opacity:0.911" fill="#7f807f" d="M 1954.5,1567.5 C 1971.42,1567.37 1982.25,1575.37 1987,1591.5C 1988.25,1598.78 1988.75,1606.11 1988.5,1613.5C 1970.5,1613.5 1952.5,1613.5 1934.5,1613.5C 1935.71,1636.95 1947.71,1645.45 1970.5,1639C 1974.17,1637.17 1977.83,1635.33 1981.5,1633.5C 1983.65,1635.79 1985.32,1638.46 1986.5,1641.5C 1974.89,1650.05 1961.89,1652.88 1947.5,1650C 1934.11,1646.61 1926.28,1638.11 1924,1624.5C 1923.33,1614.17 1923.33,1603.83 1924,1593.5C 1927.97,1577.36 1938.13,1568.69 1954.5,1567.5 Z M 1953.5,1577.5 C 1970.06,1578.06 1978.06,1586.73 1977.5,1603.5C 1963.17,1603.5 1948.83,1603.5 1934.5,1603.5C 1933.75,1593.51 1937.41,1585.68 1945.5,1580C 1948.31,1579.22 1950.98,1578.38 1953.5,1577.5 Z"/></g>
<g><path style="opacity:0.914" fill="#7f807f" d="M 2045.5,1567.5 C 2049.14,1568.08 2052.81,1568.58 2056.5,1569C 2058.28,1570.07 2058.78,1571.57 2058,1573.5C 2057.36,1575.76 2056.52,1577.93 2055.5,1580C 2038.31,1576.54 2028.15,1583.37 2025,1600.5C 2024.5,1616.83 2024.33,1633.16 2024.5,1649.5C 2020.83,1649.5 2017.17,1649.5 2013.5,1649.5C 2013.5,1622.83 2013.5,1596.17 2013.5,1569.5C 2017.17,1569.5 2020.83,1569.5 2024.5,1569.5C 2024.33,1573.18 2024.5,1576.85 2025,1580.5C 2029.76,1572.71 2036.59,1568.38 2045.5,1567.5 Z"/></g>
<g><path style="opacity:0.929" fill="#7f807f" d="M 764.5,1569.5 C 768.167,1569.5 771.833,1569.5 775.5,1569.5C 775.5,1596.17 775.5,1622.83 775.5,1649.5C 771.833,1649.5 768.167,1649.5 764.5,1649.5C 764.5,1622.83 764.5,1596.17 764.5,1569.5 Z"/></g>
<g><path style="opacity:0.91" fill="#7f807f" d="M 795.5,1569.5 C 799.555,1569.18 803.555,1569.51 807.5,1570.5C 815.038,1592.61 822.871,1614.61 831,1636.5C 838.599,1614.54 846.099,1592.54 853.5,1570.5C 857.5,1569.17 861.5,1569.17 865.5,1570.5C 855.761,1596.72 846.428,1623.05 837.5,1649.5C 832.901,1649.8 828.401,1649.47 824,1648.5C 814.197,1622.26 804.697,1595.92 795.5,1569.5 Z"/></g>
<g><path style="opacity:0.929" fill="#7f807f" d="M 1119.5,1569.5 C 1123.17,1569.5 1126.83,1569.5 1130.5,1569.5C 1130.5,1596.17 1130.5,1622.83 1130.5,1649.5C 1126.83,1649.5 1123.17,1649.5 1119.5,1649.5C 1119.5,1622.83 1119.5,1596.17 1119.5,1569.5 Z"/></g>
<g><path style="opacity:0.909" fill="#7f807f" d="M 1215.5,1569.5 C 1219.5,1569.5 1223.5,1569.5 1227.5,1569.5C 1234.63,1591.73 1242.47,1613.73 1251,1635.5C 1258.83,1613.83 1266.67,1592.17 1274.5,1570.5C 1278.11,1569.51 1281.77,1569.18 1285.5,1569.5C 1272.5,1606.99 1259,1644.32 1245,1681.5C 1244.44,1682.02 1243.77,1682.36 1243,1682.5C 1240.89,1681.53 1238.72,1680.69 1236.5,1680C 1235.98,1679.44 1235.64,1678.77 1235.5,1678C 1238.14,1669.76 1240.97,1661.59 1244,1653.5C 1244.67,1651.5 1244.67,1649.5 1244,1647.5C 1234.21,1621.59 1224.71,1595.59 1215.5,1569.5 Z"/></g>
<g><path style="opacity:0.923" fill="#7f807f" d="M 1769.5,1569.5 C 1773.17,1569.5 1776.83,1569.5 1780.5,1569.5C 1780.33,1589.17 1780.5,1608.84 1781,1628.5C 1783.59,1637.06 1789.43,1641.06 1798.5,1640.5C 1809.95,1640.03 1817.45,1634.36 1821,1623.5C 1821.5,1605.5 1821.67,1587.5 1821.5,1569.5C 1825.17,1569.5 1828.83,1569.5 1832.5,1569.5C 1832.5,1596.17 1832.5,1622.83 1832.5,1649.5C 1828.83,1649.5 1825.17,1649.5 1821.5,1649.5C 1821.66,1646.48 1821.5,1643.48 1821,1640.5C 1814.74,1647.96 1806.74,1651.3 1797,1650.5C 1782.99,1651.14 1773.99,1644.81 1770,1631.5C 1769.5,1610.84 1769.33,1590.17 1769.5,1569.5 Z"/></g>
<g><path style="opacity:0.923" fill="#7f807f" d="M 2264.5,1569.5 C 2268.17,1569.5 2271.83,1569.5 2275.5,1569.5C 2275.33,1589.17 2275.5,1608.84 2276,1628.5C 2278.59,1637.06 2284.43,1641.06 2293.5,1640.5C 2304.95,1640.03 2312.45,1634.36 2316,1623.5C 2316.5,1605.5 2316.67,1587.5 2316.5,1569.5C 2320.17,1569.5 2323.83,1569.5 2327.5,1569.5C 2327.5,1596.17 2327.5,1622.83 2327.5,1649.5C 2323.83,1649.5 2320.17,1649.5 2316.5,1649.5C 2316.66,1646.48 2316.5,1643.48 2316,1640.5C 2309.74,1647.96 2301.74,1651.3 2292,1650.5C 2277.99,1651.14 2268.99,1644.81 2265,1631.5C 2264.5,1610.84 2264.33,1590.17 2264.5,1569.5 Z"/></g>
</svg>
