<?xml version="1.0" encoding="UTF-8"?>
<!DOCTYPE svg PUBLIC "-//W3C//DTD SVG 1.1//EN" "http://www.w3.org/Graphics/SVG/1.1/DTD/svg11.dtd">
<svg xmlns="http://www.w3.org/2000/svg" version="1.1" width="8250px" height="8250px" style="shape-rendering:geometricPrecision; text-rendering:geometricPrecision; image-rendering:optimizeQuality; fill-rule:evenodd; clip-rule:evenodd" xmlns:xlink="http://www.w3.org/1999/xlink">
<g><path style="opacity:1" fill="#c3201f" d="M 3674.5,7620.5 C 3834.96,7334.52 3956.46,7032.52 4039,6714.5C 4059.52,6635.09 4079.35,6555.76 4098.5,6476.5C 4016.87,6479.22 3935.21,6481.72 3853.5,6484C 3377.94,6488.86 2934.27,6373.2 2522.5,6137C 2110.06,5894.89 1786.89,5565.39 1553,5148.5C 1328.26,4738.21 1220.93,4298.88 1231,3830.5C 1246.82,3318.05 1399.16,2851.39 1688,2430.5C 1911.52,2109.95 2191.35,1851.12 2527.5,1654C 2603.94,1609.61 2682.61,1569.11 2763.5,1532.5C 2778.48,1410.29 2798.98,1288.96 2825,1168.5C 2856.82,1024.03 2902.82,884.362 2963,749.5C 2998.64,671.176 3040.64,596.843 3089,526.5C 3114.69,489.8 3143.02,455.134 3174,422.5C 3229.07,364.439 3293.23,319.272 3366.5,287C 3450.73,251.953 3536.73,246.953 3624.5,272C 3686.42,292.78 3742.09,324.114 3791.5,366C 3808.83,381.333 3826.17,396.667 3843.5,412C 3894.22,446.71 3947.56,477.377 4003.5,504C 4073.02,536.177 4143.52,566.01 4215,593.5C 4374.38,549.519 4536.55,521.352 4701.5,509C 4834.25,498.237 4966.92,499.237 5099.5,512C 5341.86,532.549 5575.69,588.382 5801,679.5C 5810.65,671.179 5819.65,662.179 5828,652.5C 5851.19,620.309 5875.52,588.975 5901,558.5C 5993,452.05 6108.5,411.55 6247.5,437C 6285.69,446.593 6322.02,460.926 6356.5,480C 6416.63,513.426 6470.46,555.259 6518,605.5C 6575.06,667.219 6624.39,734.552 6666,807.5C 6716.94,898.384 6762.27,992.051 6802,1088.5C 6852.88,1207.13 6892.54,1329.46 6921,1455.5C 6931.82,1506.39 6939.82,1557.73 6945,1609.5C 7094.02,1833.94 7203.36,2076.94 7273,2338.5C 7403.9,2842.43 7380.57,3339.09 7203,3828.5C 7061.65,4213.88 6838.48,4543.05 6533.5,4816C 6414.36,4921.48 6286.53,5014.98 6150,5096.5C 6079.76,5245.37 6000.09,5388.37 5911,5525.5C 5780.1,5725.44 5635.77,5915.44 5478,6095.5C 5326.25,6267.59 5166.42,6432.43 4998.5,6590C 4805.93,6768.95 4606.6,6939.28 4400.5,7101C 4165.85,7284.5 3923.85,7457.66 3674.5,7620.5 Z"/></g>
<g><path style="opacity:1" fill="#fefefe" d="M 3510.5,620.5 C 3516.35,620.151 3522.01,620.984 3527.5,623C 3534.83,627.333 3542.17,631.667 3549.5,636C 3585.25,666.423 3621.59,696.09 3658.5,725C 3702.02,755.276 3747.69,782.276 3795.5,806C 3871.66,842.748 3948.99,876.748 4027.5,908C 4058.47,945.161 4097.8,968.495 4145.5,978C 4165.63,980.471 4185.63,979.805 4205.5,976C 4335.46,933.343 4468.13,902.009 4603.5,882C 4794.92,859.417 4986.25,860.084 5177.5,884C 5374.01,913.965 5563.34,968.631 5745.5,1048C 5810.69,1077.16 5872.02,1070.83 5929.5,1029C 5934.5,1024.67 5939.5,1020.33 5944.5,1016C 6000.5,988.672 6049,951.505 6090,904.5C 6112.15,877.349 6133.15,849.349 6153,820.5C 6161,811.833 6169,803.167 6177,794.5C 6189.88,801.358 6202.38,808.858 6214.5,817C 6248.36,847.176 6278.19,880.676 6304,917.5C 6379.99,1032.81 6442.32,1155.47 6491,1285.5C 6527.12,1380.54 6555.12,1477.87 6575,1577.5C 6582.85,1615.48 6586.18,1653.81 6585,1692.5C 6587.35,1714.57 6594.02,1735.24 6605,1754.5C 6692.48,1880.07 6767.15,2013.4 6829,2154.5C 6898.69,2325.6 6947.36,2502.6 6975,2685.5C 6996.47,2863.3 6998.14,3041.3 6980,3219.5C 6954.35,3423.08 6902.01,3619.41 6823,3808.5C 6744.51,3984.96 6645.84,4148.3 6527,4298.5C 6421.95,4425.55 6305.12,4540.38 6176.5,4643C 6030.24,4753.35 5872.57,4845.68 5703.5,4920C 5531.45,4990.15 5353.45,5038.82 5169.5,5066C 4976.13,5089.62 4782.79,5089.28 4589.5,5065C 4410.93,5037.77 4237.93,4990.44 4070.5,4923C 3900.35,4848.98 3741.69,4756.64 3594.5,4646C 3452.33,4533.17 3324.83,4405.67 3212,4263.5C 3092.06,4104.72 2994.39,3932.38 2919,3746.5C 2857.37,3584.32 2814.37,3417.32 2790,3245.5C 2768.7,3059.41 2769.37,2873.41 2792,2687.5C 2819.31,2506.6 2866.98,2331.26 2935,2161.5C 2957.33,2110.17 2981.33,2059.5 3007,2009.5C 3029.25,1971.33 3051.25,1933 3073,1894.5C 3083.99,1873.86 3093.32,1852.53 3101,1830.5C 3105.16,1813.4 3107.82,1796.07 3109,1778.5C 3116.8,1520.68 3161.8,1269.68 3244,1025.5C 3283.2,910.093 3337.87,803.093 3408,704.5C 3426.47,682.367 3446.63,661.867 3468.5,643C 3481.59,633.626 3495.59,626.126 3510.5,620.5 Z"/></g>
<g><path style="opacity:1" fill="#c3201f" d="M 4508.5,2447.5 C 4610.28,2447.29 4687.45,2490.29 4740,2576.5C 4757.38,2607.65 4767.72,2640.99 4771,2676.5C 4771.67,2852.17 4771.67,3027.83 4771,3203.5C 4758.73,3297.95 4710.23,3366.45 4625.5,3409C 4562.9,3435.98 4499.23,3438.65 4434.5,3417C 4341.9,3379.39 4287.4,3311.23 4271,3212.5C 4270,3203.53 4269.33,3194.53 4269,3185.5C 4268.33,3017.83 4268.33,2850.17 4269,2682.5C 4279.36,2586.52 4327.2,2516.35 4412.5,2472C 4443.15,2458.04 4475.15,2449.88 4508.5,2447.5 Z"/></g>
<g><path style="opacity:1" fill="#c3201f" d="M 6336.5,2447.5 C 6423.13,2449.4 6492.3,2484.73 6544,2553.5C 6570.78,2591.17 6586.12,2633.17 6590,2679.5C 6590.67,2853.17 6590.67,3026.83 6590,3200.5C 6579.41,3292.69 6533.57,3360.86 6452.5,3405C 6385.56,3436.66 6317.23,3439.99 6247.5,3415C 6163.63,3379.12 6111.79,3316.62 6092,3227.5C 6090.34,3217.54 6089.01,3207.54 6088,3197.5C 6087.33,3024.83 6087.33,2852.17 6088,2679.5C 6099.38,2583.84 6147.88,2514.34 6233.5,2471C 6266.4,2456.3 6300.74,2448.47 6336.5,2447.5 Z"/></g>
<g><path style="opacity:1" fill="#dc8280" d="M 3674.5,7620.5 C 3673.83,7621.17 3673.83,7621.17 3674.5,7620.5 Z"/></g>
</svg>
