<svg width="11" height="18" viewBox="0 0 11 18" fill="none" xmlns="http://www.w3.org/2000/svg">
<path d="M1.2011 7.60578C1.50844 7.60578 1.81579 7.72303 2.05028 7.95752L9.65607 15.5633C10.1251 16.0323 10.1251 16.7927 9.65607 17.2617C9.18709 17.7306 8.42671 17.7306 7.95772 17.2617L0.351928 9.65587C-0.117057 9.18688 -0.117057 8.4265 0.351928 7.95752C0.586421 7.72303 0.893763 7.60578 1.2011 7.60578Z" fill="black"/>
<path d="M8.8069 -5.62668e-05C9.11424 -5.62668e-05 9.42158 0.117191 9.65607 0.351684C10.1251 0.820668 10.1251 1.58105 9.65607 2.05003L2.05028 9.65583C1.58129 10.1248 0.820912 10.1248 0.351928 9.65583C-0.117057 9.18684 -0.117057 8.42646 0.351928 7.95748L7.95772 0.351684C8.19222 0.117191 8.49956 -5.62668e-05 8.8069 -5.62668e-05Z" fill="black"/>
</svg>
