<svg id="그룹_5" data-name="그룹 5" xmlns="http://www.w3.org/2000/svg" width="22.479" height="21.53" viewBox="0 0 22.479 21.53">
    <path id="타원_2" data-name="타원 2" d="M9.023,3.483a5.541,5.541,0,1,0,5.541,5.541A5.547,5.547,0,0,0,9.023,3.483M9.023,0A9.023,9.023,0,1,1,0,9.023,9.023,9.023,0,0,1,9.023,0Z" transform="translate(4.433)" fill="#212121" />        <path id="선_2" data-name="선 2" d="M-3.759,4a1.736,1.736,0,0,1-1.231-.51,1.741,1.741,0,0,1,0-2.463L1.026-4.99a1.741,1.741,0,0,1,2.463,0,1.741,1.741,0,0,1,0,2.463L-2.527,3.488A1.736,1.736,0,0,1-3.759,4Z" transform="translate(5.5 17.531)" fill="#212121" />
</svg>
